<?xml version="1.0" encoding="UTF-8" standalone="no"?><svg xmlns="http://www.w3.org/2000/svg" xmlns:xlink="http://www.w3.org/1999/xlink" clip-rule="evenodd" stroke-miterlimit="10" viewBox="0 0 1024 768"><desc>SVG generated by Keynote</desc><defs></defs><g transform="matrix(1.00, 0.00, -0.00, -1.00, 0.0, 768.0)"><g><clipPath id="clip0x6080006b6440"><path d="M 0.0 768.0 L 1024.0 768.0 L 1024.0 0.0 L 0.0 0.0 Z M 0.0 768.0 "></path></clipPath><g clip-path="url(#clip0x6080006b6440)"><image xlink:href="527288347077A8BC66C9A53B775387A8.jpeg" width="2048.00" height="1536.00" transform="matrix(0.50, 0.00, -0.00, -0.50, 0.0, 768.0)"></image></g></g><g><clipPath id="clip0x6080006b55a0"><path d="M 541.0 549.0 L 957.0 549.0 L 957.0 62.0 L 541.0 62.0 Z M 541.0 549.0 "></path></clipPath><g clip-path="url(#clip0x6080006b55a0)"><image xlink:href="E84451ED9AB7AF4599D5DB3D8426D983.png" width="604.00" height="331.00" transform="matrix(1.47, 0.00, -0.00, -1.47, 449.7, 549.0)"></image></g></g><text xml:space="preserve" font-family="GillSans-Light,Gill Sans" font-size="72.0" fill="#525252" transform="matrix(1.00, 0.00, -0.00, -1.00, 49.0, 628.2)">S</text><text xml:space="preserve" font-family="GillSans-Light,Gill Sans" font-size="72.0" fill="#525252" transform="matrix(1.00, 0.00, -0.00, -1.00, 82.8, 628.2)">C</text><text xml:space="preserve" font-family="GillSans-Light,Gill Sans" font-size="72.0" fill="#525252" transform="matrix(1.00, 0.00, -0.00, -1.00, 131.5, 628.2)">I</text><text xml:space="preserve" font-family="GillSans-Light,Gill Sans" font-size="72.0" fill="#525252" transform="matrix(1.00, 0.00, -0.00, -1.00, 146.4, 628.2)">E</text><text xml:space="preserve" font-family="GillSans-Light,Gill Sans" font-size="72.0" fill="#525252" transform="matrix(1.00, 0.00, -0.00, -1.00, 181.8, 628.2)">N</text><text xml:space="preserve" font-family="GillSans-Light,Gill Sans" font-size="72.0" fill="#525252" transform="matrix(1.00, 0.00, -0.00, -1.00, 237.3, 628.2)">C</text><text xml:space="preserve" font-family="GillSans-Light,Gill Sans" font-size="72.0" fill="#525252" transform="matrix(1.00, 0.00, -0.00, -1.00, 286.0, 628.2)">E</text><text xml:space="preserve" font-family="GillSans-Light,Gill Sans" font-size="72.0" fill="#525252" transform="matrix(1.00, 0.00, -0.00, -1.00, 321.3, 628.2)"> </text><text xml:space="preserve" font-family="GillSans-Light,Gill Sans" font-size="72.0" fill="#525252" transform="matrix(1.00, 0.00, -0.00, -1.00, 341.3, 628.2)">O</text><text xml:space="preserve" font-family="GillSans-Light,Gill Sans" font-size="72.0" fill="#525252" transform="matrix(1.00, 0.00, -0.00, -1.00, 400.6, 628.2)">F</text><text xml:space="preserve" font-family="GillSans-Light,Gill Sans" font-size="72.0" fill="#525252" transform="matrix(1.00, 0.00, -0.00, -1.00, 432.1, 628.2)"> </text><text xml:space="preserve" font-family="GillSans-Light,Gill Sans" font-size="72.0" fill="#525252" transform="matrix(1.00, 0.00, -0.00, -1.00, 452.1, 628.2)">S</text><text xml:space="preserve" font-family="GillSans-Light,Gill Sans" font-size="72.0" fill="#525252" transform="matrix(1.00, 0.00, -0.00, -1.00, 485.9, 628.2)">O</text><text xml:space="preserve" font-family="GillSans-Light,Gill Sans" font-size="72.0" fill="#525252" transform="matrix(1.00, 0.00, -0.00, -1.00, 545.2, 628.2)">U</text><text xml:space="preserve" font-family="GillSans-Light,Gill Sans" font-size="72.0" fill="#525252" transform="matrix(1.00, 0.00, -0.00, -1.00, 595.5, 628.2)">N</text><text xml:space="preserve" font-family="GillSans-Light,Gill Sans" font-size="72.0" fill="#525252" transform="matrix(1.00, 0.00, -0.00, -1.00, 651.0, 628.2)">D</text><text xml:space="preserve" font-family="GillSans-Light,Gill Sans" font-size="72.0" fill="#525252" transform="matrix(1.00, 0.00, -0.00, -1.00, 704.3, 628.2)">:</text><text xml:space="preserve" font-family="GillSans-Light,Gill Sans" font-size="72.0" fill="#525252" transform="matrix(1.00, 0.00, -0.00, -1.00, 711.2, 628.2)"> </text><text xml:space="preserve" font-family="GillSans-Light,Gill Sans" font-size="72.0" fill="#525252" transform="matrix(1.00, 0.00, -0.00, -1.00, 731.2, 628.2)">R</text><text xml:space="preserve" font-family="GillSans-Light,Gill Sans" font-size="72.0" fill="#525252" transform="matrix(1.00, 0.00, -0.00, -1.00, 772.5, 628.2)">E</text><text xml:space="preserve" font-family="GillSans-Light,Gill Sans" font-size="72.0" fill="#525252" transform="matrix(1.00, 0.00, -0.00, -1.00, 807.8, 628.2)">V</text><text xml:space="preserve" font-family="GillSans-Light,Gill Sans" font-size="72.0" fill="#525252" transform="matrix(1.00, 0.00, -0.00, -1.00, 850.6, 628.2)">I</text><text xml:space="preserve" font-family="GillSans-Light,Gill Sans" font-size="72.0" fill="#525252" transform="matrix(1.00, 0.00, -0.00, -1.00, 865.6, 628.2)">E</text><text xml:space="preserve" font-family="GillSans-Light,Gill Sans" font-size="72.0" fill="#525252" transform="matrix(1.00, 0.00, -0.00, -1.00, 900.9, 628.2)">W</text><text xml:space="preserve" font-family="GillSans-Light,Gill Sans" font-size="31.2" fill="#525252" transform="matrix(1.00, 0.00, -0.00, -1.00, 32.0, 421.4)">•</text><text xml:space="preserve" font-family="GillSans-Light,Gill Sans" font-size="38.0" fill="#525252" transform="matrix(1.00, 0.00, -0.00, -1.00, 66.0, 419.1)">S</text><text xml:space="preserve" font-family="GillSans-Light,Gill Sans" font-size="38.0" fill="#525252" transform="matrix(1.00, 0.00, -0.00, -1.00, 83.8, 419.1)">o</text><text xml:space="preserve" font-family="GillSans-Light,Gill Sans" font-size="38.0" fill="#525252" transform="matrix(1.00, 0.00, -0.00, -1.00, 104.4, 419.1)">u</text><text xml:space="preserve" font-family="GillSans-Light,Gill Sans" font-size="38.0" fill="#525252" transform="matrix(1.00, 0.00, -0.00, -1.00, 123.1, 419.1)">n</text><text xml:space="preserve" font-family="GillSans-Light,Gill Sans" font-size="38.0" fill="#525252" transform="matrix(1.00, 0.00, -0.00, -1.00, 141.7, 419.1)">d</text><text xml:space="preserve" font-family="GillSans-Light,Gill Sans" font-size="38.0" fill="#525252" transform="matrix(1.00, 0.00, -0.00, -1.00, 161.1, 419.1)"> </text><text xml:space="preserve" font-family="GillSans-Light,Gill Sans" font-size="38.0" fill="#525252" transform="matrix(1.00, 0.00, -0.00, -1.00, 171.6, 419.1)">i</text><text xml:space="preserve" font-family="GillSans-Light,Gill Sans" font-size="38.0" fill="#525252" transform="matrix(1.00, 0.00, -0.00, -1.00, 178.8, 419.1)">s</text><text xml:space="preserve" font-family="GillSans-Light,Gill Sans" font-size="38.0" fill="#525252" transform="matrix(1.00, 0.00, -0.00, -1.00, 192.2, 419.1)"> </text><text xml:space="preserve" font-family="GillSans-Light,Gill Sans" font-size="38.0" fill="#525252" transform="matrix(1.00, 0.00, -0.00, -1.00, 202.8, 419.1)">a</text><text xml:space="preserve" font-family="GillSans-Light,Gill Sans" font-size="38.0" fill="#525252" transform="matrix(1.00, 0.00, -0.00, -1.00, 219.0, 419.1)">n</text><text xml:space="preserve" font-family="GillSans-Light,Gill Sans" font-size="38.0" fill="#525252" transform="matrix(1.00, 0.00, -0.00, -1.00, 237.6, 419.1)"> </text><text xml:space="preserve" font-family="GillSans-Light,Gill Sans" font-size="38.0" fill="#525252" transform="matrix(1.00, 0.00, -0.00, -1.00, 248.2, 419.1)">a</text><text xml:space="preserve" font-family="GillSans-Light,Gill Sans" font-size="38.0" fill="#525252" transform="matrix(1.00, 0.00, -0.00, -1.00, 264.4, 419.1)">l</text><text xml:space="preserve" font-family="GillSans-Light,Gill Sans" font-size="38.0" fill="#525252" transform="matrix(1.00, 0.00, -0.00, -1.00, 271.5, 419.1)">t</text><text xml:space="preserve" font-family="GillSans-Light,Gill Sans" font-size="38.0" fill="#525252" transform="matrix(1.00, 0.00, -0.00, -1.00, 283.0, 419.1)">e</text><text xml:space="preserve" font-family="GillSans-Light,Gill Sans" font-size="38.0" fill="#525252" transform="matrix(1.00, 0.00, -0.00, -1.00, 301.2, 419.1)">r</text><text xml:space="preserve" font-family="GillSans-Light,Gill Sans" font-size="38.0" fill="#525252" transform="matrix(1.00, 0.00, -0.00, -1.00, 314.8, 419.1)">n</text><text xml:space="preserve" font-family="GillSans-Light,Gill Sans" font-size="38.0" fill="#525252" transform="matrix(1.00, 0.00, -0.00, -1.00, 333.4, 419.1)">a</text><text xml:space="preserve" font-family="GillSans-Light,Gill Sans" font-size="38.0" fill="#525252" transform="matrix(1.00, 0.00, -0.00, -1.00, 349.6, 419.1)">t</text><text xml:space="preserve" font-family="GillSans-Light,Gill Sans" font-size="38.0" fill="#525252" transform="matrix(1.00, 0.00, -0.00, -1.00, 361.1, 419.1)">i</text><text xml:space="preserve" font-family="GillSans-Light,Gill Sans" font-size="38.0" fill="#525252" transform="matrix(1.00, 0.00, -0.00, -1.00, 368.2, 419.1)">n</text><text xml:space="preserve" font-family="GillSans-Light,Gill Sans" font-size="38.0" fill="#525252" transform="matrix(1.00, 0.00, -0.00, -1.00, 386.9, 419.1)">g</text><text xml:space="preserve" font-family="GillSans-Light,Gill Sans" font-size="38.0" fill="#525252" transform="matrix(1.00, 0.00, -0.00, -1.00, 403.1, 419.1)"> </text><text xml:space="preserve" font-family="GillSans-Light,Gill Sans" font-size="38.0" fill="#525252" transform="matrix(1.00, 0.00, -0.00, -1.00, 66.0, 376.1)">p</text><text xml:space="preserve" font-family="GillSans-Light,Gill Sans" font-size="38.0" fill="#525252" transform="matrix(1.00, 0.00, -0.00, -1.00, 85.4, 376.1)">r</text><text xml:space="preserve" font-family="GillSans-Light,Gill Sans" font-size="38.0" fill="#525252" transform="matrix(1.00, 0.00, -0.00, -1.00, 98.0, 376.1)">e</text><text xml:space="preserve" font-family="GillSans-Light,Gill Sans" font-size="38.0" fill="#525252" transform="matrix(1.00, 0.00, -0.00, -1.00, 116.2, 376.1)">s</text><text xml:space="preserve" font-family="GillSans-Light,Gill Sans" font-size="38.0" fill="#525252" transform="matrix(1.00, 0.00, -0.00, -1.00, 129.7, 376.1)">s</text><text xml:space="preserve" font-family="GillSans-Light,Gill Sans" font-size="38.0" fill="#525252" transform="matrix(1.00, 0.00, -0.00, -1.00, 143.1, 376.1)">u</text><text xml:space="preserve" font-family="GillSans-Light,Gill Sans" font-size="38.0" fill="#525252" transform="matrix(1.00, 0.00, -0.00, -1.00, 161.8, 376.1)">r</text><text xml:space="preserve" font-family="GillSans-Light,Gill Sans" font-size="38.0" fill="#525252" transform="matrix(1.00, 0.00, -0.00, -1.00, 174.4, 376.1)">e</text><text xml:space="preserve" font-family="GillSans-Light,Gill Sans" font-size="38.0" fill="#525252" transform="matrix(1.00, 0.00, -0.00, -1.00, 192.6, 376.1)"> </text><text xml:space="preserve" font-family="GillSans-Light,Gill Sans" font-size="38.0" fill="#525252" transform="matrix(1.00, 0.00, -0.00, -1.00, 203.2, 376.1)">w</text><text xml:space="preserve" font-family="GillSans-Light,Gill Sans" font-size="38.0" fill="#525252" transform="matrix(1.00, 0.00, -0.00, -1.00, 230.1, 376.1)">a</text><text xml:space="preserve" font-family="GillSans-Light,Gill Sans" font-size="38.0" fill="#525252" transform="matrix(1.00, 0.00, -0.00, -1.00, 245.3, 376.1)">v</text><text xml:space="preserve" font-family="GillSans-Light,Gill Sans" font-size="38.0" fill="#525252" transform="matrix(1.00, 0.00, -0.00, -1.00, 261.0, 376.1)">e</text><text xml:space="preserve" font-family="GillSans-Light,Gill Sans" font-size="38.0" fill="#525252" transform="matrix(1.00, 0.00, -0.00, -1.00, 279.2, 376.1)"> </text><text xml:space="preserve" font-family="GillSans-Light,Gill Sans" font-size="38.0" fill="#525252" transform="matrix(1.00, 0.00, -0.00, -1.00, 289.7, 376.1)">i</text><text xml:space="preserve" font-family="GillSans-Light,Gill Sans" font-size="38.0" fill="#525252" transform="matrix(1.00, 0.00, -0.00, -1.00, 296.9, 376.1)">n</text><text xml:space="preserve" font-family="GillSans-Light,Gill Sans" font-size="38.0" fill="#525252" transform="matrix(1.00, 0.00, -0.00, -1.00, 315.5, 376.1)"> </text><text xml:space="preserve" font-family="GillSans-Light,Gill Sans" font-size="38.0" fill="#525252" transform="matrix(1.00, 0.00, -0.00, -1.00, 326.0, 376.1)">a</text><text xml:space="preserve" font-family="GillSans-Light,Gill Sans" font-size="38.0" fill="#525252" transform="matrix(1.00, 0.00, -0.00, -1.00, 342.3, 376.1)">i</text><text xml:space="preserve" font-family="GillSans-Light,Gill Sans" font-size="38.0" fill="#525252" transform="matrix(1.00, 0.00, -0.00, -1.00, 349.4, 376.1)">r</text><text xml:space="preserve" font-family="GillSans-Light,Gill Sans" font-size="38.0" fill="#525252" transform="matrix(1.00, 0.00, -0.00, -1.00, 362.1, 376.1)">	</text><text xml:space="preserve" font-family="GillSans-Light,Gill Sans" font-size="38.0" fill="#525252" transform="matrix(1.00, 0.00, -0.00, -1.00, 390.1, 376.1)">
</text><text xml:space="preserve" font-family="GillSans-Light,Gill Sans" font-size="38.0" fill="#525252" transform="matrix(1.00, 0.00, -0.00, -1.00, 390.1, 376.1)"></text><text xml:space="preserve" font-family="GillSans-Light,Gill Sans" font-size="31.2" fill="#525252" transform="matrix(1.00, 0.00, -0.00, -1.00, 32.0, 297.4)">•</text><text xml:space="preserve" font-family="GillSans-Light,Gill Sans" font-size="38.0" fill="#525252" transform="matrix(1.00, 0.00, -0.00, -1.00, 66.0, 295.1)">A</text><text xml:space="preserve" font-family="GillSans-Light,Gill Sans" font-size="38.0" fill="#525252" transform="matrix(1.00, 0.00, -0.00, -1.00, 91.3, 295.1)">l</text><text xml:space="preserve" font-family="GillSans-Light,Gill Sans" font-size="38.0" fill="#525252" transform="matrix(1.00, 0.00, -0.00, -1.00, 98.5, 295.1)">t</text><text xml:space="preserve" font-family="GillSans-Light,Gill Sans" font-size="38.0" fill="#525252" transform="matrix(1.00, 0.00, -0.00, -1.00, 109.9, 295.1)">e</text><text xml:space="preserve" font-family="GillSans-Light,Gill Sans" font-size="38.0" fill="#525252" transform="matrix(1.00, 0.00, -0.00, -1.00, 128.2, 295.1)">r</text><text xml:space="preserve" font-family="GillSans-Light,Gill Sans" font-size="38.0" fill="#525252" transform="matrix(1.00, 0.00, -0.00, -1.00, 141.8, 295.1)">n</text><text xml:space="preserve" font-family="GillSans-Light,Gill Sans" font-size="38.0" fill="#525252" transform="matrix(1.00, 0.00, -0.00, -1.00, 160.4, 295.1)">a</text><text xml:space="preserve" font-family="GillSans-Light,Gill Sans" font-size="38.0" fill="#525252" transform="matrix(1.00, 0.00, -0.00, -1.00, 176.6, 295.1)">t</text><text xml:space="preserve" font-family="GillSans-Light,Gill Sans" font-size="38.0" fill="#525252" transform="matrix(1.00, 0.00, -0.00, -1.00, 188.1, 295.1)">e</text><text xml:space="preserve" font-family="GillSans-Light,Gill Sans" font-size="38.0" fill="#525252" transform="matrix(1.00, 0.00, -0.00, -1.00, 206.3, 295.1)"> </text><text xml:space="preserve" font-family="GillSans-Light,Gill Sans" font-size="38.0" fill="#525252" transform="matrix(1.00, 0.00, -0.00, -1.00, 216.8, 295.1)">a</text><text xml:space="preserve" font-family="GillSans-Light,Gill Sans" font-size="38.0" fill="#525252" transform="matrix(1.00, 0.00, -0.00, -1.00, 233.0, 295.1)">r</text><text xml:space="preserve" font-family="GillSans-Light,Gill Sans" font-size="38.0" fill="#525252" transform="matrix(1.00, 0.00, -0.00, -1.00, 245.7, 295.1)">e</text><text xml:space="preserve" font-family="GillSans-Light,Gill Sans" font-size="38.0" fill="#525252" transform="matrix(1.00, 0.00, -0.00, -1.00, 263.9, 295.1)">a</text><text xml:space="preserve" font-family="GillSans-Light,Gill Sans" font-size="38.0" fill="#525252" transform="matrix(1.00, 0.00, -0.00, -1.00, 280.1, 295.1)">s</text><text xml:space="preserve" font-family="GillSans-Light,Gill Sans" font-size="38.0" fill="#525252" transform="matrix(1.00, 0.00, -0.00, -1.00, 293.5, 295.1)"> </text><text xml:space="preserve" font-family="GillSans-Light,Gill Sans" font-size="38.0" fill="#525252" transform="matrix(1.00, 0.00, -0.00, -1.00, 304.1, 295.1)">o</text><text xml:space="preserve" font-family="GillSans-Light,Gill Sans" font-size="38.0" fill="#525252" transform="matrix(1.00, 0.00, -0.00, -1.00, 324.7, 295.1)">f</text><text xml:space="preserve" font-family="GillSans-Light,Gill Sans" font-size="38.0" fill="#525252" transform="matrix(1.00, 0.00, -0.00, -1.00, 333.8, 295.1)"> </text><text xml:space="preserve" font-family="GillSans-Light,Gill Sans" font-size="38.0" fill="#525252" transform="matrix(1.00, 0.00, -0.00, -1.00, 344.4, 295.1)">l</text><text xml:space="preserve" font-family="GillSans-Light,Gill Sans" font-size="38.0" fill="#525252" transform="matrix(1.00, 0.00, -0.00, -1.00, 351.5, 295.1)">o</text><text xml:space="preserve" font-family="GillSans-Light,Gill Sans" font-size="38.0" fill="#525252" transform="matrix(1.00, 0.00, -0.00, -1.00, 371.5, 295.1)">w</text><text xml:space="preserve" font-family="GillSans-Light,Gill Sans" font-size="38.0" fill="#525252" transform="matrix(1.00, 0.00, -0.00, -1.00, 397.9, 295.1)">e</text><text xml:space="preserve" font-family="GillSans-Light,Gill Sans" font-size="38.0" fill="#525252" transform="matrix(1.00, 0.00, -0.00, -1.00, 416.1, 295.1)">r</text><text xml:space="preserve" font-family="GillSans-Light,Gill Sans" font-size="38.0" fill="#525252" transform="matrix(1.00, 0.00, -0.00, -1.00, 428.7, 295.1)"> </text><text xml:space="preserve" font-family="GillSans-Light,Gill Sans" font-size="38.0" fill="#525252" transform="matrix(1.00, 0.00, -0.00, -1.00, 66.0, 252.1)">a</text><text xml:space="preserve" font-family="GillSans-Light,Gill Sans" font-size="38.0" fill="#525252" transform="matrix(1.00, 0.00, -0.00, -1.00, 82.2, 252.1)">n</text><text xml:space="preserve" font-family="GillSans-Light,Gill Sans" font-size="38.0" fill="#525252" transform="matrix(1.00, 0.00, -0.00, -1.00, 100.8, 252.1)">d</text><text xml:space="preserve" font-family="GillSans-Light,Gill Sans" font-size="38.0" fill="#525252" transform="matrix(1.00, 0.00, -0.00, -1.00, 120.2, 252.1)"> </text><text xml:space="preserve" font-family="GillSans-Light,Gill Sans" font-size="38.0" fill="#525252" transform="matrix(1.00, 0.00, -0.00, -1.00, 130.8, 252.1)">h</text><text xml:space="preserve" font-family="GillSans-Light,Gill Sans" font-size="38.0" fill="#525252" transform="matrix(1.00, 0.00, -0.00, -1.00, 149.4, 252.1)">i</text><text xml:space="preserve" font-family="GillSans-Light,Gill Sans" font-size="38.0" fill="#525252" transform="matrix(1.00, 0.00, -0.00, -1.00, 156.5, 252.1)">g</text><text xml:space="preserve" font-family="GillSans-Light,Gill Sans" font-size="38.0" fill="#525252" transform="matrix(1.00, 0.00, -0.00, -1.00, 172.7, 252.1)">h</text><text xml:space="preserve" font-family="GillSans-Light,Gill Sans" font-size="38.0" fill="#525252" transform="matrix(1.00, 0.00, -0.00, -1.00, 191.4, 252.1)">e</text><text xml:space="preserve" font-family="GillSans-Light,Gill Sans" font-size="38.0" fill="#525252" transform="matrix(1.00, 0.00, -0.00, -1.00, 209.6, 252.1)">r</text><text xml:space="preserve" font-family="GillSans-Light,Gill Sans" font-size="38.0" fill="#525252" transform="matrix(1.00, 0.00, -0.00, -1.00, 222.2, 252.1)"> </text><text xml:space="preserve" font-family="GillSans-Light,Gill Sans" font-size="38.0" fill="#525252" transform="matrix(1.00, 0.00, -0.00, -1.00, 232.8, 252.1)">p</text><text xml:space="preserve" font-family="GillSans-Light,Gill Sans" font-size="38.0" fill="#525252" transform="matrix(1.00, 0.00, -0.00, -1.00, 252.2, 252.1)">r</text><text xml:space="preserve" font-family="GillSans-Light,Gill Sans" font-size="38.0" fill="#525252" transform="matrix(1.00, 0.00, -0.00, -1.00, 264.8, 252.1)">e</text><text xml:space="preserve" font-family="GillSans-Light,Gill Sans" font-size="38.0" fill="#525252" transform="matrix(1.00, 0.00, -0.00, -1.00, 283.0, 252.1)">s</text><text xml:space="preserve" font-family="GillSans-Light,Gill Sans" font-size="38.0" fill="#525252" transform="matrix(1.00, 0.00, -0.00, -1.00, 296.5, 252.1)">s</text><text xml:space="preserve" font-family="GillSans-Light,Gill Sans" font-size="38.0" fill="#525252" transform="matrix(1.00, 0.00, -0.00, -1.00, 309.9, 252.1)">u</text><text xml:space="preserve" font-family="GillSans-Light,Gill Sans" font-size="38.0" fill="#525252" transform="matrix(1.00, 0.00, -0.00, -1.00, 328.6, 252.1)">r</text><text xml:space="preserve" font-family="GillSans-Light,Gill Sans" font-size="38.0" fill="#525252" transform="matrix(1.00, 0.00, -0.00, -1.00, 341.2, 252.1)">e</text><text xml:space="preserve" font-family="GillSans-Light,Gill Sans" font-size="38.0" fill="#525252" transform="matrix(1.00, 0.00, -0.00, -1.00, 359.4, 252.1)"> </text><text xml:space="preserve" font-family="GillSans-Light,Gill Sans" font-size="38.0" fill="#525252" transform="matrix(1.00, 0.00, -0.00, -1.00, 370.0, 252.1)">a</text><text xml:space="preserve" font-family="GillSans-Light,Gill Sans" font-size="38.0" fill="#525252" transform="matrix(1.00, 0.00, -0.00, -1.00, 386.2, 252.1)">r</text><text xml:space="preserve" font-family="GillSans-Light,Gill Sans" font-size="38.0" fill="#525252" transform="matrix(1.00, 0.00, -0.00, -1.00, 398.8, 252.1)">e</text><text xml:space="preserve" font-family="GillSans-Light,Gill Sans" font-size="38.0" fill="#525252" transform="matrix(1.00, 0.00, -0.00, -1.00, 417.0, 252.1)"> </text><text xml:space="preserve" font-family="GillSans-Light,Gill Sans" font-size="38.0" fill="#525252" transform="matrix(1.00, 0.00, -0.00, -1.00, 66.0, 209.1)">c</text><text xml:space="preserve" font-family="GillSans-Light,Gill Sans" font-size="38.0" fill="#525252" transform="matrix(1.00, 0.00, -0.00, -1.00, 81.8, 209.1)">a</text><text xml:space="preserve" font-family="GillSans-Light,Gill Sans" font-size="38.0" fill="#525252" transform="matrix(1.00, 0.00, -0.00, -1.00, 98.1, 209.1)">l</text><text xml:space="preserve" font-family="GillSans-Light,Gill Sans" font-size="38.0" fill="#525252" transform="matrix(1.00, 0.00, -0.00, -1.00, 105.2, 209.1)">l</text><text xml:space="preserve" font-family="GillSans-Light,Gill Sans" font-size="38.0" fill="#525252" transform="matrix(1.00, 0.00, -0.00, -1.00, 112.3, 209.1)">e</text><text xml:space="preserve" font-family="GillSans-Light,Gill Sans" font-size="38.0" fill="#525252" transform="matrix(1.00, 0.00, -0.00, -1.00, 130.5, 209.1)">d</text><text xml:space="preserve" font-family="GillSans-Light,Gill Sans" font-size="38.0" fill="#525252" transform="matrix(1.00, 0.00, -0.00, -1.00, 149.9, 209.1)"> </text><text xml:space="preserve" font-family="GillSans-Light,Gill Sans" font-size="38.0" fill="#525252" transform="matrix(1.00, 0.00, -0.00, -1.00, 160.5, 209.1)">c</text><text xml:space="preserve" font-family="GillSans-Light,Gill Sans" font-size="38.0" fill="#525252" transform="matrix(1.00, 0.00, -0.00, -1.00, 176.3, 209.1)">o</text><text xml:space="preserve" font-family="GillSans-Light,Gill Sans" font-size="38.0" fill="#525252" transform="matrix(1.00, 0.00, -0.00, -1.00, 196.9, 209.1)">m</text><text xml:space="preserve" font-family="GillSans-Light,Gill Sans" font-size="38.0" fill="#525252" transform="matrix(1.00, 0.00, -0.00, -1.00, 226.2, 209.1)">p</text><text xml:space="preserve" font-family="GillSans-Light,Gill Sans" font-size="38.0" fill="#525252" transform="matrix(1.00, 0.00, -0.00, -1.00, 245.6, 209.1)">r</text><text xml:space="preserve" font-family="GillSans-Light,Gill Sans" font-size="38.0" fill="#525252" transform="matrix(1.00, 0.00, -0.00, -1.00, 258.2, 209.1)">e</text><text xml:space="preserve" font-family="GillSans-Light,Gill Sans" font-size="38.0" fill="#525252" transform="matrix(1.00, 0.00, -0.00, -1.00, 276.4, 209.1)">s</text><text xml:space="preserve" font-family="GillSans-Light,Gill Sans" font-size="38.0" fill="#525252" transform="matrix(1.00, 0.00, -0.00, -1.00, 289.9, 209.1)">s</text><text xml:space="preserve" font-family="GillSans-Light,Gill Sans" font-size="38.0" fill="#525252" transform="matrix(1.00, 0.00, -0.00, -1.00, 303.3, 209.1)">i</text><text xml:space="preserve" font-family="GillSans-Light,Gill Sans" font-size="38.0" fill="#525252" transform="matrix(1.00, 0.00, -0.00, -1.00, 310.5, 209.1)">o</text><text xml:space="preserve" font-family="GillSans-Light,Gill Sans" font-size="38.0" fill="#525252" transform="matrix(1.00, 0.00, -0.00, -1.00, 331.1, 209.1)">n</text><text xml:space="preserve" font-family="GillSans-Light,Gill Sans" font-size="38.0" fill="#525252" transform="matrix(1.00, 0.00, -0.00, -1.00, 349.7, 209.1)">s</text><text xml:space="preserve" font-family="GillSans-Light,Gill Sans" font-size="38.0" fill="#525252" transform="matrix(1.00, 0.00, -0.00, -1.00, 363.1, 209.1)"> </text><text xml:space="preserve" font-family="GillSans-Light,Gill Sans" font-size="38.0" fill="#525252" transform="matrix(1.00, 0.00, -0.00, -1.00, 373.7, 209.1)">a</text><text xml:space="preserve" font-family="GillSans-Light,Gill Sans" font-size="38.0" fill="#525252" transform="matrix(1.00, 0.00, -0.00, -1.00, 389.9, 209.1)">n</text><text xml:space="preserve" font-family="GillSans-Light,Gill Sans" font-size="38.0" fill="#525252" transform="matrix(1.00, 0.00, -0.00, -1.00, 408.5, 209.1)">d</text><text xml:space="preserve" font-family="GillSans-Light,Gill Sans" font-size="38.0" fill="#525252" transform="matrix(1.00, 0.00, -0.00, -1.00, 427.9, 209.1)"> </text><text xml:space="preserve" font-family="GillSans-Light,Gill Sans" font-size="38.0" fill="#525252" transform="matrix(1.00, 0.00, -0.00, -1.00, 66.0, 166.1)">r</text><text xml:space="preserve" font-family="GillSans-Light,Gill Sans" font-size="38.0" fill="#525252" transform="matrix(1.00, 0.00, -0.00, -1.00, 79.6, 166.1)">a</text><text xml:space="preserve" font-family="GillSans-Light,Gill Sans" font-size="38.0" fill="#525252" transform="matrix(1.00, 0.00, -0.00, -1.00, 95.8, 166.1)">r</text><text xml:space="preserve" font-family="GillSans-Light,Gill Sans" font-size="38.0" fill="#525252" transform="matrix(1.00, 0.00, -0.00, -1.00, 108.5, 166.1)">e</text><text xml:space="preserve" font-family="GillSans-Light,Gill Sans" font-size="38.0" fill="#525252" transform="matrix(1.00, 0.00, -0.00, -1.00, 126.7, 166.1)">f</text><text xml:space="preserve" font-family="GillSans-Light,Gill Sans" font-size="38.0" fill="#525252" transform="matrix(1.00, 0.00, -0.00, -1.00, 135.8, 166.1)">a</text><text xml:space="preserve" font-family="GillSans-Light,Gill Sans" font-size="38.0" fill="#525252" transform="matrix(1.00, 0.00, -0.00, -1.00, 152.0, 166.1)">c</text><text xml:space="preserve" font-family="GillSans-Light,Gill Sans" font-size="38.0" fill="#525252" transform="matrix(1.00, 0.00, -0.00, -1.00, 167.9, 166.1)">t</text><text xml:space="preserve" font-family="GillSans-Light,Gill Sans" font-size="38.0" fill="#525252" transform="matrix(1.00, 0.00, -0.00, -1.00, 179.3, 166.1)">i</text><text xml:space="preserve" font-family="GillSans-Light,Gill Sans" font-size="38.0" fill="#525252" transform="matrix(1.00, 0.00, -0.00, -1.00, 186.5, 166.1)">o</text><text xml:space="preserve" font-family="GillSans-Light,Gill Sans" font-size="38.0" fill="#525252" transform="matrix(1.00, 0.00, -0.00, -1.00, 207.1, 166.1)">n</text><text xml:space="preserve" font-family="GillSans-Light,Gill Sans" font-size="38.0" fill="#525252" transform="matrix(1.00, 0.00, -0.00, -1.00, 225.7, 166.1)">s</text><text xml:space="preserve" font-family="GillSans-Light,Gill Sans" font-size="14.0" fill="#525252" transform="matrix(1.00, 0.00, -0.00, -1.00, 576.3, 37.3)">h</text><text xml:space="preserve" font-family="GillSans-Light,Gill Sans" font-size="14.0" fill="#525252" transform="matrix(1.00, 0.00, -0.00, -1.00, 583.2, 37.3)">t</text><text xml:space="preserve" font-family="GillSans-Light,Gill Sans" font-size="14.0" fill="#525252" transform="matrix(1.00, 0.00, -0.00, -1.00, 587.4, 37.3)">t</text><text xml:space="preserve" font-family="GillSans-Light,Gill Sans" font-size="14.0" fill="#525252" transform="matrix(1.00, 0.00, -0.00, -1.00, 591.6, 37.3)">p</text><text xml:space="preserve" font-family="GillSans-Light,Gill Sans" font-size="14.0" fill="#525252" transform="matrix(1.00, 0.00, -0.00, -1.00, 598.8, 37.3)">:</text><text xml:space="preserve" font-family="GillSans-Light,Gill Sans" font-size="14.0" fill="#525252" transform="matrix(1.00, 0.00, -0.00, -1.00, 601.3, 37.3)">/</text><text xml:space="preserve" font-family="GillSans-Light,Gill Sans" font-size="14.0" fill="#525252" transform="matrix(1.00, 0.00, -0.00, -1.00, 605.2, 37.3)">/</text><text xml:space="preserve" font-family="GillSans-Light,Gill Sans" font-size="14.0" fill="#525252" transform="matrix(1.00, 0.00, -0.00, -1.00, 609.1, 37.3)">e</text><text xml:space="preserve" font-family="GillSans-Light,Gill Sans" font-size="14.0" fill="#525252" transform="matrix(1.00, 0.00, -0.00, -1.00, 615.8, 37.3)">r</text><text xml:space="preserve" font-family="GillSans-Light,Gill Sans" font-size="14.0" fill="#525252" transform="matrix(1.00, 0.00, -0.00, -1.00, 620.5, 37.3)">h</text><text xml:space="preserve" font-family="GillSans-Light,Gill Sans" font-size="14.0" fill="#525252" transform="matrix(1.00, 0.00, -0.00, -1.00, 627.3, 37.3)">u</text><text xml:space="preserve" font-family="GillSans-Light,Gill Sans" font-size="14.0" fill="#525252" transform="matrix(1.00, 0.00, -0.00, -1.00, 634.2, 37.3)">p</text><text xml:space="preserve" font-family="GillSans-Light,Gill Sans" font-size="14.0" fill="#525252" transform="matrix(1.00, 0.00, -0.00, -1.00, 641.3, 37.3)">h</text><text xml:space="preserve" font-family="GillSans-Light,Gill Sans" font-size="14.0" fill="#525252" transform="matrix(1.00, 0.00, -0.00, -1.00, 648.0, 37.3)">y</text><text xml:space="preserve" font-family="GillSans-Light,Gill Sans" font-size="14.0" fill="#525252" transform="matrix(1.00, 0.00, -0.00, -1.00, 653.8, 37.3)">s</text><text xml:space="preserve" font-family="GillSans-Light,Gill Sans" font-size="14.0" fill="#525252" transform="matrix(1.00, 0.00, -0.00, -1.00, 658.8, 37.3)">i</text><text xml:space="preserve" font-family="GillSans-Light,Gill Sans" font-size="14.0" fill="#525252" transform="matrix(1.00, 0.00, -0.00, -1.00, 661.4, 37.3)">c</text><text xml:space="preserve" font-family="GillSans-Light,Gill Sans" font-size="14.0" fill="#525252" transform="matrix(1.00, 0.00, -0.00, -1.00, 667.3, 37.3)">s</text><text xml:space="preserve" font-family="GillSans-Light,Gill Sans" font-size="14.0" fill="#525252" transform="matrix(1.00, 0.00, -0.00, -1.00, 672.2, 37.3)">.</text><text xml:space="preserve" font-family="GillSans-Light,Gill Sans" font-size="14.0" fill="#525252" transform="matrix(1.00, 0.00, -0.00, -1.00, 674.7, 37.3)">n</text><text xml:space="preserve" font-family="GillSans-Light,Gill Sans" font-size="14.0" fill="#525252" transform="matrix(1.00, 0.00, -0.00, -1.00, 681.6, 37.3)">e</text><text xml:space="preserve" font-family="GillSans-Light,Gill Sans" font-size="14.0" fill="#525252" transform="matrix(1.00, 0.00, -0.00, -1.00, 688.3, 37.3)">t</text><text xml:space="preserve" font-family="GillSans-Light,Gill Sans" font-size="14.0" fill="#525252" transform="matrix(1.00, 0.00, -0.00, -1.00, 692.5, 37.3)">7</text><text xml:space="preserve" font-family="GillSans-Light,Gill Sans" font-size="14.0" fill="#525252" transform="matrix(1.00, 0.00, -0.00, -1.00, 699.5, 37.3)">8</text><text xml:space="preserve" font-family="GillSans-Light,Gill Sans" font-size="14.0" fill="#525252" transform="matrix(1.00, 0.00, -0.00, -1.00, 706.5, 37.3)">.</text><text xml:space="preserve" font-family="GillSans-Light,Gill Sans" font-size="14.0" fill="#525252" transform="matrix(1.00, 0.00, -0.00, -1.00, 709.0, 37.3)">n</text><text xml:space="preserve" font-family="GillSans-Light,Gill Sans" font-size="14.0" fill="#525252" transform="matrix(1.00, 0.00, -0.00, -1.00, 715.8, 37.3)">e</text><text xml:space="preserve" font-family="GillSans-Light,Gill Sans" font-size="14.0" fill="#525252" transform="matrix(1.00, 0.00, -0.00, -1.00, 722.5, 37.3)">t</text><text xml:space="preserve" font-family="GillSans-Light,Gill Sans" font-size="14.0" fill="#525252" transform="matrix(1.00, 0.00, -0.00, -1.00, 726.7, 37.3)">/</text><text xml:space="preserve" font-family="GillSans-Light,Gill Sans" font-size="14.0" fill="#525252" transform="matrix(1.00, 0.00, -0.00, -1.00, 730.7, 37.3)">i</text><text xml:space="preserve" font-family="GillSans-Light,Gill Sans" font-size="14.0" fill="#525252" transform="matrix(1.00, 0.00, -0.00, -1.00, 733.3, 37.3)">m</text><text xml:space="preserve" font-family="GillSans-Light,Gill Sans" font-size="14.0" fill="#525252" transform="matrix(1.00, 0.00, -0.00, -1.00, 744.1, 37.3)">a</text><text xml:space="preserve" font-family="GillSans-Light,Gill Sans" font-size="14.0" fill="#525252" transform="matrix(1.00, 0.00, -0.00, -1.00, 750.1, 37.3)">g</text><text xml:space="preserve" font-family="GillSans-Light,Gill Sans" font-size="14.0" fill="#525252" transform="matrix(1.00, 0.00, -0.00, -1.00, 756.0, 37.3)">e</text><text xml:space="preserve" font-family="GillSans-Light,Gill Sans" font-size="14.0" fill="#525252" transform="matrix(1.00, 0.00, -0.00, -1.00, 762.8, 37.3)">s</text><text xml:space="preserve" font-family="GillSans-Light,Gill Sans" font-size="14.0" fill="#525252" transform="matrix(1.00, 0.00, -0.00, -1.00, 767.7, 37.3)">/</text><text xml:space="preserve" font-family="GillSans-Light,Gill Sans" font-size="14.0" fill="#525252" transform="matrix(1.00, 0.00, -0.00, -1.00, 771.6, 37.3)">c</text><text xml:space="preserve" font-family="GillSans-Light,Gill Sans" font-size="14.0" fill="#525252" transform="matrix(1.00, 0.00, -0.00, -1.00, 777.5, 37.3)">o</text><text xml:space="preserve" font-family="GillSans-Light,Gill Sans" font-size="14.0" fill="#525252" transform="matrix(1.00, 0.00, -0.00, -1.00, 785.1, 37.3)">m</text><text xml:space="preserve" font-family="GillSans-Light,Gill Sans" font-size="14.0" fill="#525252" transform="matrix(1.00, 0.00, -0.00, -1.00, 795.9, 37.3)">p</text><text xml:space="preserve" font-family="GillSans-Light,Gill Sans" font-size="14.0" fill="#525252" transform="matrix(1.00, 0.00, -0.00, -1.00, 803.0, 37.3)">r</text><text xml:space="preserve" font-family="GillSans-Light,Gill Sans" font-size="14.0" fill="#525252" transform="matrix(1.00, 0.00, -0.00, -1.00, 807.7, 37.3)">e</text><text xml:space="preserve" font-family="GillSans-Light,Gill Sans" font-size="14.0" fill="#525252" transform="matrix(1.00, 0.00, -0.00, -1.00, 814.4, 37.3)">s</text><text xml:space="preserve" font-family="GillSans-Light,Gill Sans" font-size="14.0" fill="#525252" transform="matrix(1.00, 0.00, -0.00, -1.00, 819.3, 37.3)">s</text><text xml:space="preserve" font-family="GillSans-Light,Gill Sans" font-size="14.0" fill="#525252" transform="matrix(1.00, 0.00, -0.00, -1.00, 824.3, 37.3)">i</text><text xml:space="preserve" font-family="GillSans-Light,Gill Sans" font-size="14.0" fill="#525252" transform="matrix(1.00, 0.00, -0.00, -1.00, 826.9, 37.3)">o</text><text xml:space="preserve" font-family="GillSans-Light,Gill Sans" font-size="14.0" fill="#525252" transform="matrix(1.00, 0.00, -0.00, -1.00, 834.5, 37.3)">n</text><text xml:space="preserve" font-family="GillSans-Light,Gill Sans" font-size="14.0" fill="#525252" transform="matrix(1.00, 0.00, -0.00, -1.00, 841.4, 37.3)">_</text><text xml:space="preserve" font-family="GillSans-Light,Gill Sans" font-size="14.0" fill="#525252" transform="matrix(1.00, 0.00, -0.00, -1.00, 848.4, 37.3)">r</text><text xml:space="preserve" font-family="GillSans-Light,Gill Sans" font-size="14.0" fill="#525252" transform="matrix(1.00, 0.00, -0.00, -1.00, 853.4, 37.3)">a</text><text xml:space="preserve" font-family="GillSans-Light,Gill Sans" font-size="14.0" fill="#525252" transform="matrix(1.00, 0.00, -0.00, -1.00, 859.3, 37.3)">r</text><text xml:space="preserve" font-family="GillSans-Light,Gill Sans" font-size="14.0" fill="#525252" transform="matrix(1.00, 0.00, -0.00, -1.00, 864.0, 37.3)">e</text><text xml:space="preserve" font-family="GillSans-Light,Gill Sans" font-size="14.0" fill="#525252" transform="matrix(1.00, 0.00, -0.00, -1.00, 870.7, 37.3)">f</text><text xml:space="preserve" font-family="GillSans-Light,Gill Sans" font-size="14.0" fill="#525252" transform="matrix(1.00, 0.00, -0.00, -1.00, 874.1, 37.3)">a</text><text xml:space="preserve" font-family="GillSans-Light,Gill Sans" font-size="14.0" fill="#525252" transform="matrix(1.00, 0.00, -0.00, -1.00, 880.0, 37.3)">c</text><text xml:space="preserve" font-family="GillSans-Light,Gill Sans" font-size="14.0" fill="#525252" transform="matrix(1.00, 0.00, -0.00, -1.00, 885.9, 37.3)">t</text><text xml:space="preserve" font-family="GillSans-Light,Gill Sans" font-size="14.0" fill="#525252" transform="matrix(1.00, 0.00, -0.00, -1.00, 890.1, 37.3)">i</text><text xml:space="preserve" font-family="GillSans-Light,Gill Sans" font-size="14.0" fill="#525252" transform="matrix(1.00, 0.00, -0.00, -1.00, 892.7, 37.3)">o</text><text xml:space="preserve" font-family="GillSans-Light,Gill Sans" font-size="14.0" fill="#525252" transform="matrix(1.00, 0.00, -0.00, -1.00, 900.3, 37.3)">n</text><text xml:space="preserve" font-family="GillSans-Light,Gill Sans" font-size="14.0" fill="#525252" transform="matrix(1.00, 0.00, -0.00, -1.00, 907.2, 37.3)">.</text><text xml:space="preserve" font-family="GillSans-Light,Gill Sans" font-size="14.0" fill="#525252" transform="matrix(1.00, 0.00, -0.00, -1.00, 909.7, 37.3)">g</text><text xml:space="preserve" font-family="GillSans-Light,Gill Sans" font-size="14.0" fill="#525252" transform="matrix(1.00, 0.00, -0.00, -1.00, 915.6, 37.3)">i</text><text xml:space="preserve" font-family="GillSans-Light,Gill Sans" font-size="14.0" fill="#525252" transform="matrix(1.00, 0.00, -0.00, -1.00, 918.3, 37.3)">f</text></g></svg>