<?xml version="1.0" encoding="UTF-8" standalone="no"?><svg xmlns="http://www.w3.org/2000/svg" xmlns:xlink="http://www.w3.org/1999/xlink" clip-rule="evenodd" stroke-miterlimit="10" viewBox="0 0 1024 768"><desc>SVG generated by Keynote</desc><defs></defs><g transform="matrix(1.00, 0.00, -0.00, -1.00, 0.0, 768.0)"><g><clipPath id="clip0x6080008a0fc0"><path d="M 0.0 768.0 L 1024.0 768.0 L 1024.0 0.0 L 0.0 0.0 Z M 0.0 768.0 "></path></clipPath><g clip-path="url(#clip0x6080008a0fc0)"><image xlink:href="../../AA67522E-33CB-4827-90AD-B35304285A38/assets/527288347077A8BC66C9A53B775387A8.jpeg" width="2048.00" height="1536.00" transform="matrix(0.50, 0.00, -0.00, -0.50, 0.0, 768.0)"></image></g></g><g><clipPath id="clip0x600000aaa6e0"><path d="M 106.0 727.0 L 924.0 727.0 L 924.0 266.0 L 106.0 266.0 Z M 106.0 727.0 "></path></clipPath><g clip-path="url(#clip0x600000aaa6e0)"><image xlink:href="889B5EBC8909F7310CD3E224D77E18BF.png" width="1160.00" height="860.00" transform="matrix(0.54, 0.00, -0.00, -0.54, 199.8, 729.9)"></image></g></g><text xml:space="preserve" font-family="GillSans-Light,Gill Sans" font-size="72.0" fill="#525252" transform="matrix(1.00, 0.00, -0.00, -1.00, 299.9, 149.2)">B</text><text xml:space="preserve" font-family="GillSans-Light,Gill Sans" font-size="72.0" fill="#525252" transform="matrix(1.00, 0.00, -0.00, -1.00, 339.6, 149.2)">A</text><text xml:space="preserve" font-family="GillSans-Light,Gill Sans" font-size="72.0" fill="#525252" transform="matrix(1.00, 0.00, -0.00, -1.00, 387.6, 149.2)">S</text><text xml:space="preserve" font-family="GillSans-Light,Gill Sans" font-size="72.0" fill="#525252" transform="matrix(1.00, 0.00, -0.00, -1.00, 421.4, 149.2)">I</text><text xml:space="preserve" font-family="GillSans-Light,Gill Sans" font-size="72.0" fill="#525252" transform="matrix(1.00, 0.00, -0.00, -1.00, 436.4, 149.2)">C</text><text xml:space="preserve" font-family="GillSans-Light,Gill Sans" font-size="72.0" fill="#525252" transform="matrix(1.00, 0.00, -0.00, -1.00, 485.1, 149.2)"> </text><text xml:space="preserve" font-family="GillSans-Light,Gill Sans" font-size="72.0" fill="#525252" transform="matrix(1.00, 0.00, -0.00, -1.00, 497.9, 149.2)">W</text><text xml:space="preserve" font-family="GillSans-Light,Gill Sans" font-size="72.0" fill="#525252" transform="matrix(1.00, 0.00, -0.00, -1.00, 567.7, 149.2)">A</text><text xml:space="preserve" font-family="GillSans-Light,Gill Sans" font-size="72.0" fill="#525252" transform="matrix(1.00, 0.00, -0.00, -1.00, 612.2, 149.2)">V</text><text xml:space="preserve" font-family="GillSans-Light,Gill Sans" font-size="72.0" fill="#525252" transform="matrix(1.00, 0.00, -0.00, -1.00, 655.0, 149.2)">E</text><text xml:space="preserve" font-family="GillSans-Light,Gill Sans" font-size="72.0" fill="#525252" transform="matrix(1.00, 0.00, -0.00, -1.00, 690.3, 149.2)">S</text><text xml:space="preserve" font-family="GillSans-Light,Gill Sans" font-size="38.0" fill="#525252" transform="matrix(1.00, 0.00, -0.00, -1.00, 250.3, 85.1)">T</text><text xml:space="preserve" font-family="GillSans-Light,Gill Sans" font-size="38.0" fill="#525252" transform="matrix(1.00, 0.00, -0.00, -1.00, 272.1, 85.1)">h</text><text xml:space="preserve" font-family="GillSans-Light,Gill Sans" font-size="38.0" fill="#525252" transform="matrix(1.00, 0.00, -0.00, -1.00, 290.8, 85.1)">e</text><text xml:space="preserve" font-family="GillSans-Light,Gill Sans" font-size="38.0" fill="#525252" transform="matrix(1.00, 0.00, -0.00, -1.00, 309.0, 85.1)"> </text><text xml:space="preserve" font-family="GillSans-Light,Gill Sans" font-size="38.0" fill="#525252" transform="matrix(1.00, 0.00, -0.00, -1.00, 319.5, 85.1)">ï¬</text><text xml:space="preserve" font-family="GillSans-Light,Gill Sans" font-size="38.0" fill="#525252" transform="matrix(1.00, 0.00, -0.00, -1.00, 337.7, 85.1)">r</text><text xml:space="preserve" font-family="GillSans-Light,Gill Sans" font-size="38.0" fill="#525252" transform="matrix(1.00, 0.00, -0.00, -1.00, 351.9, 85.1)">s</text><text xml:space="preserve" font-family="GillSans-Light,Gill Sans" font-size="38.0" fill="#525252" transform="matrix(1.00, 0.00, -0.00, -1.00, 365.3, 85.1)">t</text><text xml:space="preserve" font-family="GillSans-Light,Gill Sans" font-size="38.0" fill="#525252" transform="matrix(1.00, 0.00, -0.00, -1.00, 376.8, 85.1)"> </text><text xml:space="preserve" font-family="GillSans-Light,Gill Sans" font-size="38.0" fill="#525252" transform="matrix(1.00, 0.00, -0.00, -1.00, 387.4, 85.1)">i</text><text xml:space="preserve" font-family="GillSans-Light,Gill Sans" font-size="38.0" fill="#525252" transform="matrix(1.00, 0.00, -0.00, -1.00, 394.5, 85.1)">n</text><text xml:space="preserve" font-family="GillSans-Light,Gill Sans" font-size="38.0" fill="#525252" transform="matrix(1.00, 0.00, -0.00, -1.00, 413.1, 85.1)">g</text><text xml:space="preserve" font-family="GillSans-Light,Gill Sans" font-size="38.0" fill="#525252" transform="matrix(1.00, 0.00, -0.00, -1.00, 429.3, 85.1)">r</text><text xml:space="preserve" font-family="GillSans-Light,Gill Sans" font-size="38.0" fill="#525252" transform="matrix(1.00, 0.00, -0.00, -1.00, 442.0, 85.1)">e</text><text xml:space="preserve" font-family="GillSans-Light,Gill Sans" font-size="38.0" fill="#525252" transform="matrix(1.00, 0.00, -0.00, -1.00, 460.2, 85.1)">d</text><text xml:space="preserve" font-family="GillSans-Light,Gill Sans" font-size="38.0" fill="#525252" transform="matrix(1.00, 0.00, -0.00, -1.00, 479.6, 85.1)">i</text><text xml:space="preserve" font-family="GillSans-Light,Gill Sans" font-size="38.0" fill="#525252" transform="matrix(1.00, 0.00, -0.00, -1.00, 486.7, 85.1)">e</text><text xml:space="preserve" font-family="GillSans-Light,Gill Sans" font-size="38.0" fill="#525252" transform="matrix(1.00, 0.00, -0.00, -1.00, 504.9, 85.1)">n</text><text xml:space="preserve" font-family="GillSans-Light,Gill Sans" font-size="38.0" fill="#525252" transform="matrix(1.00, 0.00, -0.00, -1.00, 523.6, 85.1)">t</text><text xml:space="preserve" font-family="GillSans-Light,Gill Sans" font-size="38.0" fill="#525252" transform="matrix(1.00, 0.00, -0.00, -1.00, 535.0, 85.1)"> </text><text xml:space="preserve" font-family="GillSans-Light,Gill Sans" font-size="38.0" fill="#525252" transform="matrix(1.00, 0.00, -0.00, -1.00, 545.6, 85.1)">i</text><text xml:space="preserve" font-family="GillSans-Light,Gill Sans" font-size="38.0" fill="#525252" transform="matrix(1.00, 0.00, -0.00, -1.00, 552.7, 85.1)">n</text><text xml:space="preserve" font-family="GillSans-Light,Gill Sans" font-size="38.0" fill="#525252" transform="matrix(1.00, 0.00, -0.00, -1.00, 571.3, 85.1)"> </text><text xml:space="preserve" font-family="GillSans-Light,Gill Sans" font-size="38.0" fill="#525252" transform="matrix(1.00, 0.00, -0.00, -1.00, 581.9, 85.1)">a</text><text xml:space="preserve" font-family="GillSans-Light,Gill Sans" font-size="38.0" fill="#525252" transform="matrix(1.00, 0.00, -0.00, -1.00, 598.1, 85.1)"> </text><text xml:space="preserve" font-family="GillSans-Light,Gill Sans" font-size="38.0" fill="#525252" transform="matrix(1.00, 0.00, -0.00, -1.00, 608.6, 85.1)">n</text><text xml:space="preserve" font-family="GillSans-Light,Gill Sans" font-size="38.0" fill="#525252" transform="matrix(1.00, 0.00, -0.00, -1.00, 627.3, 85.1)">e</text><text xml:space="preserve" font-family="GillSans-Light,Gill Sans" font-size="38.0" fill="#525252" transform="matrix(1.00, 0.00, -0.00, -1.00, 645.5, 85.1)">w</text><text xml:space="preserve" font-family="GillSans-Light,Gill Sans" font-size="38.0" fill="#525252" transform="matrix(1.00, 0.00, -0.00, -1.00, 672.4, 85.1)"> </text><text xml:space="preserve" font-family="GillSans-Light,Gill Sans" font-size="38.0" fill="#525252" transform="matrix(1.00, 0.00, -0.00, -1.00, 682.9, 85.1)">s</text><text xml:space="preserve" font-family="GillSans-Light,Gill Sans" font-size="38.0" fill="#525252" transform="matrix(1.00, 0.00, -0.00, -1.00, 696.4, 85.1)">o</text><text xml:space="preserve" font-family="GillSans-Light,Gill Sans" font-size="38.0" fill="#525252" transform="matrix(1.00, 0.00, -0.00, -1.00, 717.0, 85.1)">u</text><text xml:space="preserve" font-family="GillSans-Light,Gill Sans" font-size="38.0" fill="#525252" transform="matrix(1.00, 0.00, -0.00, -1.00, 735.6, 85.1)">n</text><text xml:space="preserve" font-family="GillSans-Light,Gill Sans" font-size="38.0" fill="#525252" transform="matrix(1.00, 0.00, -0.00, -1.00, 754.3, 85.1)">d</text><text xml:space="preserve" font-family="GillSans-Light,Gill Sans" font-size="14.0" fill="#525252" transform="matrix(1.00, 0.00, -0.00, -1.00, 372.2, 248.3)">v</text><text xml:space="preserve" font-family="GillSans-Light,Gill Sans" font-size="14.0" fill="#525252" transform="matrix(1.00, 0.00, -0.00, -1.00, 378.2, 248.3)">i</text><text xml:space="preserve" font-family="GillSans-Light,Gill Sans" font-size="14.0" fill="#525252" transform="matrix(1.00, 0.00, -0.00, -1.00, 380.8, 248.3)">c</text><text xml:space="preserve" font-family="GillSans-Light,Gill Sans" font-size="14.0" fill="#525252" transform="matrix(1.00, 0.00, -0.00, -1.00, 386.7, 248.3)">t</text><text xml:space="preserve" font-family="GillSans-Light,Gill Sans" font-size="14.0" fill="#525252" transform="matrix(1.00, 0.00, -0.00, -1.00, 390.9, 248.3)">o</text><text xml:space="preserve" font-family="GillSans-Light,Gill Sans" font-size="14.0" fill="#525252" transform="matrix(1.00, 0.00, -0.00, -1.00, 398.5, 248.3)">r</text><text xml:space="preserve" font-family="GillSans-Light,Gill Sans" font-size="14.0" fill="#525252" transform="matrix(1.00, 0.00, -0.00, -1.00, 403.5, 248.3)">i</text><text xml:space="preserve" font-family="GillSans-Light,Gill Sans" font-size="14.0" fill="#525252" transform="matrix(1.00, 0.00, -0.00, -1.00, 406.1, 248.3)">a</text><text xml:space="preserve" font-family="GillSans-Light,Gill Sans" font-size="14.0" fill="#525252" transform="matrix(1.00, 0.00, -0.00, -1.00, 412.1, 248.3)">s</text><text xml:space="preserve" font-family="GillSans-Light,Gill Sans" font-size="14.0" fill="#525252" transform="matrix(1.00, 0.00, -0.00, -1.00, 417.0, 248.3)">t</text><text xml:space="preserve" font-family="GillSans-Light,Gill Sans" font-size="14.0" fill="#525252" transform="matrix(1.00, 0.00, -0.00, -1.00, 421.3, 248.3)">a</text><text xml:space="preserve" font-family="GillSans-Light,Gill Sans" font-size="14.0" fill="#525252" transform="matrix(1.00, 0.00, -0.00, -1.00, 427.2, 248.3)">f</text><text xml:space="preserve" font-family="GillSans-Light,Gill Sans" font-size="14.0" fill="#525252" transform="matrix(1.00, 0.00, -0.00, -1.00, 430.6, 248.3)">f</text><text xml:space="preserve" font-family="GillSans-Light,Gill Sans" font-size="14.0" fill="#525252" transform="matrix(1.00, 0.00, -0.00, -1.00, 433.8, 248.3)">o</text><text xml:space="preserve" font-family="GillSans-Light,Gill Sans" font-size="14.0" fill="#525252" transform="matrix(1.00, 0.00, -0.00, -1.00, 441.4, 248.3)">r</text><text xml:space="preserve" font-family="GillSans-Light,Gill Sans" font-size="14.0" fill="#525252" transform="matrix(1.00, 0.00, -0.00, -1.00, 446.1, 248.3)">d</text><text xml:space="preserve" font-family="GillSans-Light,Gill Sans" font-size="14.0" fill="#525252" transform="matrix(1.00, 0.00, -0.00, -1.00, 453.2, 248.3)">a</text><text xml:space="preserve" font-family="GillSans-Light,Gill Sans" font-size="14.0" fill="#525252" transform="matrix(1.00, 0.00, -0.00, -1.00, 459.2, 248.3)">p</text><text xml:space="preserve" font-family="GillSans-Light,Gill Sans" font-size="14.0" fill="#525252" transform="matrix(1.00, 0.00, -0.00, -1.00, 466.3, 248.3)">s</text><text xml:space="preserve" font-family="GillSans-Light,Gill Sans" font-size="14.0" fill="#525252" transform="matrix(1.00, 0.00, -0.00, -1.00, 471.3, 248.3)">y</text><text xml:space="preserve" font-family="GillSans-Light,Gill Sans" font-size="14.0" fill="#525252" transform="matrix(1.00, 0.00, -0.00, -1.00, 477.1, 248.3)">c</text><text xml:space="preserve" font-family="GillSans-Light,Gill Sans" font-size="14.0" fill="#525252" transform="matrix(1.00, 0.00, -0.00, -1.00, 482.9, 248.3)">h</text><text xml:space="preserve" font-family="GillSans-Light,Gill Sans" font-size="14.0" fill="#525252" transform="matrix(1.00, 0.00, -0.00, -1.00, 489.8, 248.3)">i</text><text xml:space="preserve" font-family="GillSans-Light,Gill Sans" font-size="14.0" fill="#525252" transform="matrix(1.00, 0.00, -0.00, -1.00, 492.4, 248.3)">c</text><text xml:space="preserve" font-family="GillSans-Light,Gill Sans" font-size="14.0" fill="#525252" transform="matrix(1.00, 0.00, -0.00, -1.00, 498.3, 248.3)">i</text><text xml:space="preserve" font-family="GillSans-Light,Gill Sans" font-size="14.0" fill="#525252" transform="matrix(1.00, 0.00, -0.00, -1.00, 500.9, 248.3)">n</text><text xml:space="preserve" font-family="GillSans-Light,Gill Sans" font-size="14.0" fill="#525252" transform="matrix(1.00, 0.00, -0.00, -1.00, 507.6, 248.3)">v</text><text xml:space="preserve" font-family="GillSans-Light,Gill Sans" font-size="14.0" fill="#525252" transform="matrix(1.00, 0.00, -0.00, -1.00, 513.3, 248.3)">e</text><text xml:space="preserve" font-family="GillSans-Light,Gill Sans" font-size="14.0" fill="#525252" transform="matrix(1.00, 0.00, -0.00, -1.00, 520.0, 248.3)">s</text><text xml:space="preserve" font-family="GillSans-Light,Gill Sans" font-size="14.0" fill="#525252" transform="matrix(1.00, 0.00, -0.00, -1.00, 525.0, 248.3)">t</text><text xml:space="preserve" font-family="GillSans-Light,Gill Sans" font-size="14.0" fill="#525252" transform="matrix(1.00, 0.00, -0.00, -1.00, 529.2, 248.3)">i</text><text xml:space="preserve" font-family="GillSans-Light,Gill Sans" font-size="14.0" fill="#525252" transform="matrix(1.00, 0.00, -0.00, -1.00, 531.8, 248.3)">g</text><text xml:space="preserve" font-family="GillSans-Light,Gill Sans" font-size="14.0" fill="#525252" transform="matrix(1.00, 0.00, -0.00, -1.00, 537.8, 248.3)">a</text><text xml:space="preserve" font-family="GillSans-Light,Gill Sans" font-size="14.0" fill="#525252" transform="matrix(1.00, 0.00, -0.00, -1.00, 543.8, 248.3)">t</text><text xml:space="preserve" font-family="GillSans-Light,Gill Sans" font-size="14.0" fill="#525252" transform="matrix(1.00, 0.00, -0.00, -1.00, 548.0, 248.3)">i</text><text xml:space="preserve" font-family="GillSans-Light,Gill Sans" font-size="14.0" fill="#525252" transform="matrix(1.00, 0.00, -0.00, -1.00, 550.6, 248.3)">o</text><text xml:space="preserve" font-family="GillSans-Light,Gill Sans" font-size="14.0" fill="#525252" transform="matrix(1.00, 0.00, -0.00, -1.00, 558.2, 248.3)">n</text><text xml:space="preserve" font-family="GillSans-Light,Gill Sans" font-size="14.0" fill="#525252" transform="matrix(1.00, 0.00, -0.00, -1.00, 565.1, 248.3)">.</text><text xml:space="preserve" font-family="GillSans-Light,Gill Sans" font-size="14.0" fill="#525252" transform="matrix(1.00, 0.00, -0.00, -1.00, 567.6, 248.3)">w</text><text xml:space="preserve" font-family="GillSans-Light,Gill Sans" font-size="14.0" fill="#525252" transform="matrix(1.00, 0.00, -0.00, -1.00, 577.3, 248.3)">o</text><text xml:space="preserve" font-family="GillSans-Light,Gill Sans" font-size="14.0" fill="#525252" transform="matrix(1.00, 0.00, -0.00, -1.00, 584.9, 248.3)">r</text><text xml:space="preserve" font-family="GillSans-Light,Gill Sans" font-size="14.0" fill="#525252" transform="matrix(1.00, 0.00, -0.00, -1.00, 589.5, 248.3)">d</text><text xml:space="preserve" font-family="GillSans-Light,Gill Sans" font-size="14.0" fill="#525252" transform="matrix(1.00, 0.00, -0.00, -1.00, 596.6, 248.3)">p</text><text xml:space="preserve" font-family="GillSans-Light,Gill Sans" font-size="14.0" fill="#525252" transform="matrix(1.00, 0.00, -0.00, -1.00, 603.8, 248.3)">r</text><text xml:space="preserve" font-family="GillSans-Light,Gill Sans" font-size="14.0" fill="#525252" transform="matrix(1.00, 0.00, -0.00, -1.00, 608.4, 248.3)">e</text><text xml:space="preserve" font-family="GillSans-Light,Gill Sans" font-size="14.0" fill="#525252" transform="matrix(1.00, 0.00, -0.00, -1.00, 615.2, 248.3)">s</text><text xml:space="preserve" font-family="GillSans-Light,Gill Sans" font-size="14.0" fill="#525252" transform="matrix(1.00, 0.00, -0.00, -1.00, 620.1, 248.3)">s</text><text xml:space="preserve" font-family="GillSans-Light,Gill Sans" font-size="14.0" fill="#525252" transform="matrix(1.00, 0.00, -0.00, -1.00, 625.1, 248.3)">.</text><text xml:space="preserve" font-family="GillSans-Light,Gill Sans" font-size="14.0" fill="#525252" transform="matrix(1.00, 0.00, -0.00, -1.00, 627.5, 248.3)">c</text><text xml:space="preserve" font-family="GillSans-Light,Gill Sans" font-size="14.0" fill="#525252" transform="matrix(1.00, 0.00, -0.00, -1.00, 633.4, 248.3)">o</text><text xml:space="preserve" font-family="GillSans-Light,Gill Sans" font-size="14.0" fill="#525252" transform="matrix(1.00, 0.00, -0.00, -1.00, 641.0, 248.3)">m</text></g></svg>