<?xml version="1.0" encoding="UTF-8" standalone="no"?><svg xmlns="http://www.w3.org/2000/svg" xmlns:xlink="http://www.w3.org/1999/xlink" clip-rule="evenodd" stroke-miterlimit="10" viewBox="0 0 457 251"><desc>SVG generated by Keynote</desc><defs></defs><g transform="matrix(1.00, 0.00, -0.00, -1.00, 0.0, 251.0)"><text xml:space="preserve" font-family="GillSans-Light,Gill Sans" font-size="31.2" fill="#525252" transform="matrix(1.00, 0.00, -0.00, -1.00, 0.0, 222.4)">•</text><text xml:space="preserve" font-family="GillSans-Light,Gill Sans" font-size="38.0" fill="#525252" transform="matrix(1.00, 0.00, -0.00, -1.00, 34.0, 220.1)">S</text><text xml:space="preserve" font-family="GillSans-Light,Gill Sans" font-size="38.0" fill="#525252" transform="matrix(1.00, 0.00, -0.00, -1.00, 51.8, 220.1)">o</text><text xml:space="preserve" font-family="GillSans-Light,Gill Sans" font-size="38.0" fill="#525252" transform="matrix(1.00, 0.00, -0.00, -1.00, 72.4, 220.1)">u</text><text xml:space="preserve" font-family="GillSans-Light,Gill Sans" font-size="38.0" fill="#525252" transform="matrix(1.00, 0.00, -0.00, -1.00, 91.1, 220.1)">n</text><text xml:space="preserve" font-family="GillSans-Light,Gill Sans" font-size="38.0" fill="#525252" transform="matrix(1.00, 0.00, -0.00, -1.00, 109.7, 220.1)">d</text><text xml:space="preserve" font-family="GillSans-Light,Gill Sans" font-size="38.0" fill="#525252" transform="matrix(1.00, 0.00, -0.00, -1.00, 129.1, 220.1)">s</text><text xml:space="preserve" font-family="GillSans-Light,Gill Sans" font-size="38.0" fill="#525252" transform="matrix(1.00, 0.00, -0.00, -1.00, 142.5, 220.1)"> </text><text xml:space="preserve" font-family="GillSans-Light,Gill Sans" font-size="38.0" fill="#525252" transform="matrix(1.00, 0.00, -0.00, -1.00, 153.1, 220.1)">l</text><text xml:space="preserve" font-family="GillSans-Light,Gill Sans" font-size="38.0" fill="#525252" transform="matrix(1.00, 0.00, -0.00, -1.00, 160.2, 220.1)">i</text><text xml:space="preserve" font-family="GillSans-Light,Gill Sans" font-size="38.0" fill="#525252" transform="matrix(1.00, 0.00, -0.00, -1.00, 167.4, 220.1)">k</text><text xml:space="preserve" font-family="GillSans-Light,Gill Sans" font-size="38.0" fill="#525252" transform="matrix(1.00, 0.00, -0.00, -1.00, 183.2, 220.1)">e</text><text xml:space="preserve" font-family="GillSans-Light,Gill Sans" font-size="38.0" fill="#525252" transform="matrix(1.00, 0.00, -0.00, -1.00, 201.4, 220.1)"> </text><text xml:space="preserve" font-family="GillSans-Light,Gill Sans" font-size="38.0" fill="#525252" transform="matrix(1.00, 0.00, -0.00, -1.00, 211.9, 220.1)">a</text><text xml:space="preserve" font-family="GillSans-Light,Gill Sans" font-size="38.0" fill="#525252" transform="matrix(1.00, 0.00, -0.00, -1.00, 228.2, 220.1)"> </text><text xml:space="preserve" font-family="GillSans-Light,Gill Sans" font-size="38.0" fill="#525252" transform="matrix(1.00, 0.00, -0.00, -1.00, 238.7, 220.1)">c</text><text xml:space="preserve" font-family="GillSans-Light,Gill Sans" font-size="38.0" fill="#525252" transform="matrix(1.00, 0.00, -0.00, -1.00, 254.6, 220.1)">r</text><text xml:space="preserve" font-family="GillSans-Light,Gill Sans" font-size="38.0" fill="#525252" transform="matrix(1.00, 0.00, -0.00, -1.00, 267.2, 220.1)">o</text><text xml:space="preserve" font-family="GillSans-Light,Gill Sans" font-size="38.0" fill="#525252" transform="matrix(1.00, 0.00, -0.00, -1.00, 287.8, 220.1)">s</text><text xml:space="preserve" font-family="GillSans-Light,Gill Sans" font-size="38.0" fill="#525252" transform="matrix(1.00, 0.00, -0.00, -1.00, 301.3, 220.1)">s</text><text xml:space="preserve" font-family="GillSans-Light,Gill Sans" font-size="38.0" fill="#525252" transform="matrix(1.00, 0.00, -0.00, -1.00, 314.7, 220.1)"> </text><text xml:space="preserve" font-family="GillSans-Light,Gill Sans" font-size="38.0" fill="#525252" transform="matrix(1.00, 0.00, -0.00, -1.00, 325.3, 220.1)">b</text><text xml:space="preserve" font-family="GillSans-Light,Gill Sans" font-size="38.0" fill="#525252" transform="matrix(1.00, 0.00, -0.00, -1.00, 344.6, 220.1)">e</text><text xml:space="preserve" font-family="GillSans-Light,Gill Sans" font-size="38.0" fill="#525252" transform="matrix(1.00, 0.00, -0.00, -1.00, 362.8, 220.1)">t</text><text xml:space="preserve" font-family="GillSans-Light,Gill Sans" font-size="38.0" fill="#525252" transform="matrix(1.00, 0.00, -0.00, -1.00, 374.3, 220.1)">w</text><text xml:space="preserve" font-family="GillSans-Light,Gill Sans" font-size="38.0" fill="#525252" transform="matrix(1.00, 0.00, -0.00, -1.00, 400.6, 220.1)">e</text><text xml:space="preserve" font-family="GillSans-Light,Gill Sans" font-size="38.0" fill="#525252" transform="matrix(1.00, 0.00, -0.00, -1.00, 418.8, 220.1)">e</text><text xml:space="preserve" font-family="GillSans-Light,Gill Sans" font-size="38.0" fill="#525252" transform="matrix(1.00, 0.00, -0.00, -1.00, 437.0, 220.1)">n</text><text xml:space="preserve" font-family="GillSans-Light,Gill Sans" font-size="38.0" fill="#525252" transform="matrix(1.00, 0.00, -0.00, -1.00, 455.7, 220.1)"> </text><text xml:space="preserve" font-family="GillSans-Light,Gill Sans" font-size="38.0" fill="#525252" transform="matrix(1.00, 0.00, -0.00, -1.00, 34.0, 177.1)">s</text><text xml:space="preserve" font-family="GillSans-Light,Gill Sans" font-size="38.0" fill="#525252" transform="matrix(1.00, 0.00, -0.00, -1.00, 47.5, 177.1)">i</text><text xml:space="preserve" font-family="GillSans-Light,Gill Sans" font-size="38.0" fill="#525252" transform="matrix(1.00, 0.00, -0.00, -1.00, 54.6, 177.1)">n</text><text xml:space="preserve" font-family="GillSans-Light,Gill Sans" font-size="38.0" fill="#525252" transform="matrix(1.00, 0.00, -0.00, -1.00, 73.2, 177.1)">e</text><text xml:space="preserve" font-family="GillSans-Light,Gill Sans" font-size="38.0" fill="#525252" transform="matrix(1.00, 0.00, -0.00, -1.00, 91.4, 177.1)"> </text><text xml:space="preserve" font-family="GillSans-Light,Gill Sans" font-size="38.0" fill="#525252" transform="matrix(1.00, 0.00, -0.00, -1.00, 102.0, 177.1)">a</text><text xml:space="preserve" font-family="GillSans-Light,Gill Sans" font-size="38.0" fill="#525252" transform="matrix(1.00, 0.00, -0.00, -1.00, 118.2, 177.1)">n</text><text xml:space="preserve" font-family="GillSans-Light,Gill Sans" font-size="38.0" fill="#525252" transform="matrix(1.00, 0.00, -0.00, -1.00, 136.8, 177.1)">d</text><text xml:space="preserve" font-family="GillSans-Light,Gill Sans" font-size="38.0" fill="#525252" transform="matrix(1.00, 0.00, -0.00, -1.00, 156.2, 177.1)"> </text><text xml:space="preserve" font-family="GillSans-Light,Gill Sans" font-size="38.0" fill="#525252" transform="matrix(1.00, 0.00, -0.00, -1.00, 166.7, 177.1)">s</text><text xml:space="preserve" font-family="GillSans-Light,Gill Sans" font-size="38.0" fill="#525252" transform="matrix(1.00, 0.00, -0.00, -1.00, 180.2, 177.1)">q</text><text xml:space="preserve" font-family="GillSans-Light,Gill Sans" font-size="38.0" fill="#525252" transform="matrix(1.00, 0.00, -0.00, -1.00, 199.6, 177.1)">u</text><text xml:space="preserve" font-family="GillSans-Light,Gill Sans" font-size="38.0" fill="#525252" transform="matrix(1.00, 0.00, -0.00, -1.00, 218.2, 177.1)">a</text><text xml:space="preserve" font-family="GillSans-Light,Gill Sans" font-size="38.0" fill="#525252" transform="matrix(1.00, 0.00, -0.00, -1.00, 234.4, 177.1)">r</text><text xml:space="preserve" font-family="GillSans-Light,Gill Sans" font-size="38.0" fill="#525252" transform="matrix(1.00, 0.00, -0.00, -1.00, 247.1, 177.1)">e</text><text xml:space="preserve" font-family="GillSans-Light,Gill Sans" font-size="38.0" fill="#525252" transform="matrix(1.00, 0.00, -0.00, -1.00, 265.3, 177.1)">	</text><text xml:space="preserve" font-family="GillSans-Light,Gill Sans" font-size="38.0" fill="#525252" transform="matrix(1.00, 0.00, -0.00, -1.00, 293.3, 177.1)">
</text><text xml:space="preserve" font-family="GillSans-Light,Gill Sans" font-size="38.0" fill="#525252" transform="matrix(1.00, 0.00, -0.00, -1.00, 293.3, 177.1)"></text><text xml:space="preserve" font-family="GillSans-Light,Gill Sans" font-size="31.2" fill="#525252" transform="matrix(1.00, 0.00, -0.00, -1.00, 0.0, 98.4)">•</text><text xml:space="preserve" font-family="GillSans-Light,Gill Sans" font-size="38.0" fill="#525252" transform="matrix(1.00, 0.00, -0.00, -1.00, 34.0, 96.1)">C</text><text xml:space="preserve" font-family="GillSans-Light,Gill Sans" font-size="38.0" fill="#525252" transform="matrix(1.00, 0.00, -0.00, -1.00, 59.7, 96.1)">o</text><text xml:space="preserve" font-family="GillSans-Light,Gill Sans" font-size="38.0" fill="#525252" transform="matrix(1.00, 0.00, -0.00, -1.00, 80.3, 96.1)">n</text><text xml:space="preserve" font-family="GillSans-Light,Gill Sans" font-size="38.0" fill="#525252" transform="matrix(1.00, 0.00, -0.00, -1.00, 98.9, 96.1)">t</text><text xml:space="preserve" font-family="GillSans-Light,Gill Sans" font-size="38.0" fill="#525252" transform="matrix(1.00, 0.00, -0.00, -1.00, 110.4, 96.1)">a</text><text xml:space="preserve" font-family="GillSans-Light,Gill Sans" font-size="38.0" fill="#525252" transform="matrix(1.00, 0.00, -0.00, -1.00, 126.6, 96.1)">i</text><text xml:space="preserve" font-family="GillSans-Light,Gill Sans" font-size="38.0" fill="#525252" transform="matrix(1.00, 0.00, -0.00, -1.00, 133.8, 96.1)">n</text><text xml:space="preserve" font-family="GillSans-Light,Gill Sans" font-size="38.0" fill="#525252" transform="matrix(1.00, 0.00, -0.00, -1.00, 152.4, 96.1)">s</text><text xml:space="preserve" font-family="GillSans-Light,Gill Sans" font-size="38.0" fill="#525252" transform="matrix(1.00, 0.00, -0.00, -1.00, 165.8, 96.1)"> </text><text xml:space="preserve" font-family="GillSans-Light,Gill Sans" font-size="38.0" fill="#525252" transform="matrix(1.00, 0.00, -0.00, -1.00, 176.4, 96.1)">o</text><text xml:space="preserve" font-family="GillSans-Light,Gill Sans" font-size="38.0" fill="#525252" transform="matrix(1.00, 0.00, -0.00, -1.00, 197.0, 96.1)">d</text><text xml:space="preserve" font-family="GillSans-Light,Gill Sans" font-size="38.0" fill="#525252" transform="matrix(1.00, 0.00, -0.00, -1.00, 216.4, 96.1)">d</text><text xml:space="preserve" font-family="GillSans-Light,Gill Sans" font-size="38.0" fill="#525252" transform="matrix(1.00, 0.00, -0.00, -1.00, 235.7, 96.1)"> </text><text xml:space="preserve" font-family="GillSans-Light,Gill Sans" font-size="38.0" fill="#525252" transform="matrix(1.00, 0.00, -0.00, -1.00, 246.3, 96.1)">h</text><text xml:space="preserve" font-family="GillSans-Light,Gill Sans" font-size="38.0" fill="#525252" transform="matrix(1.00, 0.00, -0.00, -1.00, 264.9, 96.1)">a</text><text xml:space="preserve" font-family="GillSans-Light,Gill Sans" font-size="38.0" fill="#525252" transform="matrix(1.00, 0.00, -0.00, -1.00, 281.1, 96.1)">r</text><text xml:space="preserve" font-family="GillSans-Light,Gill Sans" font-size="38.0" fill="#525252" transform="matrix(1.00, 0.00, -0.00, -1.00, 294.7, 96.1)">m</text><text xml:space="preserve" font-family="GillSans-Light,Gill Sans" font-size="38.0" fill="#525252" transform="matrix(1.00, 0.00, -0.00, -1.00, 324.0, 96.1)">o</text><text xml:space="preserve" font-family="GillSans-Light,Gill Sans" font-size="38.0" fill="#525252" transform="matrix(1.00, 0.00, -0.00, -1.00, 344.6, 96.1)">n</text><text xml:space="preserve" font-family="GillSans-Light,Gill Sans" font-size="38.0" fill="#525252" transform="matrix(1.00, 0.00, -0.00, -1.00, 363.2, 96.1)">i</text><text xml:space="preserve" font-family="GillSans-Light,Gill Sans" font-size="38.0" fill="#525252" transform="matrix(1.00, 0.00, -0.00, -1.00, 370.4, 96.1)">c</text><text xml:space="preserve" font-family="GillSans-Light,Gill Sans" font-size="38.0" fill="#525252" transform="matrix(1.00, 0.00, -0.00, -1.00, 386.2, 96.1)">s</text><text xml:space="preserve" font-family="GillSans-Light,Gill Sans" font-size="38.0" fill="#525252" transform="matrix(1.00, 0.00, -0.00, -1.00, 399.7, 96.1)"> </text><text xml:space="preserve" font-family="GillSans-Light,Gill Sans" font-size="38.0" fill="#525252" transform="matrix(1.00, 0.00, -0.00, -1.00, 34.0, 53.1)">(</text><text xml:space="preserve" font-family="GillSans-Light,Gill Sans" font-size="38.0" fill="#525252" transform="matrix(1.00, 0.00, -0.00, -1.00, 46.7, 53.1)">l</text><text xml:space="preserve" font-family="GillSans-Light,Gill Sans" font-size="38.0" fill="#525252" transform="matrix(1.00, 0.00, -0.00, -1.00, 53.8, 53.1)">i</text><text xml:space="preserve" font-family="GillSans-Light,Gill Sans" font-size="38.0" fill="#525252" transform="matrix(1.00, 0.00, -0.00, -1.00, 60.9, 53.1)">k</text><text xml:space="preserve" font-family="GillSans-Light,Gill Sans" font-size="38.0" fill="#525252" transform="matrix(1.00, 0.00, -0.00, -1.00, 76.8, 53.1)">e</text><text xml:space="preserve" font-family="GillSans-Light,Gill Sans" font-size="38.0" fill="#525252" transform="matrix(1.00, 0.00, -0.00, -1.00, 95.0, 53.1)"> </text><text xml:space="preserve" font-family="GillSans-Light,Gill Sans" font-size="38.0" fill="#525252" transform="matrix(1.00, 0.00, -0.00, -1.00, 105.5, 53.1)">a</text><text xml:space="preserve" font-family="GillSans-Light,Gill Sans" font-size="38.0" fill="#525252" transform="matrix(1.00, 0.00, -0.00, -1.00, 121.7, 53.1)"> </text><text xml:space="preserve" font-family="GillSans-Light,Gill Sans" font-size="38.0" fill="#525252" transform="matrix(1.00, 0.00, -0.00, -1.00, 132.3, 53.1)">s</text><text xml:space="preserve" font-family="GillSans-Light,Gill Sans" font-size="38.0" fill="#525252" transform="matrix(1.00, 0.00, -0.00, -1.00, 145.7, 53.1)">q</text><text xml:space="preserve" font-family="GillSans-Light,Gill Sans" font-size="38.0" fill="#525252" transform="matrix(1.00, 0.00, -0.00, -1.00, 165.1, 53.1)">u</text><text xml:space="preserve" font-family="GillSans-Light,Gill Sans" font-size="38.0" fill="#525252" transform="matrix(1.00, 0.00, -0.00, -1.00, 183.7, 53.1)">a</text><text xml:space="preserve" font-family="GillSans-Light,Gill Sans" font-size="38.0" fill="#525252" transform="matrix(1.00, 0.00, -0.00, -1.00, 200.0, 53.1)">r</text><text xml:space="preserve" font-family="GillSans-Light,Gill Sans" font-size="38.0" fill="#525252" transform="matrix(1.00, 0.00, -0.00, -1.00, 212.6, 53.1)">e</text><text xml:space="preserve" font-family="GillSans-Light,Gill Sans" font-size="38.0" fill="#525252" transform="matrix(1.00, 0.00, -0.00, -1.00, 230.8, 53.1)"> </text><text xml:space="preserve" font-family="GillSans-Light,Gill Sans" font-size="38.0" fill="#525252" transform="matrix(1.00, 0.00, -0.00, -1.00, 241.4, 53.1)">w</text><text xml:space="preserve" font-family="GillSans-Light,Gill Sans" font-size="38.0" fill="#525252" transform="matrix(1.00, 0.00, -0.00, -1.00, 268.3, 53.1)">a</text><text xml:space="preserve" font-family="GillSans-Light,Gill Sans" font-size="38.0" fill="#525252" transform="matrix(1.00, 0.00, -0.00, -1.00, 283.5, 53.1)">v</text><text xml:space="preserve" font-family="GillSans-Light,Gill Sans" font-size="38.0" fill="#525252" transform="matrix(1.00, 0.00, -0.00, -1.00, 299.2, 53.1)">e</text><text xml:space="preserve" font-family="GillSans-Light,Gill Sans" font-size="38.0" fill="#525252" transform="matrix(1.00, 0.00, -0.00, -1.00, 317.4, 53.1)">)</text><text xml:space="preserve" font-family="GillSans-Light,Gill Sans" font-size="38.0" fill="#525252" transform="matrix(1.00, 0.00, -0.00, -1.00, 330.0, 53.1)">,</text><text xml:space="preserve" font-family="GillSans-Light,Gill Sans" font-size="38.0" fill="#525252" transform="matrix(1.00, 0.00, -0.00, -1.00, 333.7, 53.1)"> </text><text xml:space="preserve" font-family="GillSans-Light,Gill Sans" font-size="38.0" fill="#525252" transform="matrix(1.00, 0.00, -0.00, -1.00, 344.2, 53.1)">b</text><text xml:space="preserve" font-family="GillSans-Light,Gill Sans" font-size="38.0" fill="#525252" transform="matrix(1.00, 0.00, -0.00, -1.00, 363.2, 53.1)">u</text><text xml:space="preserve" font-family="GillSans-Light,Gill Sans" font-size="38.0" fill="#525252" transform="matrix(1.00, 0.00, -0.00, -1.00, 381.9, 53.1)">t</text><text xml:space="preserve" font-family="GillSans-Light,Gill Sans" font-size="38.0" fill="#525252" transform="matrix(1.00, 0.00, -0.00, -1.00, 393.3, 53.1)"> </text><text xml:space="preserve" font-family="GillSans-Light,Gill Sans" font-size="38.0" fill="#525252" transform="matrix(1.00, 0.00, -0.00, -1.00, 34.0, 10.1)">w</text><text xml:space="preserve" font-family="GillSans-Light,Gill Sans" font-size="38.0" fill="#525252" transform="matrix(1.00, 0.00, -0.00, -1.00, 60.9, 10.1)">i</text><text xml:space="preserve" font-family="GillSans-Light,Gill Sans" font-size="38.0" fill="#525252" transform="matrix(1.00, 0.00, -0.00, -1.00, 68.0, 10.1)">t</text><text xml:space="preserve" font-family="GillSans-Light,Gill Sans" font-size="38.0" fill="#525252" transform="matrix(1.00, 0.00, -0.00, -1.00, 79.5, 10.1)">h</text><text xml:space="preserve" font-family="GillSans-Light,Gill Sans" font-size="38.0" fill="#525252" transform="matrix(1.00, 0.00, -0.00, -1.00, 98.1, 10.1)"> </text><text xml:space="preserve" font-family="GillSans-Light,Gill Sans" font-size="38.0" fill="#525252" transform="matrix(1.00, 0.00, -0.00, -1.00, 108.7, 10.1)">d</text><text xml:space="preserve" font-family="GillSans-Light,Gill Sans" font-size="38.0" fill="#525252" transform="matrix(1.00, 0.00, -0.00, -1.00, 128.1, 10.1)">i</text><text xml:space="preserve" font-family="GillSans-Light,Gill Sans" font-size="38.0" fill="#525252" transform="matrix(1.00, 0.00, -0.00, -1.00, 135.2, 10.1)">f</text><text xml:space="preserve" font-family="GillSans-Light,Gill Sans" font-size="38.0" fill="#525252" transform="matrix(1.00, 0.00, -0.00, -1.00, 144.3, 10.1)">f</text><text xml:space="preserve" font-family="GillSans-Light,Gill Sans" font-size="38.0" fill="#525252" transform="matrix(1.00, 0.00, -0.00, -1.00, 152.9, 10.1)">e</text><text xml:space="preserve" font-family="GillSans-Light,Gill Sans" font-size="38.0" fill="#525252" transform="matrix(1.00, 0.00, -0.00, -1.00, 171.1, 10.1)">r</text><text xml:space="preserve" font-family="GillSans-Light,Gill Sans" font-size="38.0" fill="#525252" transform="matrix(1.00, 0.00, -0.00, -1.00, 183.8, 10.1)">e</text><text xml:space="preserve" font-family="GillSans-Light,Gill Sans" font-size="38.0" fill="#525252" transform="matrix(1.00, 0.00, -0.00, -1.00, 202.0, 10.1)">n</text><text xml:space="preserve" font-family="GillSans-Light,Gill Sans" font-size="38.0" fill="#525252" transform="matrix(1.00, 0.00, -0.00, -1.00, 220.6, 10.1)">t</text><text xml:space="preserve" font-family="GillSans-Light,Gill Sans" font-size="38.0" fill="#525252" transform="matrix(1.00, 0.00, -0.00, -1.00, 232.1, 10.1)"> </text><text xml:space="preserve" font-family="GillSans-Light,Gill Sans" font-size="38.0" fill="#525252" transform="matrix(1.00, 0.00, -0.00, -1.00, 242.6, 10.1)">a</text><text xml:space="preserve" font-family="GillSans-Light,Gill Sans" font-size="38.0" fill="#525252" transform="matrix(1.00, 0.00, -0.00, -1.00, 258.8, 10.1)">m</text><text xml:space="preserve" font-family="GillSans-Light,Gill Sans" font-size="38.0" fill="#525252" transform="matrix(1.00, 0.00, -0.00, -1.00, 288.1, 10.1)">p</text><text xml:space="preserve" font-family="GillSans-Light,Gill Sans" font-size="38.0" fill="#525252" transform="matrix(1.00, 0.00, -0.00, -1.00, 307.5, 10.1)">l</text><text xml:space="preserve" font-family="GillSans-Light,Gill Sans" font-size="38.0" fill="#525252" transform="matrix(1.00, 0.00, -0.00, -1.00, 314.6, 10.1)">i</text><text xml:space="preserve" font-family="GillSans-Light,Gill Sans" font-size="38.0" fill="#525252" transform="matrix(1.00, 0.00, -0.00, -1.00, 321.8, 10.1)">t</text><text xml:space="preserve" font-family="GillSans-Light,Gill Sans" font-size="38.0" fill="#525252" transform="matrix(1.00, 0.00, -0.00, -1.00, 333.2, 10.1)">u</text><text xml:space="preserve" font-family="GillSans-Light,Gill Sans" font-size="38.0" fill="#525252" transform="matrix(1.00, 0.00, -0.00, -1.00, 351.9, 10.1)">d</text><text xml:space="preserve" font-family="GillSans-Light,Gill Sans" font-size="38.0" fill="#525252" transform="matrix(1.00, 0.00, -0.00, -1.00, 371.2, 10.1)">e</text><text xml:space="preserve" font-family="GillSans-Light,Gill Sans" font-size="38.0" fill="#525252" transform="matrix(1.00, 0.00, -0.00, -1.00, 389.4, 10.1)">s</text></g></svg>