<?xml version="1.0" encoding="UTF-8" standalone="no"?><svg xmlns="http://www.w3.org/2000/svg" xmlns:xlink="http://www.w3.org/1999/xlink" clip-rule="evenodd" stroke-miterlimit="10" viewBox="0 0 1024 768"><desc>SVG generated by Keynote</desc><defs></defs><g transform="matrix(1.00, 0.00, -0.00, -1.00, 0.0, 768.0)"><g><clipPath id="clip0x6080016a23a0"><path d="M 0.0 768.0 L 1024.0 768.0 L 1024.0 0.0 L 0.0 0.0 Z M 0.0 768.0 "></path></clipPath><g clip-path="url(#clip0x6080016a23a0)"><image xlink:href="../../AA67522E-33CB-4827-90AD-B35304285A38/assets/527288347077A8BC66C9A53B775387A8.jpeg" width="2048.00" height="1536.00" transform="matrix(0.50, 0.00, -0.00, -0.50, 0.0, 768.0)"></image></g></g><text xml:space="preserve" font-family="GillSans-Light,Gill Sans" font-size="72.0" fill="#525252" transform="matrix(1.00, 0.00, -0.00, -1.00, 196.6, 628.2)">A</text><text xml:space="preserve" font-family="GillSans-Light,Gill Sans" font-size="72.0" fill="#525252" transform="matrix(1.00, 0.00, -0.00, -1.00, 244.6, 628.2)">D</text><text xml:space="preserve" font-family="GillSans-Light,Gill Sans" font-size="72.0" fill="#525252" transform="matrix(1.00, 0.00, -0.00, -1.00, 297.9, 628.2)">D</text><text xml:space="preserve" font-family="GillSans-Light,Gill Sans" font-size="72.0" fill="#525252" transform="matrix(1.00, 0.00, -0.00, -1.00, 351.2, 628.2)">I</text><text xml:space="preserve" font-family="GillSans-Light,Gill Sans" font-size="72.0" fill="#525252" transform="matrix(1.00, 0.00, -0.00, -1.00, 366.2, 628.2)">N</text><text xml:space="preserve" font-family="GillSans-Light,Gill Sans" font-size="72.0" fill="#525252" transform="matrix(1.00, 0.00, -0.00, -1.00, 421.7, 628.2)">G</text><text xml:space="preserve" font-family="GillSans-Light,Gill Sans" font-size="72.0" fill="#525252" transform="matrix(1.00, 0.00, -0.00, -1.00, 473.5, 628.2)"> </text><text xml:space="preserve" font-family="GillSans-Light,Gill Sans" font-size="72.0" fill="#525252" transform="matrix(1.00, 0.00, -0.00, -1.00, 493.5, 628.2)">E</text><text xml:space="preserve" font-family="GillSans-Light,Gill Sans" font-size="72.0" fill="#525252" transform="matrix(1.00, 0.00, -0.00, -1.00, 528.8, 628.2)">N</text><text xml:space="preserve" font-family="GillSans-Light,Gill Sans" font-size="72.0" fill="#525252" transform="matrix(1.00, 0.00, -0.00, -1.00, 584.3, 628.2)">V</text><text xml:space="preserve" font-family="GillSans-Light,Gill Sans" font-size="72.0" fill="#525252" transform="matrix(1.00, 0.00, -0.00, -1.00, 627.1, 628.2)">E</text><text xml:space="preserve" font-family="GillSans-Light,Gill Sans" font-size="72.0" fill="#525252" transform="matrix(1.00, 0.00, -0.00, -1.00, 662.4, 628.2)">L</text><text xml:space="preserve" font-family="GillSans-Light,Gill Sans" font-size="72.0" fill="#525252" transform="matrix(1.00, 0.00, -0.00, -1.00, 696.2, 628.2)">O</text><text xml:space="preserve" font-family="GillSans-Light,Gill Sans" font-size="72.0" fill="#525252" transform="matrix(1.00, 0.00, -0.00, -1.00, 755.5, 628.2)">P</text><text xml:space="preserve" font-family="GillSans-Light,Gill Sans" font-size="72.0" fill="#525252" transform="matrix(1.00, 0.00, -0.00, -1.00, 792.2, 628.2)">E</text><text xml:space="preserve" font-family="GillSans-Light,Gill Sans" font-size="36.0" fill="#525252" transform="matrix(1.00, 0.00, -0.00, -1.00, 233.3, 109.4)">A</text><text xml:space="preserve" font-family="GillSans-Light,Gill Sans" font-size="36.0" fill="#525252" transform="matrix(1.00, 0.00, -0.00, -1.00, 257.3, 109.4)">d</text><text xml:space="preserve" font-family="GillSans-Light,Gill Sans" font-size="36.0" fill="#525252" transform="matrix(1.00, 0.00, -0.00, -1.00, 275.7, 109.4)">d</text><text xml:space="preserve" font-family="GillSans-Light,Gill Sans" font-size="36.0" fill="#525252" transform="matrix(1.00, 0.00, -0.00, -1.00, 294.0, 109.4)">i</text><text xml:space="preserve" font-family="GillSans-Light,Gill Sans" font-size="36.0" fill="#525252" transform="matrix(1.00, 0.00, -0.00, -1.00, 300.8, 109.4)">n</text><text xml:space="preserve" font-family="GillSans-Light,Gill Sans" font-size="36.0" fill="#525252" transform="matrix(1.00, 0.00, -0.00, -1.00, 318.4, 109.4)">g</text><text xml:space="preserve" font-family="GillSans-Light,Gill Sans" font-size="36.0" fill="#525252" transform="matrix(1.00, 0.00, -0.00, -1.00, 333.8, 109.4)"> </text><text xml:space="preserve" font-family="GillSans-Light,Gill Sans" font-size="36.0" fill="#525252" transform="matrix(1.00, 0.00, -0.00, -1.00, 343.8, 109.4)">a</text><text xml:space="preserve" font-family="GillSans-Light,Gill Sans" font-size="36.0" fill="#525252" transform="matrix(1.00, 0.00, -0.00, -1.00, 359.1, 109.4)"> </text><text xml:space="preserve" font-family="GillSans-Light,Gill Sans" font-size="36.0" fill="#525252" transform="matrix(1.00, 0.00, -0.00, -1.00, 369.1, 109.4)">D</text><text xml:space="preserve" font-family="GillSans-Light,Gill Sans" font-size="36.0" fill="#525252" transform="matrix(1.00, 0.00, -0.00, -1.00, 395.8, 109.4)">y</text><text xml:space="preserve" font-family="GillSans-Light,Gill Sans" font-size="36.0" fill="#525252" transform="matrix(1.00, 0.00, -0.00, -1.00, 410.8, 109.4)">n</text><text xml:space="preserve" font-family="GillSans-Light,Gill Sans" font-size="36.0" fill="#525252" transform="matrix(1.00, 0.00, -0.00, -1.00, 428.4, 109.4)">a</text><text xml:space="preserve" font-family="GillSans-Light,Gill Sans" font-size="36.0" fill="#525252" transform="matrix(1.00, 0.00, -0.00, -1.00, 443.8, 109.4)">m</text><text xml:space="preserve" font-family="GillSans-Light,Gill Sans" font-size="36.0" fill="#525252" transform="matrix(1.00, 0.00, -0.00, -1.00, 471.6, 109.4)">i</text><text xml:space="preserve" font-family="GillSans-Light,Gill Sans" font-size="36.0" fill="#525252" transform="matrix(1.00, 0.00, -0.00, -1.00, 478.3, 109.4)">c</text><text xml:space="preserve" font-family="GillSans-Light,Gill Sans" font-size="36.0" fill="#525252" transform="matrix(1.00, 0.00, -0.00, -1.00, 493.3, 109.4)"> </text><text xml:space="preserve" font-family="GillSans-Light,Gill Sans" font-size="36.0" fill="#525252" transform="matrix(1.00, 0.00, -0.00, -1.00, 503.3, 109.4)">E</text><text xml:space="preserve" font-family="GillSans-Light,Gill Sans" font-size="36.0" fill="#525252" transform="matrix(1.00, 0.00, -0.00, -1.00, 521.0, 109.4)">n</text><text xml:space="preserve" font-family="GillSans-Light,Gill Sans" font-size="36.0" fill="#525252" transform="matrix(1.00, 0.00, -0.00, -1.00, 538.1, 109.4)">v</text><text xml:space="preserve" font-family="GillSans-Light,Gill Sans" font-size="36.0" fill="#525252" transform="matrix(1.00, 0.00, -0.00, -1.00, 552.9, 109.4)">e</text><text xml:space="preserve" font-family="GillSans-Light,Gill Sans" font-size="36.0" fill="#525252" transform="matrix(1.00, 0.00, -0.00, -1.00, 570.2, 109.4)">l</text><text xml:space="preserve" font-family="GillSans-Light,Gill Sans" font-size="36.0" fill="#525252" transform="matrix(1.00, 0.00, -0.00, -1.00, 576.9, 109.4)">o</text><text xml:space="preserve" font-family="GillSans-Light,Gill Sans" font-size="36.0" fill="#525252" transform="matrix(1.00, 0.00, -0.00, -1.00, 596.4, 109.4)">p</text><text xml:space="preserve" font-family="GillSans-Light,Gill Sans" font-size="36.0" fill="#525252" transform="matrix(1.00, 0.00, -0.00, -1.00, 614.8, 109.4)">e</text><text xml:space="preserve" font-family="GillSans-Light,Gill Sans" font-size="36.0" fill="#525252" transform="matrix(1.00, 0.00, -0.00, -1.00, 632.0, 109.4)"> </text><text xml:space="preserve" font-family="GillSans-Light,Gill Sans" font-size="36.0" fill="#525252" transform="matrix(1.00, 0.00, -0.00, -1.00, 642.0, 109.4)">G</text><text xml:space="preserve" font-family="GillSans-Light,Gill Sans" font-size="36.0" fill="#525252" transform="matrix(1.00, 0.00, -0.00, -1.00, 667.9, 109.4)">e</text><text xml:space="preserve" font-family="GillSans-Light,Gill Sans" font-size="36.0" fill="#525252" transform="matrix(1.00, 0.00, -0.00, -1.00, 685.2, 109.4)">n</text><text xml:space="preserve" font-family="GillSans-Light,Gill Sans" font-size="36.0" fill="#525252" transform="matrix(1.00, 0.00, -0.00, -1.00, 702.8, 109.4)">e</text><text xml:space="preserve" font-family="GillSans-Light,Gill Sans" font-size="36.0" fill="#525252" transform="matrix(1.00, 0.00, -0.00, -1.00, 720.1, 109.4)">r</text><text xml:space="preserve" font-family="GillSans-Light,Gill Sans" font-size="36.0" fill="#525252" transform="matrix(1.00, 0.00, -0.00, -1.00, 732.9, 109.4)">a</text><text xml:space="preserve" font-family="GillSans-Light,Gill Sans" font-size="36.0" fill="#525252" transform="matrix(1.00, 0.00, -0.00, -1.00, 748.3, 109.4)">t</text><text xml:space="preserve" font-family="GillSans-Light,Gill Sans" font-size="36.0" fill="#525252" transform="matrix(1.00, 0.00, -0.00, -1.00, 759.2, 109.4)">o</text><text xml:space="preserve" font-family="GillSans-Light,Gill Sans" font-size="36.0" fill="#525252" transform="matrix(1.00, 0.00, -0.00, -1.00, 778.7, 109.4)">r</text><g opacity="0.00"><g><clipPath id="clip0x6080016a6a20"><path d="M 0.0 0.0 L 1024.0 0.0 L 1024.0 768.0 L 0.0 768.0 Z M 0.0 0.0 "></path></clipPath><g clip-path="url(#clip0x6080016a6a20)"><path d="M 554.0 543.2 C 554.8 543.0 557.9 542.2 557.9 542.1 C 556.7 542.5 554.2 543.0 554.0 543.2 C 554.0 543.2 554.0 543.2 554.0 543.2 Z M 547.8 544.4 C 548.9 544.3 551.4 543.8 552.2 543.6 C 550.9 543.9 548.2 544.2 547.8 544.4 C 547.8 544.4 547.8 544.4 547.8 544.4 Z M 557.3 542.0 C 558.9 541.5 561.9 540.5 562.6 540.1 C 561.0 540.8 558.0 541.7 557.3 542.0 C 557.3 542.0 557.3 542.0 557.3 542.0 Z M 482.8 504.1 C 482.9 504.8 484.0 507.9 484.1 507.9 C 483.7 506.8 482.9 504.3 482.8 504.1 C 482.8 504.1 482.8 504.1 482.8 504.1 Z M 491.1 520.6 C 491.8 521.6 493.5 523.8 494.1 524.4 C 493.2 523.3 491.5 520.9 491.1 520.6 C 491.1 520.6 491.1 520.6 491.1 520.6 Z M 498.4 529.1 C 500.3 530.9 502.4 532.7 502.0 532.3 C 501.4 531.8 498.6 529.2 498.4 529.1 C 498.4 529.1 498.4 529.1 498.4 529.1 Z M 554.2 538.4 C 551.9 539.0 550.2 539.3 548.6 539.5 C 540.7 540.7 552.7 539.0 554.2 538.4 C 554.2 538.4 554.2 538.4 554.2 538.4 Z M 514.3 539.8 C 512.7 539.1 511.4 538.4 510.6 538.0 C 512.1 538.8 514.1 539.9 514.3 539.8 C 514.3 539.8 514.3 539.8 514.3 539.8 Z M 528.8 544.5 C 529.2 544.7 538.1 545.9 543.1 545.5 C 538.9 545.7 528.4 544.4 528.8 544.5 C 528.8 544.5 528.8 544.5 528.8 544.5 Z M 535.2 539.9 C 529.9 539.5 521.7 537.1 518.1 535.5 C 514.5 534.0 524.4 538.9 534.1 540.0 C 543.9 541.1 535.9 540.1 539.9 540.1 C 543.8 540.0 536.1 539.9 532.1 539.4 C 528.2 538.9 534.7 539.8 535.2 539.9 C 535.2 539.9 535.2 539.9 535.2 539.9 Z M 535.5 539.5 C 537.4 539.7 539.0 539.7 540.1 539.7 C 538.1 539.6 536.3 539.5 535.5 539.5 C 535.5 539.5 535.5 539.5 535.5 539.5 Z M 581.1 525.2 C 582.4 525.4 586.7 522.2 590.3 517.7 C 591.2 516.6 592.0 515.4 592.8 514.2 C 598.2 505.2 600.8 494.9 600.5 484.5 C 600.5 482.5 600.3 480.4 600.1 478.3 C 599.2 472.0 597.4 465.8 594.4 459.9 C 593.4 457.9 592.4 456.0 591.1 454.1 C 586.8 447.3 580.9 441.5 574.4 437.1 C 571.1 434.9 567.7 432.9 564.0 431.3 C 562.2 430.4 553.9 427.9 550.9 427.5 C 552.4 427.6 549.7 427.0 546.6 426.7 C 543.6 426.4 540.2 426.4 540.6 426.4 C 539.0 426.5 537.4 426.6 535.8 426.8 C 534.2 426.9 536.2 426.7 538.2 426.7 C 536.4 426.8 534.6 427.0 532.8 427.2 C 530.9 427.4 528.9 427.8 527.0 428.2 C 520.6 429.5 514.0 432.3 508.7 435.7 C 505.1 437.9 500.0 441.7 495.4 446.8 C 490.8 451.9 487.0 458.0 484.6 463.8 C 479.8 475.4 480.0 484.9 480.4 480.8 C 481.4 471.7 481.1 476.4 480.8 478.9 C 480.6 480.3 480.5 482.2 480.4 484.4 C 480.4 484.3 480.3 484.2 480.3 483.8 C 480.1 487.9 480.3 493.8 481.6 499.3 C 481.4 498.2 481.1 496.9 481.1 496.4 C 481.6 499.2 481.3 497.0 481.7 498.8 C 482.8 503.9 483.5 506.3 482.1 500.4 C 483.5 505.9 485.0 509.2 487.8 514.1 C 488.7 516.0 488.2 515.0 487.9 514.4 C 489.6 517.8 494.9 524.8 495.4 525.4 C 495.6 525.7 491.7 521.2 488.9 516.5 C 486.1 511.9 484.4 507.3 485.2 509.3 C 485.8 510.9 487.4 514.1 488.1 515.3 C 486.6 512.7 485.1 509.2 484.3 507.5 C 485.1 509.4 486.3 512.1 487.0 513.6 C 486.1 511.8 485.5 510.5 485.2 510.0 C 486.4 512.7 487.4 514.7 489.3 517.8 C 490.2 519.1 488.6 516.6 490.5 519.4 C 490.9 519.9 489.3 517.5 489.4 517.7 C 490.9 520.0 494.3 524.4 495.2 525.4 C 496.1 526.4 493.1 522.8 493.0 522.7 C 496.3 526.9 500.7 531.0 504.5 533.9 C 508.4 536.8 511.9 538.6 513.5 539.4 C 516.8 541.0 513.7 539.5 512.4 538.7 C 516.2 540.7 519.2 542.0 524.0 543.3 C 527.1 544.2 525.9 543.8 524.7 543.5 C 525.5 543.7 526.2 543.8 526.7 543.9 C 527.1 544.0 528.0 544.2 528.6 544.3 C 526.7 543.9 523.1 543.0 521.6 542.4 C 524.4 543.3 531.2 544.8 533.8 545.0 C 529.8 544.5 525.5 543.6 521.2 542.1 C 529.6 544.9 538.7 545.8 545.8 545.0 C 544.5 545.1 543.9 545.1 542.9 545.1 C 545.6 545.0 549.6 544.6 551.9 544.0 C 553.2 543.7 555.7 543.1 558.2 542.3 C 553.8 543.7 550.8 544.2 547.6 544.6 C 547.7 544.6 548.0 544.5 548.5 544.4 C 541.4 545.2 537.3 545.3 532.2 544.6 C 531.8 544.6 531.4 544.5 531.0 544.4 C 529.4 544.1 535.2 544.9 535.8 544.8 C 528.2 544.2 520.3 541.7 516.9 540.1 C 525.2 543.7 533.2 544.9 539.9 544.8 C 538.1 544.7 531.4 544.2 528.3 543.5 C 535.5 544.9 539.5 544.7 541.9 544.6 C 544.2 544.6 544.9 544.5 545.4 544.4 C 544.3 544.5 543.2 544.5 542.1 544.6 C 542.3 544.5 542.6 544.5 542.9 544.5 C 549.3 544.2 556.6 542.2 556.3 542.3 C 556.0 542.4 550.3 543.9 544.1 544.3 C 544.8 544.2 545.4 544.1 546.0 544.0 C 553.2 543.3 561.1 540.8 567.6 537.4 C 566.5 537.9 567.1 537.6 568.4 536.8 C 566.3 537.9 563.4 539.3 561.1 540.1 C 561.9 539.8 563.3 539.2 563.7 539.0 C 562.5 539.4 560.8 540.1 560.2 540.3 C 563.4 539.1 566.7 537.5 569.8 535.6 C 570.4 535.1 568.5 536.4 568.6 536.2 C 571.6 534.5 575.6 531.7 577.5 529.9 C 575.2 531.8 570.5 535.1 568.9 535.9 C 569.9 535.3 570.9 534.7 571.8 534.0 C 573.8 532.7 574.7 532.0 572.5 533.5 C 571.3 534.2 571.3 534.2 571.6 534.0 C 572.9 533.1 577.4 529.6 577.2 529.6 C 576.1 530.5 571.5 533.8 570.3 534.5 C 571.1 533.8 573.5 532.3 573.7 532.0 C 568.7 535.7 568.7 535.3 567.4 536.1 C 568.0 535.8 569.5 534.9 569.5 534.9 C 566.2 536.9 562.8 538.5 559.2 539.7 C 559.2 539.7 559.2 539.7 559.2 539.7 C 559.2 539.7 559.2 539.7 559.2 539.7 C 559.2 539.7 559.2 539.7 559.2 539.7 C 559.5 539.5 559.3 539.5 559.0 539.6 C 560.5 539.0 562.1 538.4 564.9 537.1 C 564.1 537.3 561.5 538.5 559.1 539.4 C 559.1 539.4 559.1 539.3 559.2 539.3 C 563.1 538.0 568.8 535.0 572.3 532.5 C 570.7 533.6 564.4 537.2 559.9 538.9 C 560.0 538.9 560.1 538.8 560.3 538.7 C 554.6 540.9 547.5 542.1 540.8 542.3 C 544.0 542.0 547.8 541.9 551.9 541.0 C 553.8 540.6 555.6 540.1 557.3 539.4 C 559.9 538.7 564.9 536.7 569.2 534.2 C 573.5 531.6 577.0 528.5 577.7 527.9 C 578.5 527.1 575.7 529.7 572.5 531.9 C 569.3 534.1 565.6 536.0 565.6 536.0 C 565.5 536.0 572.1 532.2 569.0 534.0 C 567.4 535.0 563.7 536.9 561.0 538.0 C 560.9 537.9 560.8 537.9 560.6 537.8 C 563.0 536.9 565.7 535.5 565.9 535.6 C 567.0 535.0 569.4 533.7 569.7 533.4 C 569.3 533.7 568.7 534.0 568.7 534.0 C 569.3 533.6 570.0 533.2 570.1 533.1 C 567.4 534.7 563.6 536.6 560.5 537.9 C 560.2 537.9 559.9 538.0 559.6 538.0 C 559.7 538.0 562.1 537.1 564.1 536.1 C 566.3 535.0 561.8 537.2 558.1 538.4 C 557.5 538.6 556.9 538.7 556.3 538.9 C 557.6 538.5 559.1 538.0 560.8 537.3 C 562.8 536.5 562.7 536.4 564.6 535.4 C 561.0 537.1 556.5 538.7 552.9 539.6 C 551.5 539.8 550.1 540.0 548.7 540.1 C 551.8 539.6 554.6 538.8 556.2 538.3 C 557.5 537.9 558.9 537.4 559.4 537.2 C 558.1 537.6 561.3 536.4 560.8 536.5 C 559.1 537.2 555.6 538.3 554.4 538.8 C 551.6 539.5 548.5 540.1 545.7 540.3 C 545.4 540.4 545.0 540.4 544.6 540.4 C 547.0 540.2 549.2 539.9 551.7 539.3 C 550.5 539.4 543.7 540.4 538.7 540.4 C 528.5 540.0 518.2 537.3 509.3 531.4 C 509.0 531.1 508.5 530.8 507.9 530.4 C 507.3 529.9 506.7 529.4 506.1 528.8 C 508.2 530.4 510.1 531.7 511.6 532.6 C 508.5 530.6 510.7 532.1 514.0 533.9 C 517.3 535.6 521.7 537.3 522.3 537.4 C 516.7 535.4 509.0 531.4 502.4 525.1 C 495.8 518.7 491.3 510.6 489.1 504.2 C 490.2 507.2 490.6 508.2 489.4 504.9 C 489.1 504.0 488.8 503.1 488.5 502.2 C 490.6 508.7 494.0 515.1 498.4 520.5 C 502.8 525.9 508.2 530.1 513.1 532.8 C 507.3 529.5 499.7 522.1 498.1 519.9 C 499.3 521.4 501.3 523.6 501.7 523.8 C 500.5 522.5 497.9 519.7 495.8 516.6 C 493.6 513.5 492.0 510.3 491.3 508.8 C 494.8 516.1 501.1 524.2 508.5 529.6 C 516.0 535.0 524.0 537.7 529.8 538.7 C 521.1 537.1 511.3 532.6 503.5 525.3 C 495.7 518.0 491.0 508.9 488.7 501.6 C 489.5 504.2 489.5 504.2 489.0 502.9 C 487.5 498.4 486.7 493.8 486.4 488.9 C 486.4 488.0 486.4 488.3 486.6 490.6 C 486.8 492.5 486.9 493.6 487.1 494.2 C 486.9 492.9 485.9 478.1 486.7 489.9 C 487.1 495.8 489.2 503.6 491.3 508.3 C 493.5 513.0 494.5 514.9 491.9 509.5 C 489.3 504.0 488.4 499.9 488.1 498.0 C 487.7 496.2 487.7 496.7 488.6 499.8 C 489.4 503.0 491.8 509.4 494.6 513.8 C 497.4 518.3 499.8 521.0 497.6 518.1 C 495.5 515.3 492.6 510.6 490.6 505.4 C 488.6 500.2 487.6 494.6 487.3 490.6 C 487.0 486.5 487.1 487.9 487.0 488.8 C 486.9 489.7 486.5 490.1 486.8 484.1 C 487.1 478.1 487.6 477.6 487.5 478.3 C 487.4 479.0 487.2 481.0 487.3 479.8 C 487.8 476.2 489.3 469.6 492.1 463.7 C 494.1 459.7 497.6 454.7 499.6 452.4 C 499.6 452.5 497.2 455.3 495.7 457.7 C 494.1 460.1 493.1 462.0 494.5 459.6 C 498.0 453.8 503.4 448.3 507.1 445.3 C 510.9 442.3 512.9 441.2 510.2 442.9 C 517.3 438.1 523.1 436.2 528.1 435.1 C 535.9 433.4 545.2 434.0 546.2 434.1 C 546.8 434.2 552.6 434.8 558.8 437.0 C 565.1 439.3 571.6 443.6 574.8 446.5 C 575.0 446.7 578.1 449.3 580.9 452.4 C 583.6 455.5 585.8 458.9 586.2 459.5 C 589.8 465.6 590.5 468.6 591.3 471.4 C 592.2 474.3 593.1 477.1 593.5 483.9 C 594.1 495.2 592.3 498.7 591.8 500.5 C 590.2 506.4 588.7 509.1 587.7 511.1 C 586.7 513.1 586.0 514.5 584.5 517.2 C 583.5 518.8 581.7 521.0 581.2 522.0 C 580.3 523.9 580.0 525.1 581.1 525.2 C 581.1 525.2 581.1 525.2 581.1 525.2 Z M 557.6 540.4 C 559.8 539.8 563.7 538.2 565.9 537.2 C 563.4 538.5 560.2 539.8 556.9 540.8 C 557.1 540.7 557.4 540.5 557.6 540.4 C 557.6 540.4 557.6 540.4 557.6 540.4 Z M 540.3 541.4 C 541.8 541.4 543.5 541.4 545.2 541.2 C 546.8 541.1 548.4 540.9 550.8 540.4 C 550.5 540.4 546.6 541.0 543.6 541.2 C 543.6 541.2 543.6 541.2 543.6 541.1 C 545.1 541.0 546.8 540.8 548.9 540.5 C 549.6 540.4 550.3 540.3 551.0 540.1 C 551.0 540.2 549.9 540.4 549.5 540.5 C 550.1 540.5 551.9 540.2 554.2 539.7 C 554.5 539.6 554.8 539.5 555.1 539.5 C 555.5 539.5 553.7 540.0 555.7 539.4 C 554.3 539.9 550.7 540.7 548.4 541.0 C 550.9 540.5 541.2 541.6 538.8 541.4 C 539.3 541.4 539.8 541.4 540.3 541.4 Z M 520.7 541.9 C 519.4 541.5 518.1 541.0 516.7 540.4 C 518.7 541.2 520.2 541.7 521.6 542.2 C 521.3 542.1 521.0 542.0 520.7 541.9 Z M 498.4 444.1 C 495.2 447.3 490.7 452.9 487.9 458.0 C 485.0 463.1 483.5 467.8 483.4 468.3 C 482.8 470.1 482.3 471.9 481.9 473.7 C 484.5 462.0 491.8 450.5 498.4 444.1 C 498.4 444.1 498.4 444.1 498.4 444.1 Z M 488.4 472.4 C 488.2 473.0 488.3 472.7 488.7 471.2 C 491.1 463.2 493.8 458.8 491.5 463.6 C 489.5 467.8 487.0 477.3 487.6 474.5 C 488.5 470.7 489.7 467.1 491.4 463.5 C 492.8 460.7 494.4 458.1 496.4 455.7 C 492.5 461.1 489.9 466.9 488.4 472.4 C 488.4 472.4 488.4 472.4 488.4 472.4 Z M 498.8 452.8 C 497.2 454.7 495.5 457.0 494.1 459.4 C 495.3 457.3 496.8 455.2 498.4 453.2 C 498.5 453.1 498.7 452.9 498.8 452.8 Z M 501.0 450.5 C 497.5 454.2 494.7 458.2 497.7 454.3 C 498.4 453.4 499.1 452.5 499.9 451.6 C 500.2 451.3 500.6 450.9 501.0 450.5 Z M 503.2 448.4 C 503.1 448.4 502.4 449.0 501.3 450.2 C 503.6 447.7 508.9 443.5 508.7 443.8 C 506.9 445.1 505.0 446.6 503.2 448.4 C 503.2 448.4 503.2 448.4 503.2 448.4 Z M 502.9 440.0 C 501.0 441.4 499.3 442.8 502.3 440.3 C 503.4 439.4 504.6 438.5 505.8 437.7 C 504.8 438.4 503.8 439.1 502.9 440.0 Z M 519.5 535.9 C 518.7 535.6 515.6 534.1 513.8 533.2 C 513.5 533.3 520.6 536.5 519.5 535.9 C 519.5 535.9 519.5 535.9 519.5 535.9 Z M 531.7 539.2 C 530.9 539.1 527.6 538.4 525.6 537.9 C 525.4 538.1 532.9 539.5 531.7 539.2 C 531.7 539.2 531.7 539.2 531.7 539.2 Z M 574.8 446.5 C 574.8 446.5 574.8 446.5 574.8 446.5 C 574.8 446.5 574.8 446.5 574.8 446.5 C 574.8 446.5 574.8 446.5 574.8 446.5 Z M 574.8 446.5 " fill="#A51601"></path></g></g></g><image xlink:href="98862DA6D706173B7F4675F02D71269F.png" width="840.00" height="150.00" transform="matrix(1.00, 0.00, -0.00, -1.00, 92.0, 289.0)" opacity="0.75"></image><image xlink:href="5795FE91BE6FA7D8F4A454706D2122D8.png" width="600.00" height="340.00" transform="matrix(1.00, 0.00, -0.00, -1.00, 212.0, 554.0)"></image></g></svg>