<?xml version="1.0" encoding="UTF-8" standalone="no"?><svg xmlns="http://www.w3.org/2000/svg" xmlns:xlink="http://www.w3.org/1999/xlink" clip-rule="evenodd" stroke-miterlimit="10" viewBox="0 0 1024 768"><desc>SVG generated by Keynote</desc><defs></defs><g transform="matrix(1.00, 0.00, -0.00, -1.00, 0.0, 768.0)"><g><clipPath id="clip0x6080018ae880"><path d="M 0.0 768.0 L 1024.0 768.0 L 1024.0 0.0 L 0.0 0.0 Z M 0.0 768.0 "></path></clipPath><g clip-path="url(#clip0x6080018ae880)"><image xlink:href="../../AA67522E-33CB-4827-90AD-B35304285A38/assets/527288347077A8BC66C9A53B775387A8.jpeg" width="2048.00" height="1536.00" transform="matrix(0.50, 0.00, -0.00, -0.50, 0.0, 768.0)"></image></g></g><image xlink:href="../../60A2763F-1AEF-4754-9EB8-CA3E70DB82B8/assets/A4D00AB496F98B7FB7D3B41E5758F90F.png" width="573.00" height="150.00" transform="matrix(1.00, 0.00, -0.00, -1.00, 7.4, 340.3)" opacity="0.75"></image><g><clipPath id="clip0x6080018ae820"><path d="M 102.0 727.0 L 486.0 727.0 L 486.0 265.0 L 102.0 265.0 Z M 102.1 726.7 "></path></clipPath><g clip-path="url(#clip0x6080018ae820)"><image xlink:href="../../60A2763F-1AEF-4754-9EB8-CA3E70DB82B8/assets/1CA51FF50903FDE2696FF1A88F269536.png" width="348.00" height="808.00" transform="matrix(0.96, 0.00, -0.00, -0.96, 127.4, 726.7)"></image></g></g><text xml:space="preserve" font-family="GillSans-Light,Gill Sans" font-size="69.8" fill="#525252" transform="matrix(1.00, 0.00, -0.00, -1.00, 105.7, 149.6)">S</text><text xml:space="preserve" font-family="GillSans-Light,Gill Sans" font-size="69.8" fill="#525252" transform="matrix(1.00, 0.00, -0.00, -1.00, 138.5, 149.6)">Y</text><text xml:space="preserve" font-family="GillSans-Light,Gill Sans" font-size="69.8" fill="#525252" transform="matrix(1.00, 0.00, -0.00, -1.00, 179.2, 149.6)">N</text><text xml:space="preserve" font-family="GillSans-Light,Gill Sans" font-size="69.8" fill="#525252" transform="matrix(1.00, 0.00, -0.00, -1.00, 233.1, 149.6)">T</text><text xml:space="preserve" font-family="GillSans-Light,Gill Sans" font-size="69.8" fill="#525252" transform="matrix(1.00, 0.00, -0.00, -1.00, 273.1, 149.6)">H</text><text xml:space="preserve" font-family="GillSans-Light,Gill Sans" font-size="69.8" fill="#525252" transform="matrix(1.00, 0.00, -0.00, -1.00, 323.4, 149.6)">S</text><text xml:space="preserve" font-family="GillSans-Light,Gill Sans" font-size="69.8" fill="#525252" transform="matrix(1.00, 0.00, -0.00, -1.00, 356.1, 149.6)"> </text><text xml:space="preserve" font-family="GillSans-Light,Gill Sans" font-size="69.8" fill="#525252" transform="matrix(1.00, 0.00, -0.00, -1.00, 375.5, 149.6)">I</text><text xml:space="preserve" font-family="GillSans-Light,Gill Sans" font-size="69.8" fill="#525252" transform="matrix(1.00, 0.00, -0.00, -1.00, 390.1, 149.6)">N</text><text xml:space="preserve" font-family="GillSans-Light,Gill Sans" font-size="69.8" fill="#525252" transform="matrix(1.00, 0.00, -0.00, -1.00, 443.9, 149.6)"> </text><text xml:space="preserve" font-family="GillSans-Light,Gill Sans" font-size="69.8" fill="#525252" transform="matrix(1.00, 0.00, -0.00, -1.00, 463.3, 149.6)">G</text><text xml:space="preserve" font-family="GillSans-Light,Gill Sans" font-size="69.8" fill="#525252" transform="matrix(1.00, 0.00, -0.00, -1.00, 513.5, 149.6)">A</text><text xml:space="preserve" font-family="GillSans-Light,Gill Sans" font-size="69.8" fill="#525252" transform="matrix(1.00, 0.00, -0.00, -1.00, 560.1, 149.6)">R</text><text xml:space="preserve" font-family="GillSans-Light,Gill Sans" font-size="69.8" fill="#525252" transform="matrix(1.00, 0.00, -0.00, -1.00, 600.2, 149.6)">A</text><text xml:space="preserve" font-family="GillSans-Light,Gill Sans" font-size="69.8" fill="#525252" transform="matrix(1.00, 0.00, -0.00, -1.00, 643.3, 149.6)">G</text><text xml:space="preserve" font-family="GillSans-Light,Gill Sans" font-size="69.8" fill="#525252" transform="matrix(1.00, 0.00, -0.00, -1.00, 693.5, 149.6)">E</text><text xml:space="preserve" font-family="GillSans-Light,Gill Sans" font-size="69.8" fill="#525252" transform="matrix(1.00, 0.00, -0.00, -1.00, 727.8, 149.6)">B</text><text xml:space="preserve" font-family="GillSans-Light,Gill Sans" font-size="69.8" fill="#525252" transform="matrix(1.00, 0.00, -0.00, -1.00, 766.2, 149.6)">A</text><text xml:space="preserve" font-family="GillSans-Light,Gill Sans" font-size="69.8" fill="#525252" transform="matrix(1.00, 0.00, -0.00, -1.00, 812.8, 149.6)">N</text><text xml:space="preserve" font-family="GillSans-Light,Gill Sans" font-size="69.8" fill="#525252" transform="matrix(1.00, 0.00, -0.00, -1.00, 866.7, 149.6)">D</text><text xml:space="preserve" font-family="GillSans-Light,Gill Sans" font-size="38.0" fill="#525252" transform="matrix(1.00, 0.00, -0.00, -1.00, 291.4, 85.1)">C</text><text xml:space="preserve" font-family="GillSans-Light,Gill Sans" font-size="38.0" fill="#525252" transform="matrix(1.00, 0.00, -0.00, -1.00, 317.1, 85.1)">r</text><text xml:space="preserve" font-family="GillSans-Light,Gill Sans" font-size="38.0" fill="#525252" transform="matrix(1.00, 0.00, -0.00, -1.00, 329.8, 85.1)">e</text><text xml:space="preserve" font-family="GillSans-Light,Gill Sans" font-size="38.0" fill="#525252" transform="matrix(1.00, 0.00, -0.00, -1.00, 348.0, 85.1)">a</text><text xml:space="preserve" font-family="GillSans-Light,Gill Sans" font-size="38.0" fill="#525252" transform="matrix(1.00, 0.00, -0.00, -1.00, 364.2, 85.1)">t</text><text xml:space="preserve" font-family="GillSans-Light,Gill Sans" font-size="38.0" fill="#525252" transform="matrix(1.00, 0.00, -0.00, -1.00, 375.6, 85.1)">e</text><text xml:space="preserve" font-family="GillSans-Light,Gill Sans" font-size="38.0" fill="#525252" transform="matrix(1.00, 0.00, -0.00, -1.00, 393.8, 85.1)"> </text><text xml:space="preserve" font-family="GillSans-Light,Gill Sans" font-size="38.0" fill="#525252" transform="matrix(1.00, 0.00, -0.00, -1.00, 404.4, 85.1)">y</text><text xml:space="preserve" font-family="GillSans-Light,Gill Sans" font-size="38.0" fill="#525252" transform="matrix(1.00, 0.00, -0.00, -1.00, 419.5, 85.1)">o</text><text xml:space="preserve" font-family="GillSans-Light,Gill Sans" font-size="38.0" fill="#525252" transform="matrix(1.00, 0.00, -0.00, -1.00, 440.1, 85.1)">u</text><text xml:space="preserve" font-family="GillSans-Light,Gill Sans" font-size="38.0" fill="#525252" transform="matrix(1.00, 0.00, -0.00, -1.00, 458.7, 85.1)">r</text><text xml:space="preserve" font-family="GillSans-Light,Gill Sans" font-size="38.0" fill="#525252" transform="matrix(1.00, 0.00, -0.00, -1.00, 471.4, 85.1)"> </text><text xml:space="preserve" font-family="GillSans-Light,Gill Sans" font-size="38.0" fill="#525252" transform="matrix(1.00, 0.00, -0.00, -1.00, 481.9, 85.1)">o</text><text xml:space="preserve" font-family="GillSans-Light,Gill Sans" font-size="38.0" fill="#525252" transform="matrix(1.00, 0.00, -0.00, -1.00, 501.9, 85.1)">w</text><text xml:space="preserve" font-family="GillSans-Light,Gill Sans" font-size="38.0" fill="#525252" transform="matrix(1.00, 0.00, -0.00, -1.00, 528.8, 85.1)">n</text><text xml:space="preserve" font-family="GillSans-Light,Gill Sans" font-size="38.0" fill="#525252" transform="matrix(1.00, 0.00, -0.00, -1.00, 547.5, 85.1)"> </text><text xml:space="preserve" font-family="GillSans-Light,Gill Sans" font-size="38.0" fill="#525252" transform="matrix(1.00, 0.00, -0.00, -1.00, 558.0, 85.1)">i</text><text xml:space="preserve" font-family="GillSans-Light,Gill Sans" font-size="38.0" fill="#525252" transform="matrix(1.00, 0.00, -0.00, -1.00, 565.2, 85.1)">n</text><text xml:space="preserve" font-family="GillSans-Light,Gill Sans" font-size="38.0" fill="#525252" transform="matrix(1.00, 0.00, -0.00, -1.00, 583.8, 85.1)">s</text><text xml:space="preserve" font-family="GillSans-Light,Gill Sans" font-size="38.0" fill="#525252" transform="matrix(1.00, 0.00, -0.00, -1.00, 597.3, 85.1)">t</text><text xml:space="preserve" font-family="GillSans-Light,Gill Sans" font-size="38.0" fill="#525252" transform="matrix(1.00, 0.00, -0.00, -1.00, 608.7, 85.1)">r</text><text xml:space="preserve" font-family="GillSans-Light,Gill Sans" font-size="38.0" fill="#525252" transform="matrix(1.00, 0.00, -0.00, -1.00, 622.9, 85.1)">u</text><text xml:space="preserve" font-family="GillSans-Light,Gill Sans" font-size="38.0" fill="#525252" transform="matrix(1.00, 0.00, -0.00, -1.00, 641.5, 85.1)">m</text><text xml:space="preserve" font-family="GillSans-Light,Gill Sans" font-size="38.0" fill="#525252" transform="matrix(1.00, 0.00, -0.00, -1.00, 670.8, 85.1)">e</text><text xml:space="preserve" font-family="GillSans-Light,Gill Sans" font-size="38.0" fill="#525252" transform="matrix(1.00, 0.00, -0.00, -1.00, 689.0, 85.1)">n</text><text xml:space="preserve" font-family="GillSans-Light,Gill Sans" font-size="38.0" fill="#525252" transform="matrix(1.00, 0.00, -0.00, -1.00, 707.7, 85.1)">t</text><text xml:space="preserve" font-family="GillSans-Light,Gill Sans" font-size="38.0" fill="#525252" transform="matrix(1.00, 0.00, -0.00, -1.00, 719.1, 85.1)">s</text><image xlink:href="../../60A2763F-1AEF-4754-9EB8-CA3E70DB82B8/assets/F001C49F25AB285D140EC9CC8E832A35.png" width="588.00" height="150.00" transform="matrix(1.00, 0.00, -0.00, -1.00, 433.0, 340.3)" opacity="0.75"></image><image xlink:href="../../60A2763F-1AEF-4754-9EB8-CA3E70DB82B8/assets/2D3003CE99378E902AB20ED888A7986C.png" width="348.00" height="373.00" transform="matrix(1.00, 0.00, -0.00, -1.00, 553.0, 638.3)"></image></g></svg>