<?xml version="1.0" encoding="UTF-8" standalone="no"?><svg xmlns="http://www.w3.org/2000/svg" xmlns:xlink="http://www.w3.org/1999/xlink" clip-rule="evenodd" stroke-miterlimit="10" viewBox="0 0 1024 768"><desc>SVG generated by Keynote</desc><defs></defs><g transform="matrix(1.00, 0.00, -0.00, -1.00, 0.0, 768.0)"><g><clipPath id="clip0x600001ab2f00"><path d="M 0.0 768.0 L 1024.0 768.0 L 1024.0 0.0 L 0.0 0.0 Z M 0.0 768.0 "></path></clipPath><g clip-path="url(#clip0x600001ab2f00)"><image xlink:href="../../AA67522E-33CB-4827-90AD-B35304285A38/assets/527288347077A8BC66C9A53B775387A8.jpeg" width="2048.00" height="1536.00" transform="matrix(0.50, 0.00, -0.00, -0.50, 0.0, 768.0)"></image></g></g><image xlink:href="../../1A4A3E7C-6F6C-495E-A24D-463312865ECA/assets/227C997ECEB1AC7C096920675D76D428.png" width="656.00" height="150.00" transform="matrix(1.00, 0.00, -0.00, -1.00, 421.0, 223.9)" opacity="0.75"></image><g><clipPath id="clip0x6080016b8c00"><path d="M 541.0 549.0 L 957.0 549.0 L 957.0 62.0 L 541.0 62.0 Z M 541.0 549.0 "></path></clipPath><g clip-path="url(#clip0x6080016b8c00)"><image xlink:href="../../397C3BBA-ACC7-402C-8757-44358A5D4BFA/assets/31B3C037215721B5AE870FD4232B493D.jpeg" width="835.00" height="628.00" transform="matrix(0.50, 0.00, -0.00, -0.50, 541.0, 462.1)"></image></g></g><text xml:space="preserve" font-family="GillSans-Light,Gill Sans" font-size="72.0" fill="#525252" transform="matrix(1.00, 0.00, -0.00, -1.00, 220.8, 669.2)">L</text><text xml:space="preserve" font-family="GillSans-Light,Gill Sans" font-size="72.0" fill="#525252" transform="matrix(1.00, 0.00, -0.00, -1.00, 254.6, 669.2)">O</text><text xml:space="preserve" font-family="GillSans-Light,Gill Sans" font-size="72.0" fill="#525252" transform="matrix(1.00, 0.00, -0.00, -1.00, 311.0, 669.2)">W</text><text xml:space="preserve" font-family="GillSans-Light,Gill Sans" font-size="72.0" fill="#525252" transform="matrix(1.00, 0.00, -0.00, -1.00, 385.2, 669.2)"> </text><text xml:space="preserve" font-family="GillSans-Light,Gill Sans" font-size="72.0" fill="#525252" transform="matrix(1.00, 0.00, -0.00, -1.00, 405.2, 669.2)">F</text><text xml:space="preserve" font-family="GillSans-Light,Gill Sans" font-size="72.0" fill="#525252" transform="matrix(1.00, 0.00, -0.00, -1.00, 436.7, 669.2)">R</text><text xml:space="preserve" font-family="GillSans-Light,Gill Sans" font-size="72.0" fill="#525252" transform="matrix(1.00, 0.00, -0.00, -1.00, 478.0, 669.2)">E</text><text xml:space="preserve" font-family="GillSans-Light,Gill Sans" font-size="72.0" fill="#525252" transform="matrix(1.00, 0.00, -0.00, -1.00, 513.3, 669.2)">Q</text><text xml:space="preserve" font-family="GillSans-Light,Gill Sans" font-size="72.0" fill="#525252" transform="matrix(1.00, 0.00, -0.00, -1.00, 571.5, 669.2)">U</text><text xml:space="preserve" font-family="GillSans-Light,Gill Sans" font-size="72.0" fill="#525252" transform="matrix(1.00, 0.00, -0.00, -1.00, 621.8, 669.2)">E</text><text xml:space="preserve" font-family="GillSans-Light,Gill Sans" font-size="72.0" fill="#525252" transform="matrix(1.00, 0.00, -0.00, -1.00, 657.1, 669.2)">N</text><text xml:space="preserve" font-family="GillSans-Light,Gill Sans" font-size="72.0" fill="#525252" transform="matrix(1.00, 0.00, -0.00, -1.00, 712.6, 669.2)">C</text><text xml:space="preserve" font-family="GillSans-Light,Gill Sans" font-size="72.0" fill="#525252" transform="matrix(1.00, 0.00, -0.00, -1.00, 761.3, 669.2)">Y</text><text xml:space="preserve" font-family="GillSans-Light,Gill Sans" font-size="72.0" fill="#525252" transform="matrix(1.00, 0.00, -0.00, -1.00, 803.3, 669.2)"> </text><text xml:space="preserve" font-family="GillSans-Light,Gill Sans" font-size="72.0" fill="#525252" transform="matrix(1.00, 0.00, -0.00, -1.00, 214.9, 587.2)">O</text><text xml:space="preserve" font-family="GillSans-Light,Gill Sans" font-size="72.0" fill="#525252" transform="matrix(1.00, 0.00, -0.00, -1.00, 274.2, 587.2)">S</text><text xml:space="preserve" font-family="GillSans-Light,Gill Sans" font-size="72.0" fill="#525252" transform="matrix(1.00, 0.00, -0.00, -1.00, 308.0, 587.2)">C</text><text xml:space="preserve" font-family="GillSans-Light,Gill Sans" font-size="72.0" fill="#525252" transform="matrix(1.00, 0.00, -0.00, -1.00, 356.7, 587.2)">I</text><text xml:space="preserve" font-family="GillSans-Light,Gill Sans" font-size="72.0" fill="#525252" transform="matrix(1.00, 0.00, -0.00, -1.00, 371.7, 587.2)">L</text><text xml:space="preserve" font-family="GillSans-Light,Gill Sans" font-size="72.0" fill="#525252" transform="matrix(1.00, 0.00, -0.00, -1.00, 405.5, 587.2)">L</text><text xml:space="preserve" font-family="GillSans-Light,Gill Sans" font-size="72.0" fill="#525252" transform="matrix(1.00, 0.00, -0.00, -1.00, 439.3, 587.2)">A</text><text xml:space="preserve" font-family="GillSans-Light,Gill Sans" font-size="72.0" fill="#525252" transform="matrix(1.00, 0.00, -0.00, -1.00, 480.1, 587.2)">T</text><text xml:space="preserve" font-family="GillSans-Light,Gill Sans" font-size="72.0" fill="#525252" transform="matrix(1.00, 0.00, -0.00, -1.00, 516.0, 587.2)">O</text><text xml:space="preserve" font-family="GillSans-Light,Gill Sans" font-size="72.0" fill="#525252" transform="matrix(1.00, 0.00, -0.00, -1.00, 575.3, 587.2)">R</text><text xml:space="preserve" font-family="GillSans-Light,Gill Sans" font-size="72.0" fill="#525252" transform="matrix(1.00, 0.00, -0.00, -1.00, 616.6, 587.2)"> </text><text xml:space="preserve" font-family="GillSans-Light,Gill Sans" font-size="72.0" fill="#525252" transform="matrix(1.00, 0.00, -0.00, -1.00, 636.6, 587.2)">(</text><text xml:space="preserve" font-family="GillSans-Light,Gill Sans" font-size="72.0" fill="#525252" transform="matrix(1.00, 0.00, -0.00, -1.00, 660.6, 587.2)">L</text><text xml:space="preserve" font-family="GillSans-Light,Gill Sans" font-size="72.0" fill="#525252" transform="matrix(1.00, 0.00, -0.00, -1.00, 694.4, 587.2)">F</text><text xml:space="preserve" font-family="GillSans-Light,Gill Sans" font-size="72.0" fill="#525252" transform="matrix(1.00, 0.00, -0.00, -1.00, 725.9, 587.2)">O</text><text xml:space="preserve" font-family="GillSans-Light,Gill Sans" font-size="72.0" fill="#525252" transform="matrix(1.00, 0.00, -0.00, -1.00, 785.2, 587.2)">)</text><text xml:space="preserve" font-family="GillSans-Light,Gill Sans" font-size="31.2" fill="#525252" transform="matrix(1.00, 0.00, -0.00, -1.00, 32.0, 502.9)">•</text><text xml:space="preserve" font-family="GillSans-Light,Gill Sans" font-size="38.0" fill="#525252" transform="matrix(1.00, 0.00, -0.00, -1.00, 66.0, 500.6)">C</text><text xml:space="preserve" font-family="GillSans-Light,Gill Sans" font-size="38.0" fill="#525252" transform="matrix(1.00, 0.00, -0.00, -1.00, 91.7, 500.6)">a</text><text xml:space="preserve" font-family="GillSans-Light,Gill Sans" font-size="38.0" fill="#525252" transform="matrix(1.00, 0.00, -0.00, -1.00, 107.9, 500.6)">n</text><text xml:space="preserve" font-family="GillSans-Light,Gill Sans" font-size="38.0" fill="#525252" transform="matrix(1.00, 0.00, -0.00, -1.00, 126.6, 500.6)"> </text><text xml:space="preserve" font-family="GillSans-Light,Gill Sans" font-size="38.0" fill="#525252" transform="matrix(1.00, 0.00, -0.00, -1.00, 137.1, 500.6)">h</text><text xml:space="preserve" font-family="GillSans-Light,Gill Sans" font-size="38.0" fill="#525252" transform="matrix(1.00, 0.00, -0.00, -1.00, 155.7, 500.6)">a</text><text xml:space="preserve" font-family="GillSans-Light,Gill Sans" font-size="38.0" fill="#525252" transform="matrix(1.00, 0.00, -0.00, -1.00, 171.0, 500.6)">v</text><text xml:space="preserve" font-family="GillSans-Light,Gill Sans" font-size="38.0" fill="#525252" transform="matrix(1.00, 0.00, -0.00, -1.00, 186.6, 500.6)">e</text><text xml:space="preserve" font-family="GillSans-Light,Gill Sans" font-size="38.0" fill="#525252" transform="matrix(1.00, 0.00, -0.00, -1.00, 204.8, 500.6)"> </text><text xml:space="preserve" font-family="GillSans-Light,Gill Sans" font-size="38.0" fill="#525252" transform="matrix(1.00, 0.00, -0.00, -1.00, 215.4, 500.6)">a</text><text xml:space="preserve" font-family="GillSans-Light,Gill Sans" font-size="38.0" fill="#525252" transform="matrix(1.00, 0.00, -0.00, -1.00, 231.6, 500.6)">n</text><text xml:space="preserve" font-family="GillSans-Light,Gill Sans" font-size="38.0" fill="#525252" transform="matrix(1.00, 0.00, -0.00, -1.00, 249.7, 500.6)">y</text><text xml:space="preserve" font-family="GillSans-Light,Gill Sans" font-size="38.0" fill="#525252" transform="matrix(1.00, 0.00, -0.00, -1.00, 265.5, 500.6)"> </text><text xml:space="preserve" font-family="GillSans-Light,Gill Sans" font-size="38.0" fill="#525252" transform="matrix(1.00, 0.00, -0.00, -1.00, 276.1, 500.6)">w</text><text xml:space="preserve" font-family="GillSans-Light,Gill Sans" font-size="38.0" fill="#525252" transform="matrix(1.00, 0.00, -0.00, -1.00, 303.0, 500.6)">a</text><text xml:space="preserve" font-family="GillSans-Light,Gill Sans" font-size="38.0" fill="#525252" transform="matrix(1.00, 0.00, -0.00, -1.00, 318.2, 500.6)">v</text><text xml:space="preserve" font-family="GillSans-Light,Gill Sans" font-size="38.0" fill="#525252" transform="matrix(1.00, 0.00, -0.00, -1.00, 333.9, 500.6)">e</text><text xml:space="preserve" font-family="GillSans-Light,Gill Sans" font-size="38.0" fill="#525252" transform="matrix(1.00, 0.00, -0.00, -1.00, 352.1, 500.6)">f</text><text xml:space="preserve" font-family="GillSans-Light,Gill Sans" font-size="38.0" fill="#525252" transform="matrix(1.00, 0.00, -0.00, -1.00, 360.8, 500.6)">o</text><text xml:space="preserve" font-family="GillSans-Light,Gill Sans" font-size="38.0" fill="#525252" transform="matrix(1.00, 0.00, -0.00, -1.00, 381.4, 500.6)">r</text><text xml:space="preserve" font-family="GillSans-Light,Gill Sans" font-size="38.0" fill="#525252" transform="matrix(1.00, 0.00, -0.00, -1.00, 395.0, 500.6)">m</text><text xml:space="preserve" font-family="GillSans-Light,Gill Sans" font-size="38.0" fill="#525252" transform="matrix(1.00, 0.00, -0.00, -1.00, 424.3, 500.6)"> </text><text xml:space="preserve" font-family="GillSans-Light,Gill Sans" font-size="38.0" fill="#525252" transform="matrix(1.00, 0.00, -0.00, -1.00, 66.0, 457.6)">y</text><text xml:space="preserve" font-family="GillSans-Light,Gill Sans" font-size="38.0" fill="#525252" transform="matrix(1.00, 0.00, -0.00, -1.00, 81.1, 457.6)">o</text><text xml:space="preserve" font-family="GillSans-Light,Gill Sans" font-size="38.0" fill="#525252" transform="matrix(1.00, 0.00, -0.00, -1.00, 101.7, 457.6)">u</text><text xml:space="preserve" font-family="GillSans-Light,Gill Sans" font-size="38.0" fill="#525252" transform="matrix(1.00, 0.00, -0.00, -1.00, 120.3, 457.6)"> </text><text xml:space="preserve" font-family="GillSans-Light,Gill Sans" font-size="38.0" fill="#525252" transform="matrix(1.00, 0.00, -0.00, -1.00, 130.9, 457.6)">w</text><text xml:space="preserve" font-family="GillSans-Light,Gill Sans" font-size="38.0" fill="#525252" transform="matrix(1.00, 0.00, -0.00, -1.00, 157.8, 457.6)">a</text><text xml:space="preserve" font-family="GillSans-Light,Gill Sans" font-size="38.0" fill="#525252" transform="matrix(1.00, 0.00, -0.00, -1.00, 174.0, 457.6)">n</text><text xml:space="preserve" font-family="GillSans-Light,Gill Sans" font-size="38.0" fill="#525252" transform="matrix(1.00, 0.00, -0.00, -1.00, 192.6, 457.6)">t</text><text xml:space="preserve" font-family="GillSans-Light,Gill Sans" font-size="38.0" fill="#525252" transform="matrix(1.00, 0.00, -0.00, -1.00, 204.1, 457.6)">	</text><text xml:space="preserve" font-family="GillSans-Light,Gill Sans" font-size="38.0" fill="#525252" transform="matrix(1.00, 0.00, -0.00, -1.00, 232.1, 457.6)">
</text><text xml:space="preserve" font-family="GillSans-Light,Gill Sans" font-size="38.0" fill="#525252" transform="matrix(1.00, 0.00, -0.00, -1.00, 232.1, 457.6)"></text><text xml:space="preserve" font-family="GillSans-Light,Gill Sans" font-size="31.2" fill="#525252" transform="matrix(1.00, 0.00, -0.00, -1.00, 32.0, 378.9)">•</text><text xml:space="preserve" font-family="GillSans-Light,Gill Sans" font-size="38.0" fill="#525252" transform="matrix(1.00, 0.00, -0.00, -1.00, 66.0, 376.6)">S</text><text xml:space="preserve" font-family="GillSans-Light,Gill Sans" font-size="38.0" fill="#525252" transform="matrix(1.00, 0.00, -0.00, -1.00, 83.8, 376.6)">u</text><text xml:space="preserve" font-family="GillSans-Light,Gill Sans" font-size="38.0" fill="#525252" transform="matrix(1.00, 0.00, -0.00, -1.00, 102.5, 376.6)">b</text><text xml:space="preserve" font-family="GillSans-Light,Gill Sans" font-size="38.0" fill="#525252" transform="matrix(1.00, 0.00, -0.00, -1.00, 121.8, 376.6)">-</text><text xml:space="preserve" font-family="GillSans-Light,Gill Sans" font-size="38.0" fill="#525252" transform="matrix(1.00, 0.00, -0.00, -1.00, 133.7, 376.6)">a</text><text xml:space="preserve" font-family="GillSans-Light,Gill Sans" font-size="38.0" fill="#525252" transform="matrix(1.00, 0.00, -0.00, -1.00, 149.9, 376.6)">u</text><text xml:space="preserve" font-family="GillSans-Light,Gill Sans" font-size="38.0" fill="#525252" transform="matrix(1.00, 0.00, -0.00, -1.00, 168.6, 376.6)">d</text><text xml:space="preserve" font-family="GillSans-Light,Gill Sans" font-size="38.0" fill="#525252" transform="matrix(1.00, 0.00, -0.00, -1.00, 187.9, 376.6)">i</text><text xml:space="preserve" font-family="GillSans-Light,Gill Sans" font-size="38.0" fill="#525252" transform="matrix(1.00, 0.00, -0.00, -1.00, 195.1, 376.6)">o</text><text xml:space="preserve" font-family="GillSans-Light,Gill Sans" font-size="38.0" fill="#525252" transform="matrix(1.00, 0.00, -0.00, -1.00, 215.7, 376.6)"> </text><text xml:space="preserve" font-family="GillSans-Light,Gill Sans" font-size="38.0" fill="#525252" transform="matrix(1.00, 0.00, -0.00, -1.00, 226.2, 376.6)">f</text><text xml:space="preserve" font-family="GillSans-Light,Gill Sans" font-size="38.0" fill="#525252" transform="matrix(1.00, 0.00, -0.00, -1.00, 235.4, 376.6)">r</text><text xml:space="preserve" font-family="GillSans-Light,Gill Sans" font-size="38.0" fill="#525252" transform="matrix(1.00, 0.00, -0.00, -1.00, 248.0, 376.6)">e</text><text xml:space="preserve" font-family="GillSans-Light,Gill Sans" font-size="38.0" fill="#525252" transform="matrix(1.00, 0.00, -0.00, -1.00, 266.2, 376.6)">q</text><text xml:space="preserve" font-family="GillSans-Light,Gill Sans" font-size="38.0" fill="#525252" transform="matrix(1.00, 0.00, -0.00, -1.00, 285.6, 376.6)">u</text><text xml:space="preserve" font-family="GillSans-Light,Gill Sans" font-size="38.0" fill="#525252" transform="matrix(1.00, 0.00, -0.00, -1.00, 304.2, 376.6)">e</text><text xml:space="preserve" font-family="GillSans-Light,Gill Sans" font-size="38.0" fill="#525252" transform="matrix(1.00, 0.00, -0.00, -1.00, 322.4, 376.6)">n</text><text xml:space="preserve" font-family="GillSans-Light,Gill Sans" font-size="38.0" fill="#525252" transform="matrix(1.00, 0.00, -0.00, -1.00, 341.1, 376.6)">c</text><text xml:space="preserve" font-family="GillSans-Light,Gill Sans" font-size="38.0" fill="#525252" transform="matrix(1.00, 0.00, -0.00, -1.00, 356.9, 376.6)">y</text><text xml:space="preserve" font-family="GillSans-Light,Gill Sans" font-size="38.0" fill="#525252" transform="matrix(1.00, 0.00, -0.00, -1.00, 372.8, 376.6)"> </text><text xml:space="preserve" font-family="GillSans-Light,Gill Sans" font-size="38.0" fill="#525252" transform="matrix(1.00, 0.00, -0.00, -1.00, 383.3, 376.6)">(</text><text xml:space="preserve" font-family="GillSans-Light,Gill Sans" font-size="38.0" fill="#525252" transform="matrix(1.00, 0.00, -0.00, -1.00, 396.0, 376.6)">&lt;</text><text xml:space="preserve" font-family="GillSans-Light,Gill Sans" font-size="38.0" fill="#525252" transform="matrix(1.00, 0.00, -0.00, -1.00, 421.1, 376.6)"> </text><text xml:space="preserve" font-family="GillSans-Light,Gill Sans" font-size="38.0" fill="#525252" transform="matrix(1.00, 0.00, -0.00, -1.00, 431.6, 376.6)">2</text><text xml:space="preserve" font-family="GillSans-Light,Gill Sans" font-size="38.0" fill="#525252" transform="matrix(1.00, 0.00, -0.00, -1.00, 450.6, 376.6)">0</text><text xml:space="preserve" font-family="GillSans-Light,Gill Sans" font-size="38.0" fill="#525252" transform="matrix(1.00, 0.00, -0.00, -1.00, 469.6, 376.6)"> </text><text xml:space="preserve" font-family="GillSans-Light,Gill Sans" font-size="38.0" fill="#525252" transform="matrix(1.00, 0.00, -0.00, -1.00, 66.0, 333.6)">H</text><text xml:space="preserve" font-family="GillSans-Light,Gill Sans" font-size="38.0" fill="#525252" transform="matrix(1.00, 0.00, -0.00, -1.00, 93.3, 333.6)">z</text><text xml:space="preserve" font-family="GillSans-Light,Gill Sans" font-size="38.0" fill="#525252" transform="matrix(1.00, 0.00, -0.00, -1.00, 108.4, 333.6)">)</text><text xml:space="preserve" font-family="GillSans-Light,Gill Sans" font-size="38.0" fill="#525252" transform="matrix(1.00, 0.00, -0.00, -1.00, 121.0, 333.6)">	</text><text xml:space="preserve" font-family="GillSans-Light,Gill Sans" font-size="38.0" fill="#525252" transform="matrix(1.00, 0.00, -0.00, -1.00, 149.0, 333.6)">
</text><text xml:space="preserve" font-family="GillSans-Light,Gill Sans" font-size="38.0" fill="#525252" transform="matrix(1.00, 0.00, -0.00, -1.00, 149.0, 333.6)"></text><text xml:space="preserve" font-family="GillSans-Light,Gill Sans" font-size="31.2" fill="#525252" transform="matrix(1.00, 0.00, -0.00, -1.00, 32.0, 254.9)">•</text><text xml:space="preserve" font-family="GillSans-Light,Gill Sans" font-size="38.0" fill="#525252" transform="matrix(1.00, 0.00, -0.00, -1.00, 66.0, 252.6)">C</text><text xml:space="preserve" font-family="GillSans-Light,Gill Sans" font-size="38.0" fill="#525252" transform="matrix(1.00, 0.00, -0.00, -1.00, 91.7, 252.6)">o</text><text xml:space="preserve" font-family="GillSans-Light,Gill Sans" font-size="38.0" fill="#525252" transform="matrix(1.00, 0.00, -0.00, -1.00, 112.3, 252.6)">n</text><text xml:space="preserve" font-family="GillSans-Light,Gill Sans" font-size="38.0" fill="#525252" transform="matrix(1.00, 0.00, -0.00, -1.00, 130.9, 252.6)">t</text><text xml:space="preserve" font-family="GillSans-Light,Gill Sans" font-size="38.0" fill="#525252" transform="matrix(1.00, 0.00, -0.00, -1.00, 142.4, 252.6)">r</text><text xml:space="preserve" font-family="GillSans-Light,Gill Sans" font-size="38.0" fill="#525252" transform="matrix(1.00, 0.00, -0.00, -1.00, 155.1, 252.6)">o</text><text xml:space="preserve" font-family="GillSans-Light,Gill Sans" font-size="38.0" fill="#525252" transform="matrix(1.00, 0.00, -0.00, -1.00, 175.7, 252.6)">l</text><text xml:space="preserve" font-family="GillSans-Light,Gill Sans" font-size="38.0" fill="#525252" transform="matrix(1.00, 0.00, -0.00, -1.00, 182.8, 252.6)">s</text><text xml:space="preserve" font-family="GillSans-Light,Gill Sans" font-size="38.0" fill="#525252" transform="matrix(1.00, 0.00, -0.00, -1.00, 196.2, 252.6)"> </text><text xml:space="preserve" font-family="GillSans-Light,Gill Sans" font-size="38.0" fill="#525252" transform="matrix(1.00, 0.00, -0.00, -1.00, 206.8, 252.6)">o</text><text xml:space="preserve" font-family="GillSans-Light,Gill Sans" font-size="38.0" fill="#525252" transform="matrix(1.00, 0.00, -0.00, -1.00, 227.4, 252.6)">t</text><text xml:space="preserve" font-family="GillSans-Light,Gill Sans" font-size="38.0" fill="#525252" transform="matrix(1.00, 0.00, -0.00, -1.00, 238.9, 252.6)">h</text><text xml:space="preserve" font-family="GillSans-Light,Gill Sans" font-size="38.0" fill="#525252" transform="matrix(1.00, 0.00, -0.00, -1.00, 257.5, 252.6)">e</text><text xml:space="preserve" font-family="GillSans-Light,Gill Sans" font-size="38.0" fill="#525252" transform="matrix(1.00, 0.00, -0.00, -1.00, 275.7, 252.6)">r</text><text xml:space="preserve" font-family="GillSans-Light,Gill Sans" font-size="38.0" fill="#525252" transform="matrix(1.00, 0.00, -0.00, -1.00, 288.3, 252.6)"> </text><text xml:space="preserve" font-family="GillSans-Light,Gill Sans" font-size="38.0" fill="#525252" transform="matrix(1.00, 0.00, -0.00, -1.00, 298.9, 252.6)">s</text><text xml:space="preserve" font-family="GillSans-Light,Gill Sans" font-size="38.0" fill="#525252" transform="matrix(1.00, 0.00, -0.00, -1.00, 312.3, 252.6)">t</text><text xml:space="preserve" font-family="GillSans-Light,Gill Sans" font-size="38.0" fill="#525252" transform="matrix(1.00, 0.00, -0.00, -1.00, 323.8, 252.6)">u</text><text xml:space="preserve" font-family="GillSans-Light,Gill Sans" font-size="38.0" fill="#525252" transform="matrix(1.00, 0.00, -0.00, -1.00, 342.4, 252.6)">f</text><text xml:space="preserve" font-family="GillSans-Light,Gill Sans" font-size="38.0" fill="#525252" transform="matrix(1.00, 0.00, -0.00, -1.00, 351.6, 252.6)">f</text><text xml:space="preserve" font-family="GillSans-Light,Gill Sans" font-size="38.0" fill="#525252" transform="matrix(1.00, 0.00, -0.00, -1.00, 360.7, 252.6)"> </text><text xml:space="preserve" font-family="GillSans-Light,Gill Sans" font-size="38.0" fill="#525252" transform="matrix(1.00, 0.00, -0.00, -1.00, 371.3, 252.6)">w</text><text xml:space="preserve" font-family="GillSans-Light,Gill Sans" font-size="38.0" fill="#525252" transform="matrix(1.00, 0.00, -0.00, -1.00, 398.2, 252.6)">i</text><text xml:space="preserve" font-family="GillSans-Light,Gill Sans" font-size="38.0" fill="#525252" transform="matrix(1.00, 0.00, -0.00, -1.00, 405.3, 252.6)">t</text><text xml:space="preserve" font-family="GillSans-Light,Gill Sans" font-size="38.0" fill="#525252" transform="matrix(1.00, 0.00, -0.00, -1.00, 416.8, 252.6)">h</text><text xml:space="preserve" font-family="GillSans-Light,Gill Sans" font-size="38.0" fill="#525252" transform="matrix(1.00, 0.00, -0.00, -1.00, 435.4, 252.6)">i</text><text xml:space="preserve" font-family="GillSans-Light,Gill Sans" font-size="38.0" fill="#525252" transform="matrix(1.00, 0.00, -0.00, -1.00, 442.6, 252.6)">n</text><text xml:space="preserve" font-family="GillSans-Light,Gill Sans" font-size="38.0" fill="#525252" transform="matrix(1.00, 0.00, -0.00, -1.00, 461.2, 252.6)"> </text><text xml:space="preserve" font-family="GillSans-Light,Gill Sans" font-size="38.0" fill="#525252" transform="matrix(1.00, 0.00, -0.00, -1.00, 66.0, 209.6)">t</text><text xml:space="preserve" font-family="GillSans-Light,Gill Sans" font-size="38.0" fill="#525252" transform="matrix(1.00, 0.00, -0.00, -1.00, 77.5, 209.6)">h</text><text xml:space="preserve" font-family="GillSans-Light,Gill Sans" font-size="38.0" fill="#525252" transform="matrix(1.00, 0.00, -0.00, -1.00, 96.1, 209.6)">e</text><text xml:space="preserve" font-family="GillSans-Light,Gill Sans" font-size="38.0" fill="#525252" transform="matrix(1.00, 0.00, -0.00, -1.00, 114.3, 209.6)"> </text><text xml:space="preserve" font-family="GillSans-Light,Gill Sans" font-size="38.0" fill="#525252" transform="matrix(1.00, 0.00, -0.00, -1.00, 124.8, 209.6)">s</text><text xml:space="preserve" font-family="GillSans-Light,Gill Sans" font-size="38.0" fill="#525252" transform="matrix(1.00, 0.00, -0.00, -1.00, 138.3, 209.6)">y</text><text xml:space="preserve" font-family="GillSans-Light,Gill Sans" font-size="38.0" fill="#525252" transform="matrix(1.00, 0.00, -0.00, -1.00, 154.1, 209.6)">n</text><text xml:space="preserve" font-family="GillSans-Light,Gill Sans" font-size="38.0" fill="#525252" transform="matrix(1.00, 0.00, -0.00, -1.00, 172.8, 209.6)">t</text><text xml:space="preserve" font-family="GillSans-Light,Gill Sans" font-size="38.0" fill="#525252" transform="matrix(1.00, 0.00, -0.00, -1.00, 184.2, 209.6)">h</text><text xml:space="preserve" font-family="GillSans-Light,Gill Sans" font-size="38.0" fill="#525252" transform="matrix(1.00, 0.00, -0.00, -1.00, 202.9, 209.6)">e</text><text xml:space="preserve" font-family="GillSans-Light,Gill Sans" font-size="38.0" fill="#525252" transform="matrix(1.00, 0.00, -0.00, -1.00, 221.1, 209.6)">s</text><text xml:space="preserve" font-family="GillSans-Light,Gill Sans" font-size="38.0" fill="#525252" transform="matrix(1.00, 0.00, -0.00, -1.00, 234.5, 209.6)">i</text><text xml:space="preserve" font-family="GillSans-Light,Gill Sans" font-size="38.0" fill="#525252" transform="matrix(1.00, 0.00, -0.00, -1.00, 241.7, 209.6)">z</text><text xml:space="preserve" font-family="GillSans-Light,Gill Sans" font-size="38.0" fill="#525252" transform="matrix(1.00, 0.00, -0.00, -1.00, 256.1, 209.6)">e</text><text xml:space="preserve" font-family="GillSans-Light,Gill Sans" font-size="38.0" fill="#525252" transform="matrix(1.00, 0.00, -0.00, -1.00, 274.4, 209.6)">r</text><text xml:space="preserve" font-family="GillSans-Light,Gill Sans" font-size="38.0" fill="#525252" transform="matrix(1.00, 0.00, -0.00, -1.00, 287.0, 209.6)">	</text><text xml:space="preserve" font-family="GillSans-Light,Gill Sans" font-size="38.0" fill="#525252" transform="matrix(1.00, 0.00, -0.00, -1.00, 315.0, 209.6)">
</text><text xml:space="preserve" font-family="GillSans-Light,Gill Sans" font-size="38.0" fill="#525252" transform="matrix(1.00, 0.00, -0.00, -1.00, 315.0, 209.6)"></text><text xml:space="preserve" font-family="GillSans-Light,Gill Sans" font-size="31.2" fill="#525252" transform="matrix(1.00, 0.00, -0.00, -1.00, 32.0, 130.9)">•</text><text xml:space="preserve" font-family="GillSans-Light,Gill Sans" font-size="38.0" fill="#525252" transform="matrix(1.00, 0.00, -0.00, -1.00, 66.0, 128.6)">L</text><text xml:space="preserve" font-family="GillSans-Light,Gill Sans" font-size="38.0" fill="#525252" transform="matrix(1.00, 0.00, -0.00, -1.00, 83.8, 128.6)">i</text><text xml:space="preserve" font-family="GillSans-Light,Gill Sans" font-size="38.0" fill="#525252" transform="matrix(1.00, 0.00, -0.00, -1.00, 91.0, 128.6)">k</text><text xml:space="preserve" font-family="GillSans-Light,Gill Sans" font-size="38.0" fill="#525252" transform="matrix(1.00, 0.00, -0.00, -1.00, 106.8, 128.6)">e</text><text xml:space="preserve" font-family="GillSans-Light,Gill Sans" font-size="38.0" fill="#525252" transform="matrix(1.00, 0.00, -0.00, -1.00, 125.0, 128.6)"> </text><text xml:space="preserve" font-family="GillSans-Light,Gill Sans" font-size="38.0" fill="#525252" transform="matrix(1.00, 0.00, -0.00, -1.00, 135.6, 128.6)">a</text><text xml:space="preserve" font-family="GillSans-Light,Gill Sans" font-size="38.0" fill="#525252" transform="matrix(1.00, 0.00, -0.00, -1.00, 151.8, 128.6)"> </text><text xml:space="preserve" font-family="GillSans-Light,Gill Sans" font-size="38.0" fill="#525252" transform="matrix(1.00, 0.00, -0.00, -1.00, 162.3, 128.6)">l</text><text xml:space="preserve" font-family="GillSans-Light,Gill Sans" font-size="38.0" fill="#525252" transform="matrix(1.00, 0.00, -0.00, -1.00, 169.5, 128.6)">i</text><text xml:space="preserve" font-family="GillSans-Light,Gill Sans" font-size="38.0" fill="#525252" transform="matrix(1.00, 0.00, -0.00, -1.00, 176.6, 128.6)">t</text><text xml:space="preserve" font-family="GillSans-Light,Gill Sans" font-size="38.0" fill="#525252" transform="matrix(1.00, 0.00, -0.00, -1.00, 188.1, 128.6)">t</text><text xml:space="preserve" font-family="GillSans-Light,Gill Sans" font-size="38.0" fill="#525252" transform="matrix(1.00, 0.00, -0.00, -1.00, 199.5, 128.6)">l</text><text xml:space="preserve" font-family="GillSans-Light,Gill Sans" font-size="38.0" fill="#525252" transform="matrix(1.00, 0.00, -0.00, -1.00, 206.7, 128.6)">e</text><text xml:space="preserve" font-family="GillSans-Light,Gill Sans" font-size="38.0" fill="#525252" transform="matrix(1.00, 0.00, -0.00, -1.00, 224.9, 128.6)"> </text><text xml:space="preserve" font-family="GillSans-Light,Gill Sans" font-size="38.0" fill="#525252" transform="matrix(1.00, 0.00, -0.00, -1.00, 235.4, 128.6)">r</text><text xml:space="preserve" font-family="GillSans-Light,Gill Sans" font-size="38.0" fill="#525252" transform="matrix(1.00, 0.00, -0.00, -1.00, 248.1, 128.6)">o</text><text xml:space="preserve" font-family="GillSans-Light,Gill Sans" font-size="38.0" fill="#525252" transform="matrix(1.00, 0.00, -0.00, -1.00, 268.7, 128.6)">b</text><text xml:space="preserve" font-family="GillSans-Light,Gill Sans" font-size="38.0" fill="#525252" transform="matrix(1.00, 0.00, -0.00, -1.00, 288.0, 128.6)">o</text><text xml:space="preserve" font-family="GillSans-Light,Gill Sans" font-size="38.0" fill="#525252" transform="matrix(1.00, 0.00, -0.00, -1.00, 308.6, 128.6)">t</text><text xml:space="preserve" font-family="GillSans-Light,Gill Sans" font-size="38.0" fill="#525252" transform="matrix(1.00, 0.00, -0.00, -1.00, 320.1, 128.6)"> </text><text xml:space="preserve" font-family="GillSans-Light,Gill Sans" font-size="38.0" fill="#525252" transform="matrix(1.00, 0.00, -0.00, -1.00, 330.7, 128.6)">t</text><text xml:space="preserve" font-family="GillSans-Light,Gill Sans" font-size="38.0" fill="#525252" transform="matrix(1.00, 0.00, -0.00, -1.00, 342.1, 128.6)">h</text><text xml:space="preserve" font-family="GillSans-Light,Gill Sans" font-size="38.0" fill="#525252" transform="matrix(1.00, 0.00, -0.00, -1.00, 360.7, 128.6)">a</text><text xml:space="preserve" font-family="GillSans-Light,Gill Sans" font-size="38.0" fill="#525252" transform="matrix(1.00, 0.00, -0.00, -1.00, 377.0, 128.6)">t</text><text xml:space="preserve" font-family="GillSans-Light,Gill Sans" font-size="38.0" fill="#525252" transform="matrix(1.00, 0.00, -0.00, -1.00, 388.4, 128.6)"> </text><text xml:space="preserve" font-family="GillSans-Light,Gill Sans" font-size="38.0" fill="#525252" transform="matrix(1.00, 0.00, -0.00, -1.00, 399.0, 128.6)">t</text><text xml:space="preserve" font-family="GillSans-Light,Gill Sans" font-size="38.0" fill="#525252" transform="matrix(1.00, 0.00, -0.00, -1.00, 410.4, 128.6)">u</text><text xml:space="preserve" font-family="GillSans-Light,Gill Sans" font-size="38.0" fill="#525252" transform="matrix(1.00, 0.00, -0.00, -1.00, 429.1, 128.6)">r</text><text xml:space="preserve" font-family="GillSans-Light,Gill Sans" font-size="38.0" fill="#525252" transform="matrix(1.00, 0.00, -0.00, -1.00, 442.7, 128.6)">n</text><text xml:space="preserve" font-family="GillSans-Light,Gill Sans" font-size="38.0" fill="#525252" transform="matrix(1.00, 0.00, -0.00, -1.00, 461.3, 128.6)">s</text><text xml:space="preserve" font-family="GillSans-Light,Gill Sans" font-size="38.0" fill="#525252" transform="matrix(1.00, 0.00, -0.00, -1.00, 474.7, 128.6)"> </text><text xml:space="preserve" font-family="GillSans-Light,Gill Sans" font-size="38.0" fill="#525252" transform="matrix(1.00, 0.00, -0.00, -1.00, 66.0, 85.6)">k</text><text xml:space="preserve" font-family="GillSans-Light,Gill Sans" font-size="38.0" fill="#525252" transform="matrix(1.00, 0.00, -0.00, -1.00, 82.2, 85.6)">n</text><text xml:space="preserve" font-family="GillSans-Light,Gill Sans" font-size="38.0" fill="#525252" transform="matrix(1.00, 0.00, -0.00, -1.00, 100.8, 85.6)">o</text><text xml:space="preserve" font-family="GillSans-Light,Gill Sans" font-size="38.0" fill="#525252" transform="matrix(1.00, 0.00, -0.00, -1.00, 121.4, 85.6)">b</text><text xml:space="preserve" font-family="GillSans-Light,Gill Sans" font-size="38.0" fill="#525252" transform="matrix(1.00, 0.00, -0.00, -1.00, 140.8, 85.6)">s</text><text xml:space="preserve" font-family="GillSans-Light,Gill Sans" font-size="38.0" fill="#525252" transform="matrix(1.00, 0.00, -0.00, -1.00, 154.3, 85.6)"> </text><text xml:space="preserve" font-family="GillSans-Light,Gill Sans" font-size="38.0" fill="#525252" transform="matrix(1.00, 0.00, -0.00, -1.00, 164.8, 85.6)">f</text><text xml:space="preserve" font-family="GillSans-Light,Gill Sans" font-size="38.0" fill="#525252" transform="matrix(1.00, 0.00, -0.00, -1.00, 173.6, 85.6)">o</text><text xml:space="preserve" font-family="GillSans-Light,Gill Sans" font-size="38.0" fill="#525252" transform="matrix(1.00, 0.00, -0.00, -1.00, 194.2, 85.6)">r</text><text xml:space="preserve" font-family="GillSans-Light,Gill Sans" font-size="38.0" fill="#525252" transform="matrix(1.00, 0.00, -0.00, -1.00, 206.8, 85.6)"> </text><text xml:space="preserve" font-family="GillSans-Light,Gill Sans" font-size="38.0" fill="#525252" transform="matrix(1.00, 0.00, -0.00, -1.00, 217.4, 85.6)">y</text><text xml:space="preserve" font-family="GillSans-Light,Gill Sans" font-size="38.0" fill="#525252" transform="matrix(1.00, 0.00, -0.00, -1.00, 232.5, 85.6)">o</text><text xml:space="preserve" font-family="GillSans-Light,Gill Sans" font-size="38.0" fill="#525252" transform="matrix(1.00, 0.00, -0.00, -1.00, 253.1, 85.6)">u</text><text xml:space="preserve" font-family="GillSans-Light,Gill Sans" font-size="38.0" fill="#525252" transform="matrix(1.00, 0.00, -0.00, -1.00, 271.7, 85.6)">!</text><image xlink:href="../../8140C97A-A432-48F1-9AE8-48BDC0AB5769/assets/E001BA103AEDA2D395896D8A278ECC4F.png" width="154.00" height="176.00" transform="matrix(0.49, 0.00, -0.00, -0.49, 271.9, 128.0)"></image><text xml:space="preserve" font-family="GillSans-Light,Gill Sans" font-size="14.0" fill="#525252" transform="matrix(1.00, 0.00, -0.00, -1.00, 698.2, 122.0)">s</text><text xml:space="preserve" font-family="GillSans-Light,Gill Sans" font-size="14.0" fill="#525252" transform="matrix(1.00, 0.00, -0.00, -1.00, 703.1, 122.0)">o</text><text xml:space="preserve" font-family="GillSans-Light,Gill Sans" font-size="14.0" fill="#525252" transform="matrix(1.00, 0.00, -0.00, -1.00, 710.7, 122.0)">u</text><text xml:space="preserve" font-family="GillSans-Light,Gill Sans" font-size="14.0" fill="#525252" transform="matrix(1.00, 0.00, -0.00, -1.00, 717.6, 122.0)">n</text><text xml:space="preserve" font-family="GillSans-Light,Gill Sans" font-size="14.0" fill="#525252" transform="matrix(1.00, 0.00, -0.00, -1.00, 724.5, 122.0)">d</text><text xml:space="preserve" font-family="GillSans-Light,Gill Sans" font-size="14.0" fill="#525252" transform="matrix(1.00, 0.00, -0.00, -1.00, 731.6, 122.0)">w</text><text xml:space="preserve" font-family="GillSans-Light,Gill Sans" font-size="14.0" fill="#525252" transform="matrix(1.00, 0.00, -0.00, -1.00, 741.5, 122.0)">i</text><text xml:space="preserve" font-family="GillSans-Light,Gill Sans" font-size="14.0" fill="#525252" transform="matrix(1.00, 0.00, -0.00, -1.00, 744.1, 122.0)">d</text><text xml:space="preserve" font-family="GillSans-Light,Gill Sans" font-size="14.0" fill="#525252" transform="matrix(1.00, 0.00, -0.00, -1.00, 751.3, 122.0)">g</text><text xml:space="preserve" font-family="GillSans-Light,Gill Sans" font-size="14.0" fill="#525252" transform="matrix(1.00, 0.00, -0.00, -1.00, 757.2, 122.0)">e</text><text xml:space="preserve" font-family="GillSans-Light,Gill Sans" font-size="14.0" fill="#525252" transform="matrix(1.00, 0.00, -0.00, -1.00, 763.9, 122.0)">t</text><text xml:space="preserve" font-family="GillSans-Light,Gill Sans" font-size="14.0" fill="#525252" transform="matrix(1.00, 0.00, -0.00, -1.00, 768.2, 122.0)">s</text><text xml:space="preserve" font-family="GillSans-Light,Gill Sans" font-size="14.0" fill="#525252" transform="matrix(1.00, 0.00, -0.00, -1.00, 773.1, 122.0)">.</text><text xml:space="preserve" font-family="GillSans-Light,Gill Sans" font-size="14.0" fill="#525252" transform="matrix(1.00, 0.00, -0.00, -1.00, 775.6, 122.0)">c</text><text xml:space="preserve" font-family="GillSans-Light,Gill Sans" font-size="14.0" fill="#525252" transform="matrix(1.00, 0.00, -0.00, -1.00, 781.4, 122.0)">o</text><text xml:space="preserve" font-family="GillSans-Light,Gill Sans" font-size="14.0" fill="#525252" transform="matrix(1.00, 0.00, -0.00, -1.00, 789.0, 122.0)">m</text><g><clipPath id="clip0x600001ab5fc0"><path d="M 697.2 119.6 L 799.8 119.6 L 799.8 122.3 L 697.2 122.3 Z M 697.2 119.6 "></path></clipPath><g clip-path="url(#clip0x600001ab5fc0)"><path d="M 4.5 17.7 L 106.1 17.7 " fill="none" stroke="#525252" stroke-width="0.70" transform="matrix(1.00, 0.00, 0.00, -1.00, 693.7, 138.7)"></path></g></g></g></svg>