<?xml version="1.0" encoding="UTF-8" standalone="no"?><svg xmlns="http://www.w3.org/2000/svg" xmlns:xlink="http://www.w3.org/1999/xlink" clip-rule="evenodd" stroke-miterlimit="10" viewBox="0 0 104 18"><desc>SVG generated by Keynote</desc><defs></defs><g transform="matrix(1.00, 0.00, -0.00, -1.00, 0.0, 18.0)"><text xml:space="preserve" font-family="GillSans-Light,Gill Sans" font-size="14.0" fill="#525252" transform="matrix(1.00, 0.00, -0.00, -1.00, 1.2, 5.0)">s</text><text xml:space="preserve" font-family="GillSans-Light,Gill Sans" font-size="14.0" fill="#525252" transform="matrix(1.00, 0.00, -0.00, -1.00, 6.1, 5.0)">o</text><text xml:space="preserve" font-family="GillSans-Light,Gill Sans" font-size="14.0" fill="#525252" transform="matrix(1.00, 0.00, -0.00, -1.00, 13.7, 5.0)">u</text><text xml:space="preserve" font-family="GillSans-Light,Gill Sans" font-size="14.0" fill="#525252" transform="matrix(1.00, 0.00, -0.00, -1.00, 20.6, 5.0)">n</text><text xml:space="preserve" font-family="GillSans-Light,Gill Sans" font-size="14.0" fill="#525252" transform="matrix(1.00, 0.00, -0.00, -1.00, 27.5, 5.0)">d</text><text xml:space="preserve" font-family="GillSans-Light,Gill Sans" font-size="14.0" fill="#525252" transform="matrix(1.00, 0.00, -0.00, -1.00, 34.6, 5.0)">w</text><text xml:space="preserve" font-family="GillSans-Light,Gill Sans" font-size="14.0" fill="#525252" transform="matrix(1.00, 0.00, -0.00, -1.00, 44.5, 5.0)">i</text><text xml:space="preserve" font-family="GillSans-Light,Gill Sans" font-size="14.0" fill="#525252" transform="matrix(1.00, 0.00, -0.00, -1.00, 47.1, 5.0)">d</text><text xml:space="preserve" font-family="GillSans-Light,Gill Sans" font-size="14.0" fill="#525252" transform="matrix(1.00, 0.00, -0.00, -1.00, 54.3, 5.0)">g</text><text xml:space="preserve" font-family="GillSans-Light,Gill Sans" font-size="14.0" fill="#525252" transform="matrix(1.00, 0.00, -0.00, -1.00, 60.2, 5.0)">e</text><text xml:space="preserve" font-family="GillSans-Light,Gill Sans" font-size="14.0" fill="#525252" transform="matrix(1.00, 0.00, -0.00, -1.00, 66.9, 5.0)">t</text><text xml:space="preserve" font-family="GillSans-Light,Gill Sans" font-size="14.0" fill="#525252" transform="matrix(1.00, 0.00, -0.00, -1.00, 71.2, 5.0)">s</text><text xml:space="preserve" font-family="GillSans-Light,Gill Sans" font-size="14.0" fill="#525252" transform="matrix(1.00, 0.00, -0.00, -1.00, 76.1, 5.0)">.</text><text xml:space="preserve" font-family="GillSans-Light,Gill Sans" font-size="14.0" fill="#525252" transform="matrix(1.00, 0.00, -0.00, -1.00, 78.6, 5.0)">c</text><text xml:space="preserve" font-family="GillSans-Light,Gill Sans" font-size="14.0" fill="#525252" transform="matrix(1.00, 0.00, -0.00, -1.00, 84.4, 5.0)">o</text><text xml:space="preserve" font-family="GillSans-Light,Gill Sans" font-size="14.0" fill="#525252" transform="matrix(1.00, 0.00, -0.00, -1.00, 92.0, 5.0)">m</text><g><clipPath id="clip0x600001aac3c0"><path d="M 0.2 2.6 L 102.8 2.6 L 102.8 5.3 L 0.2 5.3 Z M 0.2 2.6 "></path></clipPath><g clip-path="url(#clip0x600001aac3c0)"><path d="M 4.5 17.7 L 106.1 17.7 " fill="none" stroke="#525252" stroke-width="0.70" transform="matrix(1.00, 0.00, 0.00, -1.00, -3.3, 21.7)"></path></g></g></g></svg>