<?xml version="1.0" encoding="UTF-8" standalone="no"?><svg xmlns="http://www.w3.org/2000/svg" xmlns:xlink="http://www.w3.org/1999/xlink" clip-rule="evenodd" stroke-miterlimit="10" viewBox="0 0 439 54"><desc>SVG generated by Keynote</desc><defs></defs><g transform="matrix(1.00, 0.00, -0.00, -1.00, 0.0, 54.0)"><text xml:space="preserve" font-family="GillSans-Light,Gill Sans" font-size="71.3" fill="#525252" transform="matrix(1.00, 0.00, -0.00, -1.00, -3.4, 2.5)">H</text><text xml:space="preserve" font-family="GillSans-Light,Gill Sans" font-size="71.3" fill="#525252" transform="matrix(1.00, 0.00, -0.00, -1.00, 47.9, 2.5)">Y</text><text xml:space="preserve" font-family="GillSans-Light,Gill Sans" font-size="71.3" fill="#525252" transform="matrix(1.00, 0.00, -0.00, -1.00, 89.5, 2.5)">B</text><text xml:space="preserve" font-family="GillSans-Light,Gill Sans" font-size="71.3" fill="#525252" transform="matrix(1.00, 0.00, -0.00, -1.00, 127.3, 2.5)">R</text><text xml:space="preserve" font-family="GillSans-Light,Gill Sans" font-size="71.3" fill="#525252" transform="matrix(1.00, 0.00, -0.00, -1.00, 168.2, 2.5)">I</text><text xml:space="preserve" font-family="GillSans-Light,Gill Sans" font-size="71.3" fill="#525252" transform="matrix(1.00, 0.00, -0.00, -1.00, 183.0, 2.5)">D</text><text xml:space="preserve" font-family="GillSans-Light,Gill Sans" font-size="71.3" fill="#525252" transform="matrix(1.00, 0.00, -0.00, -1.00, 235.8, 2.5)"> </text><text xml:space="preserve" font-family="GillSans-Light,Gill Sans" font-size="71.3" fill="#525252" transform="matrix(1.00, 0.00, -0.00, -1.00, 255.6, 2.5)">B</text><text xml:space="preserve" font-family="GillSans-Light,Gill Sans" font-size="71.3" fill="#525252" transform="matrix(1.00, 0.00, -0.00, -1.00, 294.8, 2.5)">A</text><text xml:space="preserve" font-family="GillSans-Light,Gill Sans" font-size="71.3" fill="#525252" transform="matrix(1.00, 0.00, -0.00, -1.00, 342.3, 2.5)">S</text><text xml:space="preserve" font-family="GillSans-Light,Gill Sans" font-size="71.3" fill="#525252" transform="matrix(1.00, 0.00, -0.00, -1.00, 375.8, 2.5)">I</text><text xml:space="preserve" font-family="GillSans-Light,Gill Sans" font-size="71.3" fill="#525252" transform="matrix(1.00, 0.00, -0.00, -1.00, 390.6, 2.5)">C</text></g></svg>