<?xml version="1.0" encoding="UTF-8" standalone="no"?><svg xmlns="http://www.w3.org/2000/svg" xmlns:xlink="http://www.w3.org/1999/xlink" clip-rule="evenodd" stroke-miterlimit="10" viewBox="0 0 512 266"><desc>SVG generated by Keynote</desc><defs></defs><g transform="matrix(1.00, 0.00, -0.00, -1.00, 0.0, 266.0)"><text xml:space="preserve" font-family="GillSans-Light,Gill Sans" font-size="37.7" fill="#525252" transform="matrix(1.00, 0.00, -0.00, -1.00, 0.5, 231.7)">•</text><text xml:space="preserve" font-family="GillSans-Light,Gill Sans" font-size="46.0" fill="#525252" transform="matrix(1.00, 0.00, -0.00, -1.00, 41.5, 229.2)">C</text><text xml:space="preserve" font-family="GillSans-Light,Gill Sans" font-size="46.0" fill="#525252" transform="matrix(1.00, 0.00, -0.00, -1.00, 72.6, 229.2)">u</text><text xml:space="preserve" font-family="GillSans-Light,Gill Sans" font-size="46.0" fill="#525252" transform="matrix(1.00, 0.00, -0.00, -1.00, 95.2, 229.2)">t</text><text xml:space="preserve" font-family="GillSans-Light,Gill Sans" font-size="46.0" fill="#525252" transform="matrix(1.00, 0.00, -0.00, -1.00, 109.0, 229.2)">o</text><text xml:space="preserve" font-family="GillSans-Light,Gill Sans" font-size="46.0" fill="#525252" transform="matrix(1.00, 0.00, -0.00, -1.00, 134.0, 229.2)">f</text><text xml:space="preserve" font-family="GillSans-Light,Gill Sans" font-size="46.0" fill="#525252" transform="matrix(1.00, 0.00, -0.00, -1.00, 145.0, 229.2)">f</text><text xml:space="preserve" font-family="GillSans-Light,Gill Sans" font-size="46.0" fill="#525252" transform="matrix(1.00, 0.00, -0.00, -1.00, 156.1, 229.2)">	</text><text xml:space="preserve" font-family="GillSans-Light,Gill Sans" font-size="46.0" fill="#525252" transform="matrix(1.00, 0.00, -0.00, -1.00, 184.1, 229.2)">
</text><text xml:space="preserve" font-family="GillSans-Light,Gill Sans" font-size="46.0" fill="#525252" transform="matrix(1.00, 0.00, -0.00, -1.00, 184.1, 229.2)"></text><text xml:space="preserve" font-family="GillSans-Light,Gill Sans" font-size="37.7" fill="#525252" transform="matrix(1.00, 0.00, -0.00, -1.00, 0.5, 123.3)">•</text><text xml:space="preserve" font-family="GillSans-Light,Gill Sans" font-size="46.0" fill="#525252" transform="matrix(1.00, 0.00, -0.00, -1.00, 41.5, 120.8)">A</text><text xml:space="preserve" font-family="GillSans-Light,Gill Sans" font-size="46.0" fill="#525252" transform="matrix(1.00, 0.00, -0.00, -1.00, 72.2, 120.8)">t</text><text xml:space="preserve" font-family="GillSans-Light,Gill Sans" font-size="46.0" fill="#525252" transform="matrix(1.00, 0.00, -0.00, -1.00, 86.0, 120.8)">t</text><text xml:space="preserve" font-family="GillSans-Light,Gill Sans" font-size="46.0" fill="#525252" transform="matrix(1.00, 0.00, -0.00, -1.00, 99.9, 120.8)">a</text><text xml:space="preserve" font-family="GillSans-Light,Gill Sans" font-size="46.0" fill="#525252" transform="matrix(1.00, 0.00, -0.00, -1.00, 119.5, 120.8)">c</text><text xml:space="preserve" font-family="GillSans-Light,Gill Sans" font-size="46.0" fill="#525252" transform="matrix(1.00, 0.00, -0.00, -1.00, 138.7, 120.8)">k</text><text xml:space="preserve" font-family="GillSans-Light,Gill Sans" font-size="46.0" fill="#525252" transform="matrix(1.00, 0.00, -0.00, -1.00, 158.3, 120.8)">	</text><text xml:space="preserve" font-family="GillSans-Light,Gill Sans" font-size="46.0" fill="#525252" transform="matrix(1.00, 0.00, -0.00, -1.00, 186.3, 120.8)">
</text><text xml:space="preserve" font-family="GillSans-Light,Gill Sans" font-size="46.0" fill="#525252" transform="matrix(1.00, 0.00, -0.00, -1.00, 186.3, 120.8)"></text><text xml:space="preserve" font-family="GillSans-Light,Gill Sans" font-size="37.7" fill="#525252" transform="matrix(1.00, 0.00, -0.00, -1.00, 0.5, 14.9)">•</text><text xml:space="preserve" font-family="GillSans-Light,Gill Sans" font-size="46.0" fill="#525252" transform="matrix(1.00, 0.00, -0.00, -1.00, 41.5, 12.4)">D</text><text xml:space="preserve" font-family="GillSans-Light,Gill Sans" font-size="46.0" fill="#525252" transform="matrix(1.00, 0.00, -0.00, -1.00, 75.6, 12.4)">e</text><text xml:space="preserve" font-family="GillSans-Light,Gill Sans" font-size="46.0" fill="#525252" transform="matrix(1.00, 0.00, -0.00, -1.00, 97.6, 12.4)">c</text><text xml:space="preserve" font-family="GillSans-Light,Gill Sans" font-size="46.0" fill="#525252" transform="matrix(1.00, 0.00, -0.00, -1.00, 116.8, 12.4)">a</text><text xml:space="preserve" font-family="GillSans-Light,Gill Sans" font-size="46.0" fill="#525252" transform="matrix(1.00, 0.00, -0.00, -1.00, 135.7, 12.4)">y</text><text xml:space="preserve" font-family="GillSans-Light,Gill Sans" font-size="46.0" fill="#525252" transform="matrix(1.00, 0.00, -0.00, -1.00, 154.9, 12.4)">	</text><text xml:space="preserve" font-family="GillSans-Light,Gill Sans" font-size="46.0" fill="#525252" transform="matrix(1.00, 0.00, -0.00, -1.00, 182.9, 12.4)">
</text><text xml:space="preserve" font-family="GillSans-Light,Gill Sans" font-size="46.0" fill="#525252" transform="matrix(1.00, 0.00, -0.00, -1.00, 182.9, 12.4)"></text><text xml:space="preserve" font-family="GillSans-Light,Gill Sans" font-size="37.7" fill="#525252" transform="matrix(1.00, 0.00, -0.00, -1.00, 275.1, 231.7)">•</text><text xml:space="preserve" font-family="GillSans-Light,Gill Sans" font-size="46.0" fill="#525252" transform="matrix(1.00, 0.00, -0.00, -1.00, 316.1, 229.2)">S</text><text xml:space="preserve" font-family="GillSans-Light,Gill Sans" font-size="46.0" fill="#525252" transform="matrix(1.00, 0.00, -0.00, -1.00, 337.7, 229.2)">u</text><text xml:space="preserve" font-family="GillSans-Light,Gill Sans" font-size="46.0" fill="#525252" transform="matrix(1.00, 0.00, -0.00, -1.00, 360.2, 229.2)">s</text><text xml:space="preserve" font-family="GillSans-Light,Gill Sans" font-size="46.0" fill="#525252" transform="matrix(1.00, 0.00, -0.00, -1.00, 376.5, 229.2)">t</text><text xml:space="preserve" font-family="GillSans-Light,Gill Sans" font-size="46.0" fill="#525252" transform="matrix(1.00, 0.00, -0.00, -1.00, 390.4, 229.2)">a</text><text xml:space="preserve" font-family="GillSans-Light,Gill Sans" font-size="46.0" fill="#525252" transform="matrix(1.00, 0.00, -0.00, -1.00, 410.0, 229.2)">i</text><text xml:space="preserve" font-family="GillSans-Light,Gill Sans" font-size="46.0" fill="#525252" transform="matrix(1.00, 0.00, -0.00, -1.00, 418.6, 229.2)">n</text><text xml:space="preserve" font-family="GillSans-Light,Gill Sans" font-size="46.0" fill="#525252" transform="matrix(1.00, 0.00, -0.00, -1.00, 441.2, 229.2)">	</text><text xml:space="preserve" font-family="GillSans-Light,Gill Sans" font-size="46.0" fill="#525252" transform="matrix(1.00, 0.00, -0.00, -1.00, 469.2, 229.2)">
</text><text xml:space="preserve" font-family="GillSans-Light,Gill Sans" font-size="46.0" fill="#525252" transform="matrix(1.00, 0.00, -0.00, -1.00, 469.2, 229.2)"></text><text xml:space="preserve" font-family="GillSans-Light,Gill Sans" font-size="37.7" fill="#525252" transform="matrix(1.00, 0.00, -0.00, -1.00, 275.1, 123.3)">•</text><text xml:space="preserve" font-family="GillSans-Light,Gill Sans" font-size="46.0" fill="#525252" transform="matrix(1.00, 0.00, -0.00, -1.00, 316.1, 120.8)">R</text><text xml:space="preserve" font-family="GillSans-Light,Gill Sans" font-size="46.0" fill="#525252" transform="matrix(1.00, 0.00, -0.00, -1.00, 342.4, 120.8)">e</text><text xml:space="preserve" font-family="GillSans-Light,Gill Sans" font-size="46.0" fill="#525252" transform="matrix(1.00, 0.00, -0.00, -1.00, 364.5, 120.8)">l</text><text xml:space="preserve" font-family="GillSans-Light,Gill Sans" font-size="46.0" fill="#525252" transform="matrix(1.00, 0.00, -0.00, -1.00, 373.1, 120.8)">e</text><text xml:space="preserve" font-family="GillSans-Light,Gill Sans" font-size="46.0" fill="#525252" transform="matrix(1.00, 0.00, -0.00, -1.00, 395.2, 120.8)">a</text><text xml:space="preserve" font-family="GillSans-Light,Gill Sans" font-size="46.0" fill="#525252" transform="matrix(1.00, 0.00, -0.00, -1.00, 414.8, 120.8)">s</text><text xml:space="preserve" font-family="GillSans-Light,Gill Sans" font-size="46.0" fill="#525252" transform="matrix(1.00, 0.00, -0.00, -1.00, 431.1, 120.8)">e</text><text xml:space="preserve" font-family="GillSans-Light,Gill Sans" font-size="46.0" fill="#525252" transform="matrix(1.00, 0.00, -0.00, -1.00, 453.1, 120.8)">	</text><text xml:space="preserve" font-family="GillSans-Light,Gill Sans" font-size="46.0" fill="#525252" transform="matrix(1.00, 0.00, -0.00, -1.00, 481.1, 120.8)">
</text><text xml:space="preserve" font-family="GillSans-Light,Gill Sans" font-size="46.0" fill="#525252" transform="matrix(1.00, 0.00, -0.00, -1.00, 481.1, 120.8)"></text><text xml:space="preserve" font-family="GillSans-Light,Gill Sans" font-size="37.7" fill="#525252" transform="matrix(1.00, 0.00, -0.00, -1.00, 275.1, 14.9)">•</text><text xml:space="preserve" font-family="GillSans-Light,Gill Sans" font-size="46.0" fill="#525252" transform="matrix(1.00, 0.00, -0.00, -1.00, 316.1, 12.4)">R</text><text xml:space="preserve" font-family="GillSans-Light,Gill Sans" font-size="46.0" fill="#525252" transform="matrix(1.00, 0.00, -0.00, -1.00, 342.4, 12.4)">e</text><text xml:space="preserve" font-family="GillSans-Light,Gill Sans" font-size="46.0" fill="#525252" transform="matrix(1.00, 0.00, -0.00, -1.00, 364.5, 12.4)">s</text><text xml:space="preserve" font-family="GillSans-Light,Gill Sans" font-size="46.0" fill="#525252" transform="matrix(1.00, 0.00, -0.00, -1.00, 380.8, 12.4)">o</text><text xml:space="preserve" font-family="GillSans-Light,Gill Sans" font-size="46.0" fill="#525252" transform="matrix(1.00, 0.00, -0.00, -1.00, 405.7, 12.4)">n</text><text xml:space="preserve" font-family="GillSans-Light,Gill Sans" font-size="46.0" fill="#525252" transform="matrix(1.00, 0.00, -0.00, -1.00, 428.3, 12.4)">a</text><text xml:space="preserve" font-family="GillSans-Light,Gill Sans" font-size="46.0" fill="#525252" transform="matrix(1.00, 0.00, -0.00, -1.00, 447.9, 12.4)">n</text><text xml:space="preserve" font-family="GillSans-Light,Gill Sans" font-size="46.0" fill="#525252" transform="matrix(1.00, 0.00, -0.00, -1.00, 470.4, 12.4)">c</text><text xml:space="preserve" font-family="GillSans-Light,Gill Sans" font-size="46.0" fill="#525252" transform="matrix(1.00, 0.00, -0.00, -1.00, 489.6, 12.4)">e</text></g></svg>