<?xml version="1.0" encoding="UTF-8" standalone="no"?><svg xmlns="http://www.w3.org/2000/svg" xmlns:xlink="http://www.w3.org/1999/xlink" clip-rule="evenodd" stroke-miterlimit="10" viewBox="0 0 301 272"><desc>SVG generated by Keynote</desc><defs></defs><g transform="matrix(1.00, 0.00, -0.00, -1.00, 0.0, 272.0)"><path d="M 278.4 172.6 C 278.6 172.1 278.9 171.6 279.5 170.7 C 279.2 171.1 278.9 171.4 278.8 171.3 C 278.4 172.1 277.8 173.0 276.8 174.5 C 276.9 174.5 277.4 173.7 277.7 173.2 C 278.2 172.6 278.2 172.8 278.4 172.6 C 278.4 172.6 278.4 172.6 278.4 172.6 Z M 154.6 46.5 C 155.9 47.3 154.6 46.1 154.1 45.8 C 154.0 45.8 153.9 45.8 153.5 45.5 C 153.4 45.2 154.5 45.8 155.4 46.3 C 158.8 48.6 156.1 47.4 154.6 46.5 C 154.6 46.5 154.6 46.5 154.6 46.5 Z M 23.4 100.6 C 21.6 103.3 23.7 100.6 24.0 100.3 C 23.3 101.6 24.2 100.9 23.2 102.5 C 22.9 102.7 22.5 103.3 22.2 103.5 C 22.6 102.7 23.3 101.7 23.3 101.5 C 22.7 102.5 21.9 103.8 21.6 103.9 C 23.0 101.8 21.7 103.4 21.3 103.6 C 22.6 101.8 22.8 101.0 23.4 100.6 C 23.4 100.6 23.4 100.6 23.4 100.6 Z M 113.9 202.9 C 113.1 202.4 112.5 202.0 112.7 201.9 C 113.5 202.5 114.1 202.9 114.5 203.2 C 114.7 203.2 114.4 202.9 115.1 203.3 C 116.0 204.1 115.5 204.2 115.1 204.1 C 115.0 203.8 112.3 202.2 113.9 202.9 C 113.9 202.9 113.9 202.9 113.9 202.9 Z M 182.9 246.9 C 185.2 248.6 182.9 246.5 185.3 248.2 C 185.3 248.4 185.7 249.0 184.1 248.1 C 184.0 247.8 183.1 247.2 182.9 246.9 C 182.9 246.9 182.9 246.9 182.9 246.9 Z M 69.3 33.2 C 69.2 33.0 68.2 34.8 68.4 34.1 C 68.9 33.2 69.4 32.5 69.9 31.6 C 70.1 31.7 70.0 32.1 69.3 33.2 C 69.3 33.2 69.3 33.2 69.3 33.2 Z M 13.5 120.8 C 11.4 123.4 9.9 126.6 10.2 125.5 C 9.3 126.4 10.8 123.1 11.0 123.4 C 11.4 123.3 14.9 118.5 13.5 120.8 C 13.5 120.8 13.5 120.8 13.5 120.8 Z M 139.7 42.4 C 136.9 40.3 137.4 41.5 135.6 39.9 C 136.2 40.3 136.5 40.4 136.7 40.5 C 136.3 40.2 135.6 39.7 135.6 39.6 C 136.9 40.4 138.6 41.4 139.7 42.4 C 139.7 42.4 139.7 42.4 139.7 42.4 Z M 249.8 215.7 C 249.5 216.2 249.4 216.5 249.5 216.5 C 248.2 218.4 248.4 218.5 247.5 219.6 C 247.2 219.4 248.4 217.8 249.4 216.3 C 249.4 216.2 249.7 215.7 249.8 215.7 C 249.8 215.7 249.8 215.7 249.8 215.7 Z M 212.8 266.4 C 212.9 266.8 214.0 267.6 212.3 266.6 C 210.2 264.8 211.9 265.6 213.9 266.8 C 213.9 266.6 213.8 266.4 213.8 266.3 C 213.0 265.7 212.4 265.3 211.9 264.9 C 211.7 265.3 210.1 263.4 207.1 261.7 C 208.5 262.4 206.8 260.9 208.8 262.4 C 208.2 261.7 209.6 262.6 209.3 262.1 C 208.5 261.8 206.4 260.4 207.0 261.2 C 205.9 260.5 205.1 259.9 204.5 259.5 C 203.7 258.6 206.5 260.7 205.6 259.8 C 205.0 259.4 204.9 259.2 204.4 258.9 C 204.3 259.0 204.6 259.3 203.9 258.9 C 201.9 257.5 204.1 258.7 201.4 256.8 C 201.2 257.0 202.1 257.5 202.0 257.7 C 200.8 257.1 200.8 256.8 199.6 256.3 C 199.4 255.9 200.5 256.5 199.6 255.9 C 198.9 255.9 197.0 253.9 195.3 253.3 C 196.7 254.8 195.0 252.9 193.6 252.7 C 193.2 252.2 194.3 252.5 192.9 251.6 C 193.5 252.8 188.0 249.0 192.5 252.6 C 190.2 251.1 189.6 251.4 191.4 252.7 C 187.3 249.9 188.7 251.2 187.2 250.2 C 185.6 249.2 188.0 250.6 187.1 249.8 C 188.8 250.9 188.3 250.4 189.6 251.3 C 189.5 251.2 189.8 251.3 190.2 251.4 C 188.5 250.6 186.5 248.8 187.6 249.1 C 188.5 249.7 187.7 249.6 188.9 250.4 C 188.4 249.6 190.1 251.2 190.1 250.9 C 189.2 250.0 191.5 251.1 189.3 249.6 C 189.3 249.8 189.3 250.0 189.4 250.2 C 188.8 249.8 188.2 249.4 187.6 249.0 C 187.0 248.3 187.4 248.3 186.8 247.9 C 185.8 247.2 185.3 247.0 185.0 246.9 C 186.3 247.8 187.8 249.1 185.8 247.8 C 186.4 247.6 182.8 245.8 184.4 246.4 C 182.2 244.8 181.1 244.6 180.8 244.0 C 179.6 243.2 180.5 244.1 179.0 243.2 C 176.7 241.4 177.2 242.1 174.2 239.9 C 173.9 240.2 173.9 239.6 172.9 239.0 C 172.9 239.2 172.9 239.4 173.0 239.6 C 171.9 238.6 169.4 236.8 166.9 235.5 C 166.2 235.0 166.7 235.0 165.0 234.0 C 163.3 233.4 161.1 231.4 159.0 230.6 C 158.8 230.2 157.4 229.2 156.6 228.9 C 156.2 228.5 157.3 228.8 155.9 227.9 C 155.1 227.7 156.7 228.8 154.8 227.7 C 154.9 227.5 153.0 226.8 152.9 226.4 C 153.5 226.7 154.2 227.0 154.7 227.3 C 153.9 226.7 154.1 226.7 153.5 226.2 C 153.6 226.8 152.1 225.4 151.7 225.1 C 151.7 225.3 151.6 225.3 151.1 225.1 C 150.0 224.4 149.2 223.9 148.7 223.7 C 147.3 222.6 149.4 223.9 148.1 223.0 C 147.4 223.4 146.0 221.6 143.2 220.2 C 142.6 219.6 141.4 218.7 139.5 217.5 C 139.4 217.6 141.3 218.7 141.4 219.0 C 138.7 217.2 141.9 219.5 140.1 218.4 C 136.3 215.7 133.9 214.1 129.8 211.3 C 129.9 211.6 126.7 209.7 126.8 209.7 C 127.6 210.1 125.1 208.2 123.8 207.3 C 123.4 207.6 121.4 206.8 121.2 206.9 C 120.8 206.4 120.9 206.4 120.7 205.8 C 118.5 204.2 117.2 203.9 115.9 202.5 C 116.0 202.8 114.9 202.2 114.0 201.7 C 114.2 201.6 114.8 201.8 115.3 201.9 C 114.1 201.2 113.9 200.9 112.9 200.2 C 111.7 200.4 110.1 198.2 109.1 198.5 C 107.4 197.4 107.7 197.2 106.1 196.2 C 106.2 196.4 106.0 196.4 105.5 196.2 C 106.6 196.8 107.4 197.1 107.9 197.8 C 105.5 196.3 112.3 201.5 108.4 199.4 C 108.3 199.1 108.7 199.2 107.8 198.6 C 105.6 197.3 106.9 198.4 107.8 199.0 C 106.3 198.2 104.7 197.1 105.9 198.2 C 102.5 196.1 104.7 197.2 103.5 196.3 C 97.4 192.6 89.7 187.8 81.5 182.1 C 81.1 182.3 76.8 179.1 75.4 178.0 C 73.0 176.8 70.5 175.3 69.9 174.4 C 69.4 174.5 67.1 172.4 66.8 172.5 C 67.8 173.2 68.4 173.7 67.4 173.1 C 64.1 170.8 59.0 167.4 57.0 166.4 C 55.9 165.3 53.7 163.9 52.1 163.2 C 51.9 162.9 53.2 163.5 52.2 162.9 C 51.9 162.9 48.6 161.0 47.9 160.3 C 48.9 161.0 50.1 161.3 48.7 160.4 C 48.6 160.5 46.9 159.4 47.3 159.9 C 45.3 158.5 44.0 157.9 42.4 156.7 C 43.8 157.5 44.7 158.0 45.0 157.9 C 43.8 157.3 42.8 156.8 42.0 156.0 C 42.0 156.5 40.2 155.0 38.2 153.9 C 37.7 153.5 37.4 153.1 35.8 152.1 C 34.9 151.8 38.1 153.9 36.3 152.8 C 36.4 152.7 34.8 151.5 35.1 152.0 C 33.0 150.6 31.8 150.0 30.3 148.7 C 32.4 150.2 30.9 148.8 30.4 148.4 C 29.9 148.1 29.2 147.6 29.2 147.7 C 29.1 147.8 30.2 148.5 30.3 148.6 C 28.9 147.6 28.2 147.7 27.8 147.1 C 28.5 147.6 28.7 147.5 27.9 147.0 C 27.5 147.3 23.3 144.2 24.9 144.9 C 24.9 145.0 26.5 146.1 26.8 146.1 C 26.3 145.7 23.8 144.2 24.4 144.3 C 25.9 145.2 25.7 145.3 27.4 146.3 C 27.7 146.3 28.7 146.9 29.4 147.2 C 26.7 145.5 26.0 145.4 25.8 144.8 C 24.6 144.1 25.1 144.8 23.2 143.5 C 20.4 141.6 22.9 142.9 22.2 142.4 C 19.7 140.9 20.2 141.7 21.2 142.6 C 19.2 141.4 18.5 141.1 16.3 139.6 C 16.5 139.5 16.8 139.6 17.7 140.1 C 17.7 140.2 19.6 141.6 19.5 141.3 C 19.5 140.9 18.0 139.7 15.5 138.0 C 15.9 138.7 16.1 138.6 13.6 137.0 C 13.8 137.6 12.4 136.2 12.3 136.3 C 12.3 136.5 13.2 137.1 14.0 137.6 C 13.9 137.7 13.5 137.6 12.7 137.1 C 12.2 136.7 11.7 136.6 10.3 135.5 C 10.3 135.2 11.4 135.9 11.7 135.9 C 10.9 135.4 10.6 135.4 9.8 134.9 C 9.2 134.2 9.4 133.9 9.7 133.6 C 10.7 134.2 12.2 135.1 11.1 134.2 C 14.7 136.5 10.7 134.4 12.0 135.3 C 13.7 136.0 12.6 135.9 15.0 137.4 C 15.7 137.8 16.0 137.9 16.3 138.0 C 16.2 137.9 15.0 136.7 16.5 137.7 C 16.8 138.1 17.6 138.7 18.8 139.6 C 18.8 139.5 16.4 137.7 18.9 139.4 C 20.1 140.2 18.8 139.8 20.6 140.8 C 20.6 140.8 21.1 141.1 21.2 141.1 C 18.7 139.5 21.8 141.2 20.2 140.0 C 22.4 141.2 20.4 140.5 21.9 141.4 C 22.0 141.3 24.2 143.0 24.4 142.8 C 23.4 142.3 21.7 141.1 22.1 141.1 C 23.6 142.1 31.1 146.7 28.0 145.2 C 29.2 145.7 34.7 148.9 34.2 148.8 C 32.6 147.7 32.6 148.0 32.3 148.0 C 35.4 149.6 36.8 150.8 40.3 152.6 C 36.7 150.3 39.6 151.6 37.6 150.0 C 36.7 149.4 35.4 148.6 35.1 148.5 C 35.4 149.0 36.9 149.9 37.6 150.1 C 37.5 150.3 37.4 150.6 37.3 150.8 C 33.4 148.0 31.2 146.9 29.4 145.6 C 31.0 146.6 26.6 143.3 28.4 144.4 C 29.1 145.1 31.0 146.3 32.5 147.4 C 32.6 147.3 32.6 147.2 32.7 147.2 C 33.4 147.6 34.4 148.3 34.5 148.2 C 32.3 146.9 31.2 145.9 29.6 145.1 C 29.7 145.0 29.7 145.0 29.7 144.9 C 29.4 144.7 29.0 144.5 29.2 144.5 C 29.9 144.9 30.9 145.6 31.0 145.6 C 29.5 144.5 29.3 144.1 27.6 142.9 C 28.1 142.9 26.0 141.0 28.6 142.6 C 28.8 143.1 30.2 144.1 30.1 144.2 C 30.8 144.8 32.4 145.7 33.2 146.1 C 32.5 145.4 31.0 144.4 31.0 144.1 C 32.3 144.8 33.3 145.4 34.0 146.1 C 31.3 144.5 35.3 147.2 36.1 148.1 C 35.9 147.8 35.3 147.3 35.1 147.0 C 37.0 148.3 37.9 149.1 38.2 148.8 C 40.6 150.2 40.0 150.2 41.7 151.3 C 40.7 150.2 42.8 151.8 41.9 150.8 C 44.7 152.5 42.6 151.6 43.6 152.3 C 44.4 152.8 44.6 152.8 45.4 153.3 C 46.6 154.3 49.2 155.9 49.4 156.5 C 50.6 157.2 50.7 157.4 51.8 158.1 C 52.1 158.2 52.5 158.4 53.1 158.6 C 53.2 158.8 54.0 159.5 54.3 159.5 C 51.3 157.1 52.2 157.7 49.1 155.3 C 48.8 155.3 48.3 155.0 49.0 155.6 C 46.8 154.2 46.2 153.6 44.2 152.4 C 44.1 152.0 43.9 151.4 42.0 150.5 C 42.5 150.5 42.1 150.1 42.8 150.5 C 43.7 151.3 44.9 152.2 46.2 153.1 C 46.4 153.1 46.2 152.8 46.9 153.3 C 47.5 153.8 48.5 154.5 49.3 154.9 C 49.3 155.0 49.0 154.9 48.6 154.8 C 51.5 156.8 50.6 155.7 52.8 157.4 C 52.5 157.0 51.1 156.1 52.4 156.7 C 54.4 157.9 54.8 158.4 55.9 159.1 C 56.1 159.2 56.0 159.0 56.6 159.4 C 58.0 160.5 53.2 157.8 55.6 159.8 C 55.9 159.7 58.4 161.4 58.7 161.8 C 57.8 161.5 56.4 160.2 56.2 160.3 C 60.8 163.3 56.2 160.8 60.8 164.0 C 60.9 163.8 60.9 163.7 61.0 163.6 C 59.1 162.4 59.1 162.2 59.3 162.0 C 57.7 160.9 57.1 160.2 55.7 159.5 C 56.4 159.3 57.1 160.3 58.8 161.4 C 58.8 161.2 57.3 160.1 57.1 159.8 C 60.9 162.5 61.9 162.6 65.4 165.4 C 64.6 164.5 67.5 166.7 67.3 166.3 C 64.1 164.3 65.6 164.4 65.2 164.0 C 63.0 162.6 63.8 163.7 62.5 163.1 C 62.0 162.5 62.4 162.5 62.8 162.3 C 64.6 163.6 64.4 163.4 65.8 164.2 C 67.0 165.2 67.9 166.4 66.1 165.5 C 66.5 165.6 69.0 167.1 69.1 167.4 C 66.8 165.9 69.3 167.7 67.9 166.9 C 69.6 168.2 72.9 170.0 75.0 171.6 C 74.9 171.3 75.7 171.8 75.7 171.6 C 73.4 170.5 73.2 169.6 71.0 168.2 C 72.0 168.8 71.5 168.2 71.1 167.9 C 73.2 169.4 74.4 169.9 75.8 171.2 C 75.8 171.1 75.9 171.0 75.9 170.9 C 78.4 172.8 78.1 172.4 80.1 173.5 C 80.8 174.1 79.6 174.0 79.3 174.1 C 80.2 174.5 83.7 176.8 81.8 175.2 C 83.8 176.5 83.2 176.6 85.2 177.9 C 85.3 177.6 83.4 176.4 84.2 176.5 C 86.1 177.7 84.9 177.3 86.6 178.1 C 86.6 178.4 86.6 178.7 88.2 179.7 C 87.1 178.7 88.4 179.7 88.9 179.8 C 88.2 179.3 87.5 178.8 87.1 178.5 C 90.1 180.5 90.7 180.8 93.1 182.3 C 92.1 182.1 93.5 183.0 91.8 182.1 C 93.4 182.9 95.2 184.5 96.0 184.8 C 95.1 184.1 93.6 183.1 93.0 182.6 C 97.8 185.6 100.4 186.8 104.4 189.9 C 103.7 189.5 102.7 188.8 102.6 188.9 C 103.0 189.2 103.8 189.6 103.8 189.7 C 102.3 188.8 100.9 187.9 100.1 187.5 C 98.9 186.5 100.9 187.8 99.6 186.8 C 99.3 186.9 96.9 185.1 97.7 186.1 C 100.0 187.3 102.2 189.0 103.1 190.0 C 105.3 190.9 103.3 189.6 105.6 190.5 C 105.5 190.6 106.0 191.1 106.7 191.6 C 106.1 190.7 108.9 192.7 109.2 192.9 C 108.1 192.4 104.1 190.1 106.1 191.8 C 105.3 190.4 110.7 194.9 109.7 193.7 C 112.3 195.3 111.3 195.1 112.7 195.6 C 112.8 195.8 112.6 195.8 113.3 196.3 C 114.0 196.7 114.2 196.8 114.5 196.9 C 111.0 194.4 112.1 194.7 109.7 193.2 C 110.2 193.4 110.5 193.6 110.4 193.5 C 110.4 193.4 110.5 193.4 111.0 193.8 C 111.1 194.3 112.9 194.9 113.3 195.5 C 112.7 195.1 112.0 194.6 112.2 195.0 C 115.1 196.8 114.6 196.8 118.6 199.7 C 117.4 198.7 119.1 199.7 120.5 200.5 C 122.4 201.8 121.7 201.9 124.0 203.4 C 123.9 202.4 126.6 205.1 129.4 206.4 C 129.1 206.7 132.9 209.2 133.6 209.3 C 133.7 209.6 135.1 210.4 136.0 211.0 C 136.2 211.3 135.1 210.7 136.0 211.3 C 136.8 211.8 136.1 210.9 137.2 211.6 C 138.5 212.6 138.2 212.8 140.1 214.0 C 140.2 213.7 139.2 213.1 140.1 213.5 C 141.8 214.8 143.4 215.7 142.0 214.5 C 144.5 216.1 143.2 215.9 145.6 217.4 C 144.9 216.8 144.9 216.7 146.2 217.4 C 147.0 218.3 147.1 218.4 147.4 218.8 C 148.1 218.9 147.8 218.7 149.8 220.1 C 149.8 219.9 149.8 219.8 149.8 219.6 C 150.6 220.2 151.9 221.0 152.2 221.3 C 150.5 220.2 151.0 220.8 150.4 220.5 C 152.0 221.6 155.2 223.9 152.8 222.0 C 155.0 223.3 153.9 223.1 155.7 224.1 C 154.6 223.1 155.7 224.1 157.5 225.2 C 157.3 224.6 158.8 225.9 159.9 226.6 C 159.7 226.3 160.0 226.3 161.1 227.0 C 161.0 227.1 161.7 227.6 162.9 228.3 C 162.9 228.2 160.4 226.4 162.9 228.0 C 164.0 228.9 164.1 229.3 165.9 230.5 C 166.4 231.1 164.3 229.6 164.8 230.3 C 166.2 230.9 166.7 231.5 169.0 233.0 C 168.0 231.8 173.3 235.0 170.7 233.0 C 171.4 233.5 172.4 233.7 173.0 234.5 C 172.2 234.0 173.7 235.3 173.7 235.3 C 174.7 235.9 177.2 237.7 177.2 237.5 C 175.0 236.1 174.9 235.8 174.2 235.1 C 177.5 237.0 180.4 239.1 180.2 239.3 C 180.2 239.2 180.7 239.5 180.8 239.5 C 179.6 238.8 178.8 237.7 180.1 238.5 C 179.9 238.7 180.9 239.4 182.0 240.2 C 182.0 239.9 186.4 243.2 185.5 242.2 C 183.8 241.4 182.3 239.9 183.6 240.6 C 184.8 241.6 187.2 243.3 186.7 243.3 C 187.4 243.6 187.9 243.9 188.5 244.1 C 189.0 244.1 187.6 243.3 187.8 243.1 C 188.7 243.7 190.0 244.5 190.2 244.8 C 187.8 243.3 191.5 245.8 189.1 244.5 C 190.6 245.4 191.0 245.9 192.1 246.7 C 192.1 246.6 192.6 246.8 192.7 246.8 C 191.7 246.4 190.6 245.5 190.8 245.3 C 192.9 246.6 192.7 246.8 194.5 248.0 C 194.9 248.1 197.3 249.1 198.6 250.2 C 196.2 248.6 198.8 250.5 197.4 249.8 C 195.2 248.1 194.7 248.2 193.9 248.0 C 194.9 248.8 196.7 250.1 196.9 249.8 C 195.7 249.0 195.8 249.2 195.1 248.8 C 195.2 248.6 195.5 248.7 196.3 249.1 C 197.3 250.0 199.5 251.2 198.1 250.8 C 199.6 251.5 201.3 253.0 202.9 253.7 C 201.1 252.5 199.8 251.6 199.2 250.9 C 200.6 251.7 202.2 253.1 202.2 252.9 C 201.9 252.4 199.6 251.0 199.1 250.5 C 200.9 251.3 204.0 254.2 201.5 251.9 C 202.5 252.6 204.0 253.5 204.5 254.0 C 203.2 253.2 204.7 254.6 205.3 255.0 C 206.4 255.7 207.2 256.2 207.6 256.3 C 205.9 255.4 204.6 254.1 205.7 254.8 C 206.0 255.2 206.3 255.2 206.9 255.4 C 207.0 255.7 208.9 256.8 209.3 257.2 C 209.1 257.0 208.3 256.4 208.0 256.1 C 209.1 256.7 210.6 257.2 211.6 258.3 C 210.9 257.8 209.9 257.2 209.8 257.3 C 211.3 258.4 212.3 259.2 213.3 260.0 C 214.1 259.1 214.9 258.1 216.2 256.3 C 215.9 256.8 215.8 257.1 215.9 257.1 C 217.4 254.9 218.4 253.5 218.3 254.1 C 219.2 252.6 219.6 251.6 220.0 250.7 C 219.0 252.0 218.8 252.8 218.1 253.5 C 218.5 252.9 217.2 253.9 216.7 254.3 C 215.2 257.2 214.9 256.7 213.4 259.5 C 213.5 259.1 213.4 259.2 213.2 259.5 C 212.6 259.1 211.8 258.6 212.2 258.7 C 212.5 258.9 212.8 259.2 213.1 259.4 C 214.5 257.7 215.8 255.3 217.8 252.5 C 217.6 253.2 217.4 253.9 218.4 252.6 C 219.9 250.6 219.0 251.2 220.2 249.4 C 220.8 249.0 220.1 250.1 220.7 249.3 C 221.1 248.5 222.2 246.9 222.7 246.6 C 221.1 249.0 223.1 246.4 222.1 248.2 C 222.6 247.4 222.9 247.0 223.3 246.5 C 221.6 248.5 224.6 243.7 223.4 245.2 C 225.4 241.8 223.8 245.8 225.5 243.0 C 224.6 244.1 225.6 242.3 226.9 240.4 C 227.4 240.2 228.7 238.2 229.8 236.7 C 229.1 237.4 228.7 238.0 229.6 236.3 C 229.0 237.0 228.2 238.4 227.7 239.3 C 227.7 239.1 227.4 239.3 227.2 239.6 C 228.4 237.6 227.8 238.3 228.2 237.6 C 228.6 237.1 229.5 235.7 229.8 235.5 C 229.8 235.4 230.1 234.9 230.1 234.7 C 228.5 237.2 230.2 234.0 229.1 235.4 C 228.5 236.5 229.0 236.1 228.1 237.5 C 227.1 238.4 228.7 236.0 229.0 235.0 C 228.1 235.9 227.4 237.7 227.0 237.7 C 227.8 235.9 229.4 233.8 230.7 232.0 C 230.4 231.7 232.8 228.9 232.7 228.2 C 233.0 228.0 233.3 227.8 233.6 227.3 C 233.8 226.5 234.4 226.2 234.8 225.7 C 234.7 225.5 234.6 225.5 234.2 225.9 C 235.8 223.7 236.2 223.1 237.9 220.2 C 238.3 219.9 238.7 219.5 239.0 219.5 C 238.6 220.2 238.2 220.8 238.0 221.4 C 240.5 217.6 238.4 219.4 240.4 217.1 C 240.3 217.1 238.8 218.7 239.7 217.2 C 241.5 215.1 243.5 211.5 244.0 212.1 C 245.5 210.2 246.1 208.4 247.0 207.6 C 247.4 206.9 247.5 206.6 247.6 206.3 C 247.1 206.8 246.4 207.6 245.8 208.3 C 245.1 209.7 244.5 210.0 245.6 209.1 C 244.4 211.0 243.9 211.4 243.2 212.3 C 244.7 209.5 246.5 207.3 246.2 206.9 C 246.9 206.1 247.5 205.6 248.1 205.0 C 248.2 204.6 250.0 201.6 250.4 201.5 C 249.0 203.5 247.9 205.8 249.3 204.1 C 252.3 199.0 254.5 196.5 257.1 191.9 C 257.3 191.9 257.3 192.3 257.8 191.5 C 257.6 191.5 257.7 191.2 257.9 190.8 C 258.8 189.4 259.4 188.7 260.5 186.8 C 260.7 187.0 261.1 186.8 261.8 185.8 C 261.9 185.1 262.6 183.1 263.4 182.0 C 262.7 183.2 264.0 181.8 264.5 181.0 C 263.6 181.6 268.2 175.9 266.7 177.5 C 268.2 175.1 269.0 174.1 269.2 174.1 C 269.7 173.2 270.0 172.6 270.5 171.7 C 271.2 171.3 273.6 167.1 274.2 166.5 C 273.1 167.9 273.4 168.3 274.1 167.1 C 274.4 166.3 276.5 162.6 277.1 161.9 C 277.0 162.1 277.2 162.4 276.1 164.2 C 278.1 161.1 277.6 161.1 278.0 160.1 C 278.4 160.2 278.9 158.8 279.1 158.4 C 280.0 157.4 279.2 158.4 279.5 158.3 C 280.3 157.3 280.7 156.8 281.6 155.4 C 281.0 155.8 282.2 154.2 282.7 153.7 C 282.6 153.5 282.9 152.7 283.7 151.4 C 283.2 153.1 289.2 143.9 287.3 146.1 C 288.2 144.4 288.9 144.2 290.3 142.0 C 290.4 141.8 290.5 141.6 290.6 141.4 C 290.1 141.1 289.7 140.9 290.3 141.5 C 290.3 141.5 290.3 141.5 290.3 141.5 C 290.3 141.5 290.3 141.5 290.3 141.5 C 288.4 140.3 290.0 140.9 287.6 139.5 C 288.1 140.2 285.4 138.0 285.4 138.5 C 285.1 137.7 282.3 136.7 281.0 135.3 C 280.9 135.4 280.3 135.0 280.1 135.0 C 279.7 134.8 282.1 136.5 280.4 135.5 C 278.7 134.1 279.9 134.8 279.8 134.5 C 274.2 131.1 267.8 126.8 262.1 123.0 C 262.7 123.5 262.5 123.5 261.2 122.8 C 260.2 121.5 253.1 117.2 251.9 116.6 C 251.6 116.0 247.8 114.0 247.3 113.5 C 248.0 114.0 249.6 114.7 248.2 113.7 C 246.9 113.3 245.9 112.4 244.3 111.6 C 244.0 111.0 239.4 108.5 241.8 109.4 C 241.0 108.9 240.6 108.6 240.2 108.2 C 239.8 108.4 239.0 107.8 240.3 108.9 C 236.7 106.2 235.5 105.8 232.7 103.7 C 232.1 103.5 234.3 105.1 232.4 104.0 C 232.5 103.9 232.5 103.9 232.6 103.9 C 232.0 103.4 231.6 103.4 231.4 103.1 C 231.7 103.1 232.6 103.7 233.0 103.6 C 231.4 102.7 230.8 101.8 230.0 101.7 C 232.0 103.0 230.2 102.4 229.2 101.5 C 230.5 102.1 224.5 98.4 222.5 97.4 C 221.9 96.5 224.6 98.6 224.6 98.3 C 221.0 96.1 221.4 96.2 220.7 96.2 C 219.0 95.0 218.4 94.4 216.1 93.1 C 214.9 92.2 217.0 93.4 215.7 92.5 C 214.8 92.1 214.4 91.9 213.1 91.2 C 210.4 88.7 202.3 84.6 199.2 81.6 C 200.6 82.7 198.5 81.6 196.6 80.3 C 196.6 80.2 196.9 80.2 196.2 79.7 C 196.2 80.0 195.5 79.6 194.3 78.8 C 194.2 78.6 194.5 78.7 193.8 78.2 C 193.1 78.1 191.7 76.9 190.7 76.4 C 190.5 75.9 193.0 77.7 193.3 77.6 C 190.3 75.5 189.6 75.4 187.4 73.8 C 188.6 74.6 186.6 73.0 186.3 72.7 C 186.7 73.3 184.8 72.2 186.0 73.3 C 185.2 72.7 183.8 71.9 183.7 71.6 C 184.2 71.9 184.9 72.4 184.9 72.3 C 183.8 71.7 182.6 70.5 181.9 70.4 C 182.7 70.9 183.1 71.3 183.0 71.4 C 182.7 71.3 182.3 71.2 181.7 70.9 C 183.7 71.4 178.6 68.4 178.2 68.4 C 178.0 67.7 177.7 67.6 177.9 67.5 C 175.8 66.1 176.0 66.6 174.7 65.9 C 175.2 65.8 175.7 65.8 173.9 64.5 C 174.1 65.1 171.8 63.5 172.4 64.3 C 167.4 61.3 166.5 60.2 163.5 58.3 C 163.4 58.4 164.3 59.0 163.5 58.5 C 162.1 57.5 160.9 56.6 160.0 55.8 C 159.2 55.6 160.2 56.3 159.3 55.8 C 157.2 54.1 157.8 54.1 155.9 52.7 C 153.5 51.3 154.4 51.7 152.9 51.1 C 153.5 51.5 154.3 52.2 153.4 51.7 C 152.0 50.5 151.5 49.8 151.2 49.5 C 152.2 50.1 153.0 50.7 153.5 51.1 C 153.9 51.1 155.4 52.1 154.2 51.1 C 155.7 52.2 157.4 53.3 159.6 54.7 C 159.0 53.9 161.6 55.9 160.9 55.1 C 158.4 53.6 157.9 53.0 155.5 51.5 C 156.0 52.2 153.6 50.4 153.1 50.1 C 153.1 50.3 151.4 49.1 151.8 49.7 C 150.0 48.6 150.1 48.4 148.2 47.3 C 148.1 47.1 148.4 47.1 147.7 46.6 C 147.0 46.5 146.5 45.7 145.9 45.3 C 146.3 45.9 143.6 44.0 143.4 44.2 C 144.1 44.6 145.1 45.2 145.2 45.4 C 142.3 43.5 144.6 45.3 145.2 45.9 C 145.1 45.7 146.2 46.0 146.4 46.4 C 143.9 45.0 149.7 49.1 147.5 47.5 C 145.7 46.3 145.8 46.6 143.9 45.3 C 141.8 43.3 144.4 44.7 142.3 42.9 C 140.9 42.2 139.9 41.6 139.8 41.8 C 139.5 41.5 139.2 41.1 138.7 40.7 C 138.0 40.5 140.4 42.2 138.6 41.1 C 137.7 40.5 138.8 40.7 136.8 39.6 C 136.0 39.3 139.1 41.4 137.4 40.3 C 135.5 38.7 137.8 40.8 135.6 39.4 C 135.4 39.2 135.1 39.0 134.4 38.5 C 134.3 38.3 134.6 38.3 133.8 37.7 C 133.4 38.0 133.0 37.0 131.4 36.1 C 130.5 35.9 133.1 37.3 132.6 37.3 C 130.8 35.8 129.7 35.6 129.0 35.0 C 130.5 35.7 126.7 33.3 126.6 33.0 C 127.0 33.6 126.2 32.9 124.1 31.9 C 124.0 31.2 121.7 30.1 121.1 29.3 C 120.8 29.3 120.3 29.0 120.0 29.0 C 120.7 29.5 121.4 29.9 121.2 30.0 C 120.6 29.6 120.0 29.2 119.3 28.8 C 118.3 27.9 120.9 28.9 116.9 26.4 C 117.4 27.1 115.7 26.1 114.6 25.5 C 114.7 26.0 116.2 26.5 116.4 26.9 C 115.0 26.3 113.6 25.0 112.8 24.3 C 110.4 23.0 107.7 21.0 104.3 19.0 C 103.5 18.2 107.1 20.5 104.9 18.9 C 103.9 18.3 104.4 18.9 103.1 18.0 C 104.1 17.2 94.0 11.9 93.3 10.8 C 92.9 10.9 90.0 8.8 90.4 9.5 C 92.3 10.4 93.7 11.7 94.7 12.6 C 96.5 13.5 93.0 11.1 94.6 12.1 C 94.8 12.4 97.2 13.8 97.1 14.0 C 94.5 12.4 98.5 15.2 96.6 14.3 C 94.2 12.7 89.5 10.1 90.6 10.3 C 90.6 10.5 91.6 11.2 91.7 11.1 C 90.0 9.9 88.8 9.2 87.8 8.7 C 87.5 9.3 87.2 9.9 86.9 10.4 C 86.1 11.4 83.1 16.7 83.9 15.2 C 83.5 15.3 85.7 12.4 85.3 12.6 C 82.1 17.4 82.1 17.8 79.9 20.8 C 80.7 20.2 77.9 24.9 78.1 24.3 C 78.0 24.0 77.3 24.7 76.1 27.1 C 76.2 26.4 75.4 27.4 74.7 28.3 C 74.5 29.1 75.4 27.8 75.3 28.3 C 74.7 29.3 74.0 30.3 73.4 31.3 C 73.3 31.2 73.3 30.9 72.9 31.5 C 72.2 32.9 69.7 37.2 69.9 36.7 C 70.8 34.6 68.0 39.1 69.7 36.0 C 69.2 36.8 69.1 36.7 68.4 37.7 C 68.5 37.9 68.5 38.0 68.6 38.2 C 67.2 40.4 67.7 38.8 66.5 40.6 C 66.4 41.0 65.9 41.8 65.8 42.2 C 66.3 41.4 66.3 41.2 66.9 40.3 C 66.4 41.9 68.3 38.6 68.3 39.1 C 67.0 41.2 66.9 40.9 66.3 41.6 C 64.6 44.5 65.4 43.2 63.5 45.9 C 63.6 46.0 64.1 45.3 64.0 45.6 C 61.8 48.9 61.8 47.9 60.3 50.5 C 60.7 49.9 61.9 47.6 61.0 49.0 C 60.0 50.7 59.8 51.5 58.5 53.7 C 58.4 53.7 58.4 53.3 57.9 54.0 C 57.4 55.0 57.5 55.3 57.0 56.3 C 56.8 56.3 56.1 57.5 55.9 58.1 C 55.2 58.6 55.9 57.5 55.3 58.3 C 54.1 60.1 53.8 61.7 52.9 63.1 C 52.7 62.6 51.7 64.4 50.8 65.9 C 50.4 65.8 48.5 69.0 47.1 71.0 C 47.6 70.8 46.1 72.8 46.6 72.6 C 47.2 71.6 47.6 71.1 47.8 71.0 C 46.4 73.4 45.6 73.5 44.7 75.7 C 44.0 76.4 43.2 77.4 42.1 78.9 C 42.1 79.2 44.1 76.3 43.1 78.0 C 43.0 78.0 42.6 78.6 42.3 79.2 C 42.3 78.7 41.4 79.9 40.8 80.5 C 40.1 82.1 37.9 84.7 39.0 83.7 C 37.6 86.0 38.3 84.1 37.1 85.8 C 38.0 85.2 36.1 88.2 37.2 86.9 C 35.7 89.2 35.5 88.7 36.1 87.6 C 34.6 89.7 34.5 90.3 33.7 91.2 C 34.5 90.5 32.6 93.8 33.5 92.1 C 33.6 91.3 32.2 93.9 31.8 94.2 C 32.4 93.6 31.7 94.8 32.8 93.4 C 31.8 95.0 30.3 97.4 29.2 98.6 C 28.0 100.7 26.8 102.6 27.2 101.5 C 26.0 103.5 26.4 102.8 25.2 104.6 C 25.2 104.7 25.6 104.2 25.7 104.1 C 24.1 106.7 24.3 106.0 22.1 109.4 C 22.1 108.8 20.7 111.0 20.1 111.5 C 21.0 110.1 21.8 109.0 22.6 107.9 C 22.6 107.6 21.9 108.7 22.4 107.7 C 22.6 107.7 22.9 107.2 23.3 106.7 C 21.7 108.7 24.8 103.5 24.0 105.3 C 23.9 105.3 23.8 105.4 23.5 105.9 C 24.0 105.6 23.9 105.6 23.8 106.2 C 24.5 105.0 25.3 104.4 25.4 103.8 C 25.3 103.7 24.6 104.8 24.5 104.9 C 26.1 102.0 25.3 104.3 26.6 102.1 C 26.7 101.4 25.9 102.4 25.5 102.8 C 26.7 100.8 27.9 99.1 28.3 98.7 C 29.4 96.8 28.1 98.7 28.8 97.3 C 29.3 96.7 29.5 96.9 30.3 95.7 C 31.1 94.3 29.6 96.3 30.5 94.9 C 31.5 93.6 30.1 96.2 31.6 94.0 C 30.9 94.2 32.9 92.1 32.6 92.1 C 31.8 93.4 31.6 93.1 32.2 92.6 C 34.3 90.0 35.0 87.1 37.3 84.7 C 37.2 84.6 37.5 84.2 37.5 84.0 C 36.0 86.0 33.9 89.2 33.2 89.5 C 32.1 91.3 32.5 91.3 32.3 91.7 C 30.8 93.5 30.8 93.3 31.4 91.7 C 33.6 88.1 34.7 86.8 36.3 84.6 C 36.9 83.2 36.1 84.6 35.7 85.0 C 40.5 78.0 36.5 82.8 38.2 80.3 C 38.2 80.5 38.6 80.0 39.1 79.3 C 39.1 79.2 39.8 78.2 39.8 77.9 C 39.5 78.4 39.3 78.6 39.3 78.4 C 40.4 76.5 40.1 77.5 40.3 77.5 C 39.4 78.8 38.9 79.8 38.9 80.1 C 39.9 78.2 41.0 77.0 41.5 75.6 C 42.8 74.3 41.4 77.2 42.2 76.6 C 42.1 77.1 42.5 74.9 43.3 73.4 C 44.7 71.3 44.5 70.9 45.9 68.9 C 46.4 68.6 44.6 71.0 44.9 71.1 C 45.3 70.5 45.4 70.4 45.7 69.9 C 46.6 68.5 46.4 68.4 47.1 67.1 C 47.6 66.8 47.8 66.3 48.3 65.4 C 49.2 64.1 47.9 66.3 48.8 65.0 C 49.8 63.5 50.3 62.1 50.6 61.7 C 50.8 61.7 50.7 62.0 51.2 61.3 C 52.2 59.4 52.4 59.0 51.0 61.0 C 52.2 59.1 52.7 58.2 52.4 58.2 C 50.5 61.0 50.1 61.8 49.0 62.7 C 48.8 63.5 48.2 64.2 47.4 65.2 C 48.1 65.0 46.6 66.4 46.4 67.3 C 46.9 66.6 47.4 65.9 47.7 65.6 C 45.7 68.6 45.7 68.5 44.3 71.4 C 44.3 71.3 44.0 71.5 43.8 71.8 C 44.2 70.9 45.7 68.8 45.6 68.5 C 44.3 69.9 44.2 71.0 42.7 72.6 C 42.3 73.6 44.0 71.3 42.9 72.9 C 42.3 73.5 41.6 74.4 40.7 75.6 C 39.9 76.9 39.5 77.7 38.9 78.9 C 38.7 78.9 38.6 78.9 38.0 80.0 C 38.1 80.0 38.8 79.1 38.1 80.2 C 35.8 83.1 34.3 85.1 32.3 88.4 C 33.1 87.4 34.9 85.1 34.1 86.3 C 33.1 87.6 32.0 89.8 30.9 91.1 C 30.5 91.5 32.1 89.4 31.5 89.6 C 30.5 91.0 29.9 91.9 29.4 92.6 C 29.5 92.7 28.4 94.3 28.9 94.1 C 29.6 92.9 29.7 92.3 29.9 92.1 C 29.8 93.7 26.9 96.4 25.4 98.7 C 24.5 100.3 26.3 97.7 25.2 99.5 C 24.6 100.7 23.8 100.8 24.8 99.1 C 25.6 98.0 25.7 97.3 26.1 97.3 C 26.3 96.8 26.8 96.1 26.8 96.0 C 26.2 96.8 26.2 96.5 25.8 97.0 C 26.6 95.8 26.3 95.2 27.3 94.4 C 26.8 95.1 26.7 95.4 26.6 95.8 C 28.7 92.4 29.5 91.6 30.8 89.8 C 30.0 90.7 30.7 89.7 30.5 89.5 C 29.6 91.0 27.8 93.6 28.8 91.8 C 29.7 91.0 29.7 89.4 30.7 88.6 C 30.1 89.5 30.3 89.5 30.1 90.0 C 30.9 88.8 31.0 89.0 31.8 87.8 C 34.2 83.4 36.6 81.0 40.4 74.0 C 41.9 71.8 39.2 76.2 39.4 76.2 C 39.9 75.5 40.0 75.5 40.3 75.0 C 40.2 74.7 41.1 73.9 41.4 72.9 C 41.4 73.3 43.2 70.0 44.3 68.8 C 44.3 68.7 44.1 68.7 44.5 68.0 C 47.7 63.8 52.7 55.1 55.0 52.1 C 54.8 52.0 55.8 50.5 56.0 49.9 C 57.4 47.8 56.9 49.0 58.8 45.5 C 59.8 43.9 58.7 46.1 58.5 46.4 C 61.5 41.6 64.3 37.8 66.0 34.5 C 67.0 32.9 66.1 34.7 68.1 31.7 C 68.0 31.2 71.4 27.1 71.6 25.9 C 72.8 23.9 75.2 21.2 74.1 22.3 C 75.7 19.7 74.7 21.8 75.4 20.8 C 76.5 19.0 74.8 20.5 75.9 18.7 C 75.9 19.3 76.8 17.6 77.7 16.8 C 76.8 18.2 76.2 19.1 76.1 19.5 C 76.8 18.1 76.9 18.4 78.1 16.5 C 79.0 14.8 81.6 10.3 82.5 9.7 C 82.5 9.4 82.2 9.7 82.0 9.9 C 82.8 8.6 83.8 7.6 83.6 7.3 C 85.0 5.1 85.8 4.2 86.6 2.9 C 86.9 3.0 87.2 3.2 87.5 3.3 C 88.7 4.0 87.2 3.4 90.7 5.7 C 90.7 5.4 97.0 9.5 98.8 10.9 C 98.7 10.5 99.2 11.2 100.0 11.7 C 100.1 11.6 99.9 11.3 100.6 11.8 C 100.7 12.0 101.3 12.3 101.8 12.5 C 101.5 12.9 104.1 13.9 104.3 14.4 C 103.8 14.1 103.8 14.3 104.4 14.7 C 104.5 14.4 107.1 16.7 106.8 16.2 C 106.3 15.7 104.5 14.7 105.0 14.7 C 107.4 16.1 106.4 16.0 108.1 17.0 C 107.9 16.8 107.0 16.1 108.0 16.7 C 109.7 17.9 108.2 16.8 109.3 17.8 C 110.2 18.3 111.8 19.1 112.4 19.5 C 112.2 19.4 112.8 19.9 113.0 20.1 C 116.2 22.3 123.5 26.6 126.6 29.1 C 126.9 29.1 127.5 29.5 127.3 29.1 C 129.2 30.5 129.0 30.3 131.0 31.7 C 131.0 31.6 131.0 31.4 131.0 31.3 C 133.5 32.7 131.2 31.9 132.8 32.9 C 133.1 32.3 133.8 33.8 135.3 34.7 C 135.5 34.7 136.2 35.1 136.0 34.7 C 138.4 36.3 138.2 36.7 140.3 37.8 C 139.8 37.5 139.5 36.3 139.8 36.1 C 140.1 36.5 140.7 37.0 141.6 37.6 C 140.5 37.2 141.0 38.8 144.0 40.3 C 142.3 39.3 141.8 38.8 142.2 38.8 C 144.4 40.2 145.1 41.0 147.1 42.2 C 147.4 42.1 146.0 41.2 146.6 41.2 C 147.1 41.4 147.3 41.5 147.2 41.3 C 149.3 42.7 149.3 43.0 151.6 44.3 C 151.5 44.4 151.1 44.2 150.3 43.5 C 150.4 43.9 150.3 44.1 149.0 43.2 C 148.8 42.9 149.7 43.1 147.8 42.0 C 147.8 42.2 147.7 42.4 147.7 42.5 C 149.1 43.4 152.3 45.7 152.6 45.8 C 152.0 45.3 150.9 44.5 151.5 44.5 C 153.9 46.1 154.5 46.9 156.4 48.3 C 159.8 50.4 165.7 54.3 165.1 53.4 C 167.1 54.9 166.4 54.4 168.2 55.6 C 167.8 55.0 170.3 56.9 170.2 56.5 C 167.9 55.1 168.6 55.5 166.4 54.2 C 166.5 54.0 167.0 54.2 167.8 54.6 C 167.9 54.9 168.8 55.5 170.2 56.4 C 170.0 56.2 168.8 55.1 170.4 56.1 C 170.5 56.2 170.8 56.5 171.6 57.0 C 171.5 57.1 171.5 57.2 171.4 57.4 C 170.5 56.9 169.5 56.3 168.8 56.0 C 169.4 56.4 169.5 56.6 170.1 56.9 C 170.5 57.0 172.9 58.8 173.2 58.8 C 172.2 58.1 171.6 57.5 172.7 58.2 C 172.8 58.4 174.5 59.5 175.2 59.8 C 173.0 58.3 173.9 58.8 172.8 57.8 C 175.4 59.3 174.9 59.4 177.7 61.2 C 177.7 61.4 177.6 61.6 176.9 61.2 C 178.4 62.9 182.9 65.2 184.2 66.1 C 183.3 65.4 182.0 65.1 183.5 66.0 C 183.5 65.9 184.6 66.7 184.8 66.7 C 185.6 66.5 184.4 65.5 183.5 64.5 C 184.6 65.3 184.9 65.3 186.0 66.1 C 186.3 66.5 184.9 66.1 186.3 67.0 C 186.8 66.8 188.9 68.6 189.6 68.7 C 188.6 68.1 188.0 67.5 189.1 68.1 C 188.8 68.2 190.8 69.4 190.8 69.6 C 189.1 68.6 188.5 68.6 187.5 67.9 C 188.8 68.7 186.4 67.5 188.6 68.9 C 189.7 69.4 190.3 69.5 192.6 71.0 C 193.4 71.6 192.5 71.3 193.6 72.0 C 193.5 71.6 196.0 73.2 194.3 72.4 C 195.2 72.9 195.6 73.3 196.1 73.6 C 195.0 72.6 201.1 76.2 200.3 75.4 C 200.1 75.7 200.2 76.2 200.4 76.5 C 201.8 76.9 203.0 78.0 206.1 80.0 C 206.2 79.7 206.6 80.3 208.0 81.1 C 208.3 81.2 207.2 80.4 208.2 80.9 C 209.6 82.0 209.7 82.0 209.9 82.3 C 211.0 83.0 211.8 83.6 212.3 84.0 C 212.4 83.9 212.1 83.7 211.9 83.4 C 215.8 86.3 218.3 87.5 221.8 89.8 C 220.4 88.7 219.8 88.9 221.0 89.6 C 221.8 90.1 222.5 90.5 223.0 90.7 C 222.3 89.9 222.5 90.3 224.3 91.4 C 226.0 92.4 224.0 90.7 225.3 91.5 C 226.5 92.5 225.6 92.1 226.2 92.6 C 226.9 93.0 227.5 93.4 228.1 93.8 C 227.1 92.9 228.5 93.7 229.6 94.3 C 228.6 94.0 229.0 94.4 231.3 95.7 C 231.4 96.0 230.2 95.3 231.1 95.9 C 231.5 96.2 233.6 97.1 234.8 98.2 C 234.3 97.9 234.0 97.8 234.1 98.0 C 235.9 98.9 236.8 100.0 238.2 100.9 C 236.9 99.9 237.9 100.2 237.5 99.7 C 238.7 100.8 240.8 101.8 241.6 102.7 C 239.6 101.3 241.0 103.0 242.4 103.9 C 242.9 103.9 240.6 102.5 241.6 102.7 C 242.5 103.1 243.8 104.3 244.8 104.7 C 244.8 104.5 243.8 104.1 243.7 103.8 C 244.8 104.6 243.4 103.5 244.4 104.1 C 244.8 104.7 245.8 104.9 246.4 105.3 C 247.1 105.8 248.4 107.1 249.2 107.4 C 249.4 107.4 248.2 106.7 248.2 106.5 C 251.8 108.6 252.4 109.5 255.8 111.3 C 256.0 111.6 256.5 112.1 257.4 112.7 C 257.5 112.6 258.1 112.9 258.9 113.3 C 260.1 114.3 261.2 115.2 262.8 116.3 C 262.3 116.2 261.4 115.8 263.7 117.3 C 263.9 117.3 263.0 116.7 263.9 117.2 C 263.8 117.2 264.3 117.6 264.5 117.6 C 264.6 117.6 264.7 117.6 264.7 117.5 C 264.1 117.1 263.5 116.7 262.8 116.3 C 263.1 116.3 263.0 116.1 262.6 115.8 C 265.5 117.5 264.7 117.6 266.7 118.6 C 266.6 119.0 267.1 119.5 265.2 118.6 C 266.9 119.6 268.1 120.2 268.8 120.4 C 266.9 119.2 267.9 119.4 267.5 119.0 C 268.7 119.8 268.9 119.7 269.5 120.1 C 270.7 121.1 267.5 119.4 270.2 121.2 C 268.5 119.7 272.2 122.2 273.5 123.1 C 273.4 122.9 272.9 122.6 273.8 123.0 C 277.7 125.3 276.3 125.5 279.1 126.7 C 278.7 126.7 279.7 127.3 280.0 127.6 C 278.1 126.5 277.6 126.2 276.7 125.7 C 276.7 125.8 277.2 126.2 277.7 126.6 C 277.9 126.5 278.4 126.8 279.1 127.3 C 279.8 127.6 280.1 127.4 281.9 128.2 C 281.9 128.3 281.5 128.3 282.2 128.7 C 283.2 129.1 281.1 128.6 284.3 130.5 C 283.8 130.1 283.7 129.8 284.2 129.9 C 285.8 130.8 285.4 130.7 287.4 131.9 C 287.6 132.5 285.4 131.2 284.5 131.0 C 285.9 131.8 287.4 132.4 288.5 133.3 C 287.6 132.6 289.0 133.2 290.3 133.9 C 291.3 134.7 289.7 134.1 291.0 134.9 C 292.1 135.6 293.0 135.8 292.2 135.2 C 294.3 136.7 294.2 136.2 296.1 137.5 C 296.0 137.6 295.4 137.2 294.8 136.7 C 294.8 136.9 294.3 136.7 295.0 137.2 C 296.1 137.7 297.7 138.7 299.2 139.6 C 298.8 140.2 298.4 140.9 298.2 141.4 C 295.7 144.3 294.4 147.4 292.3 150.3 C 292.7 149.2 289.8 154.1 288.6 155.4 C 288.1 156.3 287.1 158.9 287.5 158.0 C 286.8 158.2 285.9 159.9 285.0 161.2 C 285.1 161.2 285.2 161.2 285.3 161.2 C 283.5 164.0 282.8 164.7 281.9 165.6 C 279.9 169.0 277.0 172.8 274.7 177.0 C 273.6 178.0 273.1 178.9 271.3 181.3 C 271.7 181.3 270.4 183.3 269.2 185.2 C 269.7 184.8 268.5 186.5 268.7 186.6 C 269.8 184.9 269.7 185.6 270.4 184.8 C 268.7 186.9 268.5 188.2 267.1 189.9 C 268.4 187.6 268.5 186.9 268.3 186.4 C 266.7 189.0 265.7 190.3 265.1 190.8 C 265.2 191.0 265.5 190.8 266.0 190.2 C 265.4 191.1 264.9 192.0 264.4 192.8 C 264.1 192.9 264.8 191.8 264.1 192.7 C 263.8 193.3 263.5 194.0 263.1 194.7 C 262.4 195.3 263.6 193.6 263.6 193.3 C 261.3 196.6 262.8 195.4 261.7 197.3 C 261.2 197.7 261.0 197.4 260.0 198.9 C 259.7 199.6 259.8 200.0 258.7 201.7 C 258.0 202.8 258.4 201.4 257.5 202.7 C 257.5 202.9 257.1 203.5 256.7 204.0 C 256.9 204.0 256.6 204.6 256.1 205.4 C 255.9 205.5 255.2 206.7 254.9 207.3 C 254.7 207.3 253.2 209.1 253.1 209.6 C 253.2 209.7 253.8 208.6 254.0 208.5 C 253.1 209.9 252.5 210.9 252.0 211.7 C 251.3 211.7 250.2 214.4 248.1 217.0 C 247.1 219.0 248.6 217.0 247.3 219.4 C 246.3 220.6 247.3 218.9 246.9 219.0 C 246.6 219.4 245.2 221.3 245.3 221.5 C 245.4 221.6 246.0 220.5 246.2 220.4 C 245.3 222.3 245.1 222.0 244.4 222.8 C 244.7 222.9 244.0 224.0 243.9 224.4 C 241.1 229.1 240.8 228.6 239.5 230.3 C 239.6 230.4 238.9 231.4 238.8 231.7 C 239.6 230.3 240.9 228.8 239.7 230.6 C 239.8 230.2 238.2 232.9 238.2 233.2 C 238.4 233.0 239.5 231.3 239.2 232.2 C 237.7 234.7 238.0 233.2 237.0 235.3 C 236.8 235.3 237.5 234.2 237.7 233.7 C 237.2 234.5 236.6 235.5 236.4 235.5 C 237.0 234.6 236.9 234.4 237.0 233.8 C 236.3 235.3 234.8 237.3 236.0 236.1 C 234.3 238.5 232.9 241.1 234.1 239.6 C 232.8 241.7 233.4 240.2 232.4 242.1 C 232.4 241.5 232.7 240.8 231.7 241.9 C 231.6 242.4 230.9 243.5 231.1 243.6 C 229.2 246.6 228.5 247.2 227.6 248.1 C 228.5 247.5 227.4 248.6 226.5 250.4 C 225.9 251.1 226.3 249.9 224.8 252.4 C 226.6 250.3 222.8 255.6 223.8 255.0 C 221.7 257.9 221.7 257.8 219.6 261.0 C 219.7 260.4 220.2 259.4 221.1 258.0 C 220.5 259.3 222.9 255.6 222.7 255.6 C 222.7 255.5 222.7 255.5 222.7 255.4 C 221.1 257.8 220.1 259.3 219.4 260.1 C 219.1 260.9 218.5 262.1 218.8 262.2 C 217.2 264.0 215.8 267.0 215.1 267.6 C 215.6 266.8 216.1 266.1 215.9 266.1 C 215.5 266.7 215.2 267.3 214.9 267.8 C 214.7 267.7 214.5 267.6 214.6 267.8 C 214.7 267.9 214.9 268.0 215.0 268.1 C 216.0 266.7 216.2 266.3 216.7 265.2 C 216.3 266.3 218.0 263.9 216.9 265.8 C 216.8 265.3 215.3 268.2 215.1 268.6 C 215.1 268.5 215.1 268.5 215.1 268.5 C 215.1 268.5 215.2 268.4 215.2 268.2 C 215.8 267.2 215.5 267.5 215.0 268.2 C 214.2 267.6 212.9 266.7 212.8 266.4 C 212.8 266.4 212.8 266.4 212.8 266.4 Z M 31.5 88.4 C 30.3 90.4 32.0 88.3 32.9 86.9 C 32.5 87.2 32.3 87.3 32.2 87.2 C 31.9 87.8 31.6 88.4 31.5 88.4 C 31.5 88.4 31.5 88.4 31.5 88.4 Z M 46.5 72.4 C 46.7 71.5 44.9 74.7 44.0 75.9 C 44.3 75.6 44.6 75.3 44.2 76.0 C 45.1 75.0 45.2 74.1 46.5 72.4 C 46.5 72.4 46.5 72.4 46.5 72.4 Z M 90.3 8.9 C 89.8 8.6 88.6 8.0 88.5 7.7 C 87.8 7.3 88.0 7.6 87.9 7.7 C 87.8 7.6 87.7 7.5 87.6 7.4 C 87.1 8.2 87.8 6.4 86.5 8.6 C 86.4 9.3 86.9 8.7 87.6 7.7 C 88.8 8.4 90.1 9.1 90.3 8.9 C 90.3 8.9 90.3 8.9 90.3 8.9 Z M 226.9 241.8 C 226.3 242.5 227.5 240.3 227.0 240.6 C 225.0 244.1 226.8 241.9 223.8 246.4 C 224.0 246.2 224.3 245.9 224.3 246.1 C 225.6 243.8 225.6 243.4 225.5 244.5 C 226.2 243.5 226.0 242.6 226.9 241.8 C 226.9 241.8 226.9 241.8 226.9 241.8 Z M 190.9 246.1 C 191.3 246.5 191.6 246.7 191.6 246.9 C 193.0 247.6 192.7 247.4 194.6 248.7 C 194.3 248.0 192.5 246.9 190.9 246.1 C 190.9 246.1 190.9 246.1 190.9 246.1 Z M 77.6 172.2 C 77.2 172.0 76.8 171.7 76.4 171.5 C 76.7 171.8 75.5 171.5 77.5 172.7 C 77.7 172.7 77.3 172.5 77.0 172.2 C 77.3 172.4 78.3 173.0 78.2 172.7 C 77.7 172.4 77.6 172.3 77.6 172.2 C 77.6 172.2 77.6 172.2 77.6 172.2 Z M 28.8 143.7 C 31.3 145.0 25.8 140.7 28.8 143.7 C 28.8 143.7 28.8 143.7 28.8 143.7 C 28.8 143.7 28.8 143.7 28.8 143.7 Z M 32.3 149.7 C 32.3 149.8 32.9 150.1 32.9 150.1 C 34.9 151.5 32.8 150.3 33.9 151.2 C 35.6 152.0 33.3 150.2 35.4 151.4 C 35.1 151.0 33.5 150.5 32.3 149.7 C 32.3 149.7 32.3 149.7 32.3 149.7 Z M 276.4 125.2 C 274.6 124.1 273.8 123.9 273.2 123.8 C 274.3 124.6 275.2 125.2 275.4 125.5 C 277.8 126.8 274.2 124.5 273.9 124.2 C 274.5 124.3 276.1 125.3 276.4 125.2 C 276.4 125.2 276.4 125.2 276.4 125.2 Z M 270.7 121.6 C 269.8 121.2 268.6 120.5 268.3 120.6 C 269.4 121.3 269.4 121.4 269.4 121.5 C 270.5 122.0 269.5 121.2 270.7 121.6 C 270.7 121.6 270.7 121.6 270.7 121.6 Z M 280.9 128.5 C 280.1 128.0 280.2 128.3 279.9 128.3 C 281.0 129.0 281.1 129.2 282.2 129.9 C 282.3 129.9 282.4 129.8 282.6 129.8 C 281.6 129.2 281.4 129.2 280.6 128.6 C 280.7 128.6 280.8 128.5 280.9 128.5 C 280.9 128.5 280.9 128.5 280.9 128.5 Z M 264.7 118.2 C 261.5 116.1 259.6 115.4 257.1 114.2 C 259.5 115.7 262.2 116.8 263.7 117.9 C 265.8 119.2 263.2 117.4 263.4 117.4 C 263.5 117.4 264.2 117.9 264.7 118.2 C 264.7 118.2 264.7 118.2 264.7 118.2 Z M 236.2 99.8 C 235.8 99.2 234.2 98.7 232.3 97.5 C 232.6 97.8 232.9 98.0 232.8 98.1 C 235.3 99.8 234.2 98.5 236.2 99.8 C 236.2 99.8 236.2 99.8 236.2 99.8 Z M 220.7 89.9 C 219.0 88.9 221.4 90.6 220.4 90.2 C 222.2 91.3 224.1 92.6 224.3 92.4 C 222.2 91.2 221.8 91.0 220.7 89.9 C 220.7 89.9 220.7 89.9 220.7 89.9 Z M 209.5 82.7 C 207.6 81.7 210.0 83.5 209.1 83.2 C 209.8 83.7 209.7 83.4 209.9 83.4 C 210.4 83.8 210.8 84.1 211.7 84.7 C 211.2 84.1 209.1 82.8 209.5 82.7 C 209.5 82.7 209.5 82.7 209.5 82.7 Z M 282.7 163.0 C 283.3 161.9 282.8 162.2 284.4 159.9 C 282.1 163.5 282.4 161.5 279.6 166.1 C 280.2 165.4 280.0 165.9 279.7 166.1 C 278.8 167.9 280.9 164.5 280.2 166.1 C 281.0 164.9 280.2 165.6 281.0 164.3 C 282.1 163.0 282.8 162.2 282.7 163.0 C 282.7 163.0 282.7 163.0 282.7 163.0 Z M 279.3 166.1 C 278.4 167.4 279.0 167.4 278.3 168.0 C 277.9 168.6 278.1 168.5 278.1 168.6 C 278.4 168.1 278.5 168.0 278.6 168.0 C 279.2 166.9 279.8 165.8 279.3 166.1 C 279.3 166.1 279.3 166.1 279.3 166.1 Z M 286.8 154.4 C 285.6 156.5 285.0 157.1 284.6 158.1 C 283.7 158.8 284.0 159.5 282.8 160.6 C 281.6 162.6 282.7 161.1 283.3 160.6 C 282.1 162.5 282.6 161.0 281.5 163.0 C 281.6 163.4 283.1 160.9 283.3 161.2 C 284.3 159.6 284.0 159.6 284.6 158.7 C 285.1 158.0 285.1 158.2 285.3 158.1 C 286.3 156.3 286.5 156.4 287.4 155.0 C 287.4 154.6 286.9 155.2 285.9 156.9 C 286.8 155.2 287.0 154.5 288.4 152.5 C 287.9 153.9 292.1 147.6 291.1 148.2 C 290.0 149.9 290.6 149.4 290.3 150.0 C 288.6 152.2 287.8 153.6 286.8 154.4 C 286.8 154.4 286.8 154.4 286.8 154.4 Z M 280.4 129.3 C 280.0 128.9 279.6 128.6 278.7 128.0 C 278.9 127.9 279.9 128.6 279.1 127.9 C 277.9 127.0 277.4 126.9 276.6 126.4 C 276.9 126.7 279.3 128.6 277.7 127.7 C 278.0 128.0 278.8 128.6 279.9 129.4 C 279.1 128.4 281.8 130.6 283.0 131.4 C 283.5 131.2 285.1 132.8 286.3 133.3 C 285.9 132.7 283.1 131.2 282.0 130.5 C 282.6 130.8 279.7 128.3 280.4 129.3 C 280.4 129.3 280.4 129.3 280.4 129.3 Z M 276.3 171.0 C 276.1 171.4 275.3 172.8 276.1 171.7 C 275.8 172.3 274.9 173.4 275.7 173.0 C 275.2 173.7 274.8 174.3 274.5 174.9 C 274.5 174.6 275.6 172.9 274.9 173.5 C 274.2 174.8 274.4 174.3 273.3 176.0 C 273.6 175.1 272.9 176.0 273.0 175.3 C 272.8 175.8 271.9 177.3 272.2 177.2 C 270.6 179.6 272.2 176.5 270.2 179.6 C 270.0 179.5 271.5 177.3 272.1 176.5 C 272.1 176.1 269.5 180.3 268.0 182.6 C 269.5 180.6 268.7 182.3 268.3 183.4 C 267.8 184.1 268.1 183.3 267.1 184.6 C 266.5 185.6 266.3 186.2 265.9 186.4 C 265.4 187.3 265.8 187.0 265.9 187.1 C 264.9 188.6 265.2 187.3 264.0 189.5 C 265.3 188.0 264.3 189.9 262.3 192.7 C 262.5 192.5 263.2 191.6 263.3 191.6 C 263.3 192.1 261.9 193.6 261.5 193.9 C 260.9 195.0 261.5 194.4 262.1 193.4 C 261.8 194.0 261.4 194.7 261.1 195.4 C 263.1 192.3 266.2 187.4 270.3 181.8 C 269.4 182.8 270.1 181.5 271.3 179.9 C 271.7 179.7 271.2 180.4 270.7 181.2 C 272.3 179.2 271.5 179.2 273.7 176.2 C 274.9 174.5 272.7 178.1 274.1 176.2 C 274.8 175.0 275.0 174.2 275.7 173.7 C 276.9 171.7 276.9 171.1 278.9 168.0 C 277.6 169.8 276.4 170.5 275.4 172.3 C 275.5 172.3 276.0 171.5 276.3 171.0 C 276.3 171.0 276.3 171.0 276.3 171.0 Z M 269.2 121.6 C 268.1 120.9 267.4 120.6 267.3 120.4 C 265.3 119.2 267.2 120.7 267.5 120.9 C 268.4 121.4 268.9 121.6 269.2 121.6 C 269.2 121.6 269.2 121.6 269.2 121.6 Z M 83.5 9.0 C 81.9 11.3 82.3 11.2 81.2 13.1 C 82.1 11.7 82.5 11.7 84.0 9.1 C 84.0 8.7 84.0 8.4 83.5 9.0 C 83.5 9.0 83.5 9.0 83.5 9.0 Z M 275.1 125.6 C 277.0 126.5 272.9 124.6 273.2 124.5 C 271.2 123.4 274.6 125.6 272.6 124.7 C 274.3 125.6 274.9 126.2 277.0 127.4 C 277.2 127.3 275.7 126.3 274.2 125.3 C 274.2 125.2 275.0 125.7 275.1 125.6 C 275.1 125.6 275.1 125.6 275.1 125.6 Z M 105.8 16.9 C 107.4 17.7 104.2 15.3 103.2 14.5 C 103.2 15.0 103.7 15.2 105.8 16.9 C 105.8 16.9 105.8 16.9 105.8 16.9 Z M 73.3 25.6 C 72.9 26.9 75.1 22.8 74.6 24.2 C 75.3 23.1 75.4 22.9 75.4 22.7 C 75.8 22.3 76.9 20.5 76.6 21.2 C 76.9 21.2 74.8 23.9 75.6 23.4 C 74.9 24.4 74.9 24.3 74.4 25.1 C 75.5 23.3 74.9 23.8 73.4 25.9 C 73.5 26.2 74.1 25.1 73.6 26.4 C 73.4 26.3 72.6 27.2 72.5 26.7 C 71.3 28.6 72.2 28.0 70.7 30.3 C 70.9 30.3 71.8 28.9 72.4 28.1 C 72.4 28.8 70.8 30.2 71.3 30.2 C 70.9 30.4 70.0 31.6 69.8 31.3 C 70.9 29.4 71.6 28.1 72.4 26.4 C 71.5 27.5 70.5 30.2 68.9 32.2 C 69.2 32.2 68.3 33.5 68.7 33.4 C 67.5 35.1 67.9 33.8 68.1 33.4 C 67.8 33.7 65.6 37.3 65.8 37.3 C 65.6 37.3 62.9 41.6 63.2 41.8 C 62.3 42.8 61.2 45.2 60.7 45.3 C 60.3 46.1 59.4 47.5 58.3 49.1 C 58.2 49.8 59.9 47.0 60.1 47.0 C 60.5 46.8 58.2 49.8 58.6 49.7 C 58.6 49.7 58.7 49.8 58.7 49.9 C 59.5 48.5 60.2 47.2 61.0 45.9 C 61.5 45.0 60.9 46.2 61.1 46.2 C 61.5 45.2 63.9 40.8 64.2 41.3 C 65.8 38.5 67.1 36.8 67.7 35.5 C 68.7 33.9 67.2 36.5 67.8 35.9 C 70.6 30.9 74.4 25.8 76.7 21.5 C 77.2 20.7 77.1 21.2 77.3 21.3 C 80.6 15.8 77.5 19.8 80.2 15.8 C 80.3 16.1 79.0 18.1 79.2 18.3 C 80.1 16.8 80.3 16.3 81.6 14.5 C 81.5 14.3 81.5 14.1 81.4 14.0 C 82.4 12.5 82.2 13.5 82.7 12.8 C 84.0 10.7 83.6 11.0 84.3 10.5 C 85.3 8.8 86.2 7.2 87.2 5.8 C 87.5 6.0 87.9 6.2 88.2 6.5 C 89.0 6.8 88.2 6.1 87.1 5.2 C 86.7 5.7 86.1 6.4 85.7 7.1 C 85.7 6.8 86.1 6.3 86.1 6.2 C 86.4 5.7 86.8 5.3 87.1 5.0 C 88.3 6.1 89.3 7.1 91.8 8.8 C 89.1 6.7 93.2 9.5 93.7 10.1 C 95.1 11.0 94.0 9.8 93.0 9.3 C 93.2 9.2 94.1 9.9 94.2 10.2 C 94.3 9.7 90.9 7.3 87.4 5.2 C 88.2 5.4 87.6 5.0 87.0 4.6 C 86.6 5.2 86.2 5.8 86.7 4.5 C 84.9 7.5 86.6 5.5 84.5 8.6 C 84.7 8.5 85.1 8.0 85.4 7.9 C 83.8 10.4 84.1 9.2 82.5 11.8 C 82.3 12.6 83.4 10.8 83.4 11.1 C 81.5 13.5 80.9 14.3 79.6 15.8 C 79.5 16.4 79.9 16.2 77.8 19.2 C 77.7 19.1 77.7 19.0 77.7 18.9 C 78.7 17.5 78.7 16.5 76.3 20.2 C 76.3 20.7 77.0 19.5 77.6 18.6 C 77.4 19.2 76.6 20.5 75.7 22.0 C 75.3 22.7 74.7 23.3 75.3 22.4 C 74.8 22.6 74.6 23.8 73.3 25.6 C 73.3 25.6 73.3 25.6 73.3 25.6 Z M 238.7 102.1 C 238.2 101.9 237.7 101.6 236.8 101.0 C 236.2 100.9 237.9 101.9 237.7 102.0 C 239.0 102.9 238.3 102.0 238.7 102.1 C 238.7 102.1 238.7 102.1 238.7 102.1 Z M 255.8 113.4 C 255.9 113.2 254.6 112.8 253.3 111.8 C 252.7 111.6 254.4 112.7 254.2 112.8 C 255.8 113.9 254.2 112.3 255.8 113.4 C 255.8 113.4 255.8 113.4 255.8 113.4 Z M 248.4 108.6 C 248.0 108.0 247.6 108.3 249.0 109.1 C 248.7 109.1 248.3 109.0 247.4 108.5 C 248.0 109.2 249.1 109.3 250.5 110.4 C 250.1 110.0 249.4 109.3 248.4 108.6 C 248.4 108.6 248.4 108.6 248.4 108.6 Z M 246.0 107.0 C 244.9 106.5 244.5 106.0 242.8 105.1 C 243.0 105.4 246.5 107.6 247.1 107.9 C 247.9 108.1 244.2 105.7 246.0 107.0 C 246.0 107.0 246.0 107.0 246.0 107.0 Z M 130.3 33.2 C 129.7 32.8 129.8 33.0 129.7 33.0 C 127.8 31.3 125.2 29.7 127.3 30.6 C 125.3 29.6 123.4 28.0 121.7 26.8 C 120.3 25.9 121.0 26.7 119.9 26.0 C 118.1 24.7 120.8 26.4 120.5 26.0 C 120.1 25.5 119.6 25.8 117.4 24.1 C 118.0 25.1 115.6 22.9 116.3 23.9 C 115.0 22.9 114.7 22.9 113.1 21.9 C 113.3 22.3 114.8 23.2 115.0 23.6 C 115.8 24.4 115.8 23.8 114.4 23.0 C 115.2 23.1 117.4 25.0 118.1 25.2 C 118.8 26.0 116.1 24.0 116.9 24.9 C 117.4 25.2 117.9 25.5 118.1 25.4 C 119.0 26.0 119.6 26.5 119.9 26.9 C 119.4 26.6 119.3 26.5 119.3 26.4 C 118.2 25.7 120.5 27.7 118.1 26.2 C 118.5 26.6 119.5 27.2 119.3 27.3 C 120.1 28.0 119.3 26.4 121.8 28.3 C 123.4 29.0 117.9 25.5 119.3 25.8 C 122.7 28.1 120.8 27.3 123.5 29.2 C 123.5 29.0 123.5 28.8 124.2 29.3 C 124.1 29.1 123.1 28.4 122.3 28.0 C 122.5 27.9 123.5 28.6 124.2 29.0 C 124.1 28.9 123.5 28.5 123.5 28.4 C 125.9 30.1 125.6 30.6 123.5 29.4 C 123.6 29.7 126.5 31.5 127.2 31.9 C 126.5 31.1 127.3 31.7 126.6 30.9 C 126.0 30.6 126.2 30.8 126.0 30.7 C 124.9 30.0 125.9 30.5 126.0 30.4 C 127.2 31.3 127.2 31.5 128.4 32.1 C 128.1 32.0 127.8 31.9 127.8 32.0 C 128.4 32.4 129.1 32.8 129.7 33.2 C 129.6 33.0 130.4 33.5 130.3 33.2 C 130.3 33.2 130.3 33.2 130.3 33.2 Z M 98.3 11.7 C 96.3 10.3 97.4 11.3 98.4 12.0 C 98.0 11.8 97.3 11.4 96.6 11.0 C 97.2 11.5 97.7 11.8 99.6 13.1 C 98.0 12.5 99.9 14.3 102.9 16.1 C 103.7 16.0 101.1 14.3 102.1 14.6 C 99.9 13.4 98.7 12.3 98.3 11.7 C 98.3 11.7 98.3 11.7 98.3 11.7 Z M 267.4 121.0 C 266.2 120.2 264.9 119.4 263.7 118.6 C 263.6 118.8 267.2 121.3 267.4 121.0 C 267.4 121.0 267.4 121.0 267.4 121.0 Z M 259.2 197.7 C 258.9 198.2 258.8 198.2 258.7 198.3 C 257.6 200.1 259.4 197.5 259.1 198.5 C 259.5 197.8 259.9 197.2 260.3 196.6 C 260.3 196.4 258.4 199.0 259.6 197.1 C 259.4 197.1 259.2 197.6 259.2 197.7 C 259.2 197.7 259.2 197.7 259.2 197.7 Z M 239.7 103.2 C 238.4 102.5 238.8 103.2 236.2 101.4 C 237.0 102.1 237.7 102.5 239.3 103.4 C 239.4 103.4 239.5 103.3 239.7 103.2 C 239.7 103.2 239.7 103.2 239.7 103.2 Z M 139.5 38.6 C 138.0 37.3 137.5 37.7 134.6 35.7 C 136.1 37.0 137.8 37.6 139.5 38.6 C 139.5 38.6 139.5 38.6 139.5 38.6 Z M 55.4 54.4 C 56.0 53.6 55.3 54.8 56.4 53.5 C 56.9 52.6 57.0 52.0 57.8 50.8 C 56.5 52.2 54.7 55.6 53.6 56.4 C 52.7 57.9 52.9 58.1 52.7 58.8 C 53.2 58.0 53.4 57.7 53.6 57.7 C 53.9 56.4 55.0 56.0 55.4 54.4 C 55.4 54.4 55.4 54.4 55.4 54.4 Z M 106.4 17.4 C 107.5 18.4 105.6 17.3 105.3 17.3 C 104.4 16.7 104.7 16.6 104.5 16.4 C 103.5 15.7 103.2 15.7 103.4 16.1 C 105.5 17.5 108.0 19.1 106.5 18.6 C 108.5 20.0 107.4 18.8 108.3 19.3 C 109.4 20.3 108.4 19.7 108.4 20.0 C 108.8 20.2 110.3 20.8 110.2 21.2 C 113.1 22.6 111.7 21.2 109.5 19.2 C 107.5 18.3 109.8 19.9 106.4 17.4 C 106.4 17.4 106.4 17.4 106.4 17.4 Z M 184.1 68.0 C 184.0 67.8 182.9 67.1 183.0 67.0 C 181.5 66.4 180.3 65.9 179.0 65.4 C 179.1 65.7 180.9 66.6 180.2 66.0 C 180.7 66.5 181.8 67.3 182.5 67.9 C 183.7 68.8 184.4 68.6 184.3 69.1 C 185.6 69.7 184.9 69.2 186.8 70.5 C 183.9 68.3 188.0 71.1 188.3 71.0 C 186.5 69.8 185.0 68.8 185.1 69.2 C 183.8 68.3 182.4 67.3 182.2 66.8 C 182.4 66.8 183.4 67.5 184.1 68.0 C 184.1 68.0 184.1 68.0 184.1 68.0 Z M 176.5 64.0 C 176.9 64.2 177.4 64.5 178.3 65.0 C 177.8 64.7 177.7 64.4 177.8 64.3 C 176.3 63.3 175.9 63.3 175.4 62.7 C 174.0 61.7 175.6 63.3 173.5 61.7 C 173.6 61.9 174.7 62.6 174.7 62.7 C 174.9 62.6 175.8 63.2 176.5 64.0 C 176.5 64.0 176.5 64.0 176.5 64.0 Z M 157.8 51.3 C 156.1 50.2 158.5 51.9 157.7 51.6 C 158.1 51.8 161.1 53.9 160.6 53.8 C 161.4 54.8 164.7 56.0 164.2 56.3 C 165.0 56.7 164.8 56.4 164.9 56.4 C 162.8 55.1 162.8 54.9 164.4 55.9 C 164.2 55.6 162.9 54.8 162.0 54.2 C 161.8 54.3 162.6 54.8 162.5 54.9 C 160.7 53.6 159.4 52.5 157.8 51.3 C 157.8 51.3 157.8 51.3 157.8 51.3 Z M 215.5 264.3 C 216.4 262.9 217.0 262.0 217.4 261.2 C 217.1 261.4 216.7 262.3 216.3 263.0 C 216.1 263.0 216.5 262.3 217.0 261.5 C 216.5 261.9 214.9 264.8 215.5 264.3 C 215.5 264.3 215.5 264.3 215.5 264.3 Z M 223.4 252.1 C 224.3 250.7 224.9 249.8 224.9 249.4 C 224.5 249.7 224.8 249.9 224.2 250.8 C 223.8 251.2 223.5 251.5 223.3 251.6 C 222.9 252.2 223.0 252.2 222.9 252.5 C 222.6 253.0 222.6 253.0 222.5 253.0 C 221.5 255.0 223.8 251.0 223.4 252.1 C 223.4 252.1 223.4 252.1 223.4 252.1 Z M 168.1 58.1 C 168.5 58.6 168.9 59.0 170.4 59.9 C 170.2 59.6 171.3 60.4 172.3 61.0 C 171.0 59.8 170.2 59.5 168.1 58.1 C 168.1 58.1 168.1 58.1 168.1 58.1 Z M 272.8 175.3 C 274.3 173.5 273.6 173.6 275.6 171.0 C 275.5 171.0 275.4 171.0 275.3 170.9 C 274.5 172.6 273.8 173.3 272.8 175.3 C 272.8 175.3 272.8 175.3 272.8 175.3 Z M 53.5 161.7 C 53.7 161.6 51.8 160.5 51.7 160.2 C 51.2 160.4 50.6 159.1 47.0 156.9 C 47.0 156.8 47.2 156.9 47.7 157.2 C 44.8 155.2 48.4 158.0 48.7 158.5 C 50.9 159.9 51.2 160.3 53.5 161.7 C 53.5 161.7 53.5 161.7 53.5 161.7 Z M 67.6 37.1 C 67.6 36.9 67.4 37.2 67.2 37.6 C 66.9 38.0 66.6 38.4 66.4 38.7 C 66.7 39.0 68.0 37.2 67.2 39.2 C 67.5 38.7 67.6 38.6 67.5 38.5 C 69.1 34.6 71.1 33.9 73.4 29.4 C 73.8 28.8 73.6 28.8 73.7 28.6 C 73.4 29.1 73.3 29.1 73.3 29.1 C 73.1 30.0 70.7 33.0 71.6 31.3 C 71.5 31.3 71.2 31.8 71.3 31.9 C 71.0 32.3 70.7 32.7 70.5 33.1 C 70.7 33.0 71.2 32.2 71.4 32.2 C 70.1 34.0 68.5 36.3 69.2 34.6 C 68.4 35.9 68.2 36.5 67.7 37.4 C 67.2 38.1 67.1 37.8 67.6 37.1 C 67.6 37.1 67.6 37.1 67.6 37.1 Z M 57.5 52.9 C 56.2 54.7 56.8 54.3 55.6 56.2 C 56.5 55.2 57.2 53.4 58.4 52.0 C 58.2 52.1 57.6 52.9 57.5 52.9 C 57.5 52.9 57.5 52.9 57.5 52.9 Z M 80.3 18.2 C 80.2 19.0 81.2 17.4 82.4 15.7 C 82.5 14.9 81.5 16.4 80.3 18.2 C 80.3 18.2 80.3 18.2 80.3 18.2 Z M 75.2 26.1 C 74.1 28.0 76.7 23.9 76.2 25.3 C 76.7 24.5 77.3 23.6 77.3 23.7 C 77.7 22.9 77.7 22.7 78.4 21.6 C 78.3 21.4 77.1 23.5 77.2 23.1 C 76.4 24.7 76.2 24.9 75.2 26.1 C 75.2 26.1 75.2 26.1 75.2 26.1 Z M 74.5 27.3 C 73.7 28.6 74.9 27.7 75.8 26.2 C 75.4 26.5 75.1 26.6 74.5 27.3 C 74.5 27.3 74.5 27.3 74.5 27.3 Z M 208.8 85.5 C 208.0 85.0 208.5 85.6 207.5 85.0 C 207.4 85.1 211.0 87.4 207.9 85.5 C 208.8 86.4 209.8 86.5 211.1 87.4 C 210.7 87.1 210.4 86.8 211.2 87.3 C 211.8 87.3 208.3 85.4 208.8 85.5 C 208.8 85.5 208.8 85.5 208.8 85.5 Z M 205.2 83.2 C 204.5 82.8 204.8 83.0 205.2 83.3 C 205.0 83.3 204.0 82.6 203.3 82.2 C 203.3 82.0 204.3 83.3 204.1 83.4 C 207.3 85.3 205.2 83.5 205.2 83.2 C 205.2 83.2 205.2 83.2 205.2 83.2 Z M 202.1 81.4 C 200.3 79.9 197.5 78.2 196.0 77.6 C 197.2 78.8 201.0 81.1 202.1 81.4 C 202.1 81.4 202.1 81.4 202.1 81.4 Z M 222.0 94.3 C 218.6 91.8 211.2 87.5 217.4 91.8 C 217.4 91.5 221.7 94.2 223.6 95.6 C 223.8 95.6 226.3 96.9 226.2 97.0 C 228.0 97.9 221.3 93.6 222.0 94.3 C 222.0 94.3 222.0 94.3 222.0 94.3 Z M 193.3 76.4 C 194.4 77.0 193.3 75.7 194.8 76.9 C 195.7 77.4 194.6 76.6 194.9 76.6 C 193.0 75.4 189.1 73.2 188.9 72.7 C 187.9 72.2 187.5 72.2 185.7 71.0 C 185.6 71.1 192.3 74.9 193.4 76.3 C 193.2 76.3 190.8 74.8 193.3 76.4 C 193.3 76.4 193.3 76.4 193.3 76.4 Z M 271.0 175.0 C 271.2 175.2 272.6 172.7 272.6 173.2 C 273.1 171.8 274.2 170.6 274.9 169.0 C 275.3 168.6 275.6 168.8 277.1 166.7 C 276.8 166.6 276.2 167.7 276.7 166.7 C 277.9 164.7 277.9 165.3 279.2 163.0 C 278.5 163.4 282.1 158.3 281.3 158.8 C 280.6 160.0 280.9 159.9 279.5 161.8 C 279.1 162.5 279.1 162.2 278.6 163.0 C 278.6 162.4 279.7 161.4 280.0 160.6 C 279.7 160.8 278.7 162.3 278.4 162.4 C 277.9 163.3 278.7 162.2 278.7 162.4 C 277.3 164.8 278.1 162.3 276.6 164.8 C 277.2 164.3 277.2 164.3 277.2 164.8 C 276.4 165.8 274.6 168.9 275.3 167.2 C 275.0 167.3 274.1 169.2 274.5 169.0 C 273.9 170.0 273.7 170.1 273.5 170.1 C 272.0 172.7 272.0 173.1 272.7 172.6 C 272.6 173.2 271.9 173.5 271.0 175.0 C 271.0 175.0 271.0 175.0 271.0 175.0 Z M 241.2 106.8 C 242.8 107.6 239.5 105.8 238.2 104.9 C 239.8 106.0 239.0 105.9 240.8 107.1 C 240.2 106.6 240.4 106.6 241.6 107.4 C 242.0 107.5 239.4 105.8 241.2 106.8 C 241.2 106.8 241.2 106.8 241.2 106.8 Z M 182.1 68.7 C 181.5 68.1 178.3 66.2 176.7 65.1 C 176.8 65.7 181.1 67.7 181.4 68.4 C 182.4 69.0 180.9 68.0 182.1 68.7 C 182.1 68.7 182.1 68.7 182.1 68.7 Z M 286.2 152.2 C 286.6 151.5 286.3 151.9 286.1 152.2 C 286.1 152.0 287.0 150.7 287.5 149.8 C 286.4 151.2 287.4 149.5 286.8 149.9 C 287.3 149.2 287.5 148.8 287.5 148.7 C 288.2 148.6 289.5 145.0 287.0 148.8 C 287.8 148.0 287.6 148.3 286.7 149.9 C 285.4 151.6 284.8 152.9 284.1 153.5 C 283.4 154.6 283.3 155.0 282.4 156.5 C 281.9 156.8 280.9 158.2 281.1 157.1 C 279.4 159.7 281.4 157.9 280.1 160.1 C 278.5 162.1 280.3 159.0 279.8 159.5 C 279.4 160.0 279.4 159.9 279.2 160.1 C 278.7 160.8 279.0 160.8 279.5 160.1 C 279.5 160.3 278.4 162.4 278.4 161.8 C 277.8 163.0 280.6 159.9 281.3 158.3 C 281.9 157.3 282.6 157.2 281.9 158.2 C 282.4 157.9 282.9 155.9 283.3 156.4 C 283.8 155.6 284.3 154.8 284.8 154.0 C 284.7 154.1 284.3 154.6 284.2 154.6 C 284.7 153.8 285.2 153.0 285.8 152.2 C 285.5 152.9 285.6 152.9 286.2 152.2 C 286.2 152.2 286.2 152.2 286.2 152.2 Z M 189.9 73.8 C 188.4 72.8 188.0 72.7 186.8 72.0 C 187.1 72.5 190.5 74.5 189.9 73.8 C 189.9 73.8 189.9 73.8 189.9 73.8 Z M 263.6 185.0 C 263.9 184.8 264.5 183.8 264.6 183.8 C 263.5 185.7 265.0 183.6 264.5 185.3 C 265.8 182.8 265.7 181.8 263.5 184.9 C 262.0 187.2 265.1 182.6 263.6 185.0 C 263.6 185.0 263.6 185.0 263.6 185.0 Z M 268.5 177.8 C 269.2 176.4 266.8 180.0 266.1 180.8 C 266.1 180.7 266.0 180.7 265.9 180.7 C 265.0 182.8 266.9 180.1 266.2 182.1 C 267.9 179.8 268.6 178.9 269.8 176.8 C 269.6 176.9 269.4 177.4 269.4 177.4 C 268.4 178.9 268.7 177.8 269.9 176.2 C 269.4 176.6 268.5 178.0 267.8 179.1 C 268.0 178.8 268.3 178.5 268.4 178.6 C 267.6 179.9 267.7 179.3 267.1 180.3 C 267.0 180.2 268.2 177.9 268.5 177.8 C 268.5 177.8 268.5 177.8 268.5 177.8 Z M 181.1 241.9 C 182.3 242.7 179.7 240.6 179.8 240.1 C 178.5 239.2 178.2 239.2 177.4 238.7 C 177.8 239.2 179.3 240.1 179.9 240.7 C 179.7 241.0 178.0 239.4 177.5 239.4 C 176.8 239.4 180.5 241.1 181.1 241.9 C 181.1 241.9 181.1 241.9 181.1 241.9 Z M 276.1 130.0 C 275.4 129.6 275.7 129.9 276.0 130.0 C 275.7 130.0 274.7 129.3 274.8 129.3 C 273.8 128.7 275.1 129.7 274.0 129.0 C 273.5 128.9 275.7 130.1 275.9 130.1 C 277.2 130.9 275.8 130.4 275.9 130.7 C 277.1 131.4 277.0 131.1 278.6 132.1 C 277.8 131.4 277.1 130.8 276.1 130.0 C 276.1 130.0 276.1 130.0 276.1 130.0 Z M 261.5 189.3 C 261.5 189.5 262.0 187.7 263.3 186.2 C 264.6 184.2 262.1 187.4 263.4 185.6 C 262.3 187.1 261.3 189.1 259.7 191.6 C 259.5 192.2 261.9 188.2 260.6 190.5 C 260.8 190.4 261.1 189.8 261.0 189.8 C 261.3 189.3 261.4 189.3 261.5 189.3 C 261.5 189.3 261.5 189.3 261.5 189.3 Z M 262.4 186.7 C 262.3 186.8 262.0 187.3 262.0 187.3 C 261.5 188.1 261.3 188.0 261.8 187.2 C 260.8 188.1 261.4 188.2 260.0 190.2 C 260.7 189.4 261.1 189.1 259.8 190.8 C 259.0 192.4 262.2 187.4 262.4 186.7 C 262.4 186.7 262.4 186.7 262.4 186.7 Z M 200.3 254.1 C 200.1 253.8 198.8 253.1 197.9 252.4 C 199.0 252.9 203.9 256.2 204.5 256.8 C 205.0 257.1 205.5 257.4 205.8 257.6 C 205.7 257.5 207.0 258.2 206.3 257.6 C 206.4 257.6 207.4 258.3 207.4 258.1 C 209.2 259.4 206.9 258.1 207.5 258.6 C 209.6 259.7 209.2 259.7 211.7 261.4 C 211.2 260.7 208.4 259.0 208.6 258.7 C 206.7 257.8 204.4 256.2 203.1 255.0 C 205.1 256.7 198.1 252.5 194.8 250.3 C 194.9 250.1 193.8 249.4 192.4 248.3 C 191.4 247.4 191.8 248.4 193.6 249.3 C 193.6 249.6 191.1 247.8 190.0 247.2 C 191.3 248.2 190.6 247.9 191.3 248.4 C 193.6 249.9 191.5 248.4 191.9 248.4 C 192.5 248.8 193.1 249.2 193.7 249.6 C 190.6 248.2 198.3 252.6 195.5 250.9 C 197.9 252.4 198.1 252.9 200.3 254.1 C 200.3 254.1 200.3 254.1 200.3 254.1 Z M 241.4 220.4 C 241.7 219.9 242.8 217.9 243.0 218.0 C 244.4 215.4 242.9 217.3 244.6 214.6 C 244.4 214.7 243.8 215.8 243.7 215.7 C 243.1 216.8 242.5 217.9 242.9 217.8 C 242.0 219.0 241.9 219.5 241.4 220.3 C 241.5 219.9 241.7 219.4 242.4 218.3 C 242.4 218.0 242.0 218.3 241.0 219.9 C 240.7 220.7 241.2 220.4 241.4 220.4 C 241.4 220.4 241.4 220.4 241.4 220.4 Z M 245.0 214.1 C 245.3 213.9 245.6 213.6 245.6 213.7 C 246.4 213.0 245.6 213.1 246.1 212.3 C 246.6 211.6 246.6 211.9 246.7 211.9 C 247.3 210.8 247.8 209.9 248.3 209.5 C 249.2 207.8 246.9 211.2 246.4 211.6 C 245.7 212.8 246.1 212.5 245.0 214.1 C 245.0 214.1 245.0 214.1 245.0 214.1 Z M 256.8 196.4 C 257.2 196.2 257.3 195.4 257.9 194.6 C 257.2 195.1 256.3 196.9 256.7 195.6 C 255.5 197.3 255.4 197.4 254.4 199.1 C 253.5 200.1 254.6 199.3 255.6 197.4 C 255.6 197.7 255.1 198.5 255.1 198.7 C 253.9 199.6 252.7 203.0 253.5 201.0 C 253.9 200.5 254.2 200.2 254.5 200.0 C 254.5 199.5 257.3 195.5 256.8 196.4 C 256.8 196.4 256.8 196.4 256.8 196.4 Z M 288.0 138.3 C 290.3 139.7 290.5 139.9 292.2 141.1 C 292.1 141.2 292.0 141.4 291.8 141.6 C 291.6 141.7 291.7 141.6 292.0 141.1 C 291.5 141.7 291.1 142.4 290.5 143.4 C 290.6 143.3 290.9 142.8 290.8 142.8 C 292.3 140.9 291.3 142.5 291.5 142.7 C 291.9 142.1 292.3 141.5 292.7 141.0 C 291.0 140.0 289.5 139.2 289.1 138.6 C 288.1 138.1 289.1 138.8 288.0 138.3 C 288.0 138.3 288.0 138.3 288.0 138.3 Z M 56.7 161.1 C 56.3 160.9 55.3 160.3 55.4 160.6 C 56.3 161.1 57.0 161.4 57.9 161.9 C 56.2 160.8 56.6 160.6 54.4 159.2 C 55.1 159.8 54.8 159.9 56.7 161.1 C 56.7 161.1 56.7 161.1 56.7 161.1 Z M 252.9 202.3 C 252.7 202.3 252.6 202.3 253.0 201.6 C 253.0 201.3 251.8 203.2 251.7 203.2 C 251.3 203.8 251.6 203.7 251.0 204.5 C 251.3 204.3 252.3 202.7 252.1 203.5 C 251.8 204.0 251.7 204.1 251.6 204.1 C 251.0 205.4 252.2 203.6 252.9 202.3 C 252.9 202.3 252.9 202.3 252.9 202.3 Z M 175.1 237.7 C 175.9 238.2 175.1 237.5 174.4 237.1 C 176.1 237.8 173.3 235.8 173.1 235.4 C 173.9 236.2 176.3 237.6 176.7 237.9 C 177.4 238.3 176.6 237.5 178.5 238.6 C 178.2 238.2 176.2 237.1 176.7 237.7 C 176.1 236.9 174.1 236.1 174.3 235.8 C 171.6 234.0 171.0 233.9 170.8 234.1 C 173.4 235.6 172.1 235.4 174.4 236.7 C 174.4 236.8 173.7 236.4 173.2 236.1 C 173.4 236.4 174.4 237.1 175.1 237.7 C 175.1 237.7 175.1 237.7 175.1 237.7 Z M 229.0 239.3 C 229.9 237.9 229.7 237.8 229.6 237.6 C 229.3 238.2 228.8 239.0 228.1 240.0 C 228.3 240.0 229.3 238.3 229.0 239.3 C 229.0 239.3 229.0 239.3 229.0 239.3 Z M 184.6 243.5 C 184.8 243.7 185.2 243.9 185.2 243.8 C 186.7 244.8 187.1 245.2 187.7 245.7 C 188.5 246.2 188.1 245.8 188.2 245.6 C 186.8 245.0 187.0 244.7 185.2 243.6 C 185.3 243.8 185.1 243.7 184.6 243.5 C 184.6 243.5 184.6 243.5 184.6 243.5 Z M 220.9 251.5 C 221.3 250.8 221.1 251.1 220.9 251.4 C 221.2 250.2 222.9 248.1 223.5 247.0 C 223.4 246.7 221.5 249.7 223.7 246.2 C 223.2 246.5 221.3 249.8 220.3 251.3 C 220.4 250.7 221.8 248.6 221.6 248.3 C 220.5 250.4 219.2 252.5 219.2 253.3 C 220.9 250.7 220.4 252.0 220.9 251.5 C 220.9 251.5 220.9 251.5 220.9 251.5 Z M 218.9 254.3 C 219.1 254.2 219.4 253.5 220.0 252.5 C 219.0 253.6 218.5 254.6 216.5 257.5 C 216.5 257.6 216.5 257.6 216.6 257.7 C 216.2 258.3 215.8 258.9 215.4 259.5 C 217.2 257.3 217.5 256.4 219.3 253.6 C 219.4 253.5 219.1 253.9 218.9 254.3 C 218.9 254.3 218.9 254.3 218.9 254.3 Z M 270.2 174.9 C 269.5 175.6 268.9 176.3 267.9 177.7 C 268.2 177.7 268.9 176.8 270.2 174.9 C 270.2 174.9 270.2 174.9 270.2 174.9 Z M 182.2 241.7 C 180.6 240.8 183.8 242.7 182.7 241.7 C 181.4 240.7 180.0 239.7 179.7 239.2 C 177.3 238.1 182.4 241.4 182.2 241.7 C 182.2 241.7 182.2 241.7 182.2 241.7 Z M 192.8 247.8 C 193.5 248.3 193.6 248.8 192.9 248.0 C 191.2 246.9 194.4 249.3 191.7 247.5 C 192.9 248.4 195.4 250.2 196.5 250.7 C 196.4 250.4 194.2 249.0 194.1 248.7 C 193.9 248.5 194.3 248.7 194.6 248.9 C 194.4 248.6 193.9 248.5 192.8 247.8 C 192.8 247.8 192.8 247.8 192.8 247.8 Z M 201.9 254.2 C 200.9 253.3 199.7 252.4 197.6 251.1 C 199.0 252.2 199.9 253.1 201.9 254.2 C 201.9 254.2 201.9 254.2 201.9 254.2 Z M 88.7 180.7 C 90.2 181.6 89.0 180.5 88.8 180.3 C 87.4 179.3 87.4 179.6 85.8 178.4 C 86.2 179.1 87.9 179.8 88.7 180.7 C 88.7 180.7 88.7 180.7 88.7 180.7 Z M 83.4 177.0 C 83.3 176.7 81.2 175.5 81.1 175.2 C 79.7 175.0 78.1 172.9 78.0 173.3 C 77.6 173.0 77.1 172.6 76.3 172.1 C 77.8 173.7 81.6 175.9 83.4 177.0 C 83.4 177.0 83.4 177.0 83.4 177.0 Z M 212.0 260.0 C 213.6 261.1 211.4 259.2 213.0 260.3 C 213.1 260.2 210.0 258.1 211.8 259.2 C 209.3 257.3 212.1 260.0 212.0 260.0 C 212.0 260.0 212.0 260.0 212.0 260.0 Z M 230.9 233.6 C 230.9 233.9 232.2 231.5 232.8 230.7 C 232.8 230.7 232.3 231.4 232.0 231.8 C 232.1 231.5 232.3 231.1 232.7 230.5 C 232.2 230.7 231.4 232.7 230.9 233.6 C 230.9 233.6 230.9 233.6 230.9 233.6 Z M 210.3 264.5 C 209.2 263.5 207.8 262.4 207.2 262.4 C 206.1 261.4 207.8 262.5 206.5 261.4 C 204.8 260.5 205.6 260.6 202.8 259.1 C 203.3 258.9 201.3 257.7 200.8 257.1 C 202.0 257.8 203.5 259.1 203.9 259.1 C 203.0 258.5 203.4 258.5 203.9 259.0 C 205.8 260.4 201.7 258.0 204.0 259.7 C 204.6 259.6 208.0 262.6 210.2 264.0 C 209.4 263.8 211.9 265.5 210.3 264.5 C 210.3 264.5 210.3 264.5 210.3 264.5 Z M 199.2 256.7 C 197.7 255.8 196.8 254.5 197.2 254.8 C 197.3 255.0 198.9 256.0 199.1 256.0 C 198.7 255.7 198.3 255.5 198.4 255.4 C 201.1 257.3 200.2 257.0 200.9 257.6 C 199.5 256.8 199.0 256.3 198.5 256.2 C 198.9 256.4 199.2 256.7 199.2 256.7 C 199.2 256.7 199.2 256.7 199.2 256.7 Z M 166.5 230.2 C 166.8 230.6 167.1 230.6 167.7 230.9 C 167.8 231.5 170.8 232.8 171.2 233.3 C 170.6 233.0 169.0 232.0 168.3 231.7 C 169.1 232.3 169.3 232.5 170.1 232.9 C 170.0 233.1 168.2 232.0 167.8 231.9 C 167.6 231.6 166.8 231.3 166.5 231.0 C 168.8 232.3 165.1 229.4 166.5 230.2 C 166.5 230.2 166.5 230.2 166.5 230.2 Z M 221.0 248.6 C 221.1 248.1 219.2 249.7 220.5 247.1 C 221.0 246.9 221.2 246.9 221.3 247.5 C 222.1 245.8 222.6 245.5 223.0 244.4 C 225.1 242.6 221.7 246.3 221.0 248.6 C 221.0 248.6 221.0 248.6 221.0 248.6 Z M 227.0 239.0 C 226.8 239.8 227.6 238.4 227.6 238.9 C 226.7 239.8 224.5 243.8 225.2 242.3 C 226.0 241.0 225.8 240.7 227.0 239.0 C 227.0 239.0 227.0 239.0 227.0 239.0 Z M 146.4 46.1 C 148.4 47.1 149.3 48.3 148.2 47.7 C 148.7 47.7 145.7 46.0 146.4 46.1 C 146.4 46.1 146.4 46.1 146.4 46.1 Z M 219.5 88.1 C 217.8 86.8 216.6 86.2 216.6 85.9 C 218.4 87.0 218.1 87.0 219.6 88.0 C 219.8 88.0 220.8 88.5 220.9 88.7 C 220.0 88.1 220.1 88.4 219.5 88.1 C 219.5 88.1 219.5 88.1 219.5 88.1 Z M 255.0 207.3 C 255.2 207.2 255.7 206.5 255.7 206.9 C 254.4 208.8 253.1 211.1 252.2 212.8 C 252.1 212.7 252.0 212.6 251.9 212.6 C 254.0 209.6 254.3 208.7 255.0 207.3 C 255.0 207.3 255.0 207.3 255.0 207.3 Z M 257.9 203.8 C 258.0 203.4 257.1 204.3 257.9 202.9 C 258.1 203.1 259.9 200.8 259.2 202.0 C 258.8 202.3 258.4 202.9 257.9 203.8 C 257.9 203.8 257.9 203.8 257.9 203.8 Z M 175.6 242.3 C 174.1 241.4 176.3 243.1 176.2 243.2 C 175.1 242.4 173.7 241.5 173.2 241.0 C 174.2 241.7 174.9 241.6 175.6 242.3 C 175.6 242.3 175.6 242.3 175.6 242.3 Z M 198.0 256.0 C 201.1 258.0 199.9 257.8 203.0 259.9 C 201.8 259.3 199.0 257.5 198.2 257.2 C 198.3 257.1 197.5 256.5 197.5 256.4 C 198.6 257.1 198.8 257.4 200.0 258.1 C 199.5 257.4 199.5 257.6 199.9 257.5 C 199.0 256.9 198.5 256.6 198.0 256.4 C 198.2 256.3 197.1 255.5 198.0 256.0 C 198.0 256.0 198.0 256.0 198.0 256.0 Z M 176.1 241.8 C 174.8 241.1 173.7 239.9 174.8 240.6 C 175.0 241.0 175.8 241.2 176.0 241.6 C 174.3 240.5 177.5 242.6 176.7 242.4 C 175.6 241.7 175.3 241.6 175.5 242.0 C 174.8 241.5 173.8 240.8 173.7 240.7 C 174.2 241.0 174.9 241.4 174.9 241.3 C 174.5 241.1 174.1 240.8 174.3 240.8 C 175.3 241.5 175.8 241.7 176.1 241.8 C 176.1 241.8 176.1 241.8 176.1 241.8 Z M 184.6 247.3 C 182.9 246.2 182.7 245.7 182.0 245.1 C 184.3 246.7 184.7 247.4 186.4 248.7 C 184.6 247.4 182.8 246.7 182.2 246.0 C 183.0 246.5 184.5 247.4 184.6 247.3 C 184.6 247.3 184.6 247.3 184.6 247.3 Z M 23.3 104.6 C 24.4 103.3 25.3 102.2 26.4 100.7 C 26.5 100.0 24.2 102.6 25.2 101.5 C 26.2 99.8 25.8 101.2 26.6 99.9 C 25.5 100.9 30.1 93.8 30.5 93.8 C 29.8 94.9 29.7 95.3 29.9 95.2 C 28.1 98.0 27.5 99.3 26.2 101.5 C 24.9 102.8 22.0 107.2 20.7 109.9 C 19.2 111.2 17.8 114.5 16.1 116.4 C 15.8 117.1 17.5 114.7 16.4 116.6 C 15.4 117.6 15.9 116.6 14.7 118.1 C 14.8 118.3 15.2 118.1 14.7 118.9 C 14.6 118.7 13.9 119.7 13.6 120.0 C 15.8 116.7 13.2 119.9 14.9 117.3 C 15.6 116.3 14.5 118.7 16.4 115.7 C 17.0 114.6 17.6 113.5 17.2 113.6 C 17.8 112.8 18.0 112.3 18.4 111.7 C 17.9 113.0 21.0 107.5 19.7 110.1 C 19.6 110.3 18.5 111.9 17.8 113.2 C 18.7 112.3 19.5 110.9 20.6 108.9 C 21.2 108.3 20.6 109.4 21.2 108.6 C 22.1 106.9 20.6 108.8 21.2 107.6 C 20.9 108.0 20.4 108.8 20.4 108.7 C 22.2 106.3 22.7 105.1 23.5 103.8 C 23.1 104.8 24.7 102.5 23.3 104.6 C 23.3 104.6 23.3 104.6 23.3 104.6 Z M 9.5 126.8 C 9.1 127.4 8.7 128.0 8.3 128.6 C 8.0 128.6 9.5 126.2 8.2 127.7 C 10.0 125.0 8.4 128.0 9.5 126.8 C 9.5 126.8 9.5 126.8 9.5 126.8 Z M 18.1 115.3 C 18.9 114.6 18.1 114.7 18.6 113.8 C 17.7 115.3 16.9 116.7 16.5 116.7 C 17.7 115.1 18.2 114.3 19.2 112.5 C 18.4 114.4 20.7 110.8 21.3 110.5 C 20.5 111.9 19.9 113.0 18.7 114.8 C 18.8 114.4 17.0 117.0 18.1 115.3 C 18.1 115.3 18.1 115.3 18.1 115.3 Z M 15.2 120.3 C 14.9 120.6 13.3 123.3 13.4 122.5 C 14.5 121.0 14.8 120.3 14.3 120.5 C 15.1 119.4 15.3 119.3 16.0 118.2 C 16.7 117.7 15.4 119.6 15.2 120.3 C 15.4 119.9 15.7 119.6 15.2 120.3 C 15.2 120.3 15.2 120.3 15.2 120.3 Z M 43.2 151.3 C 43.6 151.9 41.2 150.2 40.8 149.8 C 41.4 150.5 41.0 150.4 39.4 149.5 C 40.2 149.5 37.9 148.2 36.7 147.0 C 36.3 147.0 38.0 148.2 35.9 147.0 C 34.4 145.9 32.9 145.1 30.5 143.6 C 30.1 143.0 31.2 143.6 31.8 144.0 C 30.2 143.0 30.8 143.0 29.5 142.2 C 29.7 142.5 28.7 142.0 28.3 141.6 C 30.5 142.8 25.7 139.5 28.0 140.8 C 28.0 141.0 28.6 141.3 29.1 141.5 C 28.4 141.5 31.3 143.3 31.9 143.9 C 33.3 144.1 36.3 146.2 39.8 148.8 C 39.9 149.0 38.8 148.4 39.7 149.0 C 39.8 149.0 41.0 149.7 41.5 150.0 C 41.4 150.1 41.9 150.5 42.6 151.0 C 42.7 151.0 42.8 151.0 43.2 151.3 C 43.2 151.3 43.2 151.3 43.2 151.3 Z M 89.1 10.4 C 89.1 11.0 92.8 13.1 93.8 13.6 C 93.8 14.2 87.0 9.7 89.1 10.4 C 89.1 10.4 89.1 10.4 89.1 10.4 Z M 73.8 32.6 C 74.5 31.6 73.9 32.0 74.5 31.1 C 74.6 31.4 75.9 28.4 76.0 28.7 C 75.4 30.1 74.9 30.8 73.8 32.6 C 73.8 32.6 73.8 32.6 73.8 32.6 Z M 59.9 54.0 C 61.0 52.2 59.2 54.7 59.4 54.2 C 60.4 52.7 61.4 51.2 61.4 51.6 C 60.5 52.8 60.1 54.0 59.9 54.0 C 59.9 54.0 59.9 54.0 59.9 54.0 Z M 80.8 22.2 C 81.8 20.9 80.4 23.8 80.2 23.7 C 81.1 22.1 79.4 24.5 78.6 25.9 C 78.5 25.4 78.9 24.9 78.4 25.2 C 79.7 22.9 78.7 25.2 79.6 23.7 C 80.2 22.5 79.6 23.7 79.5 23.3 C 79.9 22.7 80.3 22.1 80.6 21.5 C 80.7 21.7 80.7 21.9 80.8 22.1 C 80.3 22.8 79.9 23.5 80.1 23.5 C 80.5 22.9 80.5 22.7 80.8 22.2 C 80.8 22.2 80.8 22.2 80.8 22.2 Z M 12.4 130.8 C 11.5 130.2 12.2 130.8 12.9 131.3 C 13.1 131.3 14.0 131.2 14.9 132.2 C 12.4 130.8 15.4 132.9 14.0 132.2 C 13.6 131.7 12.1 131.0 11.0 130.3 C 10.6 129.8 12.0 130.2 12.4 130.8 C 12.4 130.8 12.4 130.8 12.4 130.8 Z M 16.5 133.6 C 16.4 133.5 16.0 133.2 15.3 132.8 C 16.2 133.1 15.2 132.3 16.2 132.9 C 16.0 132.9 19.1 135.0 17.2 133.8 C 15.6 132.7 17.6 134.3 18.3 134.8 C 17.5 134.3 15.9 133.6 15.8 133.3 C 16.2 133.5 16.6 133.8 16.5 133.6 C 16.5 133.6 16.5 133.6 16.5 133.6 Z M 55.4 158.3 C 55.7 158.3 54.7 157.6 54.4 157.3 C 57.4 159.3 60.0 161.0 61.5 162.0 C 60.1 161.1 60.0 161.4 60.8 162.0 C 59.3 160.9 58.9 160.8 58.4 160.4 C 59.8 161.0 57.3 159.5 55.4 158.3 C 55.4 158.3 55.4 158.3 55.4 158.3 Z M 55.4 158.3 " fill="#A51601"></path><g><clipPath id="clip0x6080010ae640"><path d="M -1.9 133.1 L 355.5 363.8 L 445.2 225.0 L 87.8 -5.7 Z M -1.9 133.1 "></path></clipPath><g clip-path="url(#clip0x6080010ae640)"><text xml:space="preserve" font-family="CapitalsRegular,Capitals" font-style="italic" font-size="50.0" fill="#C82505" transform="matrix(0.84, 0.54, 0.54, -0.84, 75.5, 104.5)">S</text><text xml:space="preserve" font-family="CapitalsRegular,Capitals" font-style="italic" font-size="50.0" fill="#C82505" transform="matrix(0.84, 0.54, 0.54, -0.84, 99.0, 119.7)">n</text><text xml:space="preserve" font-family="CapitalsRegular,Capitals" font-style="italic" font-size="50.0" fill="#C82505" transform="matrix(0.84, 0.54, 0.54, -0.84, 128.9, 139.0)">e</text><text xml:space="preserve" font-family="CapitalsRegular,Capitals" font-style="italic" font-size="50.0" fill="#C82505" transform="matrix(0.84, 0.54, 0.54, -0.84, 153.5, 154.9)">a</text><text xml:space="preserve" font-family="CapitalsRegular,Capitals" font-style="italic" font-size="50.0" fill="#C82505" transform="matrix(0.84, 0.54, 0.54, -0.84, 181.5, 173.0)">k</text><text xml:space="preserve" font-family="CapitalsRegular,Capitals" font-style="italic" font-size="50.0" fill="#C82505" transform="matrix(0.84, 0.54, 0.54, -0.84, 210.4, 191.6)">	</text><text xml:space="preserve" font-family="CapitalsRegular,Capitals" font-style="italic" font-size="50.0" fill="#C82505" transform="matrix(0.84, 0.54, 0.54, -0.84, 233.9, 206.8)">
</text><text xml:space="preserve" font-family="CapitalsRegular,Capitals" font-style="italic" font-size="50.0" fill="#C82505" transform="matrix(0.84, 0.54, 0.54, -0.84, 233.9, 206.8)"></text><text xml:space="preserve" font-family="CapitalsRegular,Capitals" font-style="italic" font-size="50.0" fill="#C82505" transform="matrix(0.84, 0.54, 0.54, -0.84, 83.8, 30.1)">P</text><text xml:space="preserve" font-family="CapitalsRegular,Capitals" font-style="italic" font-size="50.0" fill="#C82505" transform="matrix(0.84, 0.54, 0.54, -0.84, 111.6, 48.1)">r</text><text xml:space="preserve" font-family="CapitalsRegular,Capitals" font-style="italic" font-size="50.0" fill="#C82505" transform="matrix(0.84, 0.54, 0.54, -0.84, 140.5, 66.8)">e</text><text xml:space="preserve" font-family="CapitalsRegular,Capitals" font-style="italic" font-size="50.0" fill="#C82505" transform="matrix(0.84, 0.54, 0.54, -0.84, 165.2, 82.7)">v</text><text xml:space="preserve" font-family="CapitalsRegular,Capitals" font-style="italic" font-size="50.0" fill="#C82505" transform="matrix(0.84, 0.54, 0.54, -0.84, 193.2, 100.8)">i</text><text xml:space="preserve" font-family="CapitalsRegular,Capitals" font-style="italic" font-size="50.0" fill="#C82505" transform="matrix(0.84, 0.54, 0.54, -0.84, 209.0, 111.0)">e</text><text xml:space="preserve" font-family="CapitalsRegular,Capitals" font-style="italic" font-size="50.0" fill="#C82505" transform="matrix(0.84, 0.54, 0.54, -0.84, 233.7, 126.9)">w</text></g></g></g></svg>