<?xml version="1.0" encoding="UTF-8" standalone="no"?><svg xmlns="http://www.w3.org/2000/svg" xmlns:xlink="http://www.w3.org/1999/xlink" clip-rule="evenodd" stroke-miterlimit="10" viewBox="0 0 163 56"><desc>SVG generated by Keynote</desc><defs></defs><g transform="matrix(1.00, 0.00, -0.00, -1.00, 0.0, 56.0)"><path d="M 144.1 54.9 C 144.4 54.9 144.7 54.8 145.2 54.8 C 145.0 54.8 144.8 54.7 144.8 54.7 C 144.4 54.7 143.9 54.7 143.0 54.7 C 143.0 54.8 143.5 54.8 143.8 54.8 C 144.1 54.8 144.0 54.9 144.1 54.9 C 144.1 54.9 144.1 54.9 144.1 54.9 Z M 113.6 1.5 C 114.3 1.5 113.5 1.3 113.3 1.3 C 113.2 1.4 113.2 1.4 112.9 1.4 C 112.8 1.2 113.5 1.2 114.0 1.2 C 116.0 1.2 114.5 1.5 113.6 1.5 C 113.6 1.5 113.6 1.5 113.6 1.5 Z M 16.7 1.6 C 15.2 1.6 16.8 1.8 17.1 1.9 C 16.4 1.9 17.0 2.2 16.0 2.2 C 15.8 2.1 15.5 2.1 15.3 2.0 C 15.7 2.0 16.3 2.0 16.4 1.9 C 15.8 1.9 15.1 2.0 14.9 1.9 C 16.2 1.8 15.2 1.7 14.9 1.6 C 16.0 1.6 16.4 1.4 16.7 1.6 C 16.7 1.6 16.7 1.6 16.7 1.6 Z M 29.2 54.0 C 28.7 54.0 28.3 54.0 28.4 53.9 C 28.9 53.9 29.2 53.9 29.5 53.9 C 29.6 53.9 29.4 53.8 29.9 53.8 C 30.4 53.9 30.1 54.1 29.9 54.2 C 29.8 54.1 28.2 54.2 29.2 54.0 C 29.2 54.0 29.2 54.0 29.2 54.0 Z M 70.0 53.7 C 71.4 53.8 70.1 53.4 71.5 53.5 C 71.4 53.7 71.6 53.9 70.7 53.9 C 70.7 53.8 70.1 53.8 70.0 53.7 C 70.0 53.7 70.0 53.7 70.0 53.7 Z M 57.6 3.0 C 57.6 2.9 56.6 2.9 56.9 2.8 C 57.3 2.8 57.8 2.8 58.3 2.8 C 58.4 2.9 58.2 3.0 57.6 3.0 C 57.6 3.0 57.6 3.0 57.6 3.0 Z M 5.9 5.2 C 4.4 6.2 3.9 8.2 4.0 7.6 C 3.5 8.1 4.2 6.2 4.3 6.4 C 4.6 6.3 6.9 4.3 5.9 5.2 C 5.9 5.2 5.9 5.2 5.9 5.2 Z M 105.3 4.6 C 103.6 4.5 103.9 5.0 102.8 4.8 C 103.2 4.7 103.3 4.7 103.5 4.6 C 103.2 4.6 102.8 4.6 102.8 4.6 C 103.6 4.5 104.6 4.5 105.3 4.6 C 105.3 4.6 105.3 4.6 105.3 4.6 Z M 119.5 54.5 C 119.3 54.5 119.1 54.5 119.2 54.6 C 118.0 54.6 118.1 54.7 117.4 54.6 C 117.3 54.4 118.3 54.4 119.2 54.5 C 119.2 54.5 119.5 54.4 119.5 54.5 C 119.5 54.5 119.5 54.5 119.5 54.5 Z M 87.7 53.8 C 87.7 54.0 88.4 54.0 87.4 54.1 C 86.2 53.9 87.2 53.7 88.5 53.6 C 88.5 53.5 88.5 53.4 88.5 53.3 C 88.0 53.3 87.6 53.3 87.4 53.3 C 87.1 53.6 86.3 53.1 84.5 53.2 C 85.3 53.1 84.4 52.9 85.6 53.0 C 85.2 52.8 86.1 52.8 85.9 52.7 C 85.4 52.8 84.2 52.8 84.5 53.0 C 83.8 53.0 83.3 53.0 83.0 52.9 C 82.6 52.7 84.2 52.9 83.7 52.7 C 83.4 52.7 83.3 52.6 83.0 52.6 C 83.0 52.7 83.1 52.8 82.7 52.8 C 81.5 52.7 82.9 52.6 81.2 52.6 C 81.1 52.7 81.6 52.7 81.6 52.8 C 80.8 52.9 80.9 52.8 80.1 52.9 C 80.0 52.8 80.7 52.7 80.1 52.7 C 79.7 53.0 78.6 52.5 77.6 52.7 C 78.3 53.1 77.4 52.7 76.5 53.0 C 76.3 52.9 77.0 52.7 76.1 52.7 C 76.4 53.2 73.2 53.0 75.8 53.4 C 74.4 53.4 74.0 53.8 75.1 53.8 C 72.7 53.7 73.4 54.0 72.5 54.0 C 71.6 54.0 73.0 53.9 72.5 53.8 C 73.5 53.8 73.3 53.7 74.0 53.8 C 74.0 53.7 74.1 53.6 74.4 53.6 C 73.4 53.7 72.2 53.4 72.9 53.2 C 73.4 53.3 72.9 53.5 73.6 53.5 C 73.4 53.2 74.3 53.5 74.4 53.3 C 73.9 53.1 75.3 52.9 74.0 52.9 C 74.0 53.0 74.0 53.1 74.0 53.2 C 73.6 53.2 73.3 53.2 72.9 53.2 C 72.6 53.0 72.8 52.9 72.5 52.8 C 71.9 52.8 71.6 52.8 71.4 52.9 C 72.2 53.0 73.0 53.1 71.8 53.2 C 72.3 52.8 70.1 53.1 71.1 52.9 C 69.7 52.7 69.1 53.0 68.9 52.8 C 68.2 52.8 68.7 53.0 67.8 53.0 C 66.5 52.8 66.7 53.1 64.9 52.9 C 64.7 53.2 64.8 52.9 64.2 52.9 C 64.2 53.0 64.2 53.1 64.2 53.2 C 63.6 53.0 62.1 52.9 60.6 53.1 C 60.2 53.0 60.5 52.9 59.5 52.9 C 58.5 53.2 57.2 52.9 55.9 53.2 C 55.8 53.0 54.9 53.0 54.5 53.1 C 54.3 53.0 54.9 52.8 54.1 52.8 C 53.6 53.0 54.5 53.0 53.4 53.1 C 53.5 52.9 52.3 53.3 52.3 53.0 C 52.6 53.0 53.0 52.9 53.4 52.9 C 52.9 52.9 53.0 52.8 52.6 52.7 C 52.7 53.0 51.8 52.8 51.5 52.7 C 51.6 52.8 51.5 52.9 51.2 53.0 C 50.6 53.0 50.1 53.0 49.7 53.0 C 48.9 53.0 50.2 52.9 49.4 52.9 C 49.0 53.3 48.2 52.8 46.5 53.1 C 46.1 53.0 45.4 52.9 44.3 52.9 C 44.2 53.0 45.4 52.9 45.4 53.0 C 43.8 53.0 45.7 53.2 44.7 53.2 C 42.4 53.1 40.9 53.1 38.5 52.9 C 38.6 53.1 36.7 53.2 36.7 53.1 C 37.2 53.1 35.7 52.9 34.9 52.9 C 34.7 53.2 33.5 53.4 33.5 53.6 C 33.2 53.4 33.3 53.4 33.1 53.2 C 31.8 53.1 31.1 53.3 30.2 53.0 C 30.3 53.2 29.7 53.2 29.1 53.3 C 29.3 53.1 29.6 53.0 29.9 52.9 C 29.2 52.9 29.1 52.9 28.4 52.9 C 27.8 53.4 26.7 52.7 26.2 53.2 C 25.2 53.2 25.4 53.0 24.4 53.0 C 24.5 53.1 24.4 53.2 24.1 53.3 C 24.7 53.2 25.2 53.1 25.5 53.3 C 24.1 53.3 28.2 53.8 25.9 54.0 C 25.8 53.9 26.0 53.8 25.5 53.8 C 24.2 53.8 25.0 54.0 25.5 54.0 C 24.7 54.1 23.7 54.0 24.4 54.2 C 22.4 54.3 23.7 54.1 23.0 54.1 C 21.2 54.1 19.2 54.2 17.0 54.2 C 14.8 54.2 13.0 54.5 9.7 54.0 C 9.5 54.2 6.2 53.0 5.5 52.2 C 4.0 51.3 2.9 49.7 2.9 49.1 C 2.6 48.9 2.4 47.0 2.1 46.9 C 2.3 47.6 2.4 48.1 2.1 47.4 C 1.6 44.8 2.0 41.9 1.9 40.7 C 2.1 40.0 2.1 38.7 1.9 37.8 C 2.0 37.7 2.1 38.4 2.1 37.8 C 2.0 37.6 1.9 35.8 2.0 35.3 C 2.0 35.9 2.2 36.5 2.2 35.7 C 2.1 35.7 2.2 34.7 2.0 34.9 C 2.1 33.7 2.0 33.0 2.1 32.0 C 2.1 32.8 2.2 33.3 2.3 33.5 C 2.2 32.8 2.1 32.2 2.3 31.7 C 2.0 31.8 2.2 30.7 2.1 29.5 C 2.1 29.2 2.2 29.0 2.2 28.0 C 2.1 27.6 2.0 29.5 2.0 28.4 C 2.1 28.4 2.2 27.4 2.0 27.7 C 2.1 26.5 1.9 25.8 2.1 24.8 C 2.1 26.1 2.3 25.1 2.4 24.8 C 2.3 24.5 2.4 24.1 2.3 24.1 C 2.2 24.1 2.2 24.7 2.2 24.8 C 2.3 23.9 1.9 23.7 2.1 23.4 C 2.1 23.7 2.2 23.8 2.2 23.4 C 1.9 23.2 2.2 20.7 2.3 21.6 C 2.2 21.6 2.2 22.5 2.3 22.6 C 2.4 22.4 2.3 20.9 2.5 21.2 C 2.5 22.0 2.4 22.0 2.4 23.0 C 2.5 23.1 2.6 23.7 2.7 24.1 C 2.7 22.5 2.4 22.1 2.7 21.9 C 2.6 21.2 2.4 21.6 2.5 20.5 C 2.5 18.8 2.7 20.2 2.8 19.8 C 2.7 18.3 2.4 18.7 2.2 19.4 C 2.3 18.2 2.1 17.9 2.2 16.5 C 2.3 16.6 2.4 16.7 2.4 17.2 C 2.4 17.3 2.2 18.4 2.4 18.3 C 2.6 18.2 2.7 17.3 2.8 15.8 C 2.5 16.1 2.7 16.2 2.7 14.7 C 2.4 14.9 2.7 14.0 2.5 13.9 C 2.5 14.0 2.5 14.5 2.5 15.0 C 2.4 15.0 2.3 14.8 2.2 14.3 C 2.3 14.0 2.2 13.8 2.3 12.9 C 2.4 12.8 2.5 13.4 2.6 13.6 C 2.6 13.1 2.5 13.0 2.5 12.5 C 2.6 12.1 2.9 12.1 3.1 12.1 C 3.2 12.7 3.2 13.6 3.3 12.9 C 3.3 15.0 3.1 12.8 3.0 13.6 C 3.3 14.5 2.9 14.0 3.0 15.4 C 3.0 15.8 3.0 16.0 3.1 16.1 C 3.1 16.0 3.3 15.2 3.3 16.1 C 3.2 16.3 3.1 16.8 3.1 17.6 C 3.2 17.6 3.3 16.1 3.3 17.6 C 3.2 18.3 3.0 17.6 3.0 18.7 C 3.1 18.7 3.1 18.9 3.1 19.0 C 3.1 17.5 3.3 19.3 3.4 18.3 C 3.5 19.6 3.2 18.5 3.2 19.4 C 3.3 19.4 3.1 20.8 3.3 20.8 C 3.2 20.3 3.3 19.2 3.4 19.4 C 3.4 20.3 3.6 24.7 3.3 23.0 C 3.4 23.6 3.6 26.8 3.5 26.6 C 3.5 25.6 3.4 25.7 3.3 25.5 C 3.5 27.3 3.3 28.3 3.6 30.2 C 3.6 28.1 3.9 29.7 4.0 28.4 C 4.0 27.9 4.1 27.1 4.0 26.9 C 3.8 27.2 3.9 28.1 4.0 28.4 C 3.8 28.4 3.7 28.4 3.5 28.4 C 3.7 26.1 3.5 24.8 3.6 23.7 C 3.6 24.7 3.8 21.9 3.9 23.0 C 3.7 23.5 3.7 24.6 3.7 25.5 C 3.7 25.5 3.8 25.5 3.9 25.5 C 3.9 26.0 3.8 26.6 3.9 26.6 C 3.9 25.3 4.1 24.6 3.9 23.7 C 4.0 23.7 4.0 23.7 4.0 23.7 C 4.0 23.5 4.0 23.3 4.1 23.4 C 4.1 23.8 4.1 24.4 4.2 24.4 C 4.2 23.5 4.4 23.3 4.4 22.3 C 4.6 22.5 4.9 21.1 4.9 22.6 C 4.7 22.9 4.7 23.7 4.6 23.7 C 4.5 24.2 4.6 25.1 4.6 25.5 C 4.8 25.1 4.8 24.2 5.0 24.1 C 5.0 24.8 5.1 25.4 4.9 25.9 C 4.8 24.3 4.8 26.7 4.6 27.3 C 4.7 27.2 4.7 26.8 4.8 26.6 C 4.8 27.8 4.7 28.4 4.9 28.4 C 5.0 29.9 4.8 29.6 4.8 30.6 C 5.1 29.9 4.9 31.2 5.2 30.6 C 5.2 32.3 4.9 31.1 4.9 31.7 C 5.0 32.2 5.0 32.3 5.1 32.8 C 4.9 33.5 4.9 35.1 4.7 35.3 C 4.7 36.0 4.6 36.1 4.6 36.7 C 4.7 36.9 4.8 37.1 4.8 37.5 C 4.8 37.6 4.7 38.1 4.8 38.2 C 5.0 36.3 5.1 36.9 5.2 34.9 C 5.2 34.8 5.1 34.5 5.1 34.9 C 5.0 33.6 5.1 33.2 5.1 32.0 C 5.3 31.9 5.5 31.6 5.4 30.6 C 5.5 30.8 5.6 30.5 5.7 31.0 C 5.6 31.5 5.5 32.3 5.4 33.1 C 5.5 33.2 5.6 33.0 5.6 33.5 C 5.5 33.9 5.5 34.5 5.5 35.0 C 5.5 35.0 5.4 34.8 5.4 34.6 C 5.3 36.4 5.5 35.7 5.4 37.1 C 5.5 36.9 5.5 36.0 5.7 36.7 C 5.7 38.0 5.6 38.3 5.5 38.9 C 5.6 39.0 5.7 38.9 5.7 39.3 C 5.5 40.2 5.3 37.3 5.1 38.9 C 5.2 39.0 5.2 40.5 5.1 40.7 C 4.9 40.2 5.1 39.4 5.0 39.3 C 5.0 42.0 4.7 39.4 4.6 42.2 C 4.7 42.2 4.8 42.2 4.9 42.2 C 4.8 41.0 5.0 41.0 5.2 41.1 C 5.2 40.1 5.4 39.7 5.3 38.9 C 5.6 39.2 5.3 39.7 5.3 40.7 C 5.5 40.7 5.5 39.8 5.7 39.6 C 5.5 42.0 5.8 42.5 5.5 44.7 C 5.7 44.2 5.5 45.8 5.7 45.7 C 5.5 44.2 6.1 44.6 6.2 44.3 C 6.2 43.1 5.8 43.6 5.7 42.9 C 5.9 42.5 6.0 42.7 6.3 42.9 C 6.2 44.0 6.2 43.8 6.3 44.7 C 6.2 45.5 5.8 46.1 5.7 45.1 C 5.7 45.3 6.0 46.4 5.9 46.5 C 5.6 45.5 5.8 46.6 5.6 46.0 C 5.6 46.9 6.4 48.1 7.0 48.9 C 7.0 48.8 7.3 49.0 7.3 49.0 C 6.5 48.4 6.7 48.0 6.3 47.2 C 6.5 47.5 6.5 47.3 6.5 47.1 C 6.7 47.9 7.2 48.2 7.5 48.7 C 7.6 48.7 7.6 48.6 7.6 48.6 C 8.3 49.4 8.3 49.3 9.1 49.4 C 9.3 49.6 8.8 49.8 8.6 49.9 C 9.0 50.0 10.5 50.4 9.7 50.0 C 10.5 50.2 10.2 50.4 11.4 50.3 C 11.5 50.2 10.3 50.2 10.7 49.9 C 11.9 49.9 11.2 50.1 12.2 50.0 C 12.2 50.1 12.2 50.3 13.2 50.3 C 12.5 50.1 13.3 50.2 13.6 50.1 C 13.2 50.1 12.8 50.0 12.5 50.0 C 14.3 50.0 14.7 50.0 16.1 50.0 C 15.6 50.2 16.4 50.2 15.4 50.3 C 16.3 50.2 17.5 50.5 18.0 50.3 C 17.4 50.3 16.5 50.3 16.1 50.2 C 19.0 50.1 20.5 49.9 23.0 50.2 C 22.6 50.2 22.0 50.2 21.9 50.2 C 22.2 50.2 22.6 50.2 22.6 50.3 C 21.8 50.3 20.9 50.3 20.5 50.3 C 19.7 50.3 20.9 50.2 20.1 50.2 C 20.0 50.3 18.4 50.2 19.0 50.4 C 20.4 50.2 21.7 50.4 22.3 50.7 C 23.6 50.4 22.4 50.4 23.7 50.0 C 23.7 50.1 24.0 50.2 24.4 50.2 C 24.0 50.0 25.7 50.1 25.9 50.1 C 25.3 50.2 22.9 50.4 24.1 50.6 C 23.5 50.1 26.9 50.7 26.2 50.3 C 27.8 50.3 27.2 50.6 28.1 50.3 C 28.1 50.4 28.0 50.5 28.4 50.5 C 28.8 50.5 29.0 50.5 29.2 50.4 C 27.0 50.3 27.6 50.1 26.2 50.0 C 26.5 50.0 26.7 50.0 26.6 50.0 C 26.6 49.9 26.7 49.9 27.0 49.9 C 27.1 50.2 28.1 49.9 28.4 50.0 C 28.0 50.0 27.6 50.1 27.7 50.2 C 29.5 50.1 29.2 50.3 31.7 50.5 C 30.9 50.3 31.9 50.3 32.8 50.3 C 34.0 50.3 33.5 50.6 34.9 50.6 C 34.8 50.1 36.5 50.6 38.2 50.3 C 38.0 50.6 40.3 50.7 40.7 50.5 C 40.8 50.5 41.6 50.5 42.2 50.5 C 42.3 50.6 41.6 50.7 42.2 50.7 C 42.7 50.7 42.2 50.5 42.9 50.5 C 43.7 50.5 43.5 50.7 44.7 50.7 C 44.7 50.5 44.1 50.6 44.7 50.5 C 45.7 50.5 46.6 50.5 45.8 50.3 C 47.3 50.3 46.5 50.7 48.0 50.6 C 47.5 50.6 47.6 50.5 48.3 50.5 C 48.8 50.6 48.9 50.7 49.0 50.8 C 49.5 50.6 49.3 50.6 50.5 50.6 C 50.5 50.6 50.5 50.5 50.5 50.4 C 51.0 50.4 51.8 50.4 51.9 50.5 C 50.9 50.4 51.2 50.6 50.8 50.6 C 51.8 50.7 53.7 50.9 52.3 50.6 C 53.7 50.5 53.0 50.8 54.1 50.8 C 53.4 50.6 54.0 50.7 55.2 50.7 C 55.1 50.5 55.9 50.7 56.6 50.6 C 56.5 50.5 56.7 50.4 57.3 50.4 C 57.3 50.5 57.7 50.5 58.4 50.5 C 58.4 50.4 56.9 50.3 58.4 50.3 C 59.1 50.4 59.1 50.6 60.3 50.6 C 60.5 50.8 59.2 50.8 59.5 50.9 C 60.4 50.8 60.7 50.9 62.0 50.9 C 61.5 50.6 64.7 50.5 63.1 50.3 C 63.6 50.3 64.2 50.1 64.6 50.3 C 64.1 50.3 65.0 50.5 64.9 50.5 C 65.6 50.5 67.1 50.6 67.1 50.5 C 65.7 50.5 65.7 50.3 65.3 50.2 C 67.3 50.1 69.1 50.2 68.9 50.4 C 68.9 50.3 69.2 50.3 69.3 50.3 C 68.6 50.3 68.1 50.0 68.9 50.0 C 68.7 50.2 69.3 50.2 70.0 50.3 C 70.0 50.1 72.7 50.4 72.2 50.1 C 71.1 50.3 70.3 50.0 71.1 49.9 C 71.7 50.0 73.2 50.1 72.9 50.3 C 73.3 50.2 73.6 50.2 74.0 50.1 C 74.3 49.9 73.5 49.9 73.6 49.8 C 74.1 49.8 75.0 49.8 75.1 49.9 C 73.6 49.9 75.8 50.0 74.3 50.1 C 75.2 50.1 75.4 50.2 76.1 50.2 C 76.1 50.2 76.4 50.1 76.5 50.1 C 75.9 50.2 75.2 50.1 75.4 49.9 C 76.7 49.9 76.5 50.1 77.6 50.1 C 77.9 50.0 79.4 49.7 80.1 49.9 C 78.7 49.8 80.2 49.9 79.4 50.0 C 78.1 49.9 77.7 50.1 77.2 50.3 C 77.8 50.4 78.9 50.5 79.0 50.2 C 78.3 50.2 78.3 50.3 77.9 50.3 C 78.0 50.2 78.2 50.1 78.7 50.1 C 79.3 50.2 80.6 50.1 79.7 50.3 C 80.7 50.2 81.7 50.4 82.6 50.3 C 81.6 50.3 80.8 50.2 80.5 50.0 C 81.4 50.0 82.2 50.2 82.3 50.0 C 82.2 49.9 80.8 49.9 80.5 49.8 C 81.6 49.6 83.3 50.1 81.9 49.7 C 82.6 49.8 83.4 49.8 83.7 49.9 C 83.0 49.9 83.8 50.1 84.1 50.2 C 84.8 50.2 85.3 50.1 85.6 50.0 C 84.5 50.1 83.8 49.9 84.5 49.9 C 84.6 50.0 84.9 49.8 85.2 49.8 C 85.2 49.9 86.4 49.8 86.6 49.9 C 86.5 49.8 86.0 49.8 85.9 49.7 C 86.6 49.7 87.6 49.4 88.1 49.7 C 87.6 49.7 87.0 49.7 87.0 49.7 C 88.9 50.0 89.5 50.2 91.7 50.3 C 91.4 50.4 91.3 50.4 91.3 50.5 C 92.8 50.5 93.7 50.6 93.5 50.7 C 94.4 50.7 94.8 50.6 95.3 50.5 C 94.4 50.4 94.1 50.5 93.5 50.4 C 93.8 50.4 92.8 50.0 92.4 49.9 C 90.8 50.1 90.7 49.8 89.2 49.9 C 89.6 49.7 88.0 49.9 88.5 49.7 C 89.9 50.0 91.3 49.7 93.5 49.9 C 93.2 50.0 93.0 50.1 93.8 50.2 C 95.2 50.3 94.5 50.1 95.7 50.1 C 96.1 50.3 95.5 50.3 96.0 50.3 C 96.4 50.3 97.5 50.3 97.8 50.5 C 96.3 50.4 98.1 50.6 97.1 50.7 C 97.6 50.7 97.9 50.7 98.2 50.8 C 96.8 50.5 99.7 50.5 98.6 50.3 C 100.6 50.2 98.7 50.8 100.4 50.8 C 99.6 50.6 100.6 50.5 101.8 50.6 C 102.1 50.8 103.4 50.8 104.3 50.9 C 103.8 50.7 103.4 50.7 104.3 50.6 C 103.9 50.6 103.0 50.6 102.5 50.6 C 102.5 50.6 102.4 50.5 102.2 50.5 C 103.4 50.4 102.9 50.3 103.3 50.3 C 103.6 50.4 104.5 50.4 104.7 50.5 C 104.7 50.4 105.0 50.4 105.1 50.3 C 103.5 50.3 105.3 50.1 104.3 50.0 C 103.7 50.0 104.1 50.2 103.3 50.2 C 102.4 50.0 103.9 50.0 104.3 49.8 C 103.6 49.7 102.8 49.9 102.5 49.7 C 103.5 49.5 104.9 49.6 106.1 49.7 C 106.1 49.4 108.2 49.7 108.3 49.4 C 108.5 49.5 108.7 49.6 109.0 49.6 C 109.4 49.4 109.8 49.7 110.1 49.7 C 110.2 49.6 110.1 49.5 109.8 49.4 C 111.3 49.5 111.6 49.5 113.4 49.4 C 113.7 49.6 114.0 49.7 114.1 49.8 C 113.7 49.8 113.3 49.9 113.0 49.9 C 115.4 49.9 113.9 49.4 115.6 49.7 C 115.5 49.6 114.3 49.4 115.2 49.4 C 116.7 49.6 118.9 49.4 118.8 49.9 C 120.1 50.1 121.1 49.7 121.7 50.0 C 122.1 50.0 122.3 49.9 122.4 49.9 C 122.0 49.7 121.5 49.7 121.0 49.6 C 120.2 49.6 119.8 49.5 120.6 49.7 C 119.4 49.8 119.1 49.6 118.4 49.6 C 120.1 49.4 121.6 49.6 121.7 49.3 C 122.3 49.4 122.7 49.6 123.1 49.7 C 123.3 49.5 125.2 49.5 125.3 49.7 C 124.1 49.6 122.7 49.8 123.9 50.0 C 127.0 49.8 128.7 50.2 131.5 50.0 C 131.5 50.1 131.3 50.2 131.8 50.2 C 131.8 50.1 131.9 50.0 132.2 50.0 C 133.0 50.0 133.5 50.1 134.7 50.0 C 134.6 50.2 134.8 50.3 135.4 50.4 C 135.8 50.2 137.0 49.9 137.6 49.9 C 136.9 49.9 137.8 50.2 138.3 50.2 C 137.9 49.9 141.6 50.4 140.5 50.1 C 142.0 50.1 142.6 50.2 142.7 50.3 C 143.2 50.2 143.6 50.2 144.1 50.2 C 144.4 50.4 147.0 50.2 147.3 50.3 C 146.5 50.2 146.3 50.5 147.0 50.5 C 147.5 50.4 149.8 50.2 150.2 50.3 C 150.1 50.4 149.9 50.5 148.8 50.6 C 150.7 50.6 150.7 50.3 151.3 50.2 C 151.3 50.4 152.2 50.2 152.4 50.2 C 152.9 50.3 152.4 50.2 152.4 50.4 C 152.9 50.4 153.2 50.5 153.8 50.3 C 153.6 50.2 154.3 50.0 154.6 49.9 C 154.6 49.8 154.9 49.6 155.3 49.2 C 154.9 49.9 157.5 46.6 156.9 47.4 C 157.1 46.6 157.5 46.7 157.5 45.6 C 157.4 45.4 157.5 44.7 157.3 45.3 C 157.3 44.4 157.5 44.8 157.5 43.5 C 157.2 44.1 157.5 42.1 157.2 42.4 C 157.6 41.8 157.1 40.7 157.4 39.5 C 157.3 39.5 157.3 39.2 157.3 39.1 C 157.2 39.0 157.1 40.5 157.1 39.5 C 157.2 38.3 157.3 39.0 157.4 38.8 C 157.3 35.5 157.4 31.4 157.5 27.9 C 157.4 28.3 157.3 28.3 157.3 27.6 C 157.6 26.5 157.5 22.4 157.3 21.8 C 157.6 21.4 157.3 19.3 157.5 18.9 C 157.4 19.3 157.6 20.1 157.6 19.3 C 157.4 18.7 157.6 17.9 157.4 17.1 C 157.6 16.7 157.4 14.1 157.8 15.3 C 157.8 14.8 157.8 14.5 157.8 14.2 C 157.6 14.2 157.6 13.6 157.5 14.6 C 157.7 12.2 157.6 11.5 157.6 10.0 C 157.5 9.8 157.5 10.9 157.4 10.0 C 157.4 10.0 157.4 10.0 157.5 10.0 C 157.4 9.7 157.3 9.6 157.4 9.5 C 157.5 9.5 157.5 10.0 157.8 10.0 C 157.6 9.2 157.7 8.7 157.4 8.5 C 157.8 9.5 157.2 9.0 157.1 8.4 C 157.4 8.8 155.8 6.6 155.0 6.2 C 154.7 5.8 155.8 6.7 155.8 6.6 C 154.5 5.5 154.5 5.7 154.2 5.8 C 153.4 5.5 153.3 5.3 151.9 5.4 C 151.1 5.3 152.4 5.3 151.6 5.2 C 151.1 5.3 150.9 5.4 150.1 5.4 C 148.2 5.0 143.6 5.7 141.4 5.1 C 142.3 5.2 141.2 5.3 140.0 5.3 C 139.9 5.2 140.1 5.1 139.7 5.1 C 139.7 5.2 139.3 5.3 138.6 5.3 C 138.5 5.2 138.6 5.1 138.2 5.1 C 137.9 5.3 136.9 5.1 136.4 5.2 C 136.1 5.0 137.7 5.1 137.8 5.0 C 136.0 4.9 135.6 5.1 134.2 5.0 C 135.0 5.0 133.7 4.8 133.5 4.8 C 133.8 5.0 132.7 5.0 133.5 5.2 C 133.0 5.2 132.1 5.2 132.0 5.1 C 132.3 5.1 132.8 5.1 132.8 5.1 C 132.1 5.1 131.3 4.9 130.9 5.1 C 131.4 5.1 131.7 5.1 131.7 5.2 C 131.5 5.3 131.3 5.4 130.9 5.4 C 132.0 5.0 129.0 5.2 128.8 5.3 C 128.5 5.0 128.3 5.0 128.4 4.9 C 127.2 4.9 127.4 5.1 126.6 5.1 C 126.8 4.9 127.1 4.7 125.9 4.6 C 126.2 4.9 124.7 4.8 125.2 5.1 C 122.2 5.2 121.5 4.9 119.7 4.9 C 119.7 5.0 120.3 5.0 119.7 5.1 C 118.9 5.0 118.2 4.9 117.6 4.8 C 117.1 5.0 117.8 5.0 117.2 5.1 C 115.9 4.9 116.2 4.7 115.0 4.5 C 113.6 4.7 114.1 4.6 113.3 4.8 C 113.6 4.8 114.1 4.9 113.6 4.9 C 112.7 4.7 112.4 4.5 112.2 4.5 C 112.8 4.5 113.3 4.5 113.6 4.5 C 113.8 4.4 114.7 4.4 114.0 4.3 C 114.9 4.3 115.9 4.4 117.2 4.3 C 116.8 4.1 118.4 4.3 117.9 4.1 C 116.5 4.1 116.1 4.0 114.7 4.0 C 115.0 4.2 113.5 4.1 113.3 4.1 C 113.3 4.2 112.3 4.2 112.5 4.3 C 111.4 4.4 111.5 4.2 110.4 4.3 C 110.3 4.2 110.4 4.1 110.0 4.1 C 109.6 4.3 109.3 4.0 108.9 4.0 C 109.2 4.2 107.6 4.1 107.5 4.3 C 107.9 4.3 108.5 4.3 108.6 4.3 C 106.8 4.3 108.2 4.5 108.6 4.6 C 108.5 4.6 109.1 4.3 109.3 4.5 C 107.8 4.6 111.3 4.8 110.0 4.7 C 108.9 4.7 109.0 4.8 107.8 4.8 C 106.5 4.4 108.1 4.2 106.7 4.0 C 105.9 4.1 105.4 4.1 105.3 4.3 C 105.1 4.2 104.9 4.1 104.6 4.1 C 104.2 4.2 105.6 4.3 104.6 4.3 C 104.0 4.3 104.7 4.0 103.5 4.1 C 103.0 4.2 104.9 4.3 103.8 4.3 C 102.7 4.1 104.1 4.4 102.8 4.5 C 102.7 4.4 102.5 4.4 102.0 4.4 C 102.0 4.3 102.1 4.2 101.7 4.2 C 101.4 4.5 101.2 4.0 100.2 4.1 C 99.7 4.3 101.2 4.2 101.0 4.4 C 99.9 4.2 99.2 4.4 98.8 4.4 C 99.7 4.2 97.4 4.3 97.4 4.1 C 97.6 4.3 97.1 4.2 95.9 4.4 C 95.8 4.1 94.4 4.3 94.1 4.0 C 93.9 4.1 93.5 4.2 93.4 4.3 C 93.8 4.3 94.2 4.3 94.1 4.4 C 93.7 4.4 93.4 4.4 93.0 4.4 C 92.4 4.2 93.9 3.9 91.5 3.9 C 91.8 4.2 90.8 4.2 90.1 4.3 C 90.2 4.5 91.1 4.3 91.2 4.4 C 90.4 4.5 89.5 4.4 89.0 4.3 C 87.6 4.4 86.0 4.3 84.0 4.3 C 83.5 4.2 85.7 4.2 84.3 4.1 C 83.7 4.1 84.0 4.2 83.3 4.2 C 84.0 3.4 77.8 4.1 77.4 3.7 C 77.2 3.9 75.5 3.8 75.6 4.0 C 76.8 3.9 77.6 4.1 78.2 4.2 C 79.3 4.1 77.2 4.0 78.2 4.0 C 78.3 4.1 79.8 4.0 79.6 4.2 C 78.1 4.2 80.4 4.3 79.3 4.5 C 77.8 4.5 75.0 4.7 75.6 4.5 C 75.6 4.5 76.3 4.5 76.3 4.5 C 74.7 4.4 73.8 4.5 73.1 4.6 C 72.4 4.5 69.5 4.8 70.2 4.6 C 70.0 4.5 71.9 4.7 71.7 4.5 C 68.7 4.4 68.6 4.6 66.6 4.5 C 67.3 4.7 64.5 4.8 64.8 4.7 C 64.8 4.5 64.2 4.4 63.0 4.6 C 63.2 4.4 62.5 4.3 61.9 4.3 C 61.6 4.4 62.4 4.4 62.3 4.6 C 61.7 4.6 61.0 4.6 60.5 4.6 C 60.4 4.5 60.5 4.4 60.1 4.4 C 59.4 4.5 57.0 4.7 57.2 4.6 C 58.2 4.3 55.6 4.4 57.2 4.2 C 56.7 4.2 56.7 4.1 56.1 4.2 C 56.1 4.2 56.1 4.3 56.1 4.4 C 54.8 4.4 55.4 4.1 54.3 4.1 C 54.2 4.2 53.7 4.2 53.6 4.3 C 54.0 4.3 54.1 4.2 54.7 4.2 C 54.0 4.5 55.9 4.4 55.8 4.6 C 54.5 4.6 54.5 4.4 54.0 4.3 C 52.4 4.5 53.1 4.4 51.4 4.3 C 51.4 4.4 51.9 4.4 51.8 4.5 C 49.7 4.5 49.9 4.1 48.5 4.2 C 48.9 4.2 50.1 4.1 49.2 4.0 C 48.3 4.1 48.0 4.3 46.7 4.3 C 46.7 4.3 46.8 4.2 46.4 4.2 C 45.8 4.2 45.8 4.4 45.3 4.5 C 45.2 4.4 44.5 4.4 44.2 4.5 C 43.7 4.3 44.4 4.3 43.8 4.2 C 42.8 4.2 42.2 4.6 41.3 4.6 C 41.3 4.3 40.4 4.4 39.5 4.5 C 39.3 4.2 37.5 4.3 36.2 4.2 C 36.5 4.4 35.2 4.3 35.5 4.5 C 36.1 4.5 36.4 4.6 36.6 4.6 C 35.2 4.7 34.8 4.3 33.7 4.6 C 33.2 4.4 32.5 4.3 31.5 4.3 C 31.4 4.4 33.2 4.5 32.3 4.5 C 32.2 4.4 31.9 4.5 31.5 4.5 C 31.7 4.3 30.9 4.3 30.5 4.2 C 29.6 4.3 27.8 4.0 28.7 4.3 C 27.3 4.3 28.2 4.0 27.2 4.0 C 27.7 4.2 25.9 4.3 26.8 4.4 C 25.4 4.5 25.6 4.1 26.1 4.0 C 24.9 4.0 24.6 4.2 23.9 4.0 C 24.5 4.2 22.6 4.3 23.6 4.2 C 23.9 4.0 22.4 4.1 22.1 4.0 C 22.6 4.2 21.9 4.2 22.8 4.3 C 21.9 4.3 20.5 4.4 19.6 4.2 C 18.4 4.3 17.3 4.3 17.8 4.1 C 16.7 4.1 17.1 4.1 16.0 4.1 C 16.0 4.2 16.3 4.2 16.4 4.2 C 14.8 4.2 15.1 4.1 13.1 4.1 C 13.3 3.9 12.0 3.9 11.6 3.7 C 12.5 3.8 13.1 3.8 13.8 3.9 C 14.0 3.8 13.3 3.7 13.8 3.7 C 13.9 3.7 14.2 3.8 14.5 3.8 C 13.2 3.6 16.2 3.5 15.3 3.7 C 15.3 3.6 15.2 3.6 14.9 3.6 C 15.2 3.8 15.2 3.7 14.9 3.9 C 15.6 3.9 16.1 4.1 16.4 3.9 C 16.3 3.8 15.7 3.9 15.6 3.8 C 17.3 3.7 16.1 4.0 17.4 4.0 C 17.7 3.8 17.0 3.7 16.7 3.6 C 17.9 3.6 18.9 3.6 19.2 3.7 C 20.3 3.7 19.2 3.6 20.0 3.5 C 20.3 3.6 20.3 3.7 21.0 3.7 C 21.9 3.7 20.6 3.6 21.4 3.6 C 22.3 3.7 20.8 3.8 22.1 3.9 C 21.8 3.6 23.3 3.9 23.2 3.7 C 22.5 3.8 22.5 3.5 22.8 3.7 C 24.6 3.9 25.8 3.2 27.6 3.7 C 27.6 3.6 27.8 3.6 27.9 3.6 C 26.6 3.4 24.7 3.4 24.3 3.1 C 23.3 3.2 23.4 3.4 23.2 3.4 C 22.0 3.2 22.1 3.2 22.8 2.9 C 24.9 2.9 25.8 3.0 27.2 3.1 C 27.9 2.9 27.1 3.0 26.8 2.9 C 31.1 3.1 27.8 2.5 29.4 2.6 C 29.3 2.7 29.6 2.7 30.1 2.8 C 30.1 2.7 30.7 2.7 30.8 2.7 C 30.5 2.6 30.4 2.6 30.5 2.5 C 31.5 2.5 31.1 2.7 31.2 2.8 C 30.3 2.8 29.8 2.8 29.7 2.9 C 30.8 2.8 31.6 3.0 32.3 2.8 C 33.2 3.0 31.7 3.3 32.3 3.5 C 32.1 3.6 32.9 3.0 33.7 3.0 C 35.0 3.0 35.0 2.8 36.2 2.8 C 36.6 3.0 35.0 2.9 35.1 3.0 C 35.5 3.0 35.6 3.1 35.9 3.1 C 36.7 3.1 36.7 2.9 37.3 2.8 C 37.7 3.0 37.9 2.9 38.4 2.8 C 39.2 2.9 37.9 3.0 38.8 3.0 C 39.7 3.1 40.3 2.8 40.6 2.8 C 40.6 2.9 40.5 3.0 40.9 3.0 C 41.9 2.9 42.2 2.9 40.9 2.8 C 42.1 2.8 42.5 2.7 42.4 2.5 C 40.7 2.5 40.3 2.5 39.5 2.3 C 39.2 2.5 38.7 2.3 38.0 2.3 C 38.4 2.6 37.3 2.3 36.9 2.5 C 37.4 2.5 37.8 2.5 38.0 2.6 C 36.2 2.6 36.3 2.5 34.8 2.8 C 34.8 2.7 34.6 2.7 34.4 2.7 C 34.9 2.6 36.2 2.6 36.2 2.5 C 35.2 2.3 34.9 2.6 33.7 2.4 C 33.2 2.5 34.6 2.6 33.7 2.6 C 33.2 2.5 32.6 2.4 31.9 2.3 C 31.1 2.3 30.7 2.4 30.1 2.5 C 30.0 2.4 30.0 2.3 29.4 2.4 C 29.4 2.4 30.0 2.5 29.4 2.5 C 27.5 2.3 26.2 2.1 24.3 2.2 C 25.0 2.3 26.5 2.5 25.7 2.5 C 24.9 2.4 23.7 2.6 22.8 2.4 C 22.6 2.4 23.9 2.5 23.6 2.2 C 22.7 2.2 22.2 2.2 21.8 2.1 C 21.8 2.2 20.8 2.2 21.0 2.4 C 21.7 2.4 22.0 2.2 22.1 2.2 C 21.5 2.7 19.5 2.1 18.2 2.1 C 17.3 2.1 18.8 2.2 17.8 2.3 C 17.2 2.4 16.8 1.9 17.8 1.9 C 18.5 2.0 18.8 1.7 18.9 1.9 C 19.2 1.9 19.6 1.9 19.6 1.9 C 19.1 1.9 19.2 1.7 18.9 1.7 C 19.6 1.7 19.7 1.4 20.3 1.6 C 19.9 1.6 19.8 1.6 19.6 1.7 C 21.5 1.6 22.1 1.8 23.2 1.9 C 22.6 1.8 23.3 1.8 23.2 1.6 C 22.4 1.7 20.8 1.6 21.8 1.5 C 22.4 1.7 22.9 1.2 23.6 1.4 C 23.1 1.4 23.2 1.5 22.9 1.6 C 23.6 1.6 23.6 1.7 24.3 1.8 C 26.7 1.5 28.5 2.0 32.3 1.6 C 33.6 1.6 31.1 1.7 31.2 1.8 C 31.5 1.8 31.6 1.9 31.9 1.9 C 31.9 1.7 32.6 1.9 33.0 1.7 C 32.9 1.9 34.7 1.7 35.5 1.9 C 35.6 1.8 35.5 1.7 35.9 1.7 C 38.5 1.9 43.3 1.6 45.3 1.8 C 45.2 1.7 46.1 1.7 46.4 1.6 C 47.6 1.6 47.1 1.8 48.9 1.6 C 49.8 1.5 48.7 1.7 48.5 1.8 C 51.3 1.7 53.7 1.8 55.4 1.6 C 56.3 1.6 55.4 1.8 57.2 1.8 C 57.2 1.5 60.1 1.9 60.5 1.6 C 61.5 1.6 63.5 1.9 62.6 1.7 C 64.1 1.7 63.1 1.9 63.7 1.9 C 64.8 1.9 63.4 1.5 64.4 1.5 C 64.3 1.7 65.2 1.6 65.9 1.8 C 65.1 1.7 64.5 1.8 64.4 1.9 C 65.1 1.8 65.1 1.9 66.2 1.9 C 67.1 1.8 69.5 1.6 70.2 1.9 C 70.2 1.8 70.0 1.7 69.9 1.7 C 70.6 1.7 71.4 1.9 71.3 1.6 C 72.9 1.6 73.6 1.8 74.5 1.6 C 75.3 1.6 74.3 1.8 76.4 1.8 C 76.4 1.6 80.1 1.7 81.1 1.8 C 81.1 1.6 81.3 1.8 81.8 1.8 C 81.8 1.7 81.7 1.6 82.2 1.6 C 82.2 1.7 82.6 1.7 82.9 1.6 C 82.6 1.9 84.2 1.5 84.3 1.8 C 84.0 1.8 84.0 1.9 84.3 1.9 C 84.4 1.7 85.9 2.0 85.8 1.9 C 85.4 1.8 84.4 1.9 84.7 1.7 C 86.1 1.6 85.5 1.9 86.5 1.9 C 86.4 1.8 85.9 1.7 86.5 1.7 C 87.5 1.7 86.6 1.7 87.2 1.9 C 87.7 1.8 88.7 1.7 89.0 1.7 C 88.9 1.7 89.2 1.8 89.4 1.8 C 91.3 1.9 95.5 1.7 97.3 1.9 C 97.5 1.9 97.8 1.8 97.7 1.7 C 98.8 1.8 98.7 1.7 99.9 1.8 C 99.9 1.7 99.9 1.7 99.9 1.6 C 101.3 1.5 100.0 1.8 101.0 1.8 C 101.1 1.4 101.5 1.9 102.4 1.9 C 102.5 1.9 102.9 1.8 102.8 1.7 C 104.2 1.7 104.1 2.0 105.3 1.9 C 105.0 1.9 104.8 1.3 104.9 1.1 C 105.1 1.2 105.5 1.2 106.0 1.3 C 105.4 1.5 105.7 2.2 107.5 1.9 C 106.5 2.0 106.2 1.9 106.4 1.8 C 107.7 1.7 108.1 1.9 109.3 1.9 C 109.4 1.7 108.6 1.7 108.9 1.5 C 109.2 1.4 109.3 1.4 109.3 1.3 C 110.5 1.4 110.5 1.5 111.8 1.4 C 111.8 1.5 111.5 1.5 111.1 1.5 C 111.1 1.6 111.1 1.7 110.4 1.8 C 110.3 1.6 110.7 1.5 109.6 1.5 C 109.6 1.6 109.6 1.7 109.6 1.8 C 110.4 1.8 112.3 2.0 112.5 1.9 C 112.1 1.8 111.5 1.8 111.8 1.6 C 113.2 1.6 113.6 1.8 114.7 1.9 C 116.7 1.9 120.2 1.9 119.7 1.6 C 120.9 1.7 120.5 1.7 121.6 1.8 C 121.3 1.6 122.8 1.7 122.7 1.5 C 121.4 1.6 121.7 1.5 120.5 1.6 C 120.5 1.5 120.7 1.4 121.2 1.3 C 121.3 1.4 121.8 1.5 122.7 1.5 C 122.5 1.4 121.7 1.2 122.7 1.2 C 122.7 1.3 122.9 1.3 123.4 1.3 C 123.4 1.4 123.4 1.5 123.4 1.6 C 122.9 1.6 122.3 1.7 121.9 1.8 C 122.3 1.8 122.3 1.8 122.7 1.8 C 122.9 1.7 124.4 1.8 124.5 1.7 C 123.9 1.7 123.5 1.6 124.1 1.6 C 124.2 1.6 125.2 1.7 125.6 1.6 C 124.3 1.5 124.8 1.5 124.1 1.3 C 125.6 1.2 125.3 1.5 127.0 1.4 C 127.0 1.5 127.0 1.7 126.6 1.8 C 127.7 2.1 130.1 1.8 130.9 1.8 C 130.4 1.8 129.7 2.0 130.6 2.1 C 130.6 2.0 131.2 2.0 131.3 1.9 C 131.6 1.6 130.9 1.4 130.2 1.2 C 130.9 1.2 131.1 1.1 131.7 1.2 C 131.9 1.3 131.2 1.5 132.0 1.6 C 132.2 1.3 133.6 1.5 133.8 1.3 C 133.3 1.4 132.9 1.3 133.5 1.2 C 133.4 1.4 134.5 1.3 134.6 1.4 C 133.6 1.5 133.4 1.6 132.8 1.6 C 133.5 1.7 132.2 1.8 133.5 1.8 C 134.0 1.7 134.3 1.5 135.7 1.5 C 136.2 1.6 135.7 1.8 136.4 1.8 C 136.2 1.6 137.6 1.5 136.8 1.7 C 137.3 1.7 137.5 1.7 137.8 1.8 C 137.1 1.6 140.5 1.3 140.0 1.2 C 140.0 1.5 140.2 1.7 140.4 1.8 C 141.0 1.5 141.8 1.7 143.6 1.7 C 143.6 1.5 143.9 1.7 144.7 1.6 C 144.8 1.5 144.2 1.5 144.7 1.5 C 145.6 1.5 145.6 1.5 145.8 1.6 C 146.4 1.6 146.9 1.7 147.2 1.7 C 147.3 1.6 147.1 1.6 146.9 1.5 C 149.3 1.7 149.9 1.3 152.8 1.5 C 151.6 1.4 151.4 1.7 152.3 1.7 C 152.9 1.7 153.4 1.7 153.8 1.7 C 153.1 1.4 153.4 1.5 154.8 1.9 C 156.0 2.1 154.4 1.4 155.3 1.7 C 156.3 2.2 155.7 2.0 156.2 2.3 C 156.6 2.5 157.1 2.8 157.5 3.0 C 156.8 2.5 157.7 2.9 158.4 3.4 C 157.8 3.2 158.2 3.4 159.3 4.6 C 159.4 4.8 158.8 4.2 159.2 4.7 C 159.4 5.0 160.4 5.9 160.8 7.1 C 160.6 6.8 160.5 6.6 160.4 6.7 C 161.1 7.8 161.1 8.9 161.2 10.1 C 161.2 8.9 161.4 9.5 161.4 9.0 C 161.5 10.2 161.6 11.4 161.4 12.0 C 161.5 10.8 161.1 12.0 161.1 12.8 C 161.2 12.9 161.2 11.6 161.4 12.0 C 161.6 12.4 161.3 13.4 161.5 13.8 C 161.6 13.8 161.4 13.3 161.5 13.1 C 161.6 13.8 161.6 12.9 161.7 13.5 C 161.5 13.8 161.7 14.2 161.7 14.6 C 161.7 15.0 161.4 16.0 161.5 16.4 C 161.6 16.4 161.6 15.7 161.7 15.7 C 161.8 17.6 161.5 18.2 161.7 20.0 C 161.6 20.2 161.6 20.6 161.5 21.1 C 161.6 21.0 161.7 21.4 161.7 21.8 C 161.6 22.6 161.5 23.3 161.5 24.3 C 161.3 24.2 161.2 23.7 161.2 25.0 C 161.3 25.1 161.3 24.5 161.4 25.0 C 161.3 25.0 161.3 25.3 161.4 25.4 C 161.4 25.4 161.4 25.4 161.5 25.4 C 161.5 25.0 161.5 24.7 161.5 24.3 C 161.6 24.4 161.7 24.3 161.7 24.0 C 161.8 25.6 161.4 25.5 161.6 26.5 C 161.3 26.7 161.2 27.0 161.1 26.1 C 161.1 27.0 161.2 27.7 161.4 27.9 C 161.3 26.8 161.6 27.2 161.7 26.9 C 161.6 27.6 161.7 27.6 161.8 27.9 C 161.6 28.7 161.4 27.1 161.4 28.7 C 161.6 27.5 161.6 29.7 161.5 30.5 C 161.6 30.3 161.6 30.0 161.7 30.5 C 161.8 32.6 161.2 32.4 161.5 33.7 C 161.4 33.6 161.4 34.2 161.4 34.4 C 161.3 33.4 161.3 33.1 161.2 32.6 C 161.2 32.7 161.1 33.0 161.1 33.4 C 161.2 33.4 161.2 33.6 161.2 34.1 C 161.3 34.4 161.6 34.3 161.7 35.1 C 161.6 35.2 161.5 35.1 161.5 35.5 C 161.7 35.9 161.2 35.2 161.3 37.0 C 161.4 36.7 161.5 36.5 161.6 36.6 C 161.7 37.5 161.6 37.3 161.7 38.4 C 161.3 38.8 161.3 37.7 161.1 37.3 C 161.2 38.1 161.4 38.7 161.2 39.5 C 161.3 38.9 161.5 39.5 161.5 40.2 C 161.5 40.9 161.2 40.2 161.2 41.0 C 161.3 41.6 161.4 41.9 161.5 41.3 C 161.5 42.7 161.7 42.3 161.7 43.5 C 161.5 43.5 161.5 43.2 161.6 42.8 C 161.5 42.8 161.4 42.7 161.4 43.1 C 161.6 43.9 161.7 45.6 161.6 46.8 C 160.9 49.0 159.9 51.4 158.1 52.7 C 158.7 52.0 155.5 54.1 154.5 54.2 C 153.8 54.4 151.7 54.9 152.5 54.7 C 152.3 54.4 151.3 54.5 150.6 54.5 C 150.6 54.5 150.6 54.6 150.6 54.7 C 149.0 54.7 148.6 54.5 148.1 54.3 C 146.1 54.5 144.0 54.2 141.6 54.4 C 141.0 54.2 140.4 54.2 139.0 54.1 C 139.1 54.3 137.9 54.3 136.9 54.3 C 137.1 54.5 136.1 54.4 136.1 54.5 C 137.1 54.5 136.7 54.8 137.2 54.8 C 136.0 54.6 135.3 55.0 134.3 54.8 C 135.6 54.7 136.0 54.5 136.1 54.2 C 134.7 54.3 133.9 54.2 133.6 54.1 C 133.5 54.2 133.7 54.3 134.0 54.3 C 133.5 54.3 133.0 54.3 132.5 54.3 C 132.4 54.2 133.1 54.2 132.5 54.2 C 132.2 54.2 131.8 54.3 131.5 54.3 C 131.0 54.2 132.0 54.2 132.2 54.1 C 130.2 54.0 131.1 54.4 130.0 54.5 C 129.7 54.3 129.8 54.1 128.9 54.1 C 128.6 54.2 128.5 54.4 127.5 54.4 C 126.8 54.4 127.5 54.1 126.8 54.1 C 126.7 54.2 126.3 54.1 126.0 54.1 C 126.1 54.2 125.7 54.3 125.3 54.3 C 125.2 54.2 124.5 54.2 124.2 54.3 C 124.2 54.2 123.0 54.0 122.8 54.1 C 122.8 54.2 123.4 54.2 123.5 54.2 C 122.7 54.2 122.1 54.2 121.7 54.3 C 121.4 53.9 120.1 54.2 118.4 54.0 C 117.4 54.1 118.7 54.3 117.4 54.4 C 116.6 54.3 117.5 54.2 117.4 54.1 C 117.1 54.0 115.9 53.9 115.9 54.1 C 115.9 54.1 116.5 54.1 116.6 54.2 C 115.7 54.3 115.7 54.1 115.2 54.1 C 115.2 54.2 114.6 54.2 114.5 54.3 C 111.9 54.5 111.9 54.1 110.8 54.0 C 110.8 54.1 110.2 54.0 110.1 54.1 C 110.9 54.0 111.9 54.2 110.8 54.2 C 111.0 54.1 109.5 54.2 109.4 54.3 C 109.6 54.4 110.5 54.3 110.1 54.5 C 108.8 54.6 109.3 54.2 108.3 54.4 C 108.2 54.3 108.8 54.3 109.0 54.2 C 108.6 54.2 108.0 54.2 107.9 54.2 C 108.5 54.1 108.5 54.0 108.7 53.9 C 108.0 54.0 106.7 53.9 107.6 54.1 C 106.1 54.1 104.8 54.2 105.8 54.3 C 104.6 54.4 105.3 54.1 104.3 54.3 C 104.5 54.1 104.7 54.0 104.0 53.8 C 103.8 53.9 103.2 54.0 103.3 54.1 C 101.5 54.1 101.0 53.9 100.3 53.7 C 101.0 54.0 100.1 53.8 99.3 54.0 C 98.7 53.9 99.2 53.7 97.8 53.7 C 99.3 54.0 96.1 53.8 96.7 54.1 C 94.9 54.0 95.0 54.0 93.1 53.9 C 93.3 53.8 93.7 53.7 94.5 53.7 C 94.0 53.9 96.1 53.9 96.0 53.7 C 96.0 53.7 96.0 53.7 96.0 53.6 C 94.6 53.7 93.7 53.6 93.1 53.5 C 92.8 53.6 92.2 53.7 92.4 53.9 C 91.1 53.7 89.7 54.0 89.1 53.8 C 89.6 53.8 90.0 53.8 89.9 53.7 C 89.3 53.7 88.7 53.8 88.8 53.9 C 89.8 54.0 90.0 54.0 90.6 53.9 C 90.1 54.0 91.6 54.1 90.6 54.2 C 90.6 53.9 88.4 54.3 89.1 54.1 C 90.3 54.0 87.8 54.0 87.7 53.8 C 87.7 53.8 87.7 53.8 87.7 53.8 Z M 24.0 1.8 C 22.9 1.8 24.2 2.0 25.0 2.0 C 24.8 1.9 24.7 1.9 24.7 1.8 C 24.4 1.8 24.0 1.8 24.0 1.8 C 24.0 1.8 24.0 1.8 24.0 1.8 Z M 35.5 4.4 C 35.9 4.2 34.1 4.3 33.3 4.3 C 33.6 4.3 33.8 4.4 33.3 4.4 C 34.1 4.6 34.4 4.2 35.5 4.4 C 35.5 4.4 35.5 4.4 35.5 4.4 Z M 75.6 3.7 C 75.4 3.8 74.7 3.8 74.6 3.7 C 74.2 3.7 74.3 3.8 74.2 3.9 C 73.4 3.9 74.4 3.6 73.1 3.7 C 72.6 4.1 75.4 4.2 75.6 3.7 C 75.6 3.7 75.6 3.7 75.6 3.7 Z M 101.5 51.1 C 100.9 51.0 102.2 50.9 101.8 50.7 C 99.8 50.8 101.4 51.1 98.6 51.0 C 98.7 51.1 99.0 51.1 98.9 51.2 C 100.2 51.1 100.3 51.0 100.0 51.3 C 100.6 51.3 100.8 50.9 101.5 51.1 C 101.5 51.1 101.5 51.1 101.5 51.1 Z M 75.4 50.3 C 75.6 50.4 75.8 50.4 75.8 50.5 C 76.6 50.4 76.5 50.4 77.6 50.5 C 77.5 50.2 76.4 50.2 75.4 50.3 C 75.4 50.3 75.4 50.3 75.4 50.3 Z M 8.1 49.1 C 8.0 49.1 7.9 49.0 7.7 48.8 C 7.7 49.0 7.2 48.9 8.0 49.4 C 8.0 49.4 7.9 49.3 7.8 49.2 C 7.9 49.2 8.3 49.5 8.3 49.3 C 8.1 49.2 8.1 49.2 8.1 49.1 C 8.1 49.1 8.1 49.1 8.1 49.1 Z M 4.4 23.0 C 4.6 24.4 5.0 21.0 4.4 23.0 C 4.4 23.0 4.4 23.0 4.4 23.0 C 4.4 23.0 4.4 23.0 4.4 23.0 Z M 2.3 25.9 C 2.2 26.0 2.3 26.3 2.3 26.3 C 2.2 27.5 2.2 26.3 2.1 27.0 C 2.2 27.9 2.4 26.5 2.5 27.7 C 2.6 27.5 2.3 26.6 2.3 25.9 C 2.3 25.9 2.3 25.9 2.3 25.9 Z M 161.4 32.3 C 161.4 31.3 161.2 31.0 161.0 30.8 C 161.0 31.5 161.0 32.0 160.9 32.3 C 161.0 33.5 161.0 31.4 161.1 31.2 C 161.2 31.3 161.2 32.3 161.4 32.3 C 161.4 32.3 161.4 32.3 161.4 32.3 Z M 161.4 29.0 C 161.3 28.6 161.2 28.0 161.1 27.9 C 161.1 28.6 161.0 28.6 160.9 28.7 C 161.0 29.2 161.2 28.5 161.4 29.0 C 161.4 29.0 161.4 29.0 161.4 29.0 Z M 161.2 35.1 C 161.2 34.7 161.0 34.9 160.9 34.8 C 161.0 35.5 160.9 35.6 160.9 36.2 C 160.9 36.2 161.0 36.2 161.1 36.2 C 161.1 35.7 161.0 35.6 161.0 35.1 C 161.1 35.1 161.1 35.1 161.2 35.1 C 161.2 35.1 161.2 35.1 161.2 35.1 Z M 161.1 25.8 C 161.1 23.9 160.8 23.0 160.6 21.8 C 160.6 23.2 161.0 24.4 160.9 25.4 C 160.9 26.6 161.0 25.0 161.1 25.0 C 161.1 25.1 161.1 25.5 161.1 25.8 C 161.1 25.8 161.1 25.8 161.1 25.8 Z M 160.9 8.6 C 160.9 8.1 160.4 7.3 159.7 6.1 C 159.8 6.3 159.8 6.5 159.8 6.6 C 160.6 8.3 160.5 7.1 160.9 8.6 C 160.9 8.6 160.9 8.6 160.9 8.6 Z M 152.3 2.0 C 151.1 2.0 153.0 2.1 152.3 2.2 C 153.7 2.3 155.1 2.7 155.1 2.5 C 153.7 2.2 153.4 2.2 152.3 2.0 C 152.3 2.0 152.3 2.0 152.3 2.0 Z M 145.8 2.0 C 144.7 2.1 146.2 2.2 145.8 2.4 C 146.2 2.4 146.1 2.3 146.1 2.2 C 146.5 2.3 146.7 2.3 147.2 2.3 C 146.9 2.2 145.6 2.2 145.8 2.0 C 145.8 2.0 145.8 2.0 145.8 2.0 Z M 149.5 53.9 C 150.2 53.8 150.0 53.6 151.3 53.7 C 149.3 53.7 150.4 53.1 147.7 53.2 C 148.2 53.3 147.9 53.4 147.7 53.3 C 146.7 53.4 148.7 53.4 147.7 53.6 C 148.5 53.6 148.1 53.4 148.8 53.3 C 149.6 53.5 150.0 53.6 149.5 53.9 C 149.5 53.9 149.5 53.9 149.5 53.9 Z M 147.7 53.0 C 147.0 53.0 147.0 53.4 146.6 53.2 C 146.3 53.2 146.4 53.2 146.3 53.3 C 146.6 53.3 146.6 53.3 146.6 53.3 C 147.3 53.3 147.9 53.2 147.7 53.0 C 147.7 53.0 147.7 53.0 147.7 53.0 Z M 155.0 52.6 C 153.7 53.1 153.2 53.0 152.5 53.2 C 151.9 52.9 151.6 53.3 151.0 53.0 C 149.8 53.1 150.7 53.2 151.0 53.3 C 149.8 53.4 150.7 53.1 149.5 53.2 C 149.3 53.4 150.8 53.3 150.6 53.5 C 151.5 53.5 151.5 53.4 152.1 53.3 C 152.5 53.4 152.4 53.5 152.5 53.5 C 153.8 53.4 153.7 53.6 154.7 53.2 C 154.9 53.0 154.5 53.2 153.3 53.3 C 154.5 53.1 155.0 52.8 156.2 52.3 C 155.4 52.9 158.8 50.3 158.4 50.4 C 157.6 51.2 157.9 51.1 157.6 51.4 C 156.4 52.3 155.5 52.6 155.0 52.6 C 155.0 52.6 155.0 52.6 155.0 52.6 Z M 160.6 35.5 C 160.6 35.2 160.6 34.9 160.6 34.4 C 160.8 34.4 160.8 35.0 160.9 34.4 C 160.9 33.7 160.8 33.5 160.8 33.0 C 160.7 33.3 160.5 34.9 160.5 34.1 C 160.4 34.3 160.4 34.8 160.3 35.5 C 160.6 34.7 160.4 36.6 160.3 37.3 C 160.6 37.3 160.3 38.6 160.5 39.1 C 160.6 38.7 160.5 37.2 160.5 36.6 C 160.5 36.9 160.9 34.8 160.6 35.5 C 160.6 35.5 160.6 35.5 160.6 35.5 Z M 144.8 53.2 C 144.6 53.2 143.8 53.3 144.5 53.3 C 144.1 53.4 143.5 53.2 143.8 53.5 C 143.4 53.5 143.0 53.5 142.7 53.5 C 142.8 53.4 143.8 53.5 143.4 53.3 C 142.7 53.4 142.9 53.3 142.0 53.3 C 142.5 53.1 141.9 53.1 142.3 52.9 C 142.0 53.0 141.1 53.0 141.2 53.1 C 139.8 53.1 141.6 52.9 139.8 52.9 C 139.8 52.7 141.1 52.7 141.6 52.8 C 141.8 52.6 139.3 52.7 138.0 52.7 C 139.2 52.8 138.2 53.0 137.6 53.2 C 137.2 53.1 137.6 53.0 136.9 52.9 C 136.3 52.9 136.0 53.0 135.8 52.9 C 135.3 52.9 135.5 53.1 135.4 53.2 C 134.6 53.1 135.2 52.9 134.0 52.9 C 134.9 53.2 133.8 53.2 132.2 53.2 C 132.3 53.2 132.8 53.3 132.9 53.3 C 132.7 53.5 131.7 53.2 131.5 53.2 C 130.9 53.2 131.2 53.3 131.8 53.3 C 131.5 53.3 131.1 53.4 130.7 53.5 C 132.5 53.5 135.4 53.4 138.7 53.7 C 138.0 53.6 138.8 53.5 139.8 53.6 C 139.9 53.7 139.5 53.7 139.0 53.7 C 140.2 53.9 140.1 53.4 141.9 53.6 C 142.9 53.6 140.8 53.7 141.9 53.8 C 142.6 53.8 143.0 53.6 143.4 53.8 C 144.5 53.7 144.8 53.5 146.6 53.5 C 145.6 53.4 145.2 53.0 144.1 53.1 C 144.1 53.2 144.6 53.2 144.8 53.2 C 144.8 53.2 144.8 53.2 144.8 53.2 Z M 160.8 28.7 C 160.8 28.0 160.7 27.7 160.8 27.6 C 160.8 26.5 160.6 27.7 160.6 27.9 C 160.6 28.4 160.7 28.6 160.8 28.7 C 160.8 28.7 160.8 28.7 160.8 28.7 Z M 71.0 2.2 C 69.6 2.1 69.9 2.4 68.8 2.4 C 69.7 2.4 69.9 2.6 71.3 2.5 C 71.4 2.4 71.4 2.2 71.0 2.2 C 71.0 2.2 71.0 2.2 71.0 2.2 Z M 160.7 32.3 C 160.9 33.1 160.5 31.2 160.6 31.2 C 160.5 30.2 160.5 32.2 160.3 31.2 C 160.5 32.1 160.3 32.6 160.4 33.7 C 160.5 33.7 160.5 32.8 160.5 31.9 C 160.6 31.8 160.6 32.3 160.7 32.3 C 160.7 32.3 160.7 32.3 160.7 32.3 Z M 85.1 2.7 C 86.0 2.5 84.2 2.3 83.6 2.2 C 83.6 2.5 83.9 2.5 85.1 2.7 C 85.1 2.7 85.1 2.7 85.1 2.7 Z M 61.5 2.5 C 61.0 2.7 63.2 2.5 62.6 2.7 C 63.3 2.7 63.3 2.7 63.4 2.6 C 63.7 2.7 64.7 2.6 64.4 2.8 C 64.6 2.9 62.8 2.7 63.4 3.0 C 62.8 3.0 62.7 2.9 62.3 2.9 C 63.3 2.9 62.8 2.7 61.5 2.7 C 61.5 2.8 62.1 2.8 61.5 2.9 C 61.5 2.8 60.8 2.7 60.8 2.4 C 59.7 2.4 60.4 2.7 59.0 2.7 C 59.1 2.8 60.0 2.8 60.5 2.9 C 60.3 3.1 59.1 2.7 59.4 3.0 C 59.1 2.9 58.3 2.8 58.3 2.6 C 59.3 2.5 60.0 2.4 60.8 2.3 C 60.1 2.2 58.9 2.6 57.6 2.4 C 57.7 2.6 56.9 2.5 57.2 2.7 C 56.2 2.7 56.6 2.4 56.9 2.4 C 56.6 2.3 54.5 2.4 54.7 2.5 C 54.5 2.4 52.1 2.4 52.2 2.7 C 51.4 2.5 50.3 2.8 50.0 2.5 C 49.6 2.6 48.7 2.6 47.8 2.6 C 47.5 2.8 49.1 2.7 49.2 2.8 C 49.5 3.0 47.5 2.8 47.8 3.0 C 47.8 3.0 47.8 3.0 47.8 3.1 C 48.5 3.0 49.3 3.0 50.0 2.9 C 50.5 2.9 49.8 3.0 50.0 3.1 C 50.5 3.0 52.8 2.7 52.9 3.1 C 54.4 3.0 55.5 3.0 56.2 2.9 C 57.1 2.9 55.6 3.0 56.2 3.1 C 58.9 2.9 62.2 3.2 64.4 2.9 C 64.9 2.9 64.8 3.0 64.8 3.1 C 67.9 3.0 65.3 2.8 67.7 2.8 C 67.7 3.0 66.5 3.0 66.6 3.1 C 67.5 3.1 67.7 3.0 68.8 3.1 C 68.8 3.0 68.8 2.9 68.8 2.8 C 69.7 2.8 69.4 3.1 69.9 3.1 C 71.0 3.1 70.7 3.0 71.3 3.2 C 72.4 3.1 73.5 3.0 74.6 3.1 C 75.3 3.0 73.9 2.7 72.8 2.7 C 72.8 2.7 73.1 2.7 73.1 2.6 C 74.5 2.8 74.7 3.1 76.7 3.1 C 75.2 2.9 77.5 3.0 77.8 3.2 C 78.7 3.2 78.0 2.9 77.5 3.0 C 77.6 2.9 78.1 3.0 78.2 3.0 C 78.3 2.7 76.3 2.6 74.2 2.7 C 75.2 2.4 72.8 2.7 73.8 2.4 C 72.2 2.4 73.6 2.6 71.7 2.6 C 71.9 2.7 72.2 2.7 72.4 2.8 C 71.0 2.9 71.4 2.6 69.9 2.7 C 69.6 2.8 70.6 2.8 70.6 2.9 C 68.9 2.7 68.4 2.7 67.3 2.5 C 67.1 2.6 67.4 2.8 65.5 2.7 C 65.5 2.6 65.5 2.6 65.5 2.5 C 66.4 2.6 66.6 2.2 64.4 2.2 C 64.3 2.4 65.0 2.4 65.5 2.4 C 65.3 2.5 64.6 2.5 63.7 2.5 C 63.3 2.5 62.8 2.4 63.4 2.4 C 63.0 2.3 62.7 2.6 61.5 2.5 C 61.5 2.5 61.5 2.5 61.5 2.5 Z M 160.7 10.9 C 160.7 10.7 160.7 10.3 160.6 9.6 C 160.4 9.3 160.5 10.5 160.4 10.5 C 160.4 11.5 160.6 10.8 160.7 10.9 C 160.7 10.9 160.7 10.9 160.7 10.9 Z M 160.6 21.0 C 160.7 21.0 160.5 20.5 160.6 19.6 C 160.4 19.4 160.5 20.3 160.3 20.3 C 160.3 21.3 160.6 20.1 160.6 21.0 C 160.6 21.0 160.6 21.0 160.6 21.0 Z M 160.6 16.7 C 160.8 16.3 160.5 16.3 160.5 17.1 C 160.4 17.0 160.3 16.9 160.3 16.4 C 160.1 16.9 160.4 17.2 160.3 18.2 C 160.5 17.8 160.5 17.3 160.6 16.7 C 160.6 16.7 160.6 16.7 160.6 16.7 Z M 160.6 15.3 C 160.5 14.7 160.6 14.4 160.5 13.5 C 160.4 13.7 160.5 15.7 160.5 16.0 C 160.7 16.3 160.7 14.2 160.6 15.3 C 160.6 15.3 160.6 15.3 160.6 15.3 Z M 99.5 2.9 C 99.2 2.9 99.2 3.0 99.2 3.0 C 98.0 2.7 96.5 2.8 97.7 2.5 C 96.5 2.7 95.5 2.5 94.5 2.4 C 93.6 2.4 94.0 2.6 93.4 2.6 C 92.3 2.6 93.9 2.5 93.7 2.4 C 93.5 2.3 93.2 2.6 91.9 2.5 C 92.3 2.8 90.8 2.5 91.2 2.8 C 90.5 2.7 90.3 2.8 89.4 2.8 C 89.5 2.9 90.4 2.9 90.5 3.0 C 90.9 3.2 91.0 2.8 90.1 2.9 C 90.6 2.7 91.9 3.0 92.3 2.8 C 92.7 3.0 91.1 2.9 91.6 3.1 C 91.9 3.0 92.2 3.0 92.3 3.0 C 92.8 3.0 93.2 3.0 93.4 3.1 C 93.1 3.1 93.0 3.1 93.0 3.1 C 92.3 3.1 93.7 3.4 92.3 3.4 C 92.5 3.4 93.1 3.4 93.0 3.6 C 93.4 3.7 93.0 3.1 94.5 3.3 C 95.4 3.1 92.2 3.1 93.0 2.7 C 95.0 2.8 93.9 3.0 95.5 3.1 C 95.5 3.0 95.5 2.9 95.9 2.9 C 95.8 2.8 95.2 2.8 94.8 2.8 C 94.9 2.8 95.5 2.8 95.9 2.8 C 95.8 2.7 95.5 2.7 95.5 2.7 C 96.9 2.7 96.8 3.1 95.5 3.2 C 95.6 3.4 97.2 3.3 97.7 3.3 C 97.2 3.1 97.7 3.1 97.4 3.0 C 97.0 3.0 97.1 3.0 97.0 3.1 C 96.3 3.0 96.9 3.0 97.0 2.9 C 97.7 2.9 97.7 3.1 98.4 3.0 C 98.2 3.0 98.1 3.1 98.1 3.1 C 98.4 3.1 98.8 3.1 99.2 3.1 C 99.1 3.0 99.6 3.0 99.5 2.9 C 99.5 2.9 99.5 2.9 99.5 2.9 Z M 80.7 2.4 C 79.5 2.4 80.2 2.5 80.7 2.5 C 80.5 2.6 80.0 2.6 79.6 2.7 C 80.0 2.7 80.3 2.7 81.4 2.7 C 80.4 3.0 81.5 3.3 83.3 3.3 C 83.8 2.9 82.3 2.9 82.9 2.7 C 81.6 2.8 80.9 2.6 80.7 2.4 C 80.7 2.4 80.7 2.4 80.7 2.4 Z M 160.5 27.9 C 160.5 27.2 160.5 26.5 160.5 25.8 C 160.4 25.8 160.2 28.1 160.5 27.9 C 160.5 27.9 160.5 27.9 160.5 27.9 Z M 129.3 53.2 C 129.0 53.2 129.0 53.2 128.9 53.2 C 127.9 53.2 129.4 53.3 128.9 53.5 C 129.3 53.5 129.7 53.5 130.0 53.5 C 130.1 53.4 128.5 53.3 129.7 53.2 C 129.6 53.2 129.3 53.2 129.3 53.2 C 129.3 53.2 129.3 53.2 129.3 53.2 Z M 160.5 11.7 C 160.4 11.0 160.3 11.6 160.2 9.7 C 160.1 10.3 160.1 10.8 160.2 11.7 C 160.3 11.7 160.4 11.7 160.5 11.7 C 160.5 11.7 160.5 11.7 160.5 11.7 Z M 104.9 2.6 C 104.0 2.4 103.8 2.8 102.0 2.7 C 102.9 3.0 103.9 2.7 104.9 2.6 C 104.9 2.6 104.9 2.6 104.9 2.6 Z M 44.9 2.9 C 45.4 3.0 44.8 3.0 45.6 3.1 C 46.1 3.0 46.4 2.9 47.1 2.9 C 46.1 2.7 44.2 2.9 43.5 2.6 C 42.6 2.6 42.7 2.8 42.4 3.0 C 42.8 2.9 43.0 3.0 43.1 3.0 C 43.6 2.8 44.3 3.2 44.9 2.9 C 44.9 2.9 44.9 2.9 44.9 2.9 Z M 85.4 2.7 C 86.1 2.8 84.9 2.9 84.7 3.0 C 84.2 3.0 84.4 2.9 84.3 2.8 C 83.7 2.8 83.5 2.9 83.6 3.0 C 84.8 3.1 86.3 3.1 85.4 3.3 C 86.6 3.4 85.9 3.1 86.5 3.1 C 87.1 3.2 86.5 3.2 86.5 3.4 C 86.8 3.4 87.7 3.2 87.6 3.4 C 89.3 3.2 88.5 2.9 87.2 2.6 C 86.1 2.8 87.4 2.9 85.4 2.7 C 85.4 2.7 85.4 2.7 85.4 2.7 Z M 131.3 2.9 C 131.2 2.8 130.6 2.9 130.6 2.8 C 129.8 2.9 129.1 3.1 128.4 3.3 C 128.6 3.5 129.6 3.3 129.1 3.2 C 129.5 3.3 130.2 3.4 130.6 3.5 C 131.3 3.5 131.6 3.1 131.7 3.4 C 132.4 3.3 132.0 3.3 133.1 3.4 C 131.3 3.2 133.8 3.3 133.9 3.1 C 132.8 3.1 131.9 3.1 132.0 3.3 C 131.3 3.2 130.4 3.1 130.2 3.0 C 130.3 2.9 130.9 2.9 131.3 2.9 C 131.3 2.9 131.3 2.9 131.3 2.9 Z M 127.0 3.4 C 127.3 3.4 127.6 3.4 128.1 3.4 C 127.8 3.3 127.7 3.2 127.7 3.1 C 126.8 3.1 126.6 3.3 126.3 3.1 C 125.4 3.1 126.5 3.3 125.2 3.3 C 125.3 3.3 125.9 3.3 125.9 3.4 C 126.0 3.2 126.5 3.2 127.0 3.4 C 127.0 3.4 127.0 3.4 127.0 3.4 Z M 115.8 3.1 C 114.8 3.1 116.3 3.2 115.8 3.3 C 116.0 3.3 117.8 3.3 117.6 3.5 C 118.1 3.7 119.9 3.2 119.8 3.6 C 120.2 3.5 120.1 3.4 120.1 3.4 C 118.9 3.4 118.9 3.3 119.8 3.3 C 119.6 3.2 118.9 3.2 118.3 3.2 C 118.3 3.3 118.8 3.3 118.7 3.4 C 117.6 3.3 116.8 3.2 115.8 3.1 C 115.8 3.1 115.8 3.1 115.8 3.1 Z M 89.9 52.9 C 90.7 52.9 91.3 52.9 91.7 52.8 C 91.4 52.7 91.0 52.8 90.6 52.8 C 90.5 52.7 90.9 52.7 91.3 52.7 C 90.9 52.5 89.4 52.7 89.9 52.9 C 89.9 52.9 89.9 52.9 89.9 52.9 Z M 97.1 52.9 C 97.9 52.9 98.5 52.9 98.6 52.7 C 98.2 52.6 98.4 52.8 97.8 52.8 C 97.5 52.8 97.3 52.7 97.1 52.6 C 96.8 52.6 96.8 52.7 96.7 52.7 C 96.5 52.8 96.4 52.7 96.4 52.7 C 95.4 52.9 97.5 52.7 97.1 52.9 C 97.1 52.9 97.1 52.9 97.1 52.9 Z M 121.9 3.2 C 122.2 3.3 122.5 3.4 123.4 3.4 C 123.2 3.2 123.9 3.3 124.5 3.3 C 123.6 3.1 123.2 3.2 121.9 3.2 C 121.9 3.2 121.9 3.2 121.9 3.2 Z M 142.3 52.7 C 143.4 52.9 143.3 52.6 144.8 52.7 C 144.8 52.7 144.8 52.6 144.8 52.6 C 143.9 52.7 143.5 52.6 142.3 52.7 C 142.3 52.7 142.3 52.7 142.3 52.7 Z M 3.3 38.2 C 3.4 38.3 3.3 37.2 3.4 37.1 C 3.1 36.9 3.6 36.3 3.6 34.2 C 3.6 34.2 3.7 34.3 3.7 34.6 C 3.7 32.9 3.5 35.1 3.3 35.3 C 3.4 36.6 3.2 36.9 3.3 38.2 C 3.3 38.2 3.3 38.2 3.3 38.2 Z M 55.8 3.4 C 55.8 3.4 55.6 3.4 55.4 3.4 C 55.2 3.4 54.9 3.4 54.7 3.4 C 54.8 3.6 56.0 3.7 55.1 4.0 C 55.4 4.0 55.4 4.0 55.4 3.9 C 57.2 3.4 58.5 4.3 60.8 3.9 C 61.2 3.9 61.1 3.8 61.2 3.8 C 60.9 3.8 60.9 3.8 60.8 3.7 C 60.6 4.0 58.5 3.7 59.4 3.6 C 59.3 3.5 59.0 3.6 59.0 3.6 C 58.8 3.6 58.5 3.6 58.3 3.6 C 58.4 3.7 58.9 3.7 59.0 3.8 C 57.9 3.7 56.5 3.7 57.2 3.4 C 56.5 3.5 56.3 3.6 55.8 3.6 C 55.3 3.6 55.3 3.4 55.8 3.4 C 55.8 3.4 55.8 3.4 55.8 3.4 Z M 46.4 3.5 C 45.3 3.5 45.7 3.7 44.6 3.6 C 45.3 3.8 46.1 3.5 47.1 3.7 C 47.0 3.6 46.5 3.6 46.4 3.5 C 46.4 3.5 46.4 3.5 46.4 3.5 Z M 67.3 3.7 C 67.1 4.0 68.1 4.0 69.2 4.0 C 69.4 3.8 68.4 3.7 67.3 3.7 C 67.3 3.7 67.3 3.7 67.3 3.7 Z M 62.6 3.7 C 61.6 3.8 64.0 3.8 63.4 4.0 C 63.9 4.0 64.4 4.0 64.4 4.0 C 64.8 4.0 64.8 3.9 65.5 3.9 C 65.5 3.8 64.3 3.9 64.4 3.7 C 63.6 3.9 63.5 3.9 62.6 3.7 C 62.6 3.7 62.6 3.7 62.6 3.7 Z M 61.9 3.7 C 61.2 3.8 62.1 4.1 63.0 4.1 C 62.7 4.0 62.5 3.8 61.9 3.7 C 61.9 3.7 61.9 3.7 61.9 3.7 Z M 146.5 3.8 C 146.0 3.8 146.4 4.0 145.8 4.0 C 145.8 4.1 147.9 4.1 146.1 4.1 C 146.8 4.3 147.2 4.0 148.0 4.0 C 147.7 4.0 147.5 3.9 148.0 3.9 C 148.2 3.8 146.2 4.0 146.5 3.8 C 146.5 3.8 146.5 3.8 146.5 3.8 Z M 144.3 3.8 C 143.9 3.8 144.1 3.9 144.3 3.9 C 144.3 3.9 143.7 3.9 143.2 3.9 C 143.2 3.8 144.0 4.2 144.0 4.3 C 145.8 4.2 144.4 4.0 144.3 3.8 C 144.3 3.8 144.3 3.8 144.3 3.8 Z M 142.5 3.9 C 141.3 3.8 139.7 3.8 138.9 4.0 C 139.8 4.2 142.0 4.2 142.5 3.9 C 142.5 3.9 142.5 3.9 142.5 3.9 Z M 154.5 4.3 C 152.5 3.4 148.0 4.1 151.9 4.2 C 151.8 4.1 154.4 4.2 155.4 4.9 C 155.5 4.8 156.7 5.4 156.6 5.5 C 157.4 6.0 154.0 4.0 154.5 4.3 C 154.5 4.3 154.5 4.3 154.5 4.3 Z M 137.5 4.3 C 138.1 4.2 137.3 3.9 138.2 4.0 C 138.7 4.0 138.1 4.0 138.2 3.9 C 137.1 3.9 134.8 4.1 134.6 3.9 C 134.0 3.9 133.8 4.1 132.8 4.0 C 132.7 4.1 136.6 3.9 137.5 4.2 C 137.4 4.3 136.0 4.3 137.5 4.3 C 137.5 4.3 137.5 4.3 137.5 4.3 Z M 142.3 51.7 C 142.2 51.8 143.7 51.7 143.4 51.9 C 144.2 51.7 145.0 51.8 145.9 51.7 C 146.2 51.7 146.1 52.0 147.3 52.0 C 147.4 51.9 146.8 51.9 147.3 51.8 C 148.5 51.8 148.2 52.0 149.5 51.9 C 149.3 51.6 152.4 51.8 152.1 51.5 C 151.4 51.6 151.4 51.7 150.2 51.7 C 149.9 51.6 150.0 51.5 149.5 51.5 C 149.9 51.4 150.5 51.6 151.0 51.5 C 150.9 51.4 150.0 51.4 149.9 51.2 C 149.4 51.3 150.0 51.3 149.9 51.4 C 148.5 51.5 150.0 51.0 148.4 51.1 C 148.8 51.2 148.8 51.2 148.4 51.4 C 147.8 51.3 146.0 51.5 147.0 51.2 C 146.9 51.1 145.8 51.3 145.9 51.4 C 145.3 51.4 145.2 51.4 145.2 51.3 C 143.6 51.4 143.4 51.5 143.8 51.7 C 143.4 51.9 143.2 51.6 142.3 51.7 C 142.3 51.7 142.3 51.7 142.3 51.7 Z M 159.0 13.8 C 159.1 14.7 158.9 12.9 159.0 12.0 C 158.9 13.0 158.7 12.7 158.7 13.8 C 158.7 13.4 158.8 13.5 158.8 14.2 C 158.9 14.4 158.9 12.8 159.0 13.8 C 159.0 13.8 159.0 13.8 159.0 13.8 Z M 130.6 4.0 C 130.2 3.9 128.3 4.0 127.4 4.0 C 127.5 4.3 129.9 3.9 130.2 4.2 C 130.8 4.1 129.9 4.1 130.6 4.0 C 130.6 4.0 130.6 4.0 130.6 4.0 Z M 155.8 50.9 C 156.1 50.7 155.9 50.8 155.8 50.8 C 155.8 50.7 156.4 50.3 156.8 49.9 C 156.2 50.4 156.8 49.7 156.6 49.7 C 156.8 49.4 156.9 49.3 157.0 49.2 C 157.2 49.4 158.0 47.6 156.8 49.0 C 157.1 48.9 157.1 49.0 156.5 49.6 C 155.8 50.2 155.2 50.6 154.9 50.6 C 154.4 50.9 154.2 51.1 153.4 51.2 C 153.2 51.1 152.5 51.1 153.0 50.8 C 151.7 51.0 152.6 51.3 151.3 51.3 C 150.1 51.2 152.0 51.1 151.7 50.9 C 151.4 50.9 151.4 50.9 151.3 50.8 C 150.9 50.8 150.9 51.0 151.3 51.0 C 151.2 51.1 149.9 51.2 150.3 51.0 C 149.5 51.1 151.5 51.6 152.4 51.4 C 153.0 51.3 153.0 51.7 152.4 51.7 C 152.6 51.8 153.7 51.3 153.5 51.7 C 154.0 51.6 154.4 51.5 154.8 51.3 C 154.8 51.3 154.5 51.3 154.5 51.3 C 154.9 51.1 155.3 50.9 155.7 50.7 C 155.4 51.0 155.4 51.0 155.8 50.9 C 155.8 50.9 155.8 50.9 155.8 50.9 Z M 135.3 4.1 C 134.4 4.1 134.2 4.2 133.5 4.2 C 133.8 4.4 135.7 4.3 135.3 4.1 C 135.3 4.1 135.3 4.1 135.3 4.1 Z M 136.1 51.1 C 136.2 51.2 136.9 51.2 136.9 51.2 C 135.8 51.3 137.0 51.4 136.1 51.7 C 137.6 51.6 138.1 51.1 136.1 51.0 C 134.7 51.0 137.6 51.1 136.1 51.1 C 136.1 51.1 136.1 51.1 136.1 51.1 Z M 140.5 51.2 C 141.4 51.2 139.2 51.1 138.7 51.0 C 138.7 50.9 138.7 50.9 138.7 50.8 C 137.4 51.1 139.1 51.2 138.0 51.5 C 139.4 51.6 140.0 51.7 141.2 51.6 C 141.1 51.5 140.9 51.6 140.9 51.6 C 139.9 51.6 140.6 51.3 141.6 51.4 C 141.3 51.3 140.4 51.3 139.8 51.3 C 139.9 51.3 140.2 51.4 140.1 51.5 C 139.3 51.5 139.6 51.4 139.1 51.4 C 139.1 51.3 140.5 51.1 140.5 51.2 C 140.5 51.2 140.5 51.2 140.5 51.2 Z M 69.3 51.5 C 70.0 51.5 68.5 51.3 68.6 51.0 C 67.8 51.0 67.6 51.0 67.1 51.1 C 67.4 51.2 68.2 51.2 68.6 51.3 C 68.4 51.5 67.4 51.3 67.1 51.4 C 66.7 51.7 69.0 51.3 69.3 51.5 C 69.3 51.5 69.3 51.5 69.3 51.5 Z M 158.6 35.1 C 158.6 34.8 158.5 35.0 158.5 35.1 C 158.5 35.1 158.5 34.4 158.5 34.4 C 158.5 33.9 158.4 34.8 158.4 34.1 C 158.3 34.0 158.4 35.1 158.5 35.1 C 158.5 36.0 158.3 35.3 158.2 35.5 C 158.2 36.2 158.3 36.0 158.3 37.0 C 158.4 36.4 158.5 35.9 158.6 35.1 C 158.6 35.1 158.6 35.1 158.6 35.1 Z M 133.6 51.5 C 133.5 51.6 134.5 51.2 135.4 51.4 C 136.7 51.4 134.7 51.2 135.8 51.2 C 134.8 51.1 133.7 51.3 132.2 51.3 C 131.8 51.4 134.2 51.3 132.9 51.4 C 133.0 51.5 133.3 51.5 133.3 51.4 C 133.6 51.4 133.6 51.4 133.6 51.5 C 133.6 51.5 133.6 51.5 133.6 51.5 Z M 135.1 51.1 C 135.0 51.0 134.7 51.0 134.7 51.1 C 134.2 51.1 134.2 50.9 134.7 50.9 C 134.1 50.7 134.1 51.1 132.9 50.9 C 133.4 51.1 133.7 51.2 132.5 51.1 C 131.6 51.2 134.7 51.2 135.1 51.1 C 135.1 51.1 135.1 51.1 135.1 51.1 Z M 80.8 51.4 C 80.7 51.3 80.0 51.4 79.4 51.4 C 80.1 51.2 83.0 51.3 83.4 51.4 C 83.7 51.4 84.0 51.3 84.1 51.4 C 84.1 51.4 84.9 51.3 84.5 51.2 C 84.5 51.2 85.2 51.2 85.2 51.1 C 86.3 51.2 84.9 51.2 85.2 51.4 C 86.5 51.2 86.2 51.3 87.7 51.4 C 87.5 51.2 85.8 51.2 85.9 51.0 C 84.7 51.2 83.4 51.1 82.7 50.9 C 83.8 51.2 79.6 51.3 77.6 51.2 C 77.7 51.1 77.0 51.2 76.1 51.1 C 75.6 50.9 75.8 51.3 76.9 51.2 C 76.8 51.3 75.3 51.2 74.7 51.2 C 75.4 51.3 75.0 51.4 75.4 51.5 C 76.8 51.5 75.5 51.4 75.8 51.3 C 76.1 51.3 76.5 51.3 76.9 51.3 C 75.0 51.6 79.6 51.3 77.9 51.4 C 79.4 51.3 79.5 51.5 80.8 51.4 C 80.8 51.4 80.8 51.4 80.8 51.4 Z M 114.8 51.5 C 115.1 51.5 116.2 51.3 116.3 51.5 C 117.7 51.3 116.4 51.2 118.1 51.2 C 118.0 51.1 117.4 51.1 117.4 51.1 C 116.7 51.1 116.1 51.2 116.3 51.4 C 115.5 51.3 115.3 51.4 114.8 51.4 C 115.0 51.3 115.3 51.3 115.9 51.3 C 116.0 51.1 115.8 51.0 114.8 51.1 C 114.4 51.2 114.7 51.4 114.8 51.5 C 114.8 51.5 114.8 51.5 114.8 51.5 Z M 118.4 51.2 C 118.6 51.3 118.8 51.3 118.8 51.4 C 119.3 51.6 119.0 51.2 119.5 51.2 C 120.0 51.2 119.8 51.3 119.9 51.4 C 120.5 51.3 121.0 51.3 121.3 51.4 C 122.3 51.3 120.2 51.2 119.9 51.1 C 119.2 51.1 119.4 51.3 118.4 51.2 C 118.4 51.2 118.4 51.2 118.4 51.2 Z M 129.3 51.4 C 129.5 51.6 129.9 51.3 130.4 51.4 C 130.0 51.2 129.0 51.3 129.7 51.1 C 128.6 51.0 128.5 51.0 127.5 51.1 C 126.8 50.9 127.4 51.2 128.6 51.1 C 128.4 51.2 127.9 51.2 127.9 51.3 C 127.2 50.9 125.3 51.5 126.4 51.2 C 126.7 51.3 126.9 51.4 127.1 51.4 C 127.4 51.3 129.8 51.3 129.3 51.4 C 129.3 51.4 129.3 51.4 129.3 51.4 Z M 158.2 42.8 C 158.3 44.2 158.3 44.3 158.2 45.6 C 158.2 45.7 158.1 45.5 158.1 45.3 C 158.1 45.6 158.1 46.0 158.0 46.5 C 158.1 46.5 158.1 46.2 158.0 46.2 C 158.3 45.3 158.2 46.1 158.3 46.3 C 158.7 45.0 158.2 43.7 158.5 43.1 C 158.4 42.6 158.4 43.2 158.2 42.8 C 158.2 42.8 158.2 42.8 158.2 42.8 Z M 4.8 39.6 C 4.7 39.4 4.7 38.8 4.6 38.9 C 4.6 39.5 4.7 39.8 4.7 40.4 C 4.8 39.4 5.0 39.5 5.0 38.2 C 4.9 38.6 4.7 38.5 4.8 39.6 C 4.8 39.6 4.8 39.6 4.8 39.6 Z M 125.7 51.4 C 125.6 51.3 125.6 51.2 126.0 51.2 C 126.2 51.0 125.0 51.1 125.0 51.0 C 124.6 51.0 124.7 51.1 124.2 51.1 C 124.4 51.2 125.4 51.2 125.0 51.4 C 124.6 51.4 124.6 51.3 124.6 51.3 C 123.8 51.4 125.0 51.4 125.7 51.4 C 125.7 51.4 125.7 51.4 125.7 51.4 Z M 65.7 51.4 C 66.2 51.3 65.7 51.3 65.3 51.2 C 66.4 51.1 64.7 51.0 64.6 50.8 C 65.0 50.9 66.5 50.8 66.7 50.9 C 67.2 50.8 66.7 50.7 67.8 50.6 C 67.7 50.5 66.4 50.6 66.7 50.8 C 66.4 50.5 65.2 50.8 65.3 50.6 C 63.7 50.5 63.3 50.7 63.1 50.9 C 64.7 50.8 63.9 51.1 65.3 51.1 C 65.3 51.1 64.9 51.1 64.6 51.1 C 64.7 51.2 65.3 51.3 65.7 51.4 C 65.7 51.4 65.7 51.4 65.7 51.4 Z M 103.3 51.4 C 104.1 51.4 104.0 51.2 104.0 51.1 C 103.7 51.1 103.2 51.1 102.5 51.1 C 102.7 51.2 103.7 51.2 103.3 51.4 C 103.3 51.4 103.3 51.4 103.3 51.4 Z M 71.5 51.1 C 71.5 51.2 71.8 51.2 71.8 51.1 C 72.7 51.1 72.9 51.2 73.3 51.3 C 73.8 51.3 73.6 51.2 73.6 51.1 C 72.8 51.2 72.9 51.0 71.8 51.0 C 71.9 51.1 71.7 51.1 71.5 51.1 C 71.5 51.1 71.5 51.1 71.5 51.1 Z M 95.7 51.2 C 96.1 51.2 95.9 51.2 95.7 51.2 C 96.2 51.0 97.7 51.2 98.2 51.1 C 98.3 50.9 96.5 50.9 98.6 50.9 C 98.2 50.7 96.3 50.9 95.3 50.8 C 95.5 50.7 96.8 50.7 96.8 50.5 C 95.6 50.6 94.4 50.7 94.2 50.9 C 95.9 51.0 95.3 51.1 95.7 51.2 C 95.7 51.2 95.7 51.2 95.7 51.2 Z M 93.9 51.1 C 94.0 51.2 94.3 51.1 94.9 51.1 C 94.1 50.9 93.5 51.0 91.7 50.9 C 91.7 51.0 91.7 51.0 91.7 51.1 C 91.3 51.1 91.0 51.1 90.6 51.1 C 92.2 51.3 92.6 51.1 94.2 51.1 C 94.3 51.1 94.1 51.1 93.9 51.1 C 93.9 51.1 93.9 51.1 93.9 51.1 Z M 142.3 51.1 C 141.8 51.0 141.4 50.9 140.5 50.9 C 140.6 51.1 141.1 51.1 142.3 51.1 C 142.3 51.1 142.3 51.1 142.3 51.1 Z M 70.0 51.0 C 69.0 51.1 71.0 51.0 70.4 50.8 C 69.6 50.7 68.7 50.7 68.6 50.5 C 67.1 50.8 70.2 50.8 70.0 51.0 C 70.0 51.0 70.0 51.0 70.0 51.0 Z M 76.5 50.6 C 76.9 50.6 76.9 50.9 76.5 50.7 C 75.5 50.7 77.4 50.9 75.8 50.8 C 76.5 50.9 78.0 51.0 78.7 50.9 C 78.7 50.7 77.3 50.8 77.2 50.6 C 77.2 50.6 77.4 50.6 77.6 50.6 C 77.5 50.5 77.1 50.6 76.5 50.6 C 76.5 50.6 76.5 50.6 76.5 50.6 Z M 81.9 50.9 C 81.3 50.8 80.6 50.7 79.4 50.7 C 80.2 50.8 80.7 51.0 81.9 50.9 C 81.9 50.9 81.9 50.9 81.9 50.9 Z M 13.6 50.6 C 14.5 50.6 13.7 50.4 13.6 50.4 C 12.7 50.4 12.8 50.5 11.8 50.5 C 12.1 50.7 13.1 50.4 13.6 50.6 C 13.6 50.6 13.6 50.6 13.6 50.6 Z M 10.4 50.5 C 10.4 50.4 9.4 50.3 9.4 50.2 C 8.7 50.4 8.2 49.4 8.1 49.7 C 7.9 49.5 7.8 49.4 7.5 49.2 C 7.8 49.9 9.6 50.5 10.4 50.5 C 10.4 50.5 10.4 50.5 10.4 50.5 Z M 88.1 50.5 C 89.0 50.6 87.8 50.2 88.8 50.3 C 88.9 50.2 87.0 50.2 88.1 50.1 C 86.6 50.0 88.2 50.5 88.1 50.5 C 88.1 50.5 88.1 50.5 88.1 50.5 Z M 105.8 50.3 C 105.7 50.5 107.1 50.4 107.6 50.4 C 107.6 50.3 107.2 50.4 106.9 50.3 C 107.0 50.3 107.2 50.2 107.6 50.2 C 107.3 50.1 106.3 50.3 105.8 50.3 C 105.8 50.3 105.8 50.3 105.8 50.3 Z M 86.3 53.6 C 85.7 53.5 84.9 53.3 84.5 53.6 C 83.8 53.4 84.9 53.4 84.1 53.3 C 83.1 53.4 83.6 53.2 81.9 53.3 C 82.2 53.1 81.0 53.1 80.8 52.9 C 81.5 52.9 82.4 53.1 82.7 52.9 C 82.1 52.9 82.4 52.8 82.7 52.9 C 83.8 53.0 81.3 53.1 82.7 53.2 C 83.1 53.0 85.0 53.4 86.3 53.4 C 85.8 53.5 87.2 53.6 86.3 53.6 C 86.3 53.6 86.3 53.6 86.3 53.6 Z M 79.8 53.3 C 78.9 53.3 78.4 52.9 78.7 52.9 C 78.7 53.0 79.7 53.0 79.8 52.9 C 79.5 52.9 79.3 52.9 79.4 52.9 C 81.0 52.9 80.4 53.0 80.8 53.2 C 80.0 53.2 79.7 53.1 79.4 53.2 C 79.6 53.2 79.8 53.2 79.8 53.3 C 79.8 53.3 79.8 53.3 79.8 53.3 Z M 60.6 50.3 C 60.8 50.4 61.0 50.3 61.3 50.2 C 61.4 50.5 63.2 50.1 63.5 50.3 C 63.1 50.4 62.1 50.4 61.7 50.5 C 62.2 50.5 62.3 50.5 62.8 50.5 C 62.7 50.6 61.6 50.6 61.3 50.8 C 61.2 50.6 60.7 50.8 60.6 50.7 C 62.0 50.6 59.8 50.3 60.6 50.3 C 60.6 50.3 60.6 50.3 60.6 50.3 Z M 96.4 50.3 C 96.5 50.1 95.0 49.7 96.4 49.4 C 96.7 49.6 96.9 49.8 96.8 50.0 C 97.7 49.9 98.0 50.0 98.6 49.9 C 100.2 50.4 97.3 49.8 96.4 50.3 C 96.4 50.3 96.4 50.3 96.4 50.3 Z M 102.2 50.1 C 101.9 50.3 102.7 50.3 102.5 50.4 C 101.8 50.3 99.6 50.5 100.4 50.3 C 101.1 50.3 101.1 50.1 102.2 50.1 C 102.2 50.1 102.2 50.1 102.2 50.1 Z M 109.3 4.3 C 110.4 4.1 111.0 4.5 110.4 4.6 C 110.6 4.4 108.9 4.5 109.3 4.3 C 109.3 4.3 109.3 4.3 109.3 4.3 Z M 151.2 1.4 C 150.2 1.3 149.6 1.4 149.4 1.2 C 150.4 1.2 150.3 1.3 151.2 1.3 C 151.3 1.2 151.8 1.1 151.9 1.2 C 151.4 1.2 151.5 1.3 151.2 1.4 C 151.2 1.4 151.2 1.4 151.2 1.4 Z M 124.2 54.4 C 124.3 54.4 124.8 54.5 124.6 54.6 C 123.5 54.5 122.3 54.7 121.3 54.8 C 121.3 54.7 121.3 54.6 121.3 54.5 C 123.1 54.6 123.5 54.5 124.2 54.4 C 124.2 54.4 124.2 54.4 124.2 54.4 Z M 126.4 54.7 C 126.6 54.6 126.0 54.4 126.8 54.4 C 126.7 54.6 128.1 54.8 127.5 54.8 C 127.3 54.7 126.9 54.7 126.4 54.7 C 126.4 54.7 126.4 54.7 126.4 54.7 Z M 65.7 53.8 C 64.8 53.8 66.1 53.9 66.0 54.0 C 65.4 54.0 64.5 54.0 64.2 53.9 C 64.9 53.9 65.3 53.6 65.7 53.8 C 65.7 53.8 65.7 53.8 65.7 53.8 Z M 79.0 53.3 C 80.9 53.3 80.1 53.6 81.9 53.7 C 81.2 53.8 79.5 53.8 79.0 53.9 C 79.1 53.8 78.7 53.8 78.7 53.7 C 79.4 53.7 79.5 53.8 80.1 53.8 C 79.9 53.6 79.9 53.6 80.1 53.5 C 79.6 53.5 79.3 53.5 79.0 53.5 C 79.2 53.4 78.5 53.4 79.0 53.3 C 79.0 53.3 79.0 53.3 79.0 53.3 Z M 66.0 53.3 C 65.3 53.3 64.7 53.1 65.3 53.1 C 65.4 53.2 65.9 53.1 66.0 53.2 C 65.0 53.2 66.9 53.3 66.4 53.4 C 65.8 53.4 65.5 53.5 65.7 53.6 C 65.3 53.6 64.6 53.6 64.6 53.5 C 64.9 53.5 65.3 53.5 65.3 53.5 C 65.1 53.5 64.9 53.5 64.9 53.4 C 65.6 53.4 65.9 53.4 66.0 53.3 C 66.0 53.3 66.0 53.3 66.0 53.3 Z M 71.1 53.3 C 70.1 53.3 70.0 53.1 69.6 53.0 C 71.0 53.0 71.2 53.3 72.2 53.4 C 71.1 53.4 70.0 53.6 69.6 53.5 C 70.1 53.4 71.0 53.4 71.1 53.3 C 71.1 53.3 71.1 53.3 71.1 53.3 Z M 15.3 3.1 C 16.1 3.2 16.8 3.3 17.8 3.4 C 18.1 3.2 16.4 2.8 17.1 3.0 C 18.1 2.9 17.4 3.2 18.2 3.2 C 17.4 2.9 21.6 2.9 21.8 3.2 C 21.1 3.2 20.9 3.3 21.1 3.4 C 19.4 3.4 18.7 3.5 17.4 3.6 C 16.5 3.3 13.9 3.3 12.4 3.5 C 11.5 3.1 9.6 3.5 8.2 3.7 C 7.9 3.9 9.3 3.5 8.3 3.9 C 7.5 4.0 8.0 3.7 7.0 4.1 C 7.0 4.2 7.3 4.2 6.8 4.5 C 6.8 4.3 6.3 4.7 6.1 4.8 C 7.8 3.5 5.7 4.5 7.3 3.7 C 8.0 3.4 6.7 4.1 8.5 3.5 C 9.2 3.3 9.9 3.1 9.7 3.0 C 10.3 2.9 10.6 2.9 11.0 2.8 C 10.3 3.1 13.4 2.8 12.0 3.0 C 11.9 3.0 11.0 3.0 10.1 3.1 C 10.9 3.2 11.6 3.2 12.8 3.1 C 13.2 3.2 12.5 3.3 13.1 3.3 C 14.0 3.2 12.8 3.0 13.5 3.0 C 13.2 2.9 12.8 3.0 12.8 2.9 C 14.3 3.1 14.9 2.9 15.7 2.9 C 15.1 3.0 16.5 3.1 15.3 3.1 C 15.3 3.1 15.3 3.1 15.3 3.1 Z M 3.7 8.3 C 3.6 8.7 3.5 9.1 3.4 9.5 C 3.2 9.6 3.5 8.0 3.1 9.0 C 3.6 7.2 3.3 9.1 3.7 8.3 C 3.7 8.3 3.7 8.3 3.7 8.3 Z M 9.5 4.1 C 10.0 4.2 9.7 3.8 10.2 3.8 C 9.2 3.9 8.5 4.2 8.3 4.0 C 9.3 3.7 9.9 3.7 11.0 3.6 C 9.9 3.9 12.1 3.8 12.4 4.0 C 11.6 4.1 10.9 4.1 9.9 4.2 C 10.0 4.1 8.4 4.3 9.5 4.1 C 9.5 4.1 9.5 4.1 9.5 4.1 Z M 7.0 5.4 C 6.7 5.4 5.7 6.5 5.8 6.1 C 6.4 5.5 6.7 5.3 6.4 5.3 C 7.0 4.8 7.1 4.8 7.7 4.5 C 8.1 4.6 7.1 5.1 6.9 5.3 C 7.1 5.2 7.3 5.2 7.0 5.4 C 7.0 5.4 7.0 5.4 7.0 5.4 Z M 5.4 31.3 C 5.1 31.6 5.3 30.2 5.3 29.9 C 5.1 30.3 5.1 30.1 5.0 29.2 C 5.2 29.5 5.2 28.2 5.4 27.4 C 5.2 27.2 5.2 28.2 5.1 27.0 C 5.2 26.0 5.1 25.2 5.1 23.7 C 5.3 23.4 5.3 24.1 5.4 24.4 C 5.3 23.5 5.5 23.7 5.5 23.0 C 5.4 23.1 5.3 22.5 5.4 22.3 C 5.5 23.6 5.6 20.6 5.7 21.9 C 5.6 22.0 5.7 22.3 5.7 22.6 C 5.5 22.3 5.6 24.1 5.4 24.4 C 5.8 25.2 5.7 27.0 5.5 29.2 C 5.4 29.3 5.4 28.6 5.4 29.2 C 5.4 29.2 5.4 29.9 5.5 30.3 C 5.4 30.2 5.3 30.5 5.3 31.0 C 5.3 31.0 5.4 31.0 5.4 31.3 C 5.4 31.3 5.4 31.3 5.4 31.3 Z M 74.6 5.1 C 74.5 5.4 76.8 5.2 77.5 5.1 C 77.4 5.4 73.3 5.4 74.6 5.1 C 74.6 5.1 74.6 5.1 74.6 5.1 Z M 60.5 5.3 C 61.1 5.3 60.7 5.1 61.2 5.1 C 61.2 5.3 62.6 4.9 62.6 5.1 C 62.0 5.3 61.5 5.3 60.5 5.3 C 60.5 5.3 60.5 5.3 60.5 5.3 Z M 47.4 5.2 C 48.5 5.2 46.9 5.1 47.1 5.1 C 48.0 5.1 49.0 5.1 48.9 5.2 C 48.1 5.2 47.5 5.4 47.4 5.2 C 47.4 5.2 47.4 5.2 47.4 5.2 Z M 67.0 5.5 C 67.9 5.5 66.4 5.8 66.3 5.7 C 67.2 5.6 65.6 5.5 64.8 5.5 C 64.9 5.3 65.2 5.4 64.8 5.2 C 66.1 5.1 65.0 5.4 65.9 5.4 C 66.5 5.2 65.9 5.3 65.9 5.1 C 66.3 5.1 66.6 5.1 67.0 5.1 C 67.0 5.2 67.0 5.3 67.0 5.4 C 66.5 5.4 66.1 5.4 66.3 5.5 C 66.6 5.5 66.7 5.5 67.0 5.5 C 67.0 5.5 67.0 5.5 67.0 5.5 Z M 5.7 12.5 C 5.7 12.0 5.6 12.5 5.6 12.9 C 5.7 13.0 6.0 13.3 5.8 14.0 C 5.7 12.6 5.6 14.4 5.5 13.6 C 5.7 13.3 5.4 12.5 5.5 11.8 C 5.6 11.5 5.9 12.2 5.7 12.5 C 5.7 12.5 5.7 12.5 5.7 12.5 Z M 5.6 15.1 C 5.6 15.0 5.7 14.8 5.7 14.3 C 5.8 14.8 5.8 14.2 5.9 14.7 C 5.8 14.6 5.8 16.6 5.7 15.4 C 5.8 14.4 5.6 15.7 5.6 16.2 C 5.6 15.7 5.4 14.8 5.5 14.7 C 5.5 14.9 5.5 15.1 5.6 15.1 C 5.6 15.1 5.6 15.1 5.6 15.1 Z M 5.8 38.5 C 6.0 38.7 6.0 38.1 6.0 37.8 C 6.0 39.7 6.0 41.3 6.0 42.2 C 5.9 41.3 5.8 41.3 5.7 41.8 C 5.8 40.9 5.7 40.7 5.8 40.4 C 5.9 41.2 5.8 39.7 5.8 38.5 C 5.8 38.5 5.8 38.5 5.8 38.5 Z M 5.8 38.5 " fill="#000000"></path></g></svg>