<?xml version="1.0" encoding="UTF-8" standalone="no"?><svg xmlns="http://www.w3.org/2000/svg" xmlns:xlink="http://www.w3.org/1999/xlink" clip-rule="evenodd" stroke-miterlimit="10" viewBox="0 0 1024 768"><desc>SVG generated by Keynote</desc><defs></defs><g transform="matrix(1.00, 0.00, -0.00, -1.00, 0.0, 768.0)"><g><clipPath id="clip0x6080010a7800"><path d="M 0.0 768.0 L 1024.0 768.0 L 1024.0 0.0 L 0.0 0.0 Z M 0.0 768.0 "></path></clipPath><g clip-path="url(#clip0x6080010a7800)"><image xlink:href="../../AA67522E-33CB-4827-90AD-B35304285A38/assets/527288347077A8BC66C9A53B775387A8.jpeg" width="2048.00" height="1536.00" transform="matrix(0.50, 0.00, -0.00, -0.50, 0.0, 768.0)"></image></g></g><text xml:space="preserve" font-family="GillSans-Light,Gill Sans" font-size="72.0" fill="#525252" transform="matrix(1.00, 0.00, -0.00, -1.00, 52.2, 628.2)">A</text><text xml:space="preserve" font-family="GillSans-Light,Gill Sans" font-size="72.0" fill="#525252" transform="matrix(1.00, 0.00, -0.00, -1.00, 100.2, 628.2)">D</text><text xml:space="preserve" font-family="GillSans-Light,Gill Sans" font-size="72.0" fill="#525252" transform="matrix(1.00, 0.00, -0.00, -1.00, 153.5, 628.2)">D</text><text xml:space="preserve" font-family="GillSans-Light,Gill Sans" font-size="72.0" fill="#525252" transform="matrix(1.00, 0.00, -0.00, -1.00, 206.9, 628.2)">I</text><text xml:space="preserve" font-family="GillSans-Light,Gill Sans" font-size="72.0" fill="#525252" transform="matrix(1.00, 0.00, -0.00, -1.00, 221.8, 628.2)">N</text><text xml:space="preserve" font-family="GillSans-Light,Gill Sans" font-size="72.0" fill="#525252" transform="matrix(1.00, 0.00, -0.00, -1.00, 277.3, 628.2)">G</text><text xml:space="preserve" font-family="GillSans-Light,Gill Sans" font-size="72.0" fill="#525252" transform="matrix(1.00, 0.00, -0.00, -1.00, 329.1, 628.2)"> </text><text xml:space="preserve" font-family="GillSans-Light,Gill Sans" font-size="72.0" fill="#525252" transform="matrix(1.00, 0.00, -0.00, -1.00, 339.0, 628.2)">V</text><text xml:space="preserve" font-family="GillSans-Light,Gill Sans" font-size="72.0" fill="#525252" transform="matrix(1.00, 0.00, -0.00, -1.00, 379.0, 628.2)">O</text><text xml:space="preserve" font-family="GillSans-Light,Gill Sans" font-size="72.0" fill="#525252" transform="matrix(1.00, 0.00, -0.00, -1.00, 438.3, 628.2)">L</text><text xml:space="preserve" font-family="GillSans-Light,Gill Sans" font-size="72.0" fill="#525252" transform="matrix(1.00, 0.00, -0.00, -1.00, 472.1, 628.2)">U</text><text xml:space="preserve" font-family="GillSans-Light,Gill Sans" font-size="72.0" fill="#525252" transform="matrix(1.00, 0.00, -0.00, -1.00, 522.3, 628.2)">M</text><text xml:space="preserve" font-family="GillSans-Light,Gill Sans" font-size="72.0" fill="#525252" transform="matrix(1.00, 0.00, -0.00, -1.00, 578.5, 628.2)">E</text><text xml:space="preserve" font-family="GillSans-Light,Gill Sans" font-size="72.0" fill="#525252" transform="matrix(1.00, 0.00, -0.00, -1.00, 613.9, 628.2)"> </text><text xml:space="preserve" font-family="GillSans-Light,Gill Sans" font-size="72.0" fill="#525252" transform="matrix(1.00, 0.00, -0.00, -1.00, 633.8, 628.2)">C</text><text xml:space="preserve" font-family="GillSans-Light,Gill Sans" font-size="72.0" fill="#525252" transform="matrix(1.00, 0.00, -0.00, -1.00, 682.6, 628.2)">O</text><text xml:space="preserve" font-family="GillSans-Light,Gill Sans" font-size="72.0" fill="#525252" transform="matrix(1.00, 0.00, -0.00, -1.00, 741.8, 628.2)">N</text><text xml:space="preserve" font-family="GillSans-Light,Gill Sans" font-size="72.0" fill="#525252" transform="matrix(1.00, 0.00, -0.00, -1.00, 797.4, 628.2)">T</text><text xml:space="preserve" font-family="GillSans-Light,Gill Sans" font-size="72.0" fill="#525252" transform="matrix(1.00, 0.00, -0.00, -1.00, 838.6, 628.2)">R</text><text xml:space="preserve" font-family="GillSans-Light,Gill Sans" font-size="72.0" fill="#525252" transform="matrix(1.00, 0.00, -0.00, -1.00, 878.8, 628.2)">O</text><text xml:space="preserve" font-family="GillSans-Light,Gill Sans" font-size="72.0" fill="#525252" transform="matrix(1.00, 0.00, -0.00, -1.00, 938.1, 628.2)">L</text><text xml:space="preserve" font-family="GillSans-Light,Gill Sans" font-size="36.0" fill="#525252" transform="matrix(1.00, 0.00, -0.00, -1.00, 191.4, 109.4)">A</text><text xml:space="preserve" font-family="GillSans-Light,Gill Sans" font-size="36.0" fill="#525252" transform="matrix(1.00, 0.00, -0.00, -1.00, 215.4, 109.4)">d</text><text xml:space="preserve" font-family="GillSans-Light,Gill Sans" font-size="36.0" fill="#525252" transform="matrix(1.00, 0.00, -0.00, -1.00, 233.8, 109.4)">d</text><text xml:space="preserve" font-family="GillSans-Light,Gill Sans" font-size="36.0" fill="#525252" transform="matrix(1.00, 0.00, -0.00, -1.00, 252.1, 109.4)">i</text><text xml:space="preserve" font-family="GillSans-Light,Gill Sans" font-size="36.0" fill="#525252" transform="matrix(1.00, 0.00, -0.00, -1.00, 258.9, 109.4)">n</text><text xml:space="preserve" font-family="GillSans-Light,Gill Sans" font-size="36.0" fill="#525252" transform="matrix(1.00, 0.00, -0.00, -1.00, 276.5, 109.4)">g</text><text xml:space="preserve" font-family="GillSans-Light,Gill Sans" font-size="36.0" fill="#525252" transform="matrix(1.00, 0.00, -0.00, -1.00, 291.9, 109.4)"> </text><text xml:space="preserve" font-family="GillSans-Light,Gill Sans" font-size="36.0" fill="#525252" transform="matrix(1.00, 0.00, -0.00, -1.00, 301.9, 109.4)">a</text><text xml:space="preserve" font-family="GillSans-Light,Gill Sans" font-size="36.0" fill="#525252" transform="matrix(1.00, 0.00, -0.00, -1.00, 317.2, 109.4)"> </text><text xml:space="preserve" font-family="GillSans-Light,Gill Sans" font-size="36.0" fill="#525252" transform="matrix(1.00, 0.00, -0.00, -1.00, 322.2, 109.4)">V</text><text xml:space="preserve" font-family="GillSans-Light,Gill Sans" font-size="36.0" fill="#525252" transform="matrix(1.00, 0.00, -0.00, -1.00, 343.6, 109.4)">C</text><text xml:space="preserve" font-family="GillSans-Light,Gill Sans" font-size="36.0" fill="#525252" transform="matrix(1.00, 0.00, -0.00, -1.00, 369.6, 109.4)">A</text><text xml:space="preserve" font-family="GillSans-Light,Gill Sans" font-size="36.0" fill="#525252" transform="matrix(1.00, 0.00, -0.00, -1.00, 393.6, 109.4)"> </text><text xml:space="preserve" font-family="GillSans-Light,Gill Sans" font-size="36.0" fill="#525252" transform="matrix(1.00, 0.00, -0.00, -1.00, 403.6, 109.4)">(</text><text xml:space="preserve" font-family="GillSans-Light,Gill Sans" font-size="36.0" fill="#525252" transform="matrix(1.00, 0.00, -0.00, -1.00, 415.6, 109.4)">V</text><text xml:space="preserve" font-family="GillSans-Light,Gill Sans" font-size="36.0" fill="#525252" transform="matrix(1.00, 0.00, -0.00, -1.00, 434.5, 109.4)">o</text><text xml:space="preserve" font-family="GillSans-Light,Gill Sans" font-size="36.0" fill="#525252" transform="matrix(1.00, 0.00, -0.00, -1.00, 454.0, 109.4)">l</text><text xml:space="preserve" font-family="GillSans-Light,Gill Sans" font-size="36.0" fill="#525252" transform="matrix(1.00, 0.00, -0.00, -1.00, 460.7, 109.4)">t</text><text xml:space="preserve" font-family="GillSans-Light,Gill Sans" font-size="36.0" fill="#525252" transform="matrix(1.00, 0.00, -0.00, -1.00, 471.6, 109.4)">a</text><text xml:space="preserve" font-family="GillSans-Light,Gill Sans" font-size="36.0" fill="#525252" transform="matrix(1.00, 0.00, -0.00, -1.00, 486.9, 109.4)">g</text><text xml:space="preserve" font-family="GillSans-Light,Gill Sans" font-size="36.0" fill="#525252" transform="matrix(1.00, 0.00, -0.00, -1.00, 502.3, 109.4)">e</text><text xml:space="preserve" font-family="GillSans-Light,Gill Sans" font-size="36.0" fill="#525252" transform="matrix(1.00, 0.00, -0.00, -1.00, 519.5, 109.4)"> </text><text xml:space="preserve" font-family="GillSans-Light,Gill Sans" font-size="36.0" fill="#525252" transform="matrix(1.00, 0.00, -0.00, -1.00, 529.5, 109.4)">C</text><text xml:space="preserve" font-family="GillSans-Light,Gill Sans" font-size="36.0" fill="#525252" transform="matrix(1.00, 0.00, -0.00, -1.00, 553.9, 109.4)">o</text><text xml:space="preserve" font-family="GillSans-Light,Gill Sans" font-size="36.0" fill="#525252" transform="matrix(1.00, 0.00, -0.00, -1.00, 573.4, 109.4)">n</text><text xml:space="preserve" font-family="GillSans-Light,Gill Sans" font-size="36.0" fill="#525252" transform="matrix(1.00, 0.00, -0.00, -1.00, 591.1, 109.4)">t</text><text xml:space="preserve" font-family="GillSans-Light,Gill Sans" font-size="36.0" fill="#525252" transform="matrix(1.00, 0.00, -0.00, -1.00, 601.9, 109.4)">r</text><text xml:space="preserve" font-family="GillSans-Light,Gill Sans" font-size="36.0" fill="#525252" transform="matrix(1.00, 0.00, -0.00, -1.00, 613.9, 109.4)">o</text><text xml:space="preserve" font-family="GillSans-Light,Gill Sans" font-size="36.0" fill="#525252" transform="matrix(1.00, 0.00, -0.00, -1.00, 633.4, 109.4)">l</text><text xml:space="preserve" font-family="GillSans-Light,Gill Sans" font-size="36.0" fill="#525252" transform="matrix(1.00, 0.00, -0.00, -1.00, 640.2, 109.4)">l</text><text xml:space="preserve" font-family="GillSans-Light,Gill Sans" font-size="36.0" fill="#525252" transform="matrix(1.00, 0.00, -0.00, -1.00, 647.0, 109.4)">e</text><text xml:space="preserve" font-family="GillSans-Light,Gill Sans" font-size="36.0" fill="#525252" transform="matrix(1.00, 0.00, -0.00, -1.00, 664.2, 109.4)">d</text><text xml:space="preserve" font-family="GillSans-Light,Gill Sans" font-size="36.0" fill="#525252" transform="matrix(1.00, 0.00, -0.00, -1.00, 682.5, 109.4)"> </text><text xml:space="preserve" font-family="GillSans-Light,Gill Sans" font-size="36.0" fill="#525252" transform="matrix(1.00, 0.00, -0.00, -1.00, 690.4, 109.4)">A</text><text xml:space="preserve" font-family="GillSans-Light,Gill Sans" font-size="36.0" fill="#525252" transform="matrix(1.00, 0.00, -0.00, -1.00, 714.4, 109.4)">m</text><text xml:space="preserve" font-family="GillSans-Light,Gill Sans" font-size="36.0" fill="#525252" transform="matrix(1.00, 0.00, -0.00, -1.00, 742.1, 109.4)">p</text><text xml:space="preserve" font-family="GillSans-Light,Gill Sans" font-size="36.0" fill="#525252" transform="matrix(1.00, 0.00, -0.00, -1.00, 760.5, 109.4)">l</text><text xml:space="preserve" font-family="GillSans-Light,Gill Sans" font-size="36.0" fill="#525252" transform="matrix(1.00, 0.00, -0.00, -1.00, 767.3, 109.4)">i</text><text xml:space="preserve" font-family="GillSans-Light,Gill Sans" font-size="36.0" fill="#525252" transform="matrix(1.00, 0.00, -0.00, -1.00, 774.0, 109.4)">ï¬</text><text xml:space="preserve" font-family="GillSans-Light,Gill Sans" font-size="36.0" fill="#525252" transform="matrix(1.00, 0.00, -0.00, -1.00, 791.3, 109.4)">e</text><text xml:space="preserve" font-family="GillSans-Light,Gill Sans" font-size="36.0" fill="#525252" transform="matrix(1.00, 0.00, -0.00, -1.00, 808.5, 109.4)">r</text><text xml:space="preserve" font-family="GillSans-Light,Gill Sans" font-size="36.0" fill="#525252" transform="matrix(1.00, 0.00, -0.00, -1.00, 820.5, 109.4)">)</text><image xlink:href="../../92799FB3-74B5-490D-8E31-4AE08CF0EC71/assets/5CF88CDA1552F163867F4F05227815DB.png" width="753.00" height="150.00" transform="matrix(1.00, 0.00, -0.00, -1.00, 135.5, 309.5)" opacity="0.75"></image><image xlink:href="../../92799FB3-74B5-490D-8E31-4AE08CF0EC71/assets/E512EDFD35B5DB26DE0A4B8AEB3E4833.png" width="513.00" height="299.00" transform="matrix(1.00, 0.00, -0.00, -1.00, 255.5, 533.5)"></image><path d="M 553.1 543.4 C 553.8 543.3 556.9 542.5 556.9 542.4 C 555.8 542.7 553.3 543.3 553.1 543.4 C 553.1 543.4 553.1 543.4 553.1 543.4 Z M 546.8 544.5 C 547.9 544.4 550.4 544.0 551.2 543.8 C 549.9 544.1 547.2 544.3 546.8 544.5 C 546.8 544.5 546.8 544.5 546.8 544.5 Z M 556.3 542.3 C 557.9 541.8 561.0 540.9 561.7 540.5 C 560.1 541.1 557.0 542.0 556.3 542.3 C 556.3 542.3 556.3 542.3 556.3 542.3 Z M 482.5 503.1 C 482.6 503.8 483.7 507.0 483.8 506.9 C 483.3 505.8 482.6 503.3 482.5 503.1 C 482.5 503.1 482.5 503.1 482.5 503.1 Z M 490.6 519.7 C 491.2 520.8 492.9 522.9 493.4 523.6 C 492.5 522.4 490.9 520.0 490.6 519.7 C 490.6 519.7 490.6 519.7 490.6 519.7 Z M 497.6 528.4 C 499.5 530.2 501.6 532.0 501.3 531.6 C 500.6 531.1 497.9 528.5 497.6 528.4 C 497.6 528.4 497.6 528.4 497.6 528.4 Z M 553.3 538.6 C 551.0 539.2 549.3 539.4 547.7 539.7 C 539.7 540.7 551.8 539.2 553.3 538.6 C 553.3 538.6 553.3 538.6 553.3 538.6 Z M 513.4 539.4 C 511.7 538.6 510.5 537.9 509.7 537.5 C 511.2 538.3 513.2 539.4 513.4 539.4 C 513.4 539.4 513.4 539.4 513.4 539.4 Z M 527.8 544.3 C 528.2 544.5 537.1 545.8 542.1 545.6 C 537.8 545.7 527.4 544.2 527.8 544.3 C 527.8 544.3 527.8 544.3 527.8 544.3 Z M 534.3 539.8 C 529.0 539.3 520.8 536.7 517.2 535.1 C 513.7 533.5 523.5 538.6 533.2 539.9 C 543.0 541.1 534.9 540.0 538.9 540.0 C 542.9 540.1 535.1 539.9 531.2 539.2 C 527.3 538.6 533.8 539.7 534.3 539.8 C 534.3 539.8 534.3 539.8 534.3 539.8 Z M 534.5 539.4 C 536.4 539.6 538.1 539.7 539.2 539.7 C 537.2 539.6 535.3 539.4 534.5 539.4 C 534.5 539.4 534.5 539.4 534.5 539.4 Z M 580.5 525.9 C 581.7 526.1 586.1 523.0 589.8 518.6 C 590.7 517.4 591.5 516.3 592.4 515.1 C 597.8 506.2 600.6 495.9 600.6 485.6 C 600.5 483.5 600.4 481.5 600.2 479.4 C 599.5 473.0 597.7 466.8 594.9 460.8 C 593.9 458.9 592.9 456.9 591.7 455.0 C 587.5 448.1 581.7 442.3 575.3 437.7 C 572.0 435.4 568.6 433.4 565.0 431.7 C 563.1 430.8 555.0 428.1 552.0 427.7 C 553.4 427.8 550.7 427.2 547.7 426.8 C 544.6 426.5 541.3 426.4 541.6 426.4 C 540.1 426.5 538.4 426.6 536.8 426.7 C 535.2 426.8 537.2 426.7 539.3 426.7 C 537.5 426.8 535.7 426.9 533.8 427.1 C 531.9 427.3 530.0 427.6 528.0 428.0 C 521.6 429.2 514.9 431.9 509.6 435.1 C 505.9 437.3 500.8 441.0 496.1 446.0 C 491.4 451.0 487.5 457.1 485.0 462.9 C 480.0 474.3 480.1 483.8 480.6 479.8 C 481.7 470.7 481.3 475.4 481.0 477.8 C 480.8 479.3 480.5 481.2 480.4 483.3 C 480.4 483.3 480.4 483.1 480.4 482.8 C 480.1 486.9 480.1 492.7 481.4 498.2 C 481.2 497.2 481.0 495.9 480.9 495.4 C 481.4 498.2 481.1 495.9 481.5 497.8 C 482.5 502.9 483.2 505.3 481.9 499.4 C 483.2 504.9 484.6 508.2 487.3 513.2 C 488.2 515.1 487.7 514.0 487.4 513.5 C 489.0 516.9 494.2 524.0 494.7 524.6 C 495.0 525.0 491.1 520.3 488.4 515.6 C 485.7 510.9 484.0 506.3 484.8 508.3 C 485.4 509.9 487.0 513.2 487.6 514.4 C 486.1 511.7 484.7 508.3 484.0 506.5 C 484.7 508.5 485.9 511.2 486.6 512.7 C 485.6 510.8 485.1 509.5 484.8 509.0 C 486.0 511.7 486.9 513.8 488.8 516.9 C 489.6 518.2 488.1 515.7 489.9 518.5 C 490.3 519.0 488.8 516.6 488.9 516.8 C 490.3 519.1 493.6 523.6 494.5 524.6 C 495.4 525.6 492.4 521.9 492.4 521.8 C 495.6 526.1 499.9 530.3 503.7 533.3 C 507.6 536.2 511.0 538.1 512.6 538.9 C 515.9 540.6 512.8 539.0 511.5 538.2 C 515.2 540.3 518.2 541.6 523.0 543.0 C 526.1 543.9 524.9 543.5 523.7 543.2 C 524.5 543.4 525.3 543.6 525.7 543.7 C 526.1 543.8 527.0 544.0 527.6 544.1 C 525.7 543.7 522.2 542.7 520.6 542.1 C 523.5 543.0 530.2 544.6 532.8 544.9 C 528.8 544.3 524.5 543.4 520.3 541.8 C 528.6 544.7 537.7 545.8 544.7 545.1 C 543.5 545.2 542.9 545.1 541.9 545.1 C 544.6 545.1 548.5 544.8 550.9 544.2 C 552.2 544.0 554.7 543.4 557.3 542.6 C 552.8 543.9 549.8 544.3 546.6 544.7 C 546.7 544.7 547.0 544.6 547.5 544.6 C 540.4 545.3 536.3 545.2 531.2 544.5 C 530.8 544.4 530.4 544.3 530.0 544.3 C 528.4 543.9 534.2 544.8 534.7 544.7 C 527.2 544.0 519.3 541.3 515.9 539.7 C 524.2 543.4 532.2 544.8 538.9 544.8 C 537.1 544.7 530.4 544.1 527.3 543.3 C 534.4 544.8 538.5 544.7 540.8 544.6 C 543.2 544.6 543.8 544.5 544.4 544.5 C 543.3 544.5 542.2 544.6 541.0 544.6 C 541.3 544.6 541.6 544.5 541.9 544.5 C 548.3 544.3 555.7 542.5 555.3 542.6 C 555.0 542.6 549.3 544.1 543.1 544.4 C 543.8 544.3 544.4 544.2 545.0 544.1 C 552.2 543.5 560.1 541.1 566.7 537.9 C 565.6 538.3 566.2 538.1 567.5 537.3 C 565.4 538.3 562.5 539.7 560.2 540.4 C 560.9 540.1 562.3 539.6 562.8 539.4 C 561.6 539.8 559.8 540.5 559.2 540.6 C 562.4 539.5 565.8 538.0 569.0 536.1 C 569.6 535.7 567.6 536.9 567.7 536.7 C 570.8 535.1 574.8 532.3 576.8 530.6 C 574.4 532.4 569.6 535.6 568.1 536.4 C 569.0 535.8 570.0 535.2 571.0 534.5 C 573.0 533.3 573.9 532.6 571.7 534.0 C 570.5 534.8 570.5 534.7 570.8 534.5 C 572.1 533.6 576.7 530.2 576.5 530.2 C 575.3 531.1 570.7 534.4 569.5 535.0 C 570.3 534.4 572.7 532.8 572.9 532.6 C 567.8 536.2 567.9 535.8 566.5 536.5 C 567.1 536.2 568.7 535.4 568.6 535.4 C 565.3 537.3 561.9 538.8 558.2 540.0 C 558.2 540.0 558.2 540.0 558.2 540.0 C 558.2 540.0 558.2 540.0 558.2 540.0 C 558.2 540.0 558.2 540.0 558.2 540.0 C 558.5 539.9 558.4 539.8 558.1 539.9 C 559.6 539.4 561.2 538.8 564.0 537.6 C 563.2 537.8 560.6 538.9 558.2 539.7 C 558.2 539.7 558.2 539.7 558.2 539.6 C 562.2 538.3 567.9 535.5 571.5 533.1 C 569.9 534.1 563.5 537.7 558.9 539.3 C 559.1 539.2 559.2 539.1 559.3 539.0 C 553.6 541.1 546.5 542.3 539.8 542.3 C 543.0 542.1 546.9 542.0 551.0 541.2 C 552.9 540.8 554.6 540.3 556.4 539.7 C 559.0 539.0 564.0 537.1 568.4 534.7 C 572.7 532.2 576.3 529.2 577.0 528.5 C 577.8 527.8 575.0 530.3 571.7 532.4 C 568.5 534.6 564.7 536.4 564.7 536.4 C 564.6 536.4 571.3 532.7 568.1 534.5 C 566.5 535.5 562.9 537.3 560.1 538.3 C 560.0 538.3 559.9 538.2 559.7 538.2 C 562.1 537.3 564.9 536.0 565.0 536.1 C 566.2 535.5 568.6 534.2 568.9 533.9 C 568.5 534.2 567.9 534.5 567.9 534.5 C 568.4 534.1 569.2 533.7 569.3 533.6 C 566.6 535.2 562.7 537.0 559.6 538.2 C 559.3 538.3 559.0 538.3 558.7 538.4 C 558.8 538.3 561.2 537.4 563.3 536.5 C 565.4 535.5 560.9 537.6 557.2 538.7 C 556.6 538.9 556.0 539.0 555.4 539.1 C 556.7 538.8 558.2 538.3 559.9 537.7 C 561.9 536.9 561.8 536.8 563.7 535.9 C 560.1 537.5 555.6 539.0 551.9 539.8 C 550.6 540.0 549.2 540.1 547.8 540.3 C 550.9 539.8 553.7 539.1 555.3 538.5 C 556.6 538.2 558.0 537.7 558.5 537.5 C 557.2 537.9 560.4 536.7 559.9 536.8 C 558.2 537.6 554.7 538.6 553.5 539.0 C 550.7 539.7 547.5 540.2 544.8 540.4 C 544.4 540.4 544.1 540.4 543.7 540.5 C 546.1 540.3 548.3 540.0 550.7 539.5 C 549.6 539.6 542.8 540.5 537.8 540.3 C 527.6 539.8 517.3 536.9 508.6 530.8 C 508.2 530.6 507.7 530.2 507.2 529.8 C 506.6 529.3 506.0 528.8 505.4 528.2 C 507.4 529.9 509.3 531.1 510.9 532.1 C 507.7 530.1 510.0 531.6 513.2 533.4 C 516.4 535.2 520.8 537.0 521.4 537.1 C 515.9 535.0 508.2 530.9 501.7 524.4 C 495.2 517.9 490.9 509.7 488.8 503.3 C 489.8 506.4 490.2 507.3 489.1 504.0 C 488.8 503.1 488.5 502.2 488.3 501.3 C 490.2 507.9 493.5 514.3 497.8 519.7 C 502.1 525.2 507.4 529.6 512.3 532.4 C 506.6 528.9 499.1 521.4 497.5 519.1 C 498.7 520.7 500.7 522.9 501.0 523.1 C 499.8 521.8 497.3 518.9 495.2 515.8 C 493.2 512.7 491.6 509.4 491.0 507.9 C 494.2 515.3 500.5 523.5 507.8 529.0 C 515.1 534.6 523.2 537.4 528.9 538.5 C 520.2 536.7 510.5 532.1 502.8 524.7 C 495.2 517.2 490.6 508.0 488.5 500.7 C 489.2 503.3 489.2 503.3 488.7 502.0 C 487.3 497.5 486.6 492.8 486.4 488.0 C 486.4 487.0 486.4 487.4 486.5 489.7 C 486.7 491.6 486.8 492.7 487.0 493.3 C 486.8 492.0 486.1 477.2 486.6 489.0 C 486.9 494.8 488.9 502.7 491.0 507.5 C 493.0 512.2 494.0 514.1 491.5 508.6 C 489.0 503.1 488.2 499.0 487.9 497.1 C 487.5 495.3 487.6 495.7 488.3 498.9 C 489.1 502.1 491.4 508.5 494.1 513.0 C 496.8 517.6 499.2 520.3 497.1 517.4 C 495.0 514.5 492.2 509.7 490.3 504.5 C 488.4 499.3 487.5 493.7 487.2 489.7 C 487.0 485.6 487.0 487.0 487.0 487.9 C 486.9 488.8 486.5 489.2 486.9 483.2 C 487.3 477.2 487.7 476.7 487.6 477.4 C 487.5 478.1 487.3 480.0 487.4 478.9 C 488.0 475.3 489.6 468.7 492.5 462.9 C 494.6 458.8 498.1 454.0 500.2 451.7 C 500.2 451.8 497.8 454.6 496.2 457.0 C 494.6 459.3 493.5 461.1 495.0 458.8 C 498.6 453.0 504.0 447.6 507.9 444.7 C 511.7 441.8 513.7 440.7 511.0 442.4 C 518.1 437.7 524.0 436.0 529.0 434.9 C 536.9 433.3 546.2 434.1 547.2 434.3 C 547.8 434.4 553.5 435.0 559.7 437.4 C 565.9 439.7 572.4 444.1 575.5 447.1 C 575.7 447.3 578.8 450.0 581.4 453.1 C 584.1 456.2 586.3 459.7 586.6 460.3 C 590.2 466.5 590.8 469.5 591.6 472.3 C 592.4 475.2 593.3 478.0 593.5 484.8 C 594.0 496.2 592.1 499.6 591.6 501.4 C 589.9 507.2 588.3 509.9 587.3 511.9 C 586.2 513.9 585.5 515.3 583.9 517.9 C 582.9 519.5 581.1 521.8 580.6 522.7 C 579.6 524.6 579.4 525.7 580.5 525.9 C 580.5 525.9 580.5 525.9 580.5 525.9 Z M 556.7 540.7 C 558.9 540.1 562.8 538.6 565.0 537.6 C 562.5 538.9 559.3 540.1 555.9 541.0 C 556.2 540.9 556.4 540.8 556.7 540.7 C 556.7 540.7 556.7 540.7 556.7 540.7 Z M 539.3 541.4 C 540.8 541.4 542.6 541.5 544.2 541.3 C 545.8 541.2 547.5 541.1 549.8 540.6 C 549.6 540.6 545.7 541.1 542.6 541.3 C 542.6 541.2 542.6 541.2 542.6 541.2 C 544.1 541.1 545.9 540.9 547.9 540.6 C 548.6 540.5 549.3 540.4 550.0 540.3 C 550.1 540.4 549.0 540.6 548.6 540.6 C 549.1 540.6 551.0 540.4 553.3 539.9 C 553.6 539.8 553.9 539.8 554.2 539.7 C 554.5 539.7 552.8 540.2 554.7 539.7 C 553.4 540.2 549.7 540.8 547.4 541.2 C 550.0 540.6 540.3 541.6 537.9 541.4 C 538.4 541.4 538.8 541.4 539.3 541.4 Z M 519.8 541.6 C 518.4 541.1 517.1 540.6 515.8 539.9 C 517.7 540.8 519.2 541.4 520.6 541.8 C 520.3 541.8 520.0 541.7 519.8 541.6 Z M 499.2 443.3 C 495.9 446.5 491.3 452.0 488.4 457.1 C 485.4 462.2 483.9 466.8 483.7 467.4 C 483.1 469.1 482.6 470.9 482.1 472.7 C 484.9 461.1 492.5 449.6 499.2 443.3 C 499.2 443.3 499.2 443.3 499.2 443.3 Z M 488.7 471.5 C 488.5 472.1 488.5 471.8 489.0 470.3 C 491.5 462.4 494.3 458.0 491.9 462.8 C 489.8 466.9 487.2 476.3 487.8 473.5 C 488.7 469.8 490.1 466.2 491.9 462.6 C 493.3 459.9 494.9 457.3 496.9 454.9 C 492.9 460.3 490.3 466.1 488.7 471.5 C 488.7 471.5 488.7 471.5 488.7 471.5 Z M 499.4 452.1 C 497.8 453.9 496.1 456.2 494.6 458.6 C 495.9 456.5 497.3 454.5 499.0 452.5 C 499.1 452.3 499.3 452.2 499.4 452.1 Z M 501.6 449.9 C 498.1 453.5 495.2 457.4 498.3 453.5 C 499.0 452.6 499.7 451.8 500.5 450.9 C 500.8 450.6 501.2 450.2 501.6 449.9 Z M 503.8 447.7 C 503.8 447.8 503.1 448.3 501.9 449.5 C 504.3 447.1 509.6 443.0 509.4 443.2 C 507.6 444.5 505.7 446.0 503.8 447.7 C 503.8 447.7 503.8 447.7 503.8 447.7 Z M 503.7 439.3 C 501.8 440.8 500.1 442.1 503.1 439.7 C 504.2 438.8 505.4 437.9 506.7 437.1 C 505.7 437.8 504.7 438.5 503.7 439.3 Z M 518.6 535.5 C 517.8 535.2 514.7 533.7 513.0 532.7 C 512.7 532.8 519.8 536.1 518.6 535.5 C 518.6 535.5 518.6 535.5 518.6 535.5 Z M 530.8 539.1 C 529.9 538.9 526.7 538.2 524.7 537.7 C 524.5 537.9 532.0 539.4 530.8 539.1 C 530.8 539.1 530.8 539.1 530.8 539.1 Z M 575.5 447.1 C 575.5 447.1 575.5 447.1 575.4 447.1 C 575.5 447.1 575.5 447.1 575.5 447.1 C 575.5 447.1 575.5 447.1 575.5 447.1 Z M 575.5 447.1 " fill="#A51601"></path></g></svg>