<?xml version="1.0" encoding="UTF-8" standalone="no"?><svg xmlns="http://www.w3.org/2000/svg" xmlns:xlink="http://www.w3.org/1999/xlink" clip-rule="evenodd" stroke-miterlimit="10" viewBox="0 0 1024 768"><desc>SVG generated by Keynote</desc><defs></defs><g transform="matrix(1.00, 0.00, -0.00, -1.00, 0.0, 768.0)"><path d="M 0.0 768.0 L 1024.0 768.0 L 1024.0 0.0 L 0.0 0.0 Z M 0.0 768.0 " fill="#000000"></path><image xlink:href="D6CCD7D17169193A2254706B607C734A.png" width="1044.00" height="788.00" transform="matrix(1.00, 0.00, -0.00, -1.00, -10.2, 876.0)" opacity="0.60"></image><g><clipPath id="clip0x608000eb5720"><path d="M 0.0 872.0 L 1024.0 872.0 L 1024.0 104.0 L 0.0 104.0 Z M 0.0 872.0 "></path></clipPath><g clip-path="url(#clip0x608000eb5720)"><image xlink:href="F29CA605EBC79DB993FA2021FA1ED0AA.jpeg" width="1435.00" height="786.00" transform="matrix(0.71, 0.00, -0.00, -0.71, 0.0, 768.4)"></image></g></g><text xml:space="preserve" font-family="GillSans-Light,Gill Sans" font-size="14.0" fill="#FEFFFE" transform="matrix(1.00, 0.00, -0.00, -1.00, 462.4, 185.3)">w</text><text xml:space="preserve" font-family="GillSans-Light,Gill Sans" font-size="14.0" fill="#FEFFFE" transform="matrix(1.00, 0.00, -0.00, -1.00, 472.3, 185.3)">w</text><text xml:space="preserve" font-family="GillSans-Light,Gill Sans" font-size="14.0" fill="#FEFFFE" transform="matrix(1.00, 0.00, -0.00, -1.00, 482.3, 185.3)">w</text><text xml:space="preserve" font-family="GillSans-Light,Gill Sans" font-size="14.0" fill="#FEFFFE" transform="matrix(1.00, 0.00, -0.00, -1.00, 491.4, 185.3)">.</text><text xml:space="preserve" font-family="GillSans-Light,Gill Sans" font-size="14.0" fill="#FEFFFE" transform="matrix(1.00, 0.00, -0.00, -1.00, 493.9, 185.3)">o</text><text xml:space="preserve" font-family="GillSans-Light,Gill Sans" font-size="14.0" fill="#FEFFFE" transform="matrix(1.00, 0.00, -0.00, -1.00, 501.5, 185.3)">n</text><text xml:space="preserve" font-family="GillSans-Light,Gill Sans" font-size="14.0" fill="#FEFFFE" transform="matrix(1.00, 0.00, -0.00, -1.00, 508.3, 185.3)">s</text><text xml:space="preserve" font-family="GillSans-Light,Gill Sans" font-size="14.0" fill="#FEFFFE" transform="matrix(1.00, 0.00, -0.00, -1.00, 513.3, 185.3)">o</text><text xml:space="preserve" font-family="GillSans-Light,Gill Sans" font-size="14.0" fill="#FEFFFE" transform="matrix(1.00, 0.00, -0.00, -1.00, 520.9, 185.3)">k</text><text xml:space="preserve" font-family="GillSans-Light,Gill Sans" font-size="14.0" fill="#FEFFFE" transform="matrix(1.00, 0.00, -0.00, -1.00, 526.8, 185.3)">u</text><text xml:space="preserve" font-family="GillSans-Light,Gill Sans" font-size="14.0" fill="#FEFFFE" transform="matrix(1.00, 0.00, -0.00, -1.00, 533.7, 185.3)">.</text><text xml:space="preserve" font-family="GillSans-Light,Gill Sans" font-size="14.0" fill="#FEFFFE" transform="matrix(1.00, 0.00, -0.00, -1.00, 536.2, 185.3)">c</text><text xml:space="preserve" font-family="GillSans-Light,Gill Sans" font-size="14.0" fill="#FEFFFE" transform="matrix(1.00, 0.00, -0.00, -1.00, 542.0, 185.3)">o</text><text xml:space="preserve" font-family="GillSans-Light,Gill Sans" font-size="14.0" fill="#FEFFFE" transform="matrix(1.00, 0.00, -0.00, -1.00, 549.3, 185.3)">.</text><text xml:space="preserve" font-family="GillSans-Light,Gill Sans" font-size="14.0" fill="#FEFFFE" transform="matrix(1.00, 0.00, -0.00, -1.00, 551.8, 185.3)">j</text><text xml:space="preserve" font-family="GillSans-Light,Gill Sans" font-size="14.0" fill="#FEFFFE" transform="matrix(1.00, 0.00, -0.00, -1.00, 554.4, 185.3)">p</text></g></svg>